<?xml version="1.0" encoding="UTF-8"?>
<svg width="502px" height="451px" viewBox="0 0 502 451" version="1.1" xmlns="http://www.w3.org/2000/svg" xmlns:xlink="http://www.w3.org/1999/xlink">
    <title>bitbucket-icon</title>
    <defs>
        <linearGradient x1="108.63338%" y1="30.1117195%" x2="46.9265964%" y2="65.8174868%" id="linearGradient-1">
            <stop stop-color="#0052CC" offset="18%"></stop>
            <stop stop-color="#2684FF" offset="100%"></stop>
        </linearGradient>
    </defs>
    <g id="Page-1" stroke="none" stroke-width="1" fill="none" fill-rule="evenodd">
        <g id="bitbucket-icon" transform="translate(0.989747, 0.030759)" fill-rule="nonzero">
            <path d="M17.0307594,0.0399979141 C12.2980178,-0.0197078253 7.7805119,2.01515979 4.69006039,5.60008355 C1.59960887,9.18500731 0.252557869,13.9530257 1.01025312,18.6251202 L69.0173021,431.473566 C70.7663417,441.902077 79.7507725,449.569242 90.3245755,449.658186 L416.582185,449.658186 C424.518628,449.758988 431.333413,444.034569 432.602691,436.199616 L500.60974,18.7052227 C501.367436,14.0331282 500.020385,9.26510984 496.929933,5.68018608 C493.839482,2.09526232 489.321976,0.0603947059 484.589234,0.121435437 L17.0307594,0.0399979141 Z M303.397309,298.423262 L199.264018,298.423262 L171.067927,151.114707 L328.629606,151.114707 L303.397309,298.423262 Z" id="Shape" fill="#2684FF"></path>
            <path d="M478.982057,151.114707 L328.629606,151.114707 L303.397309,298.423262 L199.264018,298.423262 L76.3066325,444.370074 C80.2038383,447.740008 85.172602,449.613942 90.3245755,449.658186 L416.662288,449.658186 C424.598731,449.758988 431.413515,444.034569 432.682794,436.199616 L478.982057,151.114707 Z" id="Path" fill="url(#linearGradient-1)"></path>
        </g>
    </g>
</svg>