<svg width="24" height="24" viewBox="0 0 24 24" fill="none" xmlns="http://www.w3.org/2000/svg">
<g clip-path="url(#clip0)">
<path fill-rule="evenodd" clip-rule="evenodd" d="M11.9231 0.0875397C5.36303 0.0875397 0.0434875 5.4061 0.0434875 11.9671C0.0434875 17.2159 3.44736 21.6689 8.16749 23.2397C8.76119 23.3496 8.97916 22.982 8.97916 22.6682C8.97916 22.3849 8.96814 21.4491 8.96303 20.4565C5.65811 21.1751 4.96073 19.0548 4.96073 19.0548C4.42034 17.6817 3.64172 17.3166 3.64172 17.3166C2.56388 16.5793 3.72296 16.5944 3.72296 16.5944C4.91588 16.6782 5.54401 17.8186 5.54401 17.8186C6.60355 19.6348 8.32309 19.1097 9.001 18.8062C9.10762 18.0384 9.41549 17.5143 9.75523 17.2176C7.1166 16.9172 4.34283 15.8986 4.34283 11.3467C4.34283 10.0497 4.8069 8.98997 5.56683 8.15803C5.44349 7.85882 5.03686 6.65056 5.68191 5.01423C5.68191 5.01423 6.67949 4.69495 8.94965 6.23193C9.89726 5.96872 10.9135 5.83672 11.9231 5.8322C12.9327 5.83672 13.9497 5.96872 14.8991 6.23193C17.1665 4.69495 18.1627 5.01423 18.1627 5.01423C18.8093 6.65056 18.4025 7.85882 18.2792 8.15803C19.0409 8.98997 19.5018 10.0497 19.5018 11.3467C19.5018 15.9094 16.7227 16.9141 14.0774 17.2082C14.5035 17.5769 14.8832 18.2998 14.8832 19.4081C14.8832 20.9976 14.8694 22.2769 14.8694 22.6682C14.8694 22.9843 15.0832 23.3548 15.6854 23.2381C20.403 21.6655 23.8025 17.2141 23.8025 11.9671C23.8025 5.4061 18.4837 0.0875397 11.9231 0.0875397Z" fill="#161514"/>
<path fill-rule="evenodd" clip-rule="evenodd" d="M4.5429 17.1441C4.51673 17.2031 4.42388 17.2208 4.33929 17.1803C4.25313 17.1415 4.20473 17.0611 4.23267 17.0018C4.25824 16.941 4.35129 16.9241 4.43726 16.9649C4.52362 17.0036 4.5728 17.0849 4.5429 17.1441Z" fill="#161514"/>
<path fill-rule="evenodd" clip-rule="evenodd" d="M5.02408 17.6807C4.96742 17.7332 4.85667 17.7089 4.78152 17.6258C4.70382 17.543 4.68926 17.4323 4.7467 17.3789C4.80513 17.3264 4.91254 17.351 4.99044 17.4338C5.06814 17.5176 5.08329 17.6276 5.02408 17.6807Z" fill="#161514"/>
<path fill-rule="evenodd" clip-rule="evenodd" d="M5.49247 18.3649C5.41968 18.4155 5.30067 18.3681 5.22709 18.2624C5.15431 18.1568 5.15431 18.0301 5.22867 17.9793C5.30244 17.9286 5.41968 17.9742 5.49424 18.0791C5.56683 18.1865 5.56683 18.3132 5.49247 18.3649Z" fill="#161514"/>
<path fill-rule="evenodd" clip-rule="evenodd" d="M6.13418 19.0259C6.06906 19.0977 5.93038 19.0784 5.82887 18.9805C5.725 18.8847 5.69608 18.7487 5.76139 18.6769C5.82729 18.6049 5.96677 18.6252 6.06906 18.7224C6.17214 18.818 6.20362 18.9549 6.13418 19.0259Z" fill="#161514"/>
<path fill-rule="evenodd" clip-rule="evenodd" d="M7.01945 19.4097C6.99073 19.5028 6.85715 19.545 6.72259 19.5055C6.58823 19.4648 6.5003 19.3558 6.52744 19.2618C6.55538 19.1681 6.68954 19.1241 6.82509 19.1664C6.95925 19.2069 7.04738 19.3151 7.01945 19.4097Z" fill="#161514"/>
<path fill-rule="evenodd" clip-rule="evenodd" d="M7.99164 19.4809C7.99498 19.5789 7.88088 19.6601 7.73963 19.6619C7.5976 19.6651 7.48271 19.5858 7.48114 19.4894C7.48114 19.3904 7.59268 19.31 7.73472 19.3076C7.87596 19.3049 7.99164 19.3835 7.99164 19.4809Z" fill="#161514"/>
<path fill-rule="evenodd" clip-rule="evenodd" d="M8.89633 19.3269C8.91325 19.4225 8.81508 19.5207 8.67482 19.5468C8.53692 19.572 8.40925 19.513 8.39174 19.4182C8.37463 19.3202 8.47456 19.222 8.61226 19.1967C8.75272 19.1723 8.87843 19.2297 8.89633 19.3269Z" fill="#161514"/>
</g>
<defs>
<clipPath id="clip0">
<rect width="24" height="23.4098" fill="white"/>
</clipPath>
</defs>
</svg>
