<svg xmlns="http://www.w3.org/2000/svg" width="24" height="24" fill="none">
    <g fill="#161514" fill-rule="evenodd" clip-path="url(#a)" clip-rule="evenodd">
        <path
            d="M12 0a12 12 0 0 0-4 23h1v-3c-3 1-4-1-4-1l-1-2c-1 0 0 0 0 0l2 1c1 2 2 1 3 1l1-2c-3 0-6-1-6-6l2-3V5l3 1a11 11 0 0 1 6 0l3-1v3l2 3c0 5-3 6-6 6l1 2v4h1a12 12 0 0 0-4-23ZM5 17H4h1ZM5 18v-1 1ZM5 18c1 0 1 0 0 0ZM6 19ZM7 19v1-1Z" />
        <path d="M8 19v1l-1-1h1ZM9 19v1l-1-1h1Z" />
    </g>
    <defs>
        <clipPath id="a">
            <path fill="#fff" d="M0 0h24v23H0z" />
        </clipPath>
    </defs>
</svg>