<svg width="30" height="30" viewBox="0 0 30 30" fill="none" xmlns="http://www.w3.org/2000/svg">
<g clip-path="url(#clip0_547_6067)">
<path fill-rule="evenodd" clip-rule="evenodd" d="M15 0C6.7125 0 0 6.7125 0 15C0 21.6375 4.29375 27.2437 10.2562 29.2313C11.0062 29.3625 11.2875 28.9125 11.2875 28.5187C11.2875 28.1625 11.2688 26.9813 11.2688 25.725C7.5 26.4188 6.525 24.8062 6.225 23.9625C6.05625 23.5312 5.325 22.2 4.6875 21.8438C4.1625 21.5625 3.4125 20.8687 4.66875 20.85C5.85 20.8312 6.69375 21.9375 6.975 22.3875C8.325 24.6562 10.4813 24.0188 11.3438 23.625C11.475 22.65 11.8687 21.9937 12.3 21.6187C8.9625 21.2437 5.475 19.95 5.475 14.2125C5.475 12.5813 6.05625 11.2312 7.0125 10.1812C6.8625 9.80625 6.3375 8.26875 7.1625 6.20625C7.1625 6.20625 8.41875 5.8125 11.2875 7.74375C12.4875 7.40625 13.7625 7.2375 15.0375 7.2375C16.3125 7.2375 17.5875 7.40625 18.7875 7.74375C21.6562 5.79375 22.9125 6.20625 22.9125 6.20625C23.7375 8.26875 23.2125 9.80625 23.0625 10.1812C24.0188 11.2312 24.6 12.5625 24.6 14.2125C24.6 19.9688 21.0938 21.2437 17.7563 21.6187C18.3 22.0875 18.7688 22.9875 18.7688 24.3938C18.7688 26.4 18.75 28.0125 18.75 28.5187C18.75 28.9125 19.0312 29.3813 19.7812 29.2313C25.7063 27.2437 30 21.6187 30 15C30 6.7125 23.2875 0 15 0Z" fill="#D9D9D9"/>
</g>
<defs>
<clipPath id="clip0_547_6067">
<rect width="30" height="30" fill="white"/>
</clipPath>
</defs>
</svg>
