<svg xmlns="http://www.w3.org/2000/svg" viewBox="0 0 36 36">
    <path fill="#191919" fill-rule="evenodd"
        d="m19.8.3-.7 9a9.3 9.3 0 0 0-2.4.1L16.3 5c0-.1 0-.3.2-.3h.8L16.9.3c0-.2 0-.3.2-.3h2.5c.1 0 .2.1.2.3Zm-6.2.4c0-.1-.2-.2-.3-.1l-2.3.8c-.1 0-.2.2-.1.3l1.9 4-.8.3c0 .1-.2.2 0 .4l1.8 4c.7-.4 1.5-.7 2.2-.9L13.6.7ZM8 3.2l5.3 7.5c-.7.5-1.3 1-1.8 1.6L8.3 9.2a.2.2 0 0 1 0-.4l.6-.5-3.2-3.2a.2.2 0 0 1 0-.3l2-1.6H8ZM3.5 7.7h-.3L2 9.9v.3l4.1 2-.3.6v.3l4.1 1.9c.3-.8.7-1.5 1.2-2.1L3.5 7.6Zm-3 5.7.3-.2 8.9 2.4c-.2.7-.4 1.5-.4 2.3L5 17.5a.2.2 0 0 1-.2-.3l.1-.8L.3 16c-.1 0-.2-.1-.2-.3l.4-2.4Zm-.3 6-.2.3.4 2.4.3.2L5.1 21l.1.7.3.2 4.3-1.2c-.3-.7-.4-1.5-.5-2.3l-9 .8Zm1.4 6.4.1-.4 8.3-3.9c.3.7.7 1.4 1.2 2L7.6 26h-.3l-.4-.7-3.7 2.6-.3-.1-1.3-2.1Zm10-1.8-6.4 6.5v.4l2 1.6h.3l2.6-3.7.5.5.4-.1 2.5-3.7a9 9 0 0 1-1.8-1.5Zm-1.2 10.5a.2.2 0 0 1-.2-.3l3.9-8.4c.7.4 1.4.7 2.2.8l-1.1 4.3c0 .2-.2.2-.3.2l-.7-.3-1.2 4.4s-.2.2-.3.1l-2.3-.8Zm6.5-7.8-.7 9.2.2.2H19c.1 0 .2-.1.2-.3l-.4-4.4h.8c.1 0 .3-.1.2-.3l-.4-4.4a8.2 8.2 0 0 1-2.4 0ZM25.8 2s0-.2-.2-.3L23.3.8l-.3.1-1.2 4.4-.7-.3c-.1 0-.3 0-.3.2l-1.1 4.3a9 9 0 0 1 2.2.8l3.9-8.4Zm5 3.7L24.4 12c-.6-.6-1.2-1.1-1.9-1.5L25 6.9c.1-.1.3-.1.4 0l.6.5 2.5-3.7c.1-.1.3-.1.4 0l1.9 1.5v.4Zm3.5 5s.1-.1 0-.2l-1.2-2.2h-.3L29 10.7l-.4-.6c0-.2-.2-.2-.3-.1l-3.6 2.6c.5.6.9 1.3 1.2 2l8.2-3.9Zm1.3 3.4.4 2.4c0 .2 0 .3-.2.3l-9.1.9c0-.9-.2-1.6-.5-2.4l4.3-1.2c.1 0 .3 0 .3.2l.1.8 4.3-1.2c.2 0 .3 0 .3.2ZM35 23c.2 0 .3 0 .3-.2l.5-2.4c0-.2-.1-.3-.2-.3l-4.5-.4.1-.8c0-.1 0-.2-.2-.3l-4.4-.3c0 .8-.2 1.6-.4 2.3l8.8 2.3Zm-2.3 5.5h-.3l-7.6-5.2c.5-.6.9-1.3 1.2-2l4 1.8c.1 0 .2.2.1.3l-.4.7 4.1 2c.1 0 .2.1.1.2l-1.2 2.2Zm-10-3.1 5.2 7.4c0 .2.2.2.3 0l2-1.5V31L27 27.7l.6-.5v-.4l-3.2-3-1.8 1.5Zm-.1 10.1c-.2.1-.3 0-.3-.1l-2.5-8.8c.8-.2 1.6-.5 2.3-.9l1.9 4c0 .2 0 .3-.2.4l-.7.2 2 4c0 .2 0 .4-.2.4l-2.3.9Z" />
</svg>