<svg width="90" height="80" viewBox="0 0 90 80" fill="none" xmlns="http://www.w3.org/2000/svg">
<path d="M52.1583 4.07177C51.4098 2.82947 50.3529 1.80175 49.0901 1.08833C47.8273 0.374901 46.4015 0 44.9511 0C43.5008 0 42.075 0.374901 40.8122 1.08833C39.5494 1.80175 38.4925 2.82947 37.7439 4.07177L25.8881 24.3781C34.9455 28.9 42.6625 35.7126 48.2728 44.1392C53.8832 52.5658 57.1918 62.3134 57.8701 72.4141H49.5457C48.8687 63.7559 45.9426 55.4246 41.0569 48.2446C36.1712 41.0646 29.4953 35.2848 21.6899 31.4772L10.7169 50.4501C15.1049 52.4181 18.9277 55.4577 21.8337 59.2894C24.7398 63.1211 26.6358 67.622 27.3475 72.3781H8.23042C8.0037 72.362 7.78453 72.2898 7.59269 72.1679C7.40085 72.046 7.24236 71.8783 7.13153 71.6799C7.02069 71.4815 6.96099 71.2586 6.95781 71.0313C6.95463 70.804 7.00807 70.5795 7.1133 70.3781L12.4106 61.3691C10.6159 59.8717 8.56475 58.7118 6.35655 57.9456L1.1133 66.9547C0.567457 67.8909 0.213096 68.9263 0.0708085 70.0007C-0.0714793 71.0751 0.00114241 72.167 0.284455 73.2131C0.567767 74.2592 1.05612 75.2385 1.72115 76.0943C2.38618 76.95 3.21462 77.6651 4.15835 78.1979C5.40177 78.8985 6.80324 79.2706 8.23042 79.279H34.4106C34.8968 73.2791 33.8254 67.2553 31.3 61.7911C28.7747 56.3269 24.881 51.6074 19.9962 48.0898L24.1583 40.8826C30.3231 45.1167 35.2772 50.8851 38.5318 57.6186C41.7863 64.352 43.2288 71.8178 42.7169 79.279H64.8971C65.4136 67.9762 62.9547 56.7359 57.7661 46.6812C52.5775 36.6265 44.8409 28.1096 35.3295 21.9817L43.7439 7.56727C43.9314 7.25312 44.2354 7.02574 44.5897 6.93463C44.9441 6.84352 45.32 6.89605 45.6358 7.08078C46.5908 7.6033 82.1944 69.7294 82.8611 70.4501C82.9785 70.6607 83.0383 70.8986 83.0343 71.1397C83.0303 71.3808 82.9627 71.6166 82.8384 71.8232C82.7141 72.0298 82.5374 72.1999 82.3262 72.3163C82.1151 72.4327 81.8769 72.4913 81.6358 72.4862H73.0592C73.1674 74.7805 73.1674 77.0688 73.0592 79.3511H81.6719C82.7655 79.3582 83.8497 79.1484 84.8617 78.7337C85.8737 78.319 86.7934 77.7078 87.5676 76.9353C88.3418 76.1628 88.9551 75.2444 89.3719 74.2333C89.7888 73.2222 90.001 72.1384 89.9962 71.0447C89.9973 69.6002 89.6115 68.1817 88.8791 66.9366L52.1583 4.07177Z" fill="#D9D9D9"/>
</svg>
