<svg width="19" height="17" viewBox="0 0 19 17" fill="none" xmlns="http://www.w3.org/2000/svg">
<path d="M11 1.02954C10.8442 0.768609 10.6242 0.552749 10.3614 0.402904C10.0986 0.253059 9.80185 0.174316 9.49999 0.174316C9.19813 0.174316 8.90139 0.253059 8.63857 0.402904C8.37575 0.552749 8.15578 0.768609 7.99999 1.02954L5.53249 5.2946C7.41756 6.24438 9.02366 7.67525 10.1913 9.44515C11.359 11.215 12.0476 13.2624 12.1887 15.3839H10.4562C10.3153 13.5654 9.70633 11.8155 8.6895 10.3074C7.67266 8.79937 6.28324 7.5854 4.65874 6.78567L2.37499 10.7707C3.28824 11.184 4.08385 11.8224 4.68868 12.6272C5.2935 13.432 5.68812 14.3774 5.83624 15.3763H1.85749C1.8103 15.373 1.76469 15.3578 1.72476 15.3322C1.68483 15.3066 1.65185 15.2714 1.62878 15.2297C1.60571 15.188 1.59329 15.1412 1.59263 15.0935C1.59196 15.0457 1.60309 14.9986 1.62499 14.9563L2.72749 13.0641C2.35396 12.7495 1.92707 12.5059 1.46749 12.345L0.376238 14.2372C0.262633 14.4339 0.188882 14.6513 0.159268 14.877C0.129655 15.1027 0.144769 15.332 0.203733 15.5517C0.262698 15.7714 0.364337 15.9771 0.502746 16.1569C0.641154 16.3366 0.813574 16.4868 1.00999 16.5987C1.26877 16.7459 1.56046 16.824 1.85749 16.8258H7.30624C7.40743 15.5656 7.18444 14.3004 6.65885 13.1527C6.13326 12.005 5.32289 11.0137 4.30624 10.2749L5.17249 8.76114C6.45553 9.65046 7.4866 10.862 8.16396 12.2763C8.84131 13.6906 9.14153 15.2587 9.03499 16.8258H13.6512C13.7587 14.4518 13.247 12.0909 12.1671 9.97906C11.0872 7.86721 9.47705 6.07836 7.49749 4.79127L9.24874 1.76372C9.28776 1.69773 9.35103 1.64998 9.42477 1.63084C9.49852 1.6117 9.57677 1.62274 9.64249 1.66154C9.84124 1.77129 17.2512 14.82 17.39 14.9714C17.4144 15.0156 17.4269 15.0656 17.426 15.1162C17.4252 15.1669 17.4112 15.2164 17.3853 15.2598C17.3594 15.3032 17.3226 15.3389 17.2787 15.3634C17.2347 15.3878 17.1852 15.4001 17.135 15.399H15.35C15.3725 15.8809 15.3725 16.3616 15.35 16.8409H17.1425C17.3701 16.8424 17.5958 16.7984 17.8064 16.7113C18.017 16.6242 18.2084 16.4958 18.3695 16.3335C18.5307 16.1713 18.6583 15.9784 18.7451 15.766C18.8318 15.5536 18.876 15.326 18.875 15.0963C18.8752 14.7929 18.7949 14.495 18.6425 14.2334L11 1.02954Z" fill="#362D59"/>
</svg>
