<svg xmlns="http://www.w3.org/2000/svg" width="19" height="17" fill="none">
    <path fill="#362D59"
        d="M11 1A1.8 1.8 0 0 0 9.5.2 1.7 1.7 0 0 0 8 1L5.5 5.3a12.1 12.1 0 0 1 6.7 10h-1.7a10.5 10.5 0 0 0-5.8-8.5l-2.3 4a6 6 0 0 1 3.4 4.6h-4a.3.3 0 0 1-.2-.2.3.3 0 0 1 0-.2l1.1-2a4 4 0 0 0-1.2-.7l-1.1 2a1.7 1.7 0 0 0 1.5 2.5h5.4a7.4 7.4 0 0 0-3-6.5l.9-1.5a9 9 0 0 1 3.8 8h4.7a13.7 13.7 0 0 0-6.2-12l1.7-3a.3.3 0 0 1 .4-.1c.2 0 7.7 13.1 7.8 13.3a.3.3 0 0 1-.1.4h-2v1.4h1.8a1.7 1.7 0 0 0 1.6-1 1.8 1.8 0 0 0 0-1.6L11 1Z" />
</svg>