<svg xmlns="http://www.w3.org/2000/svg" width="25px" height="23px" viewBox="0 0 25 23">
    <g stroke="none" stroke-width="1" fill="none" fill-rule="evenodd">
        <g transform="translate(-708.000000, -37.000000)" fill="currentColor">
            <path d="M732.5,48.9622237 C732.015555,49.2124622 731.506824,49.4261695 731.053915,49.7235559 C730.626903,50.0040468 730.292545,49.9912609 729.836644,49.7517534 C726.560854,48.0303366 722.586997,49.5495763 721.39171,52.9606735 C720.924644,54.2934901 720.934197,55.6380652 721.487931,56.9352639 C721.702588,57.4382523 721.707422,57.8638403 721.455589,58.3140869 C721.14402,58.8710729 720.818754,59.4205245 720.483936,60 C718.505985,57.9488894 717.914499,54.4898451 719.14938,51.6301401 C720.007317,49.6433015 721.423246,48.1927861 723.397629,47.2936629 C725.36453,46.3980786 727.410043,46.3391721 729.485942,46.865335 C729.843665,44.0382798 725.361653,40.0246467 721.443273,39.5775966 C715.773685,38.9307667 711.599674,42.9836708 710.941202,46.8818882 C713.968841,46.1522924 716.717025,46.6293666 719.126015,48.6279636 C718.670805,49.3625824 718.247016,50.0467426 717.794222,50.7773658 C717.628482,50.6569271 717.467115,50.5457354 717.312194,50.42621 C715.21201,48.8061671 712.963925,48.6138077 710.610411,49.7997006 C710.182134,50.0154628 709.88311,50.0050742 709.498109,49.7654526 C709.018383,49.4668104 708.501019,49.2273029 708,48.9623379 C708,48.7192915 708,48.4763593 708,48.2333129 C708.109918,47.6610294 708.211779,47.0870335 708.331136,46.5165766 C709.55819,40.6488729 715.266911,36.4503009 721.45064,37.0585447 C726.654198,37.5704376 730.957118,41.2668204 732.12835,46.3376881 C732.273143,46.9647683 732.377076,47.6010955 732.5,48.2331987 C732.5,48.4761309 732.5,48.7191773 732.5,48.9622237 Z" id="Path"></path>
        </g>
    </g>
</svg>
