
<svg width="61" height="149" xmlns="http://www.w3.org/2000/svg"><g fill="none" fill-rule="evenodd"><path d="M20.96 136.383s.703.08.703-1.143c0-1.222-2.746-84.838-2.746-84.838s.064-1.032-.606-1.635c0 0 1.692-.698 1.74.65.032 1.35 2.841 86.014 2.841 86.014s.16 1.492-1.229 1.714c-1.389.222-.702-.762-.702-.762z" fill="#A3A9B1"/><path d="M47.572 111.293c0-1.73-6.848-3.126-15.277-3.126-8.429 0-15.278 1.396-15.278 3.126l-.83.032.83.746.703.159c1.085-1.302 7.152-2.302 14.48-2.302 7.486 0 13.664 1.048 14.542 2.397h.623l.83-.603-.623-.429z" fill="#CFD2D6"/><path d="M39.782 142.017s.67.301.67-1.667c0-1.967 3.672-87.853 3.672-87.853s.16-.794-.287-.984c-.447-.19.766-.127.766-.127s.67-.207.623.872c-.048 1.08-3.465 89.108-3.465 89.108s.032 1.111-.638 1.254c-.67.127-1.341-.603-1.341-.603z" fill="#A3A9B1"/><path d="M50.957 48.212c0-.857-8.381-1.555-18.726-1.555-10.345 0-18.726.698-18.726 1.555l-.35.19s.91.365 1.324.603c.431.238 1.676 0 1.676 0 4.726-.571 11.814-.555 17.162-.635 5.347-.079 15.644.508 15.644.508h1.565l.686-.317-.255-.35z" fill="#CFD2D6"/><path d="M32.215 46.498c-11.446 0-20.721.762-20.721 1.714s9.275 1.714 20.737 1.714c11.462 0 20.737-.762 20.737-1.714s-9.29-1.714-20.753-1.714zm.048 3.253c-10.345 0-18.726-.698-18.726-1.555s8.381-1.555 18.726-1.555c10.345 0 18.726.698 18.726 1.555s-8.397 1.555-18.726 1.555z" fill="#A3A9B1" fill-rule="nonzero"/><path d="M21.647 137.16s1.07-.285.99-1.713c-.08-1.429-.559-18.092-.559-18.092l-.255-5.84s.255-.476-.894-.603c-1.166-.127.35-1.714.35-1.714h.288s.351.048.335-.523c-.032-.587-1.915-59.035-1.915-59.035s.271-.746-1.054-.92c-1.325-.175 3.337-.175 3.337-.175s-.67.35-.623 1.365c.048 1 1.772 60.177 1.772 60.177l.734 25.328s.096 1.08.878.984c.495-.064-1.692.27-2.793.635-.368.095-.527.11-.591.127z" fill="#CFD2D6"/><path d="M32.023 107.85c-9.386 0-17.017 1.555-17.017 3.475 0 1.92 7.615 3.475 17.017 3.475 9.403 0 17.018-1.555 17.018-3.475 0-1.92-7.63-3.475-17.018-3.475zm.272 6.57c-8.445 0-15.278-1.397-15.278-3.127 0-1.73 6.849-3.126 15.278-3.126s15.277 1.396 15.277 3.126-6.848 3.127-15.277 3.127z" fill="#A3A9B1" fill-rule="nonzero"/><path d="M19.14 140.271s5.093-2.301 11.654-2.428c5.189-.111 10.904.873 12.979 1.873l1.15.634s1.356-.714.494-2.078c-.91-1.429-5.156-2.492-13.936-2.54-9.45-.063-12.34 2.317-12.34 2.317s-1.597 1.19 0 2.222z" fill="#CFD2D6"/><path d="M47.78 139.287l-1.15.254-1.117.968-5.476 1.904-7.263.683-5.987-.19-6.625-1.19-2.873-1.984-.782-.445-.08 1.746c-.064 1.365.479 2.063 1.963 2.856 1.485.794 10.616 3.27 21.424 1.222 8.413-1.587 7.95-4.316 7.95-4.316l.016-1.508z" fill="#EDEEF1"/><path d="M47.636 138.763s-1.357-3.634-13.649-3.634c-9.211 0-12.564 1.127-12.564 1.127s-4.437 1.159-4.82 2.492c-.368 1.317.478 2.063 1.963 2.856 1.485.794 9.45 3.364 20.274 1.46 10.84-1.904 8.796-4.3 8.796-4.3zm-3.831 2.143s-2.602 1.396-9.978 1.666c-7.375.27-12.483-1.079-13.729-1.714-1.245-.635-2.027-1.301-1.309-2.253 0 0 2.203-2.349 10.537-2.571 5.794-.159 10.711-.206 14.607 1.428 3.64 1.54-.128 3.444-.128 3.444z" fill="#A3A9B1" fill-rule="nonzero"/><ellipse fill-opacity=".5" fill="#000" opacity=".1" cx="33.5" cy="142" rx="27.5" ry="7"/><path fill="#C7C4C5" d="M16.028 18.63l2.41-.364 5.204 34.818-2.41.365z"/><path d="M7.774.365C16.778-1.317 18.103 7.49 18.71 11.553l.99 6.57-4.822.714-.99-6.57c-.91-6.094-2.314-8.046-5.65-7.617-1.773.222-2.778 1.127-3.21 2.095-.335.761-.143 2.03.017 3.142l.016.127s-.416 1.142-2.203 1.476c-1.756.349-2.57-.746-2.57-.746l-.017-.127C.031 9.03-.287 6.856.607 4.824 1.58 2.571 2.666 1.333 7.774.365" fill="#3A4854"/><path d="M20.769 59.527l-.974-.762s-.734 3.952-.143 5.76c.59 1.81 1.117-4.998 1.117-4.998z" fill="#D6186E"/><path d="M21.376 59.543l-.607-.016s-1.437 4.713-1.373 6.395c.064 1.682 1.054 6.142 1.054 6.142l1.293-4.523-.367-7.998z" fill="#ED2785"/><path d="M21.104 60.24s-.495 5.158-.574 8.697c-.08 3.54-.272 4.174.287 6.364.559 2.19 1.453-7.84 1.676-7.84.208 0 .192-7.173.192-7.173l-1.58-.047z" fill="#ED2785"/><path d="M25.766 58.606s-2.954 1.095-4.071.841c-1.118-.238-.479 4.222-.607 7.126-.127 2.904-1.053 4.84-.399 8.03.639 3.19 1.389 4.856 1.389 4.856l2.985-8.014.703-12.839z" fill="#EF5693"/><path d="M23.004 91.282s-.67-11.49-1.118-12.775c-.447-1.286-.319-4.237-.303-4.555.016-.317 3.64-13.235 3.64-13.235l.527-2.11.527.015s1.644-.063 2.394.81c.75.872 2.379 7.57 1.788 9.934-.59 2.364-7.455 21.916-7.455 21.916z" fill="#EF5693"/><path d="M23.914 96.884s-1.293-1.762-.974-5.174c.335-3.412 5.779-19.535 6.274-23.407.495-3.873.878-9.11-2.937-9.68l2.442-1.048s2.49 3.078 2.873 15.314c.384 12.235-7.678 23.995-7.678 23.995z" fill="#EF5693"/><path d="M37.882 116.054l-.974-13.997s-2.474-15.854-2.889-18.17c-.415-2.317-2.41-11.014-2.41-11.014l-1.006 2.666-2.363 17.473-.495 2.824 10.137 20.218z" fill="#D6186E"/><path d="M35.392 129.972l-.75.27-.75-.588-.815-.888.4-1.222-5.94-14.965-3.144-8.014s-1.293-5.38-.192-8.95c1.102-3.572 6.386-20.044 6.386-20.044L28.67 89.488l-2.235 10.157.367 6.253 2.762 8.537 5.827 15.537z" fill="#ED2785"/><path d="M36.174 129.972l-8.046-22.646s-1.724-4.57-1.42-6.459c.287-1.904 1.372-6.634 1.372-6.634l4.406 8.84.926 1.301 4.486 11.712.351 2.079v10.76l-.271.761-.686.762-1.118-.476z" fill="#D6186E"/><path fill="#ED257A" d="M36.174 129.972h-.782l-6.386-16.203-2.011-2.809-1.341-7.443.463-5.538 2.554-8.506-.59 4.745-1.373 6.633.08 1.762 1.133 4.126z"/><path fill="#D6186E" d="M17.145 27.105l-1.852-1.428-.702 4.57.223.683 2.794-3.46zM20.178 27.058l1.293-2.746 2.395 5-1.277 1.586-2.49-1.174z"/><path fill="#ED2785" d="M20.003 27.312l.191-1.286 2.874 4.19-1.948 1.174z"/><path d="M33.891 129.654s1.022.508 2.714.27c1.676-.238 1.628-1.031 1.628-1.031l1.325 12.172s-.43.936-1.309 1.19c-.878.254-2.107-.333-2.139-.524l-.032-.206-2.187-11.87z" fill="#C7C4C5"/><path fill="#ED2785" d="M18.422 26.645l-1.293-.698-2.299 4.697.56 1.111 2.138-1.063z"/><path fill="#EF5693" d="M15.134 31.231l3.927-5.459 3.863 4.444-3.751 3.078-3.081-.079z"/><path d="M17.464 33.167s5.46-2.205 6.594-4.142l.782 1.968.574 4.412-6.433-.428-1.517-1.81z" fill="#ED2785"/><path fill="#D6186E" d="M10.025 45.704l.846-1.983-1.947-3.174 6.306-4.222.622 6.03z"/><path d="M15.23 36.056s.415 4.554-5.205 9.648c0 0 3.002 3.095 5.316 4.364 2.315 1.27 3.193 3.84 3.193 3.84.798 2.032 1.022 2.746 1.022 2.746l1.277.714 2.027-.618.527-9.046-8.157-11.648z" fill="#EF5693"/><path d="M25.654 56.194s1.516-.032 2.522-1.301c.4-.508.144-.667.91-1.92.766-1.254 1.724-5.031 1.724-5.031s1.054-5.427 1.916-6.348c.878-.936-13.33-5.11-13.33-5.11s-3.99-1.38-4.598-3.967c-.67-2.84.208 3.158.208 3.158l.766 1.523 7.12 8.38 2.203 5.506.559 5.11z" fill="#ED2785"/><path d="M25.654 56.194s1.644-7.982 2.347-10.03c.702-2.047 1.404-4.776 1.404-4.776S16.89 39.8 15.23 36.04c-1.66-3.761 7.646 20.694 7.646 20.694s.655.476 2.778-.54z" fill="#D6186E"/><path d="M19.731 59.162s.495 1.285 4.79.127c4.294-1.159 4.214-1.714 4.214-1.714l-.559-2.666s-1.884 1.618-5.316 1.84c-3.432.223-3.304-.079-3.304-.079l.175 2.492z" fill="#C7C4C5"/><path d="M29.198 39.658s-.718-1-.734-2.587c0 0-3.05-2.253-6.657-2.602-3.608-.365-7.28-2.46-7.184-4.888 0 0-.256 2.904.447 4.618.702 1.714 4.997 3.777 4.997 3.777l8.923 1.682h.208z" fill="#D6186E"/><path d="M18.997 26.502l-.24.016a.368.368 0 01-.383-.333l-.16-2.587c-.015-.19.144-.365.336-.38l.24-.017a.368.368 0 01.383.334l.16 2.586c.015.19-.144.365-.336.381zM21.663 25.375l-.24.048a.362.362 0 01-.43-.27l-.591-2.523a.36.36 0 01.271-.428l.24-.048a.362.362 0 01.43.27l.591 2.523c.032.19-.08.38-.271.428zM17.448 26.66l-.239.017a.368.368 0 01-.383-.334l-.16-2.586c-.016-.19.144-.365.336-.381l.239-.016a.368.368 0 01.383.333l.16 2.587c.016.19-.144.365-.336.38zM20.482 26.63l-.24.03a.372.372 0 01-.415-.3l-.399-2.556a.37.37 0 01.303-.412l.24-.032a.372.372 0 01.415.302l.399 2.555a.35.35 0 01-.303.412zM15.756 26.423h-.24c-.19 0-.366-.159-.366-.35l-.048-2.586c0-.19.16-.365.351-.365h.24c.191 0 .367.159.367.35l.048 2.586c0 .206-.16.365-.352.365z" fill="#AEADAE"/><path d="M15.006 111.325c0 1.92 7.615 3.475 17.017 3.475 9.403 0 17.018-1.555 17.018-3.475v1.746c0 2.221-7.615 3.539-17.002 3.539-9.386 0-17.033-1.81-17.033-4.031v-1.254z" fill="#EDEEF1"/><path d="M41.123 142.604s.67-.54.638-1.254c-.031-.714 3.4-89.457 3.4-89.457s-.047-.57-.574-.523c-.527.047 3.05-.238 3.05-.238s-.895.158-.943.936c-.048.762-3.56 89.124-3.56 89.124s.4.809.655.745c.24-.095-2.012.54-2.666.667z" fill="#EDEEF1"/><path fill="#CFD2D6" d="M21.886 108.167v1l1.485-.238-.032-1.08z"/><path d="M52.952 49.766c0 1.661-9.275 3-20.737 3-11.462 0-20.721-1.339-20.721-3v-2.554l2.65.992 3.688.719 4.454.496 9.93.372 5.65-.174 7.36-.471 4.773-.769 2.953-1.165v2.554z" fill="#FFF"/></g></svg>
