<svg xmlns="http://www.w3.org/2000/svg" viewBox="0 0 154 191">
  <path fill="#c6c4c5" d="M24.1 160.1l-3.2-1.4 19.9-46.2 3.2 1.3z"/>
  <path d="M44.2 109.6c-.9-.7-34.3-51.5-34.3-51.5L1.3.4s7.4 11.3 22 17.6C37.9 24.2 52 22.1 52 22.1L37.9 67.4l6.3 42.2z" fill="#ff549e"/>
  <path d="M44.1 109.6c1.2.2 62.7-10 62.7-10l46.3-34.3s-13.3 2.4-27.9-3.8c-14.6-6.2-22.8-17.8-22.8-17.9l-29 38-29.3 28z" fill="#d10d62"/>
  <path d="M44.2 109.4l-6.1-42.3 14-45.2S60 33 76.7 40.2c16.7 7.2 20.7 4.4 25.8 3.4 0 0-21.7 42.5-22.9 42s-35.4 23.8-35.4 23.8" fill="#f01f7a"/>
  <path d="M21 188.9c-12.2-4.7-7.1-16.4-4.8-21.8l3.7-8.7 6.4 2.7-3.7 8.7c-3.5 8.1-3.3 11.5 1.1 13.5 2.3 1 4.2.7 5.5-.2 1-.7 1.7-2.4 2.3-3.8l.1-.2s1.3-1.1 3.8-.1c2.4.9 2.6 2.9 2.6 2.9l-.1.2c-.9 2.1-2.1 5-4.7 6.8-3 2-5.3 2.7-12.2 0" fill="#394754"/>
  <path d="M51.7 22.8S37.1 65.7 38 67.3c.8 1.3 2.7 50.2 2.7 50.2L13.2 62.1c-2-1.8-12.1-61-12.1-61" fill="none" stroke="#c6c4c5" stroke-width="2" stroke-linecap="round" stroke-linejoin="round"/>
  <path d="M102.4 44.1L79.5 85.8l-37.7 31c2.6-1.7 60.1-16.7 60.6-17.9l50-33" fill="none" stroke="#adaaac" stroke-width="2" stroke-linecap="round" stroke-linejoin="round"/>
</svg>
