<svg version="1.1" id="error401" xmlns="http://www.w3.org/2000/svg" x="0" y="0" viewBox="0 0 226 197" xml:space="preserve">
  <style>.st1{fill:#999fa7}.st4{fill:#f01f7a}.st5{fill:#d10d62}</style>
  <path id="Fill-1" fill="#c7cbd1" fill-opacity=".737" d="M0 174.2h226v-146H0z"/>
  <path id="Fill-2" class="st1" d="M8.8 35.8c0-1.3-1.1-2.4-2.4-2.4S4 34.5 4 35.8s1.1 2.4 2.4 2.4 2.4-1.1 2.4-2.4"/>
  <path id="Fill-4" class="st1" d="M15.4 35.8c0-1.3-1.1-2.4-2.4-2.4-1.3 0-2.4 1.1-2.4 2.4s1.1 2.4 2.4 2.4c1.3 0 2.4-1.1 2.4-2.4"/>
  <path id="Fill-6" class="st1" d="M21.8 35.8c0-1.3-1.1-2.4-2.4-2.4-1.3 0-2.4 1.1-2.4 2.4s1.1 2.4 2.4 2.4c1.3 0 2.4-1.1 2.4-2.4"/>
  <path id="Fill-8" fill="#fff" d="M3.9 53.2h217.6v-11H3.9z"/>
  <path id="Fill-10" d="M112.7 89.8C111.5 89.4 84.8 49 84.8 49L59.7 12.1S84.6 9.2 99.8 7C115 4.8 136.4.1 136.4.1l-10.7 42-13 47.7z" fill="#ff549e"/>
  <path id="Fill-11" class="st4" d="M124.2 41.4l-11.5 48.4 46.6-24.1 37-22.3s-24.2-14.7-31.7-20.2C157 17.7 136.3 0 136.3 0s-4 13.8-12.1 41.4z"/>
  <path id="Fill-12" class="st5" d="M112.6 89.2L160 63.5l36.4-20.1s2.1 23.4 4.7 34.8c2.5 11.4 9.9 42.4 9.9 42.4l-54.4-18.1-44-13.3z"/>
  <path id="Fill-13" d="M112.4 88.7l53.3 16.1 45.1 15.5s-18.3 22.4-23.9 30.9c-5.6 8.5-21.7 34.8-21.7 34.8l-25.9-46.9-26.9-50.4z" fill="#c60559"/>
  <path id="Fill-14" class="st5" d="M112.3 89l29.8 50.3 23.1 46.6s-19.8.1-37.6 2.3c-17.8 2.3-40.3 7.9-40.3 7.9l11.9-52.3L112.3 89z"/>
  <path id="Fill-15" class="st4" d="M21.8 147.7l43.8-29.6 47.6-28.9-13.1 56.7-12.8 50.3s-1.5-2-3.7-3.9-25.2-19.1-30.2-22.5c-4.9-3.5-31.6-22.1-31.6-22.1"/>
  <path id="Fill-16" class="st4" d="M113.8 89.1l-54.9-11s-41.1-6.5-47.9-6c.1.6 6.5 19.9 8.7 37.8s2.2 37.8 2.2 37.8 15.9-9.6 47.6-28.8l44.3-29.8z"/><path id="Fill-17" d="M112.8 88.7L86.6 50.6 59.7 12.1C58.8 15 48 29 37.5 41.3S11 72.1 11 72.1L65.2 81l47.6 7.7z" fill="#ff6aaa"/>
  <path id="Fill-18" d="M115.8 89c-.1-1.7-1.6-3-3.3-2.9-1.7.1-3 1.6-2.9 3.4.1 1.7 1.6 3 3.3 2.9 1.7-.1 3-1.6 2.9-3.4" fill="#c6c4c5"/>
  <path id="Combined-Shape" d="M111 92c1.4.8 3.2.4 4.1-.9.9-1.2.7-2.8-.2-3.9.1 0 .2.1.2.2 1.4 1 1.8 3 .8 4.4-1 1.4-3 1.8-4.4.8-.1-.2-.3-.4-.5-.6z" fill="#68737e"/>
</svg>
