<?xml version="1.0" encoding="UTF-8"?><svg id="Layer_2" xmlns="http://www.w3.org/2000/svg" xmlns:xlink="http://www.w3.org/1999/xlink" viewBox="0 0 643.44 940.85"><defs><style>.cls-1{fill:url(#linear-gradient);}.cls-2{fill:#b3b3b3;}.cls-3{fill:#c4005c;}.cls-4{fill:#342547;}.cls-5{fill:#45315e;}.cls-6{fill:#4d4d4d;}.cls-7{fill:url(#linear-gradient-3);}.cls-8{fill:url(#linear-gradient-4);}.cls-9{fill:url(#linear-gradient-2);}.cls-10{fill:url(#linear-gradient-5);}</style><linearGradient id="linear-gradient" x1="71.04" y1="-248.63" x2="559.37" y2="-248.63" gradientTransform="translate(-102.13 371.36) rotate(9.81)" gradientUnits="userSpaceOnUse"><stop offset="0" stop-color="#7a0039"/><stop offset=".54" stop-color="#88003f"/><stop offset=".99" stop-color="#990047"/></linearGradient><linearGradient id="linear-gradient-2" x1="71.04" y1="-301.01" x2="658.43" y2="-301.01" gradientTransform="translate(-102.13 371.36) rotate(9.81)" gradientUnits="userSpaceOnUse"><stop offset="0" stop-color="#f07"/><stop offset=".36" stop-color="#fc0075"/><stop offset=".53" stop-color="#f50072"/><stop offset=".67" stop-color="#e8006c"/><stop offset=".78" stop-color="#d50063"/><stop offset=".88" stop-color="#bd0058"/><stop offset=".97" stop-color="#a0004a"/><stop offset=".99" stop-color="#990047"/></linearGradient><linearGradient id="linear-gradient-3" x1="71.04" y1="-196.56" x2="78.01" y2="-196.56" gradientTransform="translate(-102.13 371.36) rotate(9.81)" gradientUnits="userSpaceOnUse"><stop offset="0" stop-color="#f07"/><stop offset=".2" stop-color="#ef006f"/><stop offset=".59" stop-color="#c8005d"/><stop offset=".99" stop-color="#990047"/></linearGradient><linearGradient id="linear-gradient-4" x1="410.46" y1="451.1" x2="333.32" y2="800.55" gradientUnits="userSpaceOnUse"><stop offset="0" stop-color="#81488b"/><stop offset=".12" stop-color="#6d3c7b"/><stop offset=".43" stop-color="#412257"/><stop offset=".59" stop-color="#31194a"/></linearGradient><linearGradient id="linear-gradient-5" x1="199.95" y1="462.2" x2="490.85" y2="462.2" gradientUnits="userSpaceOnUse"><stop offset=".36" stop-color="#b16ebf"/><stop offset=".97" stop-color="#cb9dd3"/></linearGradient></defs><g id="Layer_4"><path class="cls-5" d="m301.85,467.56s-61.9,125.24-62.97,127.03c-1.07,1.78-9.66,7.15-16.1-10.38-6.15-16.74-41.99-112.43-45.22-121.04-.15-.41-.23-.62-.23-.62,0,0-3.59-.35-7.25-.92-3.75-.58-7.59-1.39-7.77-2.3-.36-1.79,1.13-11.47,1.72-11.47-.05-.09-.1-.27-.13-.51-.09-.69-.11-1.94-.07-3.38.09-3.63.51-8.45.79-8.55l.85-.62.12-.08s-1.76-1.89-1.69-2.28c.01-.04.06-.19.16-.42.8-1.88,4.35-9.38,5.21-10.16.29-.27.53-.45.73-.58.46-.29.67-.29.67-.29,0,0-2.92-2.8-3.52-4.72-.11-.35-.14-.68-.06-.95.52-1.74,6.8-9.16,7.15-9.24.02,0,.08.03.16.1,1.08.79,7.07,6.45,10.88,10.38,1.79,1.86,3.09,3.33,3.17,3.73.04.21.08.44.12.68.08.57.16,1.21.22,1.74.07.66.1,1.15.1,1.15,0,0,2.79.96,2.79.44s-4.27-7.85-4.01-11.95c.26-4.09,6.48-22.79,6.48-22.79l11.09,2.14s-3.93,13.24-2.86,15.75c1.07,2.5,15.03,32.2,15.03,33.99s-10.38,24.33-10.02,25.76c.36,1.43,26.48,90.89,27.55,91.96,1.08,1.08,62.62-94.98,62.62-94.98l4.29,3.38Z"/><path class="cls-4" d="m189.39,430.57l1.43,19.16s-5.4-2.25-1.43-19.16Z"/><path class="cls-1" d="m.68,193.64c49.61-11.81,85.97-1.51,107.72,33.18,47.46-21.62,86.78-15.2,117.65,20.33,48.5-30.32,90.76-18.09,128.89,22.28,49.15-26.67,91.33-23.07,125.72,14.45l1.22-7.07-46.03-136.16-394.89,3.13-23.71,16.3L.68,193.64Z"/><path class="cls-2" d="m153.55,480.44c-2.16,0-4.34-.23-6.53-.71-8.09-1.76-15-6.58-19.45-13.57-4.45-6.99-5.89-15.29-4.06-23.37l6.13-27.09,5.89,1.33-6.13,27.09c-1.47,6.5-.31,13.17,3.27,18.79,3.58,5.62,9.13,9.5,15.64,10.91,13.25,2.88,26.46-5.53,29.46-18.75L280.81,0l5.89,1.33-103.05,455.09c-3.23,14.26-16.02,24.02-30.1,24.02Z"/><path class="cls-6" d="m153.55,481.2c-2.21,0-4.45-.23-6.69-.72-8.29-1.81-15.37-6.74-19.93-13.9-4.56-7.16-6.03-15.66-4.16-23.94l6.13-27.09,7.36,1.67-6.13,27.09c-1.43,6.3-.3,12.77,3.17,18.22,3.47,5.45,8.85,9.21,15.17,10.58,12.85,2.79,25.66-5.36,28.56-18.18l17.63-77.86,7.36,1.67-17.63,77.86c-3.31,14.61-16.41,24.61-30.84,24.61Z"/><path class="cls-9" d="m483.21,269.09l-1.33,7.72c-1.97-3.14-3.93-6.13-5.88-8.97-29.9-43.43-59.04-51.64-107.83-18.64-2.93,1.98-5.93,4.11-9.01,6.39-1.88-3.14-3.8-6.12-5.78-8.95-30.94-44.75-71.07-50.72-116.04-20.06-2.93,1.97-5.87,4.12-8.83,6.42-1.74-3.15-3.54-6.11-5.4-8.88-26.96-40.21-66.19-40.76-101.93-17.62-3.03,1.96-6.05,4.09-9.02,6.39-2.13-3.17-4.29-6.21-6.47-9.07-26.41-34.73-56.84-46.22-96.8-16.73l-6.87-1.19c12.43-36.9,33.11-69.38,59.54-95.71C116.41,35.56,196.07,7.46,278.18,21.66c82.12,14.19,147.72,67.39,181.07,137.29,16.05,33.67,24.64,71.21,23.96,110.14Z"/><path class="cls-7" d="m8.88,187.1c-2.69,1.99-5.42,4.16-8.21,6.53l1.33-7.72,6.87,1.19Z"/><path class="cls-3" d="m481.12,276.87c-4.3-47.99-17.65-91.22-39.68-128.51-17.62-29.83-40.81-55.93-68.91-77.6-47.88-36.91-94.06-48.26-94.52-48.37-.41-.07-45.22-7.98-101.46,9.18-33.02,10.07-63.46,26.69-90.47,49.38C52.29,109.33,23.79,147.35,1.36,193.96l-1.36-.65c22.53-46.83,51.18-85.03,85.14-113.55,27.18-22.83,57.81-39.53,91.04-49.66,56.58-17.24,101.69-9.27,102.14-9.19.5.12,46.95,11.53,95.08,48.62,28.27,21.78,51.59,48.04,69.32,78.03,22.16,37.49,35.58,80.95,39.91,129.18l-1.5.13Z"/><path class="cls-3" d="m359.87,255.84l-1.43-.49c12.55-36.21,16.12-70.99,10.62-103.37-4.4-25.9-14.58-50.33-30.27-72.63-25.71-36.56-58.07-55.39-60.79-56.94-3.09.16-39.71,2.53-77.4,25.81-23,14.21-41.89,33.31-56.15,56.78-17.84,29.36-28.45,65.68-31.54,107.95l-1.51-.11c3.11-42.53,13.8-79.09,31.78-108.66,14.4-23.68,33.47-42.95,56.68-57.28,39.52-24.39,77.9-26,78.29-26.01h.21s.18.09.18.09c.34.19,34.52,19.18,61.45,57.44,15.83,22.48,26.11,47.13,30.55,73.26,5.55,32.64,1.96,67.68-10.68,104.15Z"/><path class="cls-3" d="m227.75,233.05c-3.51-71.28,10.21-125.07,22.34-157.63,13.15-35.32,27.35-54.04,27.49-54.22l1.2.92c-.14.18-14.22,18.77-27.3,53.9-12.07,32.42-25.72,85.97-22.22,156.96l-1.51.07Z"/><polygon class="cls-5" points="173.46 461.81 179.14 462.2 182.42 450.37 183.13 442.03 187.57 435.2 181.27 429.13 187.94 421.71 180.7 412.93 173.46 461.81"/><path class="cls-4" d="m189.39,435.13l-5.74,8.31,1.98,1.18-2.97,8.9-1.98,9.89-3.12-.24-7.48-1.54,8.23-.99,1.19-5.73-15.6-7.56c-.09-.69-.11-1.94-.07-3.38l17.05,8.17,1.39-7.97-3.68-.85-13.12-8.52.12-.08s-1.76-1.89-1.69-2.28c.01-.04.06-.19.16-.42l17.83,9.79,3.86-6.21-15.75-14.32c.46-.29.67-.29.67-.29,0,0-2.92-2.8-3.52-4.72l14.55,11.69,5.09-5.93-12.39-15.85c1.08.79,7.07,6.45,10.88,10.38l3.29,4.41.82,1.1-.6.64-6.13,6.48,6.73,5.94Z"/><path class="cls-8" d="m557.4,618.19c-1.5-7.5-7.07-15.6-10.31-22.42-9.44-19.87-19-39.67-28.56-59.47-12.19-25.24-24.42-50.45-36.66-75.66-11.49-23.66-22.99-47.31-34.51-70.96-4.41-9.06-8.82-18.12-13.24-27.19-.04-.08-.08-.16-.11-.24-5.81-11.98-10.39-26.34-22.71-33.13-5.24-2.89-10.76-4.38-16.04-4.78-.53-.04-1.05-.08-1.58-.1-3.16-.12-6.22.14-9.04.73-.73.15-1.44.32-2.14.51-.43.12-.84.24-1.25.37-11.6,3.71-52.85,60.42-65.71,77.33,41.58,29.86,58.79,62.8,66.29,90.4,4.97,18.25,5.69,34.17,6.4,45.33.1,1.6.21,3.1.32,4.5-.1-.68-.22-1.36-.34-2.04-6.86-39.4-36.45-70.27-41.57-74.64-2.3-1.97-12.17-10.14-22.5-18.68-13.11-10.85-26.95-22.27-26.95-22.27,0,0-35.34,46.53-48.09,63.34,3.74,2.45,7.11,5.02,10.15,7.65.25.22.5.45.76.68,26.8,23.78,27.23,53.15,26.87,60.47,0,.1,0,.21,0,.32-.05.9-.11,1.39-.11,1.39l-40.14-31.48-17.23-13.52s-2.21,1.8-18.3,22.57c-22.85,31.67-4.16,43.61,0,47.24.05.04.1.09.16.13,4.43,3.86,21.92,17.76,44.49,36.22,22.84,18.69,32.19,22.33,32.19,22.33l85.15,3.63,3.64-18.69,23.88,20.25,69.57,3.63,4.16-18.69s5.71,5.19,22.84,19.73c64.91,9.87,61.27-29.59,60.23-34.79Zm-188.69-210.47l24.1-51.69s0,.01.01.03c.17.83,6.45,18.28,14.8,41.79.36,1.04.74,2.1,1.12,3.17,6.65,18.98,14.42,41.23,22.06,63.16.2.55.38,1.1.57,1.65-15.34-28.08-62.66-58.11-62.66-58.11Z"/><path class="cls-10" d="m482.96,593.11c-.56.51-1.14,1-1.77,1.46-8.37,6.19-21.5,5.78-31.37,5.47-6.8-.21-13.65-.76-20.38-1.84l3.96-24.47s12.36.94,23.81,1.82,9.4-5.87,8.81-9.1c-.28-1.54-17-49.95-34.65-100.62-.19-.55-.37-1.1-.57-1.65-7.64-21.93-15.41-44.18-22.06-63.16-.38-1.07-.76-2.13-1.12-3.17-6.53-18.6-11.88-33.74-14.8-41.79t-.01-.03h0c-1.25-3.48-2.05-5.62-2.29-6.16-2.72-6.03-7.78-.58-9.53.98-1.75,1.55-26.65,34.99-34.48,45.8,91.71,80.53,54.95,199.47,54.95,199.47,0,0-39.74-1.94-69.54-3.99,20.84-94.62-33.77-132.21-33.77-132.21,0,0-11.17,14.14-18.24,23.49,46.98,48.35,24.63,107.65,24.63,107.65,0,0-17.11-.92-60.21-2.74-17.5-.74-27.44-2.23-33.08-3.75-.06-.04-.11-.09-.16-.13-4.16-3.63-22.85-15.57,0-47.24,16.09-20.77,18.3-22.57,18.3-22.57l17.23,13.52c-3.36,3.59-8.5,9.3-15.75,17.98-15.05,18.01-4.33,17.1,2.97,18.24,7.3,1.14,18.02-.23,52.69,1.28.22-2.54.33-5.01.34-7.41,0-.11,0-.22,0-.32.08-29.8-14.91-49.6-26.87-60.47-.26-.23-.51-.46-.76-.68-4.01-3.57-7.63-6.1-10.15-7.65,12.75-16.81,48.09-63.34,48.09-63.34,0,0,13.84,11.42,26.95,22.27,44.79,51.73,35.26,120.62,35.26,120.62,0,0,9.05,1,26.14,1.5,1.71-10.09,2.55-19.68,2.67-28.8.02-.82.02-1.64.02-2.46-.01-16.77-2.46-31.88-6.4-45.33-7.5-27.6-24.71-60.54-66.29-90.4,12.86-16.91,54.11-73.62,65.71-77.33.41-.13.82-.25,1.25-.37.69-.19,1.41-.36,2.14-.51,2.82-.59,5.88-.85,9.04-.73.53.02,1.05.06,1.58.1,8.64,1.04,14.58,9.72,18.52,16.64,6.14,10.79,9.48,22.96,13.5,34.63,3.06,8.9,6.12,17.81,9.19,26.71,6.7,19.47,13.4,38.94,20.11,58.42,6.09,17.68,12.19,35.35,18.3,53.03,4.72,13.63,10.82,27.25,13.94,41.53,2.68,12.21,4.31,28.39-5.86,37.81Z"/><path class="cls-5" d="m309.62,611.64l-38.98,281.48s-25.72,14.4-31.62,21.64c-5.9,7.24-9.65,13.14-8.58,14.21s50.72,4.56,73.09-4.83c1.72-33.25,18.61-312.51,18.61-312.51,0,0-6.8-4.69-12.52,0Z"/><path class="cls-5" d="m413.78,617.17v138.89l-26.57,174.45s50.73,14.56,76.09,9.13c-3.62-12.08-12.44-23.15-33.67-36.14,1.75-23.23,9.74-146.14,9.74-146.14l-12.99-141.39s-7.21-4.83-12.6,1.21Z"/><path class="cls-5" d="m587.33,593.49l-15.34,13.44-2.52-3.36-95.53-124.35s1.52-5.03,6.36-5.68c0,0,66.68,75.69,96.84,108.03,3.72,3.98,6.85,7.31,9.17,9.75.32.67.66,1.39,1.02,2.17Z"/><path class="cls-5" d="m642.71,787.09c-2.79,7.7-5.97,12.09-5.97,12.09l-6.57-1s3.32-9.69,3.11-10.75c-.2-1.07-.85-12.39-.85-12.39l-6.52,15.26-16.81,12.52-2.11-2.73-.86-1.11-6.47,4.77h-.01s-3.02-4.24-3.02-4.24l-.39-.55-3.7,2.02-.17-.29-3.9-6.53s14.31-11.05,16.35-17.24c2.05-6.19,2.56-16.89,2.56-16.89,0,0-2.9,7.46-4.94,8.7-2.03,1.25-18.13,9.07-18.13,9.07l-4.27-7.88s11.88-8.75,12.41-10.74c.51-1.99,3.84-16.63,4.72-18.49.87-1.86,12.31-7.22,12.31-7.22l-40.01-129.9-.78-2.54,7.97-19.6c.16.05.33.09.48.14,3.72,3.98,6.85,7.31,9.17,9.75.32.67.66,1.39,1.02,2.17,1.4,3.11,3.06,7.1,5.07,12.25,8.84,22.61,44.12,115.36,44.12,115.36,0,0,9.59,52.77,6.19,65.99Z"/><path class="cls-4" d="m619.76,773.66c-.13.55-2.28,9.4-5.47,12.26-1.9,1.72-10.62,8.41-17.59,13.72l-.35-.57-3.84,1.75-.15-.3c5.51-3.66,17.33-11.62,19.74-14.1,3.07-3.15,7.39-12.2,7.65-12.76Z"/><path class="cls-4" d="m625.33,776.28s-5.59,12.08-9.51,16.25c-1.71,1.83-5.27,4.88-8.72,7.74l-.83-1.13-6.6,4.61h0s13.31-10.9,13.31-10.9l12.35-16.56Z"/></g></svg>