<svg xmlns="http://www.w3.org/2000/svg" id="Layer_2" viewBox="0 0 643.4 940.9">
    <defs>
        <linearGradient id="linear-gradient" x1="71" x2="559.4" y1="-248.6" y2="-248.6"
            gradientTransform="rotate(9.8 -2214.7 -409.4)" gradientUnits="userSpaceOnUse">
            <stop offset="0" stop-color="#7a0039" />
            <stop offset=".5" stop-color="#88003f" />
            <stop offset="1" stop-color="#990047" />
        </linearGradient>
        <linearGradient id="linear-gradient-2" x1="71" x2="658.4" y1="-301" y2="-301"
            gradientTransform="rotate(9.8 -2214.7 -409.4)" gradientUnits="userSpaceOnUse">
            <stop offset="0" stop-color="#f07" />
            <stop offset=".4" stop-color="#fc0075" />
            <stop offset=".5" stop-color="#f50072" />
            <stop offset=".7" stop-color="#e8006c" />
            <stop offset=".8" stop-color="#d50063" />
            <stop offset=".9" stop-color="#bd0058" />
            <stop offset="1" stop-color="#a0004a" />
            <stop offset="1" stop-color="#990047" />
        </linearGradient>
        <linearGradient id="linear-gradient-3" x1="71" x2="78" y1="-196.6" y2="-196.6"
            gradientTransform="rotate(9.8 -2214.7 -409.4)" gradientUnits="userSpaceOnUse">
            <stop offset="0" stop-color="#f07" />
            <stop offset=".2" stop-color="#ef006f" />
            <stop offset=".6" stop-color="#c8005d" />
            <stop offset="1" stop-color="#990047" />
        </linearGradient>
        <linearGradient id="linear-gradient-4" x1="410.5" x2="333.3" y1="451.1" y2="800.5"
            gradientUnits="userSpaceOnUse">
            <stop offset="0" stop-color="#81488b" />
            <stop offset=".1" stop-color="#6d3c7b" />
            <stop offset=".4" stop-color="#412257" />
            <stop offset=".6" stop-color="#31194a" />
        </linearGradient>
        <linearGradient id="linear-gradient-5" x1="199.9" x2="490.9" y1="462.2" y2="462.2"
            gradientUnits="userSpaceOnUse">
            <stop offset=".4" stop-color="#b16ebf" />
            <stop offset="1" stop-color="#cb9dd3" />
        </linearGradient>
        <style>.cls-3{fill:#c4005c}.cls-4{fill:#342547}.cls-5{fill:#45315e}</style>
    </defs>
    <g id="Layer_4">
        <path
            d="M301.9 467.6s-62 125.2-63 127c-1 1.8-9.7 7.1-16.1-10.4a50506 50506 0 0 0-45.5-121.7s-3.6-.3-7.2-.9c-3.8-.6-7.6-1.4-7.8-2.3A37 37 0 0 1 164 448l-.1-.6V444c0-3.7.4-8.5.7-8.6l.9-.6s-1.7-2-1.6-2.4l.2-.4a78 78 0 0 1 5.2-10.1l.7-.6.7-.3s-3-2.8-3.5-4.7c-.2-.4-.2-.7-.1-1a51.4 51.4 0 0 1 7.3-9.1 186.3 186.3 0 0 1 14 14 30.5 30.5 0 0 1 .4 2.5v1.2s2.9 1 2.9.4-4.3-7.9-4-12c.2-4 6.4-22.7 6.4-22.7l11.1 2.1s-3.9 13.2-2.8 15.7c1 2.5 15 32.2 15 34s-10.4 24.4-10 25.8c.3 1.4 26.5 90.9 27.5 92 1.1 1 62.7-95 62.7-95l4.2 3.4Z"
            class="cls-5" />
        <path d="m189.4 430.6 1.4 19.1s-5.4-2.2-1.4-19.1Z" class="cls-4" />
        <path
            d="M.7 193.6c49.6-11.8 86-1.5 107.7 33.2 47.5-21.6 86.8-15.2 117.7 20.3 48.5-30.3 90.7-18 128.8 22.3 49.2-26.6 91.4-23 125.8 14.5l1.2-7-46-136.3-395 3.2L17.4 160 .7 193.6Z"
            style="fill:url(#linear-gradient)" />
        <path
            d="M153.6 480.4a30.6 30.6 0 0 1-30-37.6l6-27.1 6 1.3-6.2 27.1a24.6 24.6 0 0 0 19 29.7 24.9 24.9 0 0 0 29.4-18.7L280.8 0l5.9 1.3-103 455.1a31 31 0 0 1-30.2 24Z"
            style="fill:#b3b3b3" />
        <path
            d="M153.6 481.2a31.3 31.3 0 0 1-26.7-14.6c-4.5-7.2-6-15.7-4.1-24l6.1-27 7.4 1.6-6.2 27.1a23.9 23.9 0 0 0 18.4 28.8A24.1 24.1 0 0 0 177 455l17.7-77.8 7.3 1.6-17.6 77.9a31.7 31.7 0 0 1-30.8 24.6Z"
            style="fill:#4d4d4d" />
        <path
            d="m483.2 269-1.3 7.8-5.9-9c-29.9-43.4-59-51.6-107.8-18.6-3 2-6 4.1-9 6.4a150 150 0 0 0-5.8-9c-31-44.7-71-50.7-116-20-3 2-6 4.1-8.9 6.4a120 120 0 0 0-5.4-8.9c-27-40.2-66.2-40.7-102-17.6-3 2-6 4-9 6.4-2-3.2-4.2-6.2-6.4-9C79.3 169 48.9 157.5 8.9 187L2 185.9A246.8 246.8 0 0 1 278.2 21.7a246.8 246.8 0 0 1 205 247.4Z"
            style="fill:url(#linear-gradient-2)" />
        <path d="M8.9 187.1a156 156 0 0 0-8.2 6.5L2 186l6.9 1.2Z"
            style="fill:url(#linear-gradient-3)" />
        <path
            d="M481.1 276.9c-4.3-48-17.6-91.2-39.7-128.5a273.3 273.3 0 0 0-68.9-77.6c-47.9-37-94-48.3-94.5-48.4-.4 0-45.2-8-101.5 9.2-33 10-63.4 26.7-90.4 49.4A335.3 335.3 0 0 0 1.4 194l-1.4-.7c22.5-46.8 51.2-85 85.1-113.5a257.8 257.8 0 0 1 91-49.7 239.5 239.5 0 0 1 102.2-9.2c.5.1 47 11.5 95.1 48.6 28.3 21.8 51.6 48 69.3 78 22.2 37.6 35.6 81 40 129.2l-1.6.2Z"
            class="cls-3" />
        <path
            d="m359.9 255.8-1.5-.5c12.6-36.2 16.2-71 10.7-103.3a177 177 0 0 0-30.3-72.7A206 206 0 0 0 278 22.4c-3 .2-39.7 2.5-77.4 25.8a169.4 169.4 0 0 0-56.1 56.8c-17.9 29.4-28.5 65.7-31.6 108l-1.5-.2c3.1-42.5 13.8-79 31.8-108.6a171 171 0 0 1 56.7-57.3 178 178 0 0 1 78.3-26H278.5c.4.3 34.6 19.3 61.5 57.5a178.4 178.4 0 0 1 30.5 73.3c5.6 32.6 2 67.7-10.6 104.1Z"
            class="cls-3" />
        <path
            d="M227.8 233A396.3 396.3 0 0 1 250 75.5a228 228 0 0 1 27.5-54.2l1.2 1c-.2.1-14.2 18.7-27.3 53.8-12 32.4-25.7 86-22.2 157h-1.6Z"
            class="cls-3" />
        <path d="m173.5 461.8 5.6.4 3.3-11.8.7-8.4 4.5-6.8-6.3-6.1 6.6-7.4-7.2-8.8-7.2 48.9z"
            class="cls-5" />
        <path
            d="m189.4 435.1-5.8 8.3 2 1.2-3 9-2 9.8-3-.2-7.5-1.6 8.2-1 1.2-5.7-15.6-7.6V444l17 8.1 1.4-8-3.7-.8-13.1-8.5s-1.7-2-1.6-2.4l.2-.4 17.8 9.8 3.8-6.2-15.7-14.3.7-.3s-3-2.8-3.6-4.7l14.6 11.7 5-6-12.3-15.8c1 .8 7 6.4 10.9 10.4l3.3 4.4.8 1-.6.7-6.1 6.5 6.7 6Z"
            class="cls-4" />
        <path
            d="M557.4 618.2c-1.5-7.5-7-15.6-10.3-22.4a40568.7 40568.7 0 0 0-99.7-206L434 362.4v-.2c-5.9-12-10.5-26.4-22.8-33.2a39.4 39.4 0 0 0-16-4.8h-1.6a37.4 37.4 0 0 0-12.4 1.6c-11.6 3.7-52.9 60.4-65.8 77.3 41.6 29.8 58.8 62.8 66.3 90.4 5 18.2 5.7 34.2 6.4 45.3a280.5 280.5 0 0 0 0 2.5c-6.8-39.4-36.4-70.3-41.6-74.7l-22.5-18.6c-13-10.9-27-22.3-27-22.3l-48 63.3c3.7 2.5 7.1 5 10.2 7.7l.7.7a77.5 77.5 0 0 1 26.9 60.4v.3l-.1 1.4-40.2-31.4-17.2-13.6s-2.2 1.8-18.3 22.6c-22.8 31.7-4.2 43.6 0 47.2l.2.2c4.4 3.8 21.9 17.7 44.5 36.2 22.8 18.7 32.1 22.3 32.1 22.3l85.2 3.7 3.6-18.7 24 20.2 69.5 3.6 4.1-18.6s5.8 5.1 22.9 19.7c64.9 9.9 61.3-29.6 60.2-34.8ZM368.7 407.7l24.1-51.7c.2.9 6.5 18.3 14.8 41.9l1.1 3.1 22.1 63.2.6 1.6c-15.4-28-62.7-58-62.7-58Z"
            style="fill:url(#linear-gradient-4)" />
        <path
            d="m483 593.1-1.8 1.5c-8.4 6.2-21.5 5.8-31.4 5.4a160 160 0 0 1-20.4-1.8l4-24.5 23.8 1.8c11.4.9 9.4-5.8 8.8-9-.3-1.6-17-50-34.6-100.7l-.6-1.6-22-63.2-1.2-3.1-14.8-41.8c-1.2-3.5-2-5.7-2.3-6.2-2.7-6-7.8-.6-9.5 1-1.8 1.5-26.7 35-34.5 45.8 91.7 80.5 55 199.4 55 199.4s-39.8-2-69.6-4c20.9-94.6-33.8-132.2-33.8-132.2L280 483.4c47 48.4 24.6 107.7 24.6 107.7s-17-1-60.2-2.8c-17.5-.7-27.4-2.2-33-3.7l-.2-.2c-4.2-3.6-22.9-15.5 0-47.2 16-20.8 18.3-22.6 18.3-22.6l17.2 13.5c-3.3 3.6-8.5 9.3-15.7 18-15 18-4.4 17.1 3 18.3 7.2 1.1 18-.3 52.6 1.3.2-2.6.4-5 .4-7.5v-.3c0-29.8-15-49.6-26.9-60.5l-.8-.6c-4-3.6-7.6-6.1-10.1-7.7l48-63.3 27 22.2c44.8 51.8 35.3 120.7 35.3 120.7s9 1 26.1 1.5c1.7-10.1 2.6-19.7 2.7-28.8v-2.5c0-16.8-2.4-31.9-6.4-45.3-7.5-27.6-24.7-60.6-66.3-90.4 12.9-17 54.1-73.6 65.7-77.4a37.1 37.1 0 0 1 12.5-1.6l1.5.1c8.7 1 14.6 9.8 18.6 16.7 6.1 10.8 9.4 23 13.5 34.6a205211.9 205211.9 0 0 0 47.6 138.2c4.7 13.6 10.8 27.2 14 41.5 2.6 12.2 4.2 28.4-6 37.8Z"
            style="fill:url(#linear-gradient-5)" />
        <path
            d="m309.6 611.6-39 281.5S245 907.5 239 914.8c-5.9 7.2-9.6 13.1-8.6 14.2s50.8 4.5 73.1-4.9c1.7-33.2 18.6-312.5 18.6-312.5s-6.8-4.7-12.5 0ZM413.8 617.2V756l-26.6 174.4s50.7 14.6 76.1 9.1c-3.6-12-12.4-23.1-33.7-36.1 1.8-23.2 9.8-146.1 9.8-146.1l-13-141.4s-7.2-4.9-12.6 1.2ZM587.3 593.5 572 606.9l-2.5-3.3-95.6-124.4s1.6-5 6.4-5.7a7633.8 7633.8 0 0 0 106 117.8l1 2.2Z"
            class="cls-5" />
        <path
            d="M642.7 787c-2.8 7.8-6 12.2-6 12.2l-6.5-1s3.3-9.7 3-10.8l-.8-12.4-6.5 15.3-16.8 12.5-2.1-2.7-.9-1.1-6.4 4.8-3-4.3-.5-.5-3.7 2-.1-.3-4-6.5s14.4-11 16.4-17.3c2-6.2 2.6-16.9 2.6-16.9s-3 7.5-5 8.7c-2 1.3-18 9.1-18 9.1l-4.4-7.9s12-8.7 12.4-10.7c.6-2 3.9-16.6 4.8-18.5.8-1.9 12.3-7.2 12.3-7.2l-40-130-.8-2.5 8-19.6.4.2 9.2 9.7a180.7 180.7 0 0 1 6.1 14.4c8.8 22.7 44.1 115.4 44.1 115.4s9.6 52.8 6.2 66Z"
            class="cls-5" />
        <path
            d="M619.8 773.7c-.2.5-2.3 9.4-5.5 12.2a552 552 0 0 1-17.6 13.7l-.4-.5-3.8 1.7-.1-.3a231 231 0 0 0 19.7-14c3-3.2 7.4-12.3 7.6-12.8ZM625.3 776.3s-5.6 12-9.5 16.2a116 116 0 0 1-8.7 7.8l-.8-1.2-6.6 4.6 13.3-10.9 12.3-16.5Z"
            class="cls-4" />
    </g>
</svg>