<svg width="546" height="169" viewBox="0 0 546 169" fill="none" xmlns="http://www.w3.org/2000/svg">
<path fill-rule="evenodd" clip-rule="evenodd" d="M0 54.6265C0 24.6065 24.87 0 55.4035 0C70.1778 0 83.9671 5.6595 94.3091 15.9942C104.897 26.329 110.561 40.1087 110.561 54.6265V54.8726L101.204 60.286H100.957C96.279 57.0872 90.6155 55.3647 84.952 55.6108H83.9671C69.9315 56.349 59.0971 67.914 59.0971 81.6937C59.0971 85.6307 60.082 89.8139 62.0519 93.5048C61.5594 97.1958 57.6196 103.347 55.896 105.316L55.6497 105.562L55.4035 105.316C51.2174 100.149 48.5088 94.4891 47.2776 88.5835C47.2776 88.3375 47.2161 88.0299 47.1545 87.7223C47.093 87.4147 47.0314 87.1071 47.0314 86.8611V86.3689V86.1229V85.1386V84.4004V82.678V82.1858C47.0314 77.7567 47.7701 73.5735 49.0013 69.6365V69.3904C49.4938 67.668 50.2325 65.9455 50.9712 64.4691V64.2231C51.0458 64.0741 51.1203 63.9025 51.2017 63.7152C51.3891 63.2839 51.6128 62.7692 51.9562 62.2545L52.2024 61.7624C52.3967 61.4712 52.5526 61.18 52.7005 60.904C52.9274 60.4801 53.1354 60.0919 53.4336 59.7939C53.7941 59.4336 54.1546 58.9415 54.6117 58.3175C54.7791 58.0891 54.9593 57.843 55.1573 57.5793L55.4035 57.0872C58.1121 53.6423 61.5594 50.9355 65.253 48.7209H65.4992C66.238 48.2288 66.9767 47.7367 67.7154 47.4906C68.1205 47.3171 68.5119 47.1437 68.8962 46.9734C70.1471 46.419 71.3216 45.8986 72.6401 45.5221H72.8864L75.1025 44.7839L75.8412 44.5378C76.3337 44.4148 76.7646 44.3533 77.1955 44.2918C77.6264 44.2303 78.0574 44.1687 78.5498 44.0457C78.7961 44.0457 79.1039 43.9842 79.4117 43.9227C79.7195 43.8612 80.0273 43.7996 80.2735 43.7996H80.5197C81.4148 43.7996 82.2434 43.7333 83.0401 43.6695C83.7777 43.6104 84.488 43.5536 85.1983 43.5536H85.937C89.8768 43.5536 93.8166 44.0457 97.5101 45.276C95.7865 37.4019 91.8467 30.266 85.937 24.6065C77.8111 16.4864 66.9767 12.0572 55.4035 12.0572C34.9658 12.0572 17.7291 25.8369 13.2968 45.276C19.2065 43.3075 25.6087 43.0614 32.0109 44.2918C38.6593 45.5221 44.8153 48.4749 49.9863 52.658L51.2174 53.6423L50.2325 54.8726C49.9863 55.2417 49.74 55.5493 49.4938 55.8568C49.2476 56.1644 49.0013 56.472 48.7551 56.8411C47.7701 58.5636 46.7852 60.286 45.8002 62.2545L44.8153 64.2231L43.0916 62.7467C39.398 59.3018 34.7195 57.0872 29.7948 56.1029C22.6539 54.8726 15.513 56.349 9.60327 60.286H9.35703L0 54.8726V54.6265ZM307.386 41.8034C303.031 36.756 296.761 34.1453 289.272 34.1453C273.248 34.1453 262.101 45.2844 262.101 61.2969C262.101 77.3095 273.248 88.4486 289.272 88.4486C296.935 88.4486 303.554 85.4898 307.734 80.2683V87.7524H317.662V13.6075H307.211L307.386 41.8034ZM193.652 34.6674C188.427 29.2719 182.157 26.6612 174.319 26.6612C158.818 26.6612 147.322 37.6263 147.322 52.7685C147.322 67.9108 158.644 78.8759 174.319 78.8759C181.983 78.8759 188.427 76.0911 193.652 70.6956L194 70.3475L200.967 77.1354L200.793 77.4835C194.349 84.6195 184.769 88.4486 173.796 88.4486C152.199 88.4486 136.524 73.4804 136.524 52.7685C136.524 32.0567 152.373 17.0885 173.971 17.0885C184.943 17.0885 194.523 20.9175 200.793 27.8795L200.967 28.2276L194 35.0155L193.652 34.6674ZM213.333 61.471C213.333 71.9139 220.474 79.398 230.75 79.398C241.027 79.398 248.168 72.088 248.168 61.471C248.168 50.854 241.027 43.5439 230.75 43.5439C220.474 43.5439 213.333 50.854 213.333 61.471ZM230.75 34.4934C214.553 34.4934 202.883 45.8066 202.883 61.471C202.883 77.1354 214.553 88.4486 230.75 88.4486C246.948 88.4486 258.618 77.1354 258.618 61.471C258.618 45.8066 246.774 34.4934 230.75 34.4934ZM272.377 61.2969C272.377 71.9139 279.692 79.398 289.969 79.398C300.245 79.398 307.386 71.9139 307.386 61.2969C307.386 50.6799 300.245 43.1958 289.969 43.1958C279.518 43.1958 272.377 50.6799 272.377 61.2969ZM367.301 57.2938C366.081 48.9394 359.637 43.1958 351.103 43.1958C342.394 43.1958 336.124 48.9394 335.079 57.2938H367.301ZM351.103 34.4934C335.776 34.4934 324.803 45.8066 324.803 61.471C324.803 77.3095 336.298 88.4486 353.018 88.4486C361.727 88.4486 368.868 85.4898 373.745 79.9202L373.919 79.7461L368.171 73.1323L367.823 73.4804C364.165 77.4835 359.289 79.5721 353.193 79.5721C343.439 79.5721 336.298 74.0025 334.905 65.126H376.706V64.7779C376.88 63.9077 376.88 62.6893 376.88 61.8191C377.054 45.6325 366.255 34.4934 351.103 34.4934ZM410.495 79.398C416.591 79.398 421.468 76.7873 424.603 72.088L424.777 71.7399L432.789 76.6133L432.615 76.9614C428.435 84.2714 420.423 88.4486 410.669 88.4486C394.297 88.4486 382.279 77.1354 382.279 61.471C382.279 45.8066 394.297 34.4934 410.669 34.4934C420.423 34.4934 428.435 38.6705 432.615 45.8066L432.789 46.1547L424.777 51.2021L424.603 50.854C421.468 45.9806 416.591 43.5439 410.495 43.5439C400.045 43.5439 392.729 50.854 392.729 61.471C392.729 72.088 399.871 79.398 410.495 79.398ZM464.14 79.398C453.864 79.398 446.723 71.9139 446.723 61.471C446.723 50.854 453.864 43.5439 464.14 43.5439C474.416 43.5439 481.557 50.854 481.557 61.471C481.557 72.088 474.416 79.398 464.14 79.398ZM436.272 61.471C436.272 45.8066 447.942 34.4934 464.14 34.4934C480.163 34.4934 492.007 45.8066 492.007 61.471C492.007 77.1354 480.338 88.4486 464.14 88.4486C447.942 88.4486 436.272 77.1354 436.272 61.471ZM535.898 34.4934L518.133 75.2209L500.716 34.4934H490.091L512.907 86.5341L513.082 86.7081H523.184L546 34.4934H535.898Z" fill="#F01F7A"/>
<path d="M148.67 125.245H152.963V135.41C154.178 133.345 156.689 132.049 159.484 132.049C165.073 132.049 168.556 136.382 168.556 143.267C168.556 150.152 165.073 154.486 159.484 154.486C156.527 154.486 154.016 153.109 152.801 150.922L152.68 154H148.67V125.245ZM152.639 143.267C152.639 147.884 154.867 150.8 158.39 150.8C161.833 150.8 164.101 147.884 164.101 143.267C164.101 138.569 161.873 135.613 158.39 135.613C154.867 135.613 152.639 138.569 152.639 143.267ZM168.999 132.535H173.333L179.408 149.464L185.321 132.535H189.654L181.028 156.511C180.177 158.941 178.517 160.075 175.844 160.075H172.725V156.592H175.277C176.411 156.592 177.018 156.187 177.423 155.134L178.112 153.352H176.816L168.999 132.535Z" fill="black"/>
<g clip-path="url(#clip0_6884_77)">
<path d="M239.28 131.914L228.208 120.827C226.896 119.588 225.335 118.644 223.627 118.059C219.844 116.8 216.08 117.783 213.03 120.827L201.931 131.914C200.691 133.225 199.747 134.787 199.163 136.494C197.899 140.277 198.882 144.042 201.931 147.086L213.017 158.173C214.326 159.413 215.887 160.357 217.593 160.941C218.626 161.29 219.709 161.471 220.8 161.475C223.46 161.475 226.006 160.352 228.19 158.173L239.271 147.086C240.513 145.776 241.458 144.214 242.044 142.506C243.303 138.723 242.32 134.963 239.271 131.914H239.28ZM221.457 124.044C222.295 124.313 223.067 124.754 223.723 125.34L226.998 128.62L220.61 135.003L214.222 128.615L217.516 125.317C218.399 124.438 219.645 123.505 221.466 124.04L221.457 124.044ZM205.156 138.641C205.426 137.803 205.869 137.031 206.457 136.376L209.732 133.101L216.12 139.489L209.728 145.877L206.434 142.578C205.551 141.7 204.622 140.454 205.152 138.632L205.156 138.641ZM219.754 154.942C218.915 154.676 218.143 154.234 217.489 153.647L214.222 150.407L220.61 144.015L226.998 150.403L223.704 153.701C222.821 154.58 221.58 155.513 219.754 154.979V154.942ZM236.064 140.377C235.794 141.214 235.353 141.985 234.768 142.642L231.492 145.877L225.104 139.489L231.492 133.101L234.786 136.394C235.67 137.273 236.598 138.519 236.068 140.34" fill="#00ADE4"/>
<path d="M263.188 155.11H268.91V139.23C268.91 134.333 265.933 130.718 260.855 130.718C258.381 130.718 255.731 131.814 254.353 133.83V122.051H248.636V155.096H254.353V142.569C254.353 139.643 255.821 135.982 259.251 135.982C262.273 135.982 263.188 137.672 263.188 140.422V155.11ZM286.294 145.718C286.294 149.211 283.797 151.119 280.259 151.119C278.487 151.119 276.897 149.986 276.897 148.169C276.897 146.262 278.578 145.22 280.304 145.084L286.294 144.631V145.718ZM291.06 155.477C292.036 155.509 293.005 155.29 293.873 154.843V150.665C293.635 150.721 293.392 150.752 293.148 150.756C292.197 150.756 291.834 150.348 291.834 149.256V140.499C291.906 138.882 291.674 137.265 291.15 135.733C289.791 132.19 286.339 130.921 282.302 130.921C277.033 130.921 272.811 133.282 272.494 138.592H277.989C278.125 136.412 279.665 135.235 282.302 135.235C285.523 135.235 286.294 136.73 286.294 138.954V140.408L279.344 140.893C274.849 141.21 271.356 143.797 271.356 148.291C271.356 152.151 274.26 155.69 279.892 155.69C283.249 155.69 285.972 154.059 287.064 152.151C287.245 153.923 288.604 155.463 291.055 155.463L291.06 155.477ZM308.887 136.535C309.19 136.537 309.493 136.557 309.793 136.594V131.248C309.549 131.248 309.304 131.193 309.064 131.193C306.291 131.193 303.478 132.326 302.39 135.049L301.888 131.51H297.072V155.114H302.794V143.222C302.794 139.407 304.882 136.548 308.874 136.548L308.887 136.535ZM326.792 155.124H332.469V139.362C332.469 134.46 329.515 130.921 324.477 130.921C321.758 130.921 318.94 132.054 317.531 134.546L317.124 131.506H312.371V155.11H318.043V145.492C318.043 143.494 317.998 141.043 318.818 139.181C319.588 137.454 320.907 136.186 322.896 136.186C325.89 136.186 326.796 137.867 326.796 140.635L326.792 155.124ZM351.098 140.961H340.895C340.87 139.63 341.304 138.331 342.123 137.282C342.595 136.693 343.198 136.223 343.884 135.908C344.57 135.594 345.32 135.444 346.074 135.47C346.733 135.435 347.392 135.538 348.009 135.772C348.626 136.006 349.187 136.366 349.657 136.829C350.564 137.831 351.066 139.19 351.112 140.961H351.098ZM356.784 143.503C356.875 140.553 356.467 137.876 354.741 135.284C352.793 132.335 349.612 130.931 346.133 130.931C344.738 130.89 343.35 131.135 342.054 131.649C340.758 132.164 339.58 132.939 338.594 133.925C336.329 136.24 335.191 139.597 335.191 143.367C335.191 147.227 336.46 150.539 338.816 152.808C339.801 153.765 340.968 154.514 342.247 155.013C343.526 155.511 344.892 155.749 346.264 155.712C349.259 155.712 352.208 154.761 354.206 152.401C355.112 151.309 356.068 149.451 356.204 148.042H350.767C350.576 148.799 350.183 149.49 349.63 150.04C348.815 150.856 347.818 151.173 346.182 151.173C344.871 151.169 343.615 150.648 342.685 149.723C342.097 149.109 341.641 148.382 341.344 147.586C341.047 146.79 340.916 145.942 340.959 145.093H356.739C356.739 144.59 356.784 143.503 356.784 143.503ZM364.404 138.102C364.418 137.552 364.598 137.018 364.922 136.572C365.246 136.126 365.697 135.789 366.216 135.606C366.999 135.313 367.834 135.189 368.667 135.244C369.795 135.212 370.894 135.6 371.753 136.331C372.346 136.921 372.687 137.719 372.704 138.555H378.109C378.041 136.733 377.297 135.001 376.021 133.699C374.299 131.832 371.44 130.926 368.627 130.926C365.673 130.926 363.19 131.787 361.455 133.286C360.68 133.933 360.061 134.747 359.645 135.666C359.228 136.586 359.025 137.587 359.049 138.596C359.049 141.591 361.228 144.223 364.45 144.907C366.538 145.36 368.899 145.496 370.987 145.813C372.437 146.04 373.347 146.946 373.347 148.31C373.347 150.897 370.443 151.304 368.536 151.304C366.901 151.304 365.859 150.987 364.948 150.262C364.32 149.7 363.899 148.944 363.752 148.115H358.406C358.625 149.977 359.495 151.702 360.861 152.985C362.814 154.847 365.492 155.703 368.491 155.703C371.712 155.703 374.661 154.888 376.569 152.985C377.246 152.308 377.778 151.499 378.131 150.608C378.484 149.718 378.651 148.764 378.621 147.807C378.621 144.083 375.903 141.722 372.174 141.133C369.859 140.771 369.27 140.726 367.136 140.454C365.868 140.272 364.418 139.77 364.418 138.093L364.404 138.102ZM394.482 138.546H399.869C399.801 136.724 399.057 134.992 397.781 133.69C396.054 131.832 393.196 130.926 390.4 130.926C387.451 130.926 384.964 131.787 383.229 133.286C382.454 133.933 381.835 134.747 381.419 135.666C381.002 136.586 380.798 137.587 380.823 138.596C380.823 141.591 383.002 144.223 386.223 144.907C388.312 145.36 390.672 145.496 392.761 145.813C394.211 146.04 395.121 146.946 395.121 148.31C395.121 150.897 392.213 151.304 390.31 151.304C388.674 151.304 387.632 150.987 386.722 150.262C386.094 149.7 385.673 148.944 385.526 148.115H380.161C380.381 149.978 381.252 151.703 382.621 152.985C384.57 154.847 387.247 155.703 390.246 155.703C393.468 155.703 396.417 154.888 398.324 152.985C399 152.307 399.53 151.498 399.882 150.607C400.233 149.717 400.398 148.764 400.368 147.807C400.368 144.083 397.649 141.722 393.921 141.133C391.606 140.771 391.017 140.726 388.883 140.454C387.614 140.272 386.164 139.77 386.164 138.093C386.178 137.543 386.358 137.009 386.682 136.563C387.006 136.117 387.457 135.78 387.977 135.597C388.759 135.304 389.594 135.18 390.428 135.235C391.555 135.203 392.654 135.59 393.513 136.322C394.107 136.912 394.45 137.709 394.469 138.546" fill="#231F20"/>
</g>
<defs>
<clipPath id="clip0_6884_77">
<rect width="201.735" height="43.9506" fill="white" transform="translate(198.633 117.525)"/>
</clipPath>
</defs>
</svg>
