<svg xmlns="http://www.w3.org/2000/svg" width="160" height="44" fill="none"><g clip-path="url(#C)"><mask id="A" maskUnits="userSpaceOnUse" x="0" y="0" width="160" height="44"><path d="M160 0H0V44H160V0Z" fill="#fff"/></mask><g mask="url(#A)"><mask id="B" maskUnits="userSpaceOnUse" x="0" y="0" width="160" height="44"><path d="M160 0H0V44H160V0Z" fill="#fff"/></mask><g mask="url(#B)"><path d="M137.239 41.021l-4.441-5.732h-1.106v7.684h1.122v-5.889l4.566 5.889h.981v-7.684h-1.122v5.732zm-11.181-1.426h3.979v-.998h-3.981v-2.313h4.49v-.999h-5.634v7.687h5.691v-.998h-4.547l.002-2.379zm-4.68-.974c-1.549-.373-1.982-.668-1.982-1.383 0-.644.568-1.08 1.416-1.08.773.023 1.518.291 2.127.767l.602-.851c-.771-.604-1.728-.923-2.708-.902-1.521 0-2.583.902-2.583 2.186 0 1.383.902 1.862 2.545 2.262 1.462.337 1.909.65 1.909 1.35s-.601 1.134-1.531 1.134a3.68 3.68 0 0 1-2.495-.98l-.677.809c.872.749 1.984 1.16 3.134 1.158 1.648 0 2.707-.887 2.707-2.259-.009-1.161-.695-1.783-2.464-2.21zm37.329-3.332l-2.313 3.609-2.297-3.609h-1.342l3.034 4.647v3.041h1.156V39.9L160 35.289h-1.293zm-19.439 1.04h2.518v6.647h1.155v-6.647h2.517v-1.041h-6.186l-.004 1.041z" fill="#1f1633"/><path fill-rule="evenodd" d="M150.8 39.974c1.162-.322 1.805-1.134 1.805-2.295 0-1.477-1.081-2.406-2.822-2.406h-3.417v7.696h1.144v-2.761h1.94l1.949 2.767h1.335l-2.105-2.953.171-.048zm-3.293-.752v-2.917h2.156c1.125 0 1.768.532 1.768 1.456s-.688 1.462-1.756 1.462h-2.168zm-46.255 3.728c-.081 0-.143-.022-.186-.066-.044-.051-.066-.113-.066-.186V35.54c0-.08.022-.143.066-.186.043-.051.105-.077.186-.077h3.007c.549 0 .994.091 1.338.274.351.175.607.416.768.723a2.11 2.11 0 0 1 .253 1.03 1.83 1.83 0 0 1-.154.778c-.095.212-.215.387-.362.526-.146.132-.288.234-.428.307.286.139.538.365.757.679.226.314.34.694.34 1.14 0 .402-.091.771-.274 1.107a2.04 2.04 0 0 1-.823.811c-.359.197-.804.296-1.338.296h-3.084zm.824-.888h2.117c.475 0 .841-.128 1.097-.384a1.28 1.28 0 0 0 .384-.943c0-.387-.128-.705-.384-.954-.256-.256-.622-.383-1.097-.383h-2.117v2.663zm0-3.54h2.018c.468 0 .823-.106 1.064-.318.242-.219.363-.515.363-.888s-.121-.658-.363-.855-.596-.296-1.064-.296h-2.018v2.357z" fill="#1f1633"/><path d="M110.221 42.884a.28.28 0 0 0 .187.066h.571c.081 0 .143-.022.186-.066a.25.25 0 0 0 .077-.186v-2.587l2.634-4.472c.014-.022.025-.044.031-.066s.012-.047.012-.077a.21.21 0 0 0-.066-.153.22.22 0 0 0-.164-.066h-.559c-.066 0-.126.018-.177.055a.43.43 0 0 0-.12.132l-2.14 3.551-2.14-3.551c-.021-.058-.058-.102-.109-.132-.052-.037-.11-.055-.175-.055h-.571c-.058 0-.11.022-.153.066s-.066.095-.066.153a.29.29 0 0 0 .01.077l.011.032.012.033 2.643 4.472v2.587a.28.28 0 0 0 .066.186z" fill="#1f1633"/><path d="M51.082 8.706c2.297 0 4.134.763 5.666 2.341l.102.102 2.042-1.985-.051-.102c-1.838-2.036-4.645-3.155-7.86-3.155-6.329 0-10.974 4.377-10.974 10.433S44.6 26.772 50.929 26.772c3.215 0 6.023-1.12 7.911-3.206l.051-.102-2.042-1.985-.102.102c-1.531 1.578-3.42 2.392-5.666 2.392-4.593 0-7.911-3.206-7.911-7.634s3.369-7.634 7.911-7.634zm16.537 15.42c-3.011 0-5.104-2.188-5.104-5.242 0-3.104 2.093-5.242 5.104-5.242s5.104 2.137 5.104 5.242-2.092 5.242-5.104 5.242zm0-13.13c-4.747 0-8.166 3.308-8.166 7.888s3.42 7.888 8.166 7.888 8.166-3.308 8.166-7.888-3.471-7.888-8.166-7.888zm17.353 13.13c-3.011 0-5.155-2.188-5.155-5.293s2.093-5.293 5.155-5.293c3.011 0 5.104 2.188 5.104 5.293s-2.093 5.293-5.104 5.293zm5.104-10.992c-1.276-1.476-3.113-2.239-5.308-2.239-4.696 0-7.962 3.257-7.962 7.939s3.266 7.939 7.962 7.939c2.246 0 4.185-.865 5.41-2.392v2.188h2.909V4.889h-3.062l.051 8.244zm12.811.407c2.501 0 4.389 1.679 4.746 4.122h-9.442c.306-2.443 2.144-4.122 4.696-4.122zm0-2.545c-4.492 0-7.707 3.308-7.707 7.888 0 4.631 3.369 7.888 8.268 7.888 2.552 0 4.645-.865 6.074-2.494l.051-.051-1.684-1.934-.103.102c-1.071 1.171-2.5 1.781-4.287 1.781-2.858 0-4.95-1.628-5.359-4.224h12.25v-.102c.051-.255.051-.611.051-.865.051-4.733-3.114-7.99-7.554-7.99zm21.538 10.993c-.919 1.374-2.348 2.137-4.134 2.137-3.113 0-5.206-2.137-5.206-5.242s2.144-5.242 5.206-5.242c1.786 0 3.215.713 4.134 2.137l.051.102 2.348-1.476-.051-.102c-1.225-2.086-3.573-3.308-6.431-3.308-4.798 0-8.319 3.308-8.319 7.888s3.521 7.888 8.319 7.888c2.858 0 5.206-1.221 6.431-3.359l.051-.102-2.348-1.425-.051.102zm11.586 2.137c-3.011 0-5.104-2.188-5.104-5.242 0-3.104 2.093-5.242 5.104-5.242s5.104 2.137 5.104 5.242-2.093 5.242-5.104 5.242zm0-13.13c-4.747 0-8.166 3.308-8.166 7.888s3.419 7.888 8.166 7.888 8.166-3.308 8.166-7.888-3.47-7.888-8.166-7.888zm21.028 0l-5.206 11.909-5.104-11.908h-3.113l6.686 15.217.051.051h2.96l6.686-15.267h-2.96zM16.235.91C7.288.91 0 8.105 0 16.883v.072l2.742 1.583h.072c1.732-1.151 3.824-1.583 5.917-1.223 1.443.288 2.814.935 3.896 1.943l.505.432.289-.576c.289-.576.577-1.079.866-1.583.144-.216.289-.36.433-.576l.289-.36-.361-.288c-1.515-1.223-3.319-2.086-5.267-2.446-1.876-.36-3.752-.288-5.484.288 1.299-5.684 6.35-9.713 12.339-9.713 3.391 0 6.566 1.295 8.948 3.669 1.732 1.655 2.886 3.741 3.391 6.044-1.082-.36-2.237-.504-3.391-.504h-.216c-.433 0-.866.072-1.371.072h-.072c-.144 0-.361.072-.505.072-.289.072-.505.072-.794.144l-.216.072-.649.216h-.072c-.505.144-.938.36-1.443.576-.216.072-.433.216-.649.36h-.072c-1.082.647-2.093 1.439-2.886 2.446l-.072.144c-.216.288-.361.504-.505.648s-.216.36-.361.576l-.072.144c-.144.216-.216.432-.289.576v.072c-.216.432-.433.935-.577 1.439v.072a12.21 12.21 0 0 0-.577 3.669v.144.504.216.288.072.144c0 .144.072.36.072.504.361 1.727 1.154 3.382 2.381 4.893l.072.072.072-.072c.505-.576 1.66-2.374 1.804-3.454-.577-1.079-.866-2.302-.866-3.453 0-4.029 3.175-7.411 7.288-7.627h.289c1.66-.072 3.319.432 4.69 1.367h.072l2.742-1.583v-.072c0-4.245-1.66-8.274-4.762-11.296C24.606 2.565 20.565.91 16.235.91z" fill="#f01f7a"/></g></g></g><defs><clipPath id="C"><path fill="#fff" d="M0 0h160v44H0z"/></clipPath></defs></svg>