<svg width="547" height="166" viewBox="0 0 547 166" fill="none" xmlns="http://www.w3.org/2000/svg">
<path fill-rule="evenodd" clip-rule="evenodd" d="M0.900391 55.0254C0.900391 25.0055 25.7704 0.398926 56.3039 0.398926C71.0781 0.398926 84.8675 6.05843 95.2094 16.3932C105.798 26.7279 111.461 40.5076 111.461 55.0254V55.2715L102.104 60.6849H101.858C97.1793 57.4861 91.5159 55.7636 85.8524 56.0097H84.8675C70.8319 56.7479 59.9974 68.313 59.9974 82.0926C59.9974 86.0297 60.9824 90.2128 62.9523 93.9038C62.4598 97.5947 58.52 103.746 56.7964 105.715L56.5501 105.961L56.3039 105.715C52.1178 100.548 49.4092 94.888 48.178 88.9825C48.178 88.7364 48.1165 88.4288 48.0549 88.1212C47.9934 87.8137 47.9318 87.5061 47.9318 87.26V86.7679V86.5218V85.5375V84.7993V83.0769V82.5848C47.9318 78.1556 48.6705 73.9725 49.9017 70.0354V69.7894C50.3942 68.0669 51.1329 66.3445 51.8716 64.8681V64.622C51.9462 64.473 52.0207 64.3014 52.1021 64.1141C52.2895 63.6828 52.5132 63.1682 52.8566 62.6535L53.1028 62.1613C53.297 61.8702 53.453 61.579 53.6008 61.3029C53.8278 60.8791 54.0358 60.4908 54.334 60.1928C54.6945 59.8326 55.055 59.3404 55.5121 58.7164C55.6795 58.488 55.8597 58.242 56.0576 57.9782L56.3039 57.4861C59.0125 54.0412 62.4598 51.3345 66.1534 49.1199H66.3996C67.1383 48.6277 67.8771 48.1356 68.6158 47.8895C69.0209 47.7161 69.4123 47.5426 69.7966 47.3723C71.0475 46.818 72.2219 46.2975 73.5405 45.921H73.7868L76.0029 45.1828L76.7416 44.9368C77.2341 44.8137 77.665 44.7522 78.0959 44.6907C78.5268 44.6292 78.9578 44.5677 79.4502 44.4446C79.6965 44.4446 80.0043 44.3831 80.3121 44.3216C80.6199 44.2601 80.9277 44.1986 81.1739 44.1986H81.4201C82.3152 44.1986 83.1438 44.1322 83.9405 44.0684C84.6781 44.0094 85.3884 43.9525 86.0986 43.9525H86.8374C90.7772 43.9525 94.717 44.4446 98.4105 45.675C96.6869 37.8009 92.7471 30.665 86.8374 25.0055C78.7115 16.8853 67.8771 12.4561 56.3039 12.4561C35.8661 12.4561 18.6295 26.2358 14.1972 45.675C20.1069 43.7064 26.5091 43.4604 32.9113 44.6907C39.5597 45.921 45.7157 48.8738 50.8867 53.0569L52.1178 54.0412L51.1329 55.2715C50.8867 55.6406 50.6404 55.9482 50.3942 56.2558C50.1479 56.5633 49.9017 56.8709 49.6555 57.24C48.6705 58.9625 47.6856 60.6849 46.7006 62.6535L45.7157 64.622L43.992 63.1456C40.2984 59.7007 35.6199 57.4861 30.6952 56.5018C23.5543 55.2715 16.4134 56.7479 10.5037 60.6849H10.2574L0.900391 55.2715V55.0254ZM308.286 42.2024C303.932 37.1549 297.662 34.5442 290.172 34.5442C274.149 34.5442 263.002 45.6833 263.002 61.6959C263.002 77.7084 274.149 88.8475 290.172 88.8475C297.836 88.8475 304.454 85.8887 308.634 80.6672V88.1513H318.562V14.0064H308.112L308.286 42.2024ZM194.552 35.0663C189.327 29.6708 183.057 27.0601 175.219 27.0601C159.718 27.0601 148.223 38.0252 148.223 53.1675C148.223 68.3097 159.544 79.2748 175.219 79.2748C182.883 79.2748 189.327 76.49 194.552 71.0945L194.901 70.7464L201.868 77.5343L201.693 77.8824C195.249 85.0184 185.67 88.8475 174.697 88.8475C153.1 88.8475 137.424 73.8793 137.424 53.1675C137.424 32.4556 153.274 17.4874 174.871 17.4874C185.844 17.4874 195.423 21.3165 201.693 28.2784L201.868 28.6265L194.901 35.4144L194.552 35.0663ZM214.234 61.8699C214.234 72.3129 221.375 79.797 231.651 79.797C241.927 79.797 249.068 72.4869 249.068 61.8699C249.068 51.2529 241.927 43.9429 231.651 43.9429C221.375 43.9429 214.234 51.2529 214.234 61.8699ZM231.651 34.8923C215.453 34.8923 203.783 46.2055 203.783 61.8699C203.783 77.5343 215.453 88.8475 231.651 88.8475C247.849 88.8475 259.518 77.5343 259.518 61.8699C259.518 46.2055 247.675 34.8923 231.651 34.8923ZM273.278 61.6959C273.278 72.3129 280.593 79.797 290.869 79.797C301.145 79.797 308.286 72.3129 308.286 61.6959C308.286 51.0789 301.145 43.5948 290.869 43.5948C280.419 43.5948 273.278 51.0789 273.278 61.6959ZM368.201 57.6927C366.982 49.3384 360.537 43.5948 352.003 43.5948C343.294 43.5948 337.024 49.3384 335.979 57.6927H368.201ZM352.003 34.8923C336.676 34.8923 325.703 46.2055 325.703 61.8699C325.703 77.7084 337.198 88.8475 353.919 88.8475C362.627 88.8475 369.768 85.8887 374.645 80.3191L374.819 80.1451L369.072 73.5312L368.723 73.8793C365.066 77.8824 360.189 79.971 354.093 79.971C344.339 79.971 337.198 74.4014 335.805 65.5249H377.606V65.1768C377.78 64.3066 377.78 63.0883 377.78 62.218C377.954 46.0314 367.156 34.8923 352.003 34.8923ZM411.395 79.797C417.491 79.797 422.368 77.1862 425.503 72.4869L425.677 72.1388L433.689 77.0122L433.515 77.3603C429.335 84.6703 421.323 88.8475 411.57 88.8475C395.197 88.8475 383.18 77.5343 383.18 61.8699C383.18 46.2055 395.197 34.8923 411.57 34.8923C421.323 34.8923 429.335 39.0695 433.515 46.2055L433.689 46.5536L425.677 51.601L425.503 51.2529C422.368 46.3795 417.491 43.9428 411.395 43.9428C400.945 43.9428 393.63 51.2529 393.63 61.8699C393.63 72.4869 400.771 79.797 411.395 79.797ZM465.04 79.797C454.764 79.797 447.623 72.3129 447.623 61.8699C447.623 51.2529 454.764 43.9429 465.04 43.9429C475.316 43.9429 482.457 51.2529 482.457 61.8699C482.457 72.4869 475.316 79.797 465.04 79.797ZM437.173 61.8699C437.173 46.2055 448.842 34.8923 465.04 34.8923C481.064 34.8923 492.907 46.2055 492.907 61.8699C492.907 77.5343 481.238 88.8475 465.04 88.8475C448.842 88.8475 437.173 77.5343 437.173 61.8699ZM536.798 34.8923L519.033 75.6198L501.616 34.8923H490.991L513.808 86.933L513.982 87.107H524.084L546.9 34.8923H536.798Z" fill="#F01F7A"/>
<path d="M149.57 125.644H153.863V135.809C155.078 133.744 157.589 132.448 160.384 132.448C165.973 132.448 169.456 136.781 169.456 143.666C169.456 150.551 165.973 154.885 160.384 154.885C157.427 154.885 154.916 153.508 153.701 151.321L153.58 154.399H149.57V125.644ZM153.539 143.666C153.539 148.283 155.767 151.199 159.29 151.199C162.733 151.199 165.001 148.283 165.001 143.666C165.001 138.968 162.773 136.012 159.29 136.012C155.767 136.012 153.539 138.968 153.539 143.666ZM169.9 132.934H174.233L180.308 149.863L186.221 132.934H190.555L181.928 156.91C181.078 159.34 179.417 160.474 176.744 160.474H173.626V156.991H176.177C177.311 156.991 177.919 156.586 178.324 155.533L179.012 153.751H177.716L169.9 132.934Z" fill="white"/>
<g clip-path="url(#clip0_6884_75)">
<path d="M240.181 132.313L229.108 121.226C227.797 119.987 226.235 119.043 224.528 118.458C220.745 117.199 216.98 118.182 213.931 121.226L202.831 132.313C201.591 133.624 200.648 135.186 200.063 136.893C198.799 140.676 199.782 144.441 202.831 147.485L213.917 158.571C215.226 159.812 216.787 160.756 218.493 161.34C219.527 161.689 220.61 161.869 221.701 161.874C224.36 161.874 226.906 160.751 229.09 158.571L240.172 147.485C241.413 146.174 242.358 144.612 242.944 142.905C244.204 139.122 243.221 135.362 240.172 132.313H240.181ZM222.358 124.443C223.195 124.712 223.967 125.153 224.623 125.739L227.898 129.019L221.51 135.402L215.122 129.014L218.416 125.716C219.3 124.837 220.545 123.904 222.367 124.439L222.358 124.443ZM206.057 139.04C206.326 138.202 206.769 137.43 207.357 136.775L210.633 133.5L217.021 139.888L210.628 146.276L207.334 142.977C206.451 142.098 205.522 140.853 206.052 139.031L206.057 139.04ZM220.654 155.341C219.816 155.075 219.043 154.633 218.389 154.045L215.122 150.806L221.51 144.414L227.898 150.802L224.605 154.1C223.721 154.979 222.48 155.912 220.654 155.377V155.341ZM236.964 140.776C236.695 141.613 236.253 142.384 235.668 143.041L232.393 146.276L226.005 139.888L232.393 133.5L235.686 136.793C236.57 137.672 237.499 138.918 236.969 140.739" fill="#00ADE4"/>
<path d="M264.088 155.509H269.81V139.629C269.81 134.732 266.834 131.117 261.755 131.117C259.281 131.117 256.631 132.213 255.254 134.229V122.45H249.536V155.495H255.254V142.968C255.254 140.042 256.722 136.381 260.151 136.381C263.173 136.381 264.088 138.071 264.088 140.821V155.509ZM287.194 146.117C287.194 149.61 284.698 151.517 281.159 151.517C279.388 151.517 277.798 150.385 277.798 148.568C277.798 146.661 279.478 145.619 281.205 145.483L287.194 145.03V146.117ZM291.96 155.876C292.937 155.908 293.905 155.689 294.774 155.242V151.064C294.536 151.12 294.293 151.151 294.049 151.155C293.097 151.155 292.735 150.747 292.735 149.655V140.898C292.806 139.28 292.574 137.664 292.051 136.132C290.692 132.589 287.239 131.32 283.203 131.32C277.934 131.32 273.711 133.681 273.394 138.991H278.89C279.025 136.811 280.566 135.633 283.203 135.633C286.424 135.633 287.194 137.129 287.194 139.353V140.807L280.244 141.292C275.75 141.609 272.257 144.196 272.257 148.69C272.257 152.55 275.161 156.089 280.792 156.089C284.149 156.089 286.872 154.458 287.964 152.55C288.145 154.322 289.505 155.862 291.956 155.862L291.96 155.876ZM309.788 136.934C310.091 136.936 310.393 136.956 310.694 136.993V131.647C310.449 131.647 310.204 131.592 309.964 131.592C307.192 131.592 304.378 132.725 303.291 135.448L302.788 131.909H297.972V155.513H303.694V143.621C303.694 139.806 305.783 136.947 309.774 136.947L309.788 136.934ZM327.692 155.522H333.369V139.761C333.369 134.859 330.415 131.32 325.377 131.32C322.659 131.32 319.841 132.453 318.432 134.945L318.024 131.905H313.272V155.509H318.944V145.891C318.944 143.893 318.899 141.442 319.719 139.58C320.489 137.853 321.807 136.585 323.796 136.585C326.791 136.585 327.697 138.266 327.697 141.034L327.692 155.522ZM351.999 141.36H341.796C341.771 140.029 342.204 138.73 343.024 137.681C343.495 137.092 344.098 136.622 344.784 136.307C345.47 135.992 346.22 135.842 346.974 135.869C347.633 135.834 348.292 135.937 348.909 136.171C349.526 136.405 350.088 136.765 350.558 137.228C351.464 138.229 351.967 139.589 352.012 141.36H351.999ZM357.684 143.902C357.775 140.952 357.367 138.275 355.641 135.683C353.693 132.734 350.512 131.329 347.033 131.329C345.639 131.289 344.251 131.533 342.954 132.048C341.658 132.563 340.481 133.338 339.494 134.324C337.229 136.639 336.092 139.996 336.092 143.766C336.092 147.626 337.36 150.938 339.716 153.207C340.701 154.163 341.868 154.913 343.147 155.412C344.426 155.91 345.792 156.148 347.164 156.111C350.159 156.111 353.108 155.16 355.106 152.8C356.013 151.708 356.968 149.85 357.104 148.441H351.668C351.477 149.198 351.084 149.889 350.531 150.439C349.715 151.255 348.718 151.572 347.083 151.572C345.772 151.567 344.515 151.047 343.585 150.122C342.998 149.508 342.541 148.781 342.245 147.985C341.948 147.189 341.817 146.34 341.859 145.492H357.639C357.639 144.989 357.684 143.902 357.684 143.902ZM365.305 138.501C365.318 137.951 365.499 137.417 365.822 136.971C366.146 136.525 366.597 136.188 367.117 136.005C367.899 135.712 368.734 135.588 369.568 135.643C370.695 135.611 371.795 135.998 372.653 136.73C373.246 137.32 373.588 138.118 373.605 138.954H379.009C378.942 137.132 378.197 135.4 376.921 134.098C375.199 132.231 372.341 131.325 369.527 131.325C366.573 131.325 364.09 132.186 362.355 133.685C361.58 134.332 360.962 135.146 360.545 136.065C360.129 136.984 359.925 137.986 359.95 138.995C359.95 141.99 362.129 144.622 365.35 145.306C367.439 145.759 369.799 145.895 371.888 146.212C373.337 146.439 374.248 147.345 374.248 148.709C374.248 151.295 371.344 151.703 369.436 151.703C367.801 151.703 366.759 151.386 365.848 150.661C365.221 150.099 364.8 149.343 364.652 148.514H359.306C359.526 150.376 360.395 152.1 361.762 153.384C363.714 155.246 366.392 156.102 369.391 156.102C372.612 156.102 375.562 155.287 377.469 153.384C378.147 152.707 378.678 151.898 379.031 151.007C379.384 150.117 379.551 149.163 379.521 148.206C379.521 144.482 376.803 142.121 373.074 141.532C370.759 141.17 370.17 141.124 368.037 140.853C366.768 140.671 365.318 140.168 365.318 138.492L365.305 138.501ZM395.383 138.945H400.77C400.702 137.123 399.957 135.391 398.681 134.089C396.955 132.231 394.096 131.325 391.301 131.325C388.351 131.325 385.864 132.186 384.129 133.685C383.354 134.332 382.735 135.146 382.319 136.065C381.902 136.984 381.699 137.986 381.723 138.995C381.723 141.99 383.902 144.622 387.124 145.306C389.212 145.759 391.573 145.895 393.661 146.212C395.111 146.439 396.022 147.345 396.022 148.709C396.022 151.295 393.113 151.703 391.21 151.703C389.575 151.703 388.533 151.386 387.622 150.661C386.995 150.099 386.573 149.343 386.426 148.514H381.062C381.281 150.377 382.152 152.102 383.522 153.384C385.47 155.246 388.148 156.102 391.147 156.102C394.368 156.102 397.317 155.287 399.225 153.384C399.901 152.706 400.431 151.897 400.782 151.006C401.133 150.116 401.299 149.163 401.268 148.206C401.268 144.482 398.55 142.121 394.821 141.532C392.506 141.17 391.917 141.124 389.783 140.853C388.515 140.671 387.065 140.168 387.065 138.492C387.078 137.941 387.259 137.408 387.582 136.962C387.906 136.516 388.358 136.179 388.877 135.996C389.659 135.703 390.494 135.579 391.328 135.633C392.455 135.602 393.555 135.989 394.413 136.721C395.008 137.311 395.35 138.108 395.369 138.945" fill="white"/>
</g>
<defs>
<clipPath id="clip0_6884_75">
<rect width="201.735" height="43.9506" fill="white" transform="translate(199.533 117.924)"/>
</clipPath>
</defs>
</svg>
