<svg width="90" height="25" viewBox="0 0 90 25" fill="none" xmlns="http://www.w3.org/2000/svg">
<mask id="mask0_6105_46" style="mask-type:luminance" maskUnits="userSpaceOnUse" x="0" y="0" width="90" height="25">
<path d="M90 0H0V24.7253H90V0Z" fill="white"/>
</mask>
<g mask="url(#mask0_6105_46)">
<path d="M77.1969 22.5397L74.6989 19.3185H74.0768V23.6365H74.7079V20.3275L77.2763 23.6365H77.8281V19.3185H77.1969V22.5397Z" fill="white"/>
<path d="M70.9076 21.7386H73.1458V21.1776H70.9065V19.878H73.4321V19.3168H70.263V23.6365H73.4642V23.0755H70.9065L70.9076 21.7386Z" fill="white"/>
<path d="M68.2751 21.1911C67.4038 20.9815 67.1603 20.8159 67.1603 20.4137C67.1603 20.052 67.4798 19.807 67.9568 19.807C68.3916 19.8196 68.8106 19.9706 69.1532 20.2379L69.4918 19.7596C69.0581 19.4201 68.5198 19.2409 67.9686 19.2526C67.113 19.2526 66.5156 19.7596 66.5156 20.4813C66.5156 21.2587 67.023 21.5274 67.9472 21.7522C68.7696 21.9415 69.021 22.1172 69.021 22.511C69.021 22.9047 68.6829 23.1481 68.1598 23.1481C67.6395 23.1458 67.1389 22.9493 66.7564 22.5971L66.3756 23.0518C66.8661 23.4728 67.4916 23.7037 68.1384 23.7025C69.0654 23.7025 69.6611 23.2039 69.6611 22.4333C69.6561 21.7809 69.2702 21.4311 68.2751 21.1911Z" fill="white"/>
<path d="M89.2727 19.3185L87.9716 21.3465L86.6796 19.3185H85.9247L87.6313 21.9296V23.6382H88.2816V21.9093L90 19.3185H89.2727Z" fill="white"/>
<path d="M78.3383 19.9033H79.7546V23.6382H80.4043V19.9033H81.8201V19.3185H78.3405L78.3383 19.9033Z" fill="white"/>
<path fill-rule="evenodd" clip-rule="evenodd" d="M84.825 21.9516C85.4786 21.7708 85.8403 21.3145 85.8403 20.6621C85.8403 19.8324 85.2323 19.3101 84.2529 19.3101H82.3309V23.6348H82.9744V22.0834H84.0656L85.1619 23.6382H85.9129L84.7288 21.9787L84.825 21.9516ZM82.9727 21.5291V19.8898H84.1854C84.8182 19.8898 85.1799 20.1889 85.1799 20.7077C85.1799 21.2266 84.7929 21.5291 84.1922 21.5291H82.9727Z" fill="white"/>
<path fill-rule="evenodd" clip-rule="evenodd" d="M56.9542 23.6237C56.9087 23.6237 56.8738 23.6114 56.8496 23.5867C56.8249 23.558 56.8125 23.5231 56.8125 23.4821V19.46C56.8125 19.4148 56.8249 19.3799 56.8496 19.3553C56.8738 19.3266 56.9087 19.3122 56.9542 19.3122H58.6457C58.9545 19.3122 59.2048 19.3634 59.3983 19.4661C59.5958 19.5646 59.7397 19.7002 59.8303 19.8726C59.9248 20.0451 59.9726 20.2381 59.9726 20.4517C59.9726 20.62 59.9434 20.7658 59.886 20.8889C59.8326 21.008 59.7651 21.1066 59.6824 21.1846C59.6002 21.2585 59.5204 21.316 59.4416 21.3571C59.6025 21.4351 59.7442 21.5624 59.8674 21.7389C59.9946 21.9155 60.0587 22.129 60.0587 22.3795C60.0587 22.6053 60.0075 22.8128 59.9046 23.0016C59.8022 23.1905 59.6475 23.3424 59.4416 23.4574C59.2397 23.5683 58.9894 23.6237 58.689 23.6237H56.9542ZM57.4177 23.1248H58.6086C58.8758 23.1248 59.0816 23.0529 59.2256 22.9092C59.3696 22.7655 59.4416 22.5889 59.4416 22.3795C59.4416 22.1619 59.3696 21.9833 59.2256 21.8436C59.0816 21.7 58.8758 21.6281 58.6086 21.6281H57.4177V23.1248ZM57.4177 21.1353H58.5529C58.8161 21.1353 59.0158 21.0758 59.1514 20.9567C59.2875 20.8335 59.3556 20.6672 59.3556 20.4578C59.3556 20.2484 59.2875 20.0883 59.1514 19.9773C59.0158 19.8665 58.8161 19.8111 58.5529 19.8111H57.4177V21.1353Z" fill="white"/>
<path d="M61.9993 23.5867C62.0286 23.6114 62.0634 23.6237 62.1045 23.6237H62.4257C62.4712 23.6237 62.5061 23.6114 62.5303 23.5867C62.5596 23.558 62.5736 23.5231 62.5736 23.4821V22.0285L64.0552 19.5154C64.0631 19.5031 64.0693 19.4908 64.0727 19.4784C64.0772 19.4661 64.0794 19.4518 64.0794 19.4353C64.0794 19.4025 64.0671 19.3738 64.0423 19.3491C64.0181 19.3245 63.9872 19.3122 63.9501 19.3122H63.6356C63.5985 19.3122 63.5647 19.3224 63.5361 19.3429C63.5113 19.3594 63.4894 19.384 63.4686 19.4169L62.2648 21.4125L61.0611 19.4169C61.0492 19.384 61.0284 19.3594 60.9997 19.3429C60.9705 19.3224 60.9379 19.3122 60.9013 19.3122H60.5801C60.5475 19.3122 60.5182 19.3245 60.4941 19.3491C60.4687 19.3738 60.4569 19.4025 60.4569 19.4353C60.4569 19.4518 60.4592 19.4661 60.4626 19.4784C60.4648 19.4845 60.4671 19.4906 60.4687 19.4966C60.471 19.5029 60.4732 19.5091 60.4755 19.5154L61.9622 22.0285V23.4821C61.9622 23.5231 61.9751 23.558 61.9993 23.5867Z" fill="white"/>
<path d="M28.7337 4.38066C30.0257 4.38066 31.0592 4.80962 31.9205 5.69618L31.978 5.75333L33.1264 4.63804L33.0977 4.58084C32.064 3.43693 30.485 2.80778 28.6764 2.80778C25.1165 2.80778 22.5038 5.26719 22.5038 8.67029C22.5038 12.0734 25.0877 14.5329 28.6477 14.5329C30.4563 14.5329 32.0354 13.9037 33.0977 12.7312L33.1264 12.674L31.978 11.5587L31.9205 11.6159C31.0592 12.5024 29.997 12.96 28.7337 12.96C26.15 12.96 24.2839 11.1583 24.2839 8.67029C24.2839 6.18231 26.1787 4.38066 28.7337 4.38066ZM38.0356 13.0458C36.3418 13.0458 35.1646 11.8161 35.1646 10.1002C35.1646 8.35572 36.3418 7.15463 38.0356 7.15463C39.7295 7.15463 40.9065 8.35572 40.9065 10.1002C40.9065 11.8447 39.7295 13.0458 38.0356 13.0458ZM38.0356 5.66758C35.3656 5.66758 33.442 7.52641 33.442 10.1002C33.442 12.674 35.3656 14.5329 38.0356 14.5329C40.7055 14.5329 42.6291 12.674 42.6291 10.1002C42.6291 7.52641 40.6768 5.66758 38.0356 5.66758ZM47.7969 13.0458C46.103 13.0458 44.8971 11.8161 44.8971 10.0716C44.8971 8.32717 46.0743 7.09743 47.7969 7.09743C49.4906 7.09743 50.6677 8.32717 50.6677 10.0716C50.6677 11.8161 49.4906 13.0458 47.7969 13.0458ZM50.6677 6.86866C49.9501 6.0393 48.9164 5.61037 47.6819 5.61037C45.0406 5.61037 43.2033 7.4406 43.2033 10.0716C43.2033 12.7026 45.0406 14.5329 47.6819 14.5329C48.9451 14.5329 50.0361 14.0467 50.7252 13.1888V14.4185H52.3616V2.23583H50.639L50.6677 6.86866ZM57.8739 7.09743C59.2808 7.09743 60.3428 8.04115 60.5436 9.41385H55.2326C55.4048 8.04115 56.4384 7.09743 57.8739 7.09743ZM57.8739 5.66758C55.3473 5.66758 53.5387 7.52641 53.5387 10.1002C53.5387 12.7026 55.4335 14.5329 58.1895 14.5329C59.625 14.5329 60.8023 14.0467 61.6061 13.1316L61.6348 13.103L60.6876 12.0162L60.6296 12.0734C60.0272 12.7312 59.2234 13.0744 58.2182 13.0744C56.6106 13.0744 55.4335 12.1593 55.2039 10.7007H62.0944V10.6436C62.1231 10.5006 62.1231 10.3004 62.1231 10.1574C62.1518 7.49781 60.3714 5.66758 57.8739 5.66758ZM69.9891 11.8447C69.4721 12.6168 68.6683 13.0458 67.6637 13.0458C65.9126 13.0458 64.7353 11.8447 64.7353 10.1002C64.7353 8.35572 65.9413 7.15463 67.6637 7.15463C68.6683 7.15463 69.4721 7.55501 69.9891 8.35572L70.0177 8.41292L71.3385 7.58362L71.3098 7.52641C70.6208 6.35393 69.3 5.66758 67.6924 5.66758C64.9935 5.66758 63.0129 7.52641 63.0129 10.1002C63.0129 12.674 64.9935 14.5329 67.6924 14.5329C69.3 14.5329 70.6208 13.8465 71.3098 12.6454L71.3385 12.5882L70.0177 11.7875L69.9891 11.8447ZM76.5062 13.0458C74.8125 13.0458 73.6352 11.8161 73.6352 10.1002C73.6352 8.35572 74.8125 7.15463 76.5062 7.15463C78.1999 7.15463 79.3772 8.35572 79.3772 10.1002C79.3772 11.8447 78.1999 13.0458 76.5062 13.0458ZM76.5062 5.66758C73.836 5.66758 71.9128 7.52641 71.9128 10.1002C71.9128 12.674 73.836 14.5329 76.5062 14.5329C79.1764 14.5329 81.0996 12.674 81.0996 10.1002C81.0996 7.52641 79.1477 5.66758 76.5062 5.66758ZM88.3344 5.66758L85.4061 12.3594L82.5351 5.66758H80.784L84.5449 14.2183L84.5736 14.2469H86.2386L89.9994 5.66758H88.3344ZM9.13241 0C4.09943 0 0 4.04307 0 8.97559V9.01605L1.54236 9.90549H1.58295C2.55707 9.25864 3.73415 9.01605 4.9112 9.21818C5.72299 9.37991 6.49412 9.74376 7.10297 10.3098L7.38709 10.5524L7.54948 10.2289C7.71182 9.90549 7.87416 9.62249 8.03649 9.3395C8.11766 9.21818 8.19889 9.13732 8.28006 9.01605L8.44239 8.81387L8.23944 8.65214C7.38709 7.96483 6.37239 7.47966 5.27649 7.27753C4.2212 7.07534 3.16589 7.1158 2.19178 7.43925C2.92237 4.24522 5.76354 1.98109 9.13241 1.98109C11.0401 1.98109 12.826 2.70885 14.1654 4.04307C15.1395 4.97298 15.7889 6.14545 16.073 7.43925C15.4642 7.23707 14.8148 7.15621 14.1654 7.15621H14.0436C13.8001 7.15621 13.5565 7.19667 13.2724 7.19667H13.2319C13.1507 7.19667 13.0289 7.23707 12.9477 7.23707C12.7853 7.27753 12.6636 7.27753 12.5012 7.31793L12.3795 7.35839C12.2577 7.39879 12.1359 7.43925 12.0142 7.47966H11.9736C11.6895 7.56052 11.4459 7.68184 11.1619 7.80311C11.0401 7.84357 10.9183 7.92443 10.7965 8.00529H10.756C10.1471 8.36915 9.57887 8.81387 9.13241 9.37991L9.0918 9.46077C8.97008 9.6225 8.88885 9.74376 8.80768 9.82462C8.72651 9.90549 8.6859 10.0268 8.60473 10.1481L8.56417 10.2289C8.48301 10.3503 8.44239 10.4715 8.40184 10.5524V10.5928C8.28006 10.8354 8.15827 11.1184 8.07711 11.4014V11.4419C7.87416 12.0888 7.75237 12.7761 7.75237 13.5038V13.5847C7.75237 13.6655 7.75237 13.7868 7.75237 13.8677C7.75237 13.9081 7.75237 13.9486 7.75237 13.989C7.75237 14.0294 7.75237 14.1103 7.75237 14.1507V14.1912V14.272C7.75237 14.3529 7.79299 14.4742 7.79299 14.555C7.99594 15.5254 8.44239 16.4552 9.13241 17.3044L9.17297 17.3448L9.21358 17.3044C9.4977 16.981 10.1471 15.9701 10.2283 15.3636C9.9036 14.7572 9.74121 14.0698 9.74121 13.423C9.74121 11.1588 11.5271 9.25864 13.8407 9.13732H14.003C14.9366 9.09692 15.8701 9.37991 16.6413 9.90549H16.6818L18.2242 9.01605V8.97559C18.2242 6.59022 17.2907 4.32607 15.5454 2.628C13.8406 0.92991 11.5677 0 9.13241 0Z" fill="#F01F7A"/>
</g>
</svg>
