<svg version="1.1" xmlns="http://www.w3.org/2000/svg" x="13px" y="16px" aria-hidden="true" focusable="false"
	 viewBox="0 0 13 16" style="enable-background:new 0 0 13 16;" xml:space="preserve">
<path fill="currentColor" class="st0" d="M3.5,11.7v0.6c0,0.1,0,0.1-0.1,0.2c-0.1,0.1-0.1,0.1-0.2,0.1H2.7c-0.1,0-0.1,0-0.2-0.1
	c-0.1-0.1-0.1-0.1-0.1-0.2v-0.6c0-0.1,0-0.1,0.1-0.2c0.1-0.1,0.1-0.1,0.2-0.1h0.6c0.1,0,0.1,0,0.2,0.1C3.5,11.6,3.5,11.6,3.5,11.7z
	 M3.5,9.4V10c0,0.1,0,0.1-0.1,0.2c-0.1,0.1-0.1,0.1-0.2,0.1H2.7c-0.1,0-0.1,0-0.2-0.1c-0.1-0.1-0.1-0.1-0.1-0.2V9.4
	c0-0.1,0-0.1,0.1-0.2c0.1-0.1,0.1-0.1,0.2-0.1h0.6c0.1,0,0.1,0,0.2,0.1S3.5,9.4,3.5,9.4z M5.9,9.4V10c0,0.1,0,0.1-0.1,0.2
	c-0.1,0.1-0.1,0.1-0.2,0.1H5c-0.1,0-0.1,0-0.2-0.1c-0.1-0.1-0.1-0.1-0.1-0.2V9.4c0-0.1,0-0.1,0.1-0.2S4.9,9.1,5,9.1h0.6
	c0.1,0,0.1,0,0.2,0.1S5.9,9.4,5.9,9.4z M3.5,7.1v0.6c0,0.1,0,0.1-0.1,0.2C3.4,8,3.3,8,3.2,8H2.7C2.6,8,2.5,8,2.5,7.9
	C2.4,7.9,2.4,7.8,2.4,7.7V7.1c0-0.1,0-0.1,0.1-0.2c0.1-0.1,0.1-0.1,0.2-0.1h0.6c0.1,0,0.1,0,0.2,0.1S3.5,7.1,3.5,7.1z M10.6,11.7
	v0.6c0,0.1,0,0.1-0.1,0.2c-0.1,0.1-0.1,0.1-0.2,0.1H9.8c-0.1,0-0.1,0-0.2-0.1c-0.1-0.1-0.1-0.1-0.1-0.2v-0.6c0-0.1,0-0.1,0.1-0.2
	c0.1-0.1,0.1-0.1,0.2-0.1h0.6c0.1,0,0.1,0,0.2,0.1C10.6,11.6,10.6,11.6,10.6,11.7z M8.3,9.4V10c0,0.1,0,0.1-0.1,0.2
	c-0.1,0.1-0.1,0.1-0.2,0.1H7.4c-0.1,0-0.1,0-0.2-0.1c-0.1-0.1-0.1-0.1-0.1-0.2V9.4c0-0.1,0-0.1,0.1-0.2s0.1-0.1,0.2-0.1H8
	c0.1,0,0.1,0,0.2,0.1C8.2,9.3,8.3,9.4,8.3,9.4z M5.9,7.1v0.6c0,0.1,0,0.1-0.1,0.2C5.8,8,5.7,8,5.6,8H5C4.9,8,4.9,8,4.8,7.9
	C4.8,7.9,4.7,7.8,4.7,7.7V7.1c0-0.1,0-0.1,0.1-0.2S4.9,6.9,5,6.9h0.6c0.1,0,0.1,0,0.2,0.1S5.9,7.1,5.9,7.1z M3.5,4.9v0.6
	c0,0.1,0,0.1-0.1,0.2C3.4,5.7,3.3,5.7,3.2,5.7H2.7c-0.1,0-0.1,0-0.2-0.1C2.4,5.6,2.4,5.5,2.4,5.4V4.9c0-0.1,0-0.1,0.1-0.2
	c0.1-0.1,0.1-0.1,0.2-0.1h0.6c0.1,0,0.1,0,0.2,0.1S3.5,4.8,3.5,4.9z M10.6,9.4V10c0,0.1,0,0.1-0.1,0.2c-0.1,0.1-0.1,0.1-0.2,0.1H9.8
	c-0.1,0-0.1,0-0.2-0.1c-0.1-0.1-0.1-0.1-0.1-0.2V9.4c0-0.1,0-0.1,0.1-0.2s0.1-0.1,0.2-0.1h0.6c0.1,0,0.1,0,0.2,0.1
	S10.6,9.4,10.6,9.4z M8.3,7.1v0.6c0,0.1,0,0.1-0.1,0.2C8.1,8,8.1,8,8,8H7.4C7.3,8,7.2,8,7.2,7.9C7.1,7.9,7.1,7.8,7.1,7.7V7.1
	c0-0.1,0-0.1,0.1-0.2s0.1-0.1,0.2-0.1H8c0.1,0,0.1,0,0.2,0.1C8.2,7,8.3,7.1,8.3,7.1z M5.9,4.9v0.6c0,0.1,0,0.1-0.1,0.2
	C5.8,5.7,5.7,5.7,5.6,5.7H5c-0.1,0-0.1,0-0.2-0.1C4.8,5.6,4.7,5.5,4.7,5.4V4.9c0-0.1,0-0.1,0.1-0.2S4.9,4.6,5,4.6h0.6
	c0.1,0,0.1,0,0.2,0.1S5.9,4.8,5.9,4.9z M3.5,2.6v0.6c0,0.1,0,0.1-0.1,0.2S3.3,3.4,3.2,3.4H2.7c-0.1,0-0.1,0-0.2-0.1
	C2.4,3.3,2.4,3.2,2.4,3.1V2.6c0-0.1,0-0.1,0.1-0.2c0.1-0.1,0.1-0.1,0.2-0.1h0.6c0.1,0,0.1,0,0.2,0.1C3.5,2.4,3.5,2.5,3.5,2.6z
	 M10.6,7.1v0.6c0,0.1,0,0.1-0.1,0.2C10.5,8,10.4,8,10.3,8H9.8C9.7,8,9.6,8,9.5,7.9C9.5,7.9,9.5,7.8,9.5,7.7V7.1c0-0.1,0-0.1,0.1-0.2
	s0.1-0.1,0.2-0.1h0.6c0.1,0,0.1,0,0.2,0.1S10.6,7.1,10.6,7.1z M8.3,4.9v0.6c0,0.1,0,0.1-0.1,0.2C8.1,5.7,8.1,5.7,8,5.7H7.4
	c-0.1,0-0.1,0-0.2-0.1C7.1,5.6,7.1,5.5,7.1,5.4V4.9c0-0.1,0-0.1,0.1-0.2s0.1-0.1,0.2-0.1H8c0.1,0,0.1,0,0.2,0.1
	C8.2,4.7,8.3,4.8,8.3,4.9z M5.9,2.6v0.6c0,0.1,0,0.1-0.1,0.2S5.7,3.4,5.6,3.4H5c-0.1,0-0.1,0-0.2-0.1S4.7,3.2,4.7,3.1V2.6
	c0-0.1,0-0.1,0.1-0.2C4.9,2.3,4.9,2.3,5,2.3h0.6c0.1,0,0.1,0,0.2,0.1C5.9,2.4,5.9,2.5,5.9,2.6z M10.6,4.9v0.6c0,0.1,0,0.1-0.1,0.2
	c-0.1,0.1-0.1,0.1-0.2,0.1H9.8c-0.1,0-0.1,0-0.2-0.1C9.5,5.6,9.5,5.5,9.5,5.4V4.9c0-0.1,0-0.1,0.1-0.2s0.1-0.1,0.2-0.1h0.6
	c0.1,0,0.1,0,0.2,0.1S10.6,4.8,10.6,4.9z M8.3,2.6v0.6c0,0.1,0,0.1-0.1,0.2C8.1,3.4,8.1,3.4,8,3.4H7.4c-0.1,0-0.1,0-0.2-0.1
	S7.1,3.2,7.1,3.1V2.6c0-0.1,0-0.1,0.1-0.2c0.1-0.1,0.1-0.1,0.2-0.1H8c0.1,0,0.1,0,0.2,0.1C8.2,2.4,8.3,2.5,8.3,2.6z M10.6,2.6v0.6
	c0,0.1,0,0.1-0.1,0.2s-0.1,0.1-0.2,0.1H9.8c-0.1,0-0.1,0-0.2-0.1S9.5,3.2,9.5,3.1V2.6c0-0.1,0-0.1,0.1-0.2c0.1-0.1,0.1-0.1,0.2-0.1
	h0.6c0.1,0,0.1,0,0.2,0.1C10.6,2.4,10.6,2.5,10.6,2.6z M8.3,14.9h3.5V1.1H1.2v13.7h3.5v-2c0-0.1,0-0.1,0.1-0.2s0.1-0.1,0.2-0.1h3
	c0.1,0,0.1,0,0.2,0.1c0.1,0.1,0.1,0.1,0.1,0.2V14.9z M13,0.6v14.9c0,0.2-0.1,0.3-0.2,0.4c-0.1,0.1-0.3,0.2-0.4,0.2H0.6
	c-0.2,0-0.3-0.1-0.4-0.2S0,15.6,0,15.4V0.6c0-0.2,0.1-0.3,0.2-0.4C0.3,0.1,0.4,0,0.6,0h11.8c0.2,0,0.3,0.1,0.4,0.2
	C12.9,0.3,13,0.4,13,0.6z"/>
</svg>
