<svg width="12" height="14" viewBox="0 0 12 14" fill="none" xmlns="http://www.w3.org/2000/svg">
<path d="M3 3.73244C3.5978 3.38663 4 2.74028 4 2C4 0.895431 3.10457 2.98023e-08 2 2.98023e-08C0.895431 2.98023e-08 0 0.895431 0 2C0 2.74028 0.402198 3.38663 1 3.73244L1 10.2676C0.402199 10.6134 0 11.2597 0 12C0 13.1046 0.895431 14 2 14C3.10457 14 4 13.1046 4 12C4 11.3181 3.65876 10.7159 3.13774 10.3549C3.40929 9.32803 4.06926 8.42953 5.00087 7.86571C5.29929 7.69268 5.5 7.36978 5.5 7C5.5 6.44772 5.05228 6 4.5 6C4.30523 6 4.12346 6.05568 3.96975 6.152C3.61974 6.36343 3.29555 6.60672 3 6.8769V3.73244Z" fill="black"/>
<path d="M11.7071 1.70711C12.0976 1.31658 12.0976 0.683418 11.7071 0.292893C11.3166 -0.0976311 10.6834 -0.0976311 10.2929 0.292893L9 1.58579L7.70711 0.292893C7.31658 -0.0976311 6.68342 -0.0976311 6.29289 0.292893C5.90237 0.683418 5.90237 1.31658 6.29289 1.70711L7.58579 3L6.29289 4.29289C5.90237 4.68342 5.90237 5.31658 6.29289 5.70711C6.68342 6.09763 7.31658 6.09763 7.70711 5.70711L9 4.41421L10.2929 5.70711C10.6834 6.09763 11.3166 6.09763 11.7071 5.70711C12.0976 5.31658 12.0976 4.68342 11.7071 4.29289L10.4142 3L11.7071 1.70711Z" fill="black"/>
</svg>
