<svg width="20" height="20" viewBox="0 0 20 20" fill="none" xmlns="http://www.w3.org/2000/svg">
<path fill-rule="evenodd" clip-rule="evenodd" d="M7.99997 5C7.99997 5.74028 7.59778 6.38662 6.99998 6.73243L6.99998 9.99957C7.83564 9.37188 8.87436 8.99994 9.99996 8.99994C11.4213 8.99994 12.6117 8.0115 12.9215 6.68452C12.3673 6.32894 12.0001 5.70735 12.0001 5C12.0001 3.89543 12.8955 3 14.0001 3C15.1046 3 16 3.89543 16 5C16 5.76409 15.5716 6.4281 14.9418 6.76486C14.5736 9.16319 12.5013 10.9999 9.99996 10.9999C8.57865 10.9999 7.3882 11.9884 7.07846 13.3153C7.63271 13.6709 7.99997 14.2925 7.99997 14.9999C7.99997 16.1045 7.10454 16.9999 5.99998 16.9999C4.89542 16.9999 4 16.1045 4 14.9999C4 14.2596 4.4022 13.6133 5 13.2675L5 6.73244C4.4022 6.38663 4 5.74029 4 5C4 3.89543 4.89542 3 5.99998 3C7.10454 3 7.99997 3.89543 7.99997 5Z" fill="#0E1B29"/>
</svg>
