<svg width="12" height="14" viewBox="0 0 12 14" fill="none" xmlns="http://www.w3.org/2000/svg">
<path fill-rule="evenodd" clip-rule="evenodd" d="M4 2C4 2.74028 3.5978 3.38663 3 3.73244L3 6.99963C3.83566 6.37194 4.87439 6 6 6C7.42133 6 8.6118 5.01158 8.92153 3.6846C8.36727 3.32903 8 2.70741 8 2C8 0.895431 8.89543 0 10 0C11.1046 0 12 0.895431 12 2C12 2.76403 11.5716 3.42799 10.9419 3.76478C10.5738 6.16318 8.50138 8 6 8C4.57867 8 3.3882 8.98842 3.07847 10.3154C3.63273 10.671 4 11.2926 4 12C4 13.1046 3.10457 14 2 14C0.895431 14 0 13.1046 0 12C0 11.2597 0.402199 10.6134 1 10.2676L1 3.73244C0.402198 3.38663 0 2.74028 0 2C0 0.895431 0.895431 0 2 0C3.10457 0 4 0.895431 4 2Z" fill="black"/>
</svg>
