<svg width="20" height="20" viewBox="0 0 20 20" fill="none" xmlns="http://www.w3.org/2000/svg">
<path d="M7 6.73244C7.5978 6.38663 8 5.74028 8 5C8 3.89543 7.10457 3 6 3C4.89543 3 4 3.89543 4 5C4 5.74028 4.4022 6.38663 5 6.73244L5 13.2676C4.4022 13.6134 4 14.2597 4 15C4 16.1046 4.89543 17 6 17C7.10457 17 8 16.1046 8 15C8 14.3181 7.65876 13.7159 7.13774 13.3549C7.40929 12.328 8.06926 11.4295 9.00087 10.8657C9.29929 10.6927 9.5 10.3698 9.5 10C9.5 9.44772 9.05228 9 8.5 9C8.30523 9 8.12346 9.05568 7.96975 9.152C7.61974 9.36343 7.29555 9.60672 7 9.8769V6.73244Z" fill="#0E1B29"/>
<path d="M15.7071 4.70711C16.0976 4.31658 16.0976 3.68342 15.7071 3.29289C15.3166 2.90237 14.6834 2.90237 14.2929 3.29289L13 4.58579L11.7071 3.29289C11.3166 2.90237 10.6834 2.90237 10.2929 3.29289C9.90237 3.68342 9.90237 4.31658 10.2929 4.70711L11.5858 6L10.2929 7.29289C9.90237 7.68342 9.90237 8.31658 10.2929 8.70711C10.6834 9.09763 11.3166 9.09763 11.7071 8.70711L13 7.41421L14.2929 8.70711C14.6834 9.09763 15.3166 9.09763 15.7071 8.70711C16.0976 8.31658 16.0976 7.68342 15.7071 7.29289L14.4142 6L15.7071 4.70711Z" fill="#0E1B29"/>
</svg>
