<svg width="20" height="20" viewBox="0 0 20 20" fill="none" xmlns="http://www.w3.org/2000/svg">
<path fill-rule="evenodd" clip-rule="evenodd" d="M13.8759 10.9924C13.4346 12.7215 11.8666 14 10 14C8.13342 14 6.56545 12.7215 6.12406 10.9924C6.08342 10.9974 6.04201 11 6 11L3 11C2.44772 11 2 10.5523 2 10C2 9.44771 2.44772 9 3 9L6 9C6.04201 9 6.08342 9.00259 6.12406 9.00762C6.56545 7.27853 8.13342 6 10 6C11.8666 6 13.4346 7.27853 13.8759 9.00763C13.9166 9.00259 13.958 9 14 9L17 9C17.5523 9 18 9.44772 18 10C18 10.5523 17.5523 11 17 11L14 11C13.958 11 13.9166 10.9974 13.8759 10.9924ZM10 12C11.1046 12 12 11.1046 12 10C12 8.89543 11.1046 8 10 8C8.89543 8 8 8.89543 8 10C8 11.1046 8.89543 12 10 12Z" fill="currentColor"/>
</svg>
