<svg width="16" height="8" viewBox="0 0 16 8" fill="none" xmlns="http://www.w3.org/2000/svg">
<path fill-rule="evenodd" clip-rule="evenodd" d="M11.8759 4.99237C11.4346 6.72147 9.86658 8 8 8C6.13342 8 4.56545 6.72147 4.12406 4.99238C4.08342 4.99741 4.04201 5 4 5L1 5C0.447715 5 0 4.55228 0 4C0 3.44771 0.447715 3 1 3L4 3C4.04201 3 4.08342 3.00259 4.12406 3.00762C4.56545 1.27853 6.13342 0 8 0C9.86658 0 11.4346 1.27853 11.8759 3.00763C11.9166 3.00259 11.958 3 12 3L15 3C15.5523 3 16 3.44772 16 4C16 4.55228 15.5523 5 15 5L12 5C11.958 5 11.9166 4.9974 11.8759 4.99237ZM8 6C9.10457 6 10 5.10457 10 4C10 2.89543 9.10457 2 8 2C6.89543 2 6 2.89543 6 4C6 5.10457 6.89543 6 8 6Z" fill="black"/>
</svg>
