<svg width="20" height="20" viewBox="0 0 20 20" fill="none" xmlns="http://www.w3.org/2000/svg">
<path d="M9 5L12 2V4.10002C14.2822 4.56329 16 6.58104 16 9V13.2676C16.5978 13.6134 17 14.2597 17 15C17 16.1046 16.1046 17 15 17C13.8954 17 13 16.1046 13 15C13 14.2597 13.4022 13.6134 14 13.2676V9C14 7.69378 13.1652 6.58254 12 6.17071V8L9 5Z" fill="#0E1B29"/>
<path d="M5 3C3.89543 3 3 3.89543 3 5C3 5.74028 3.4022 6.38663 4 6.73244V11C4 13.419 5.71776 15.4367 8 15.9V18L11 15L8 12V13.8293C6.83481 13.4175 6 12.3062 6 11V6.73244C6.5978 6.38663 7 5.74028 7 5C7 3.89543 6.10457 3 5 3Z" fill="#0E1B29"/>
</svg>
