<svg width="14" height="16" viewBox="0 0 14 16" fill="none" xmlns="http://www.w3.org/2000/svg">
<path d="M6 3L9 0V2.10002C11.2822 2.56329 13 4.58104 13 7V11.2676C13.5978 11.6134 14 12.2597 14 13C14 14.1046 13.1046 15 12 15C10.8954 15 10 14.1046 10 13C10 12.2597 10.4022 11.6134 11 11.2676V7C11 5.69378 10.1652 4.58254 9 4.17071V6L6 3Z" fill="black"/>
<path d="M2 1C0.895431 1 0 1.89543 0 3C0 3.74028 0.402199 4.38663 1 4.73244V9C1 11.419 2.71776 13.4367 5 13.9V16L8 13L5 10V11.8293C3.83481 11.4175 3 10.3062 3 9V4.73244C3.5978 4.38663 4 3.74028 4 3C4 1.89543 3.10457 1 2 1Z" fill="black"/>
</svg>
