<svg width="20" height="20" viewBox="0 0 20 20" fill="none" xmlns="http://www.w3.org/2000/svg">
<path d="M7 6.73244C7.5978 6.38663 8 5.74028 8 5C8 3.89543 7.10457 3 6 3C4.89543 3 4 3.89543 4 5C4 5.74028 4.4022 6.38663 5 6.73244V6.93845C5 8.6089 6.13688 10.065 7.75746 10.4701C8.48771 10.6527 9 11.3088 9 12.0616V13.2676C8.4022 13.6134 8 14.2597 8 15C8 16.1046 8.89543 17 10 17C11.1046 17 12 16.1046 12 15C12 14.2597 11.5978 13.6134 11 13.2676V12.0616C11 11.3088 11.5123 10.6527 12.2425 10.4701C13.8631 10.065 15 8.6089 15 6.93845V6.73244C15.5978 6.38663 16 5.74028 16 5C16 3.89543 15.1046 3 14 3C12.8954 3 12 3.89543 12 5C12 5.74028 12.4022 6.38663 13 6.73244V6.93845C13 7.69117 12.4877 8.3473 11.7575 8.52986C11.067 8.70247 10.4643 9.06587 10 9.55533C9.53566 9.06587 8.933 8.70247 8.24254 8.52986C7.51229 8.3473 7 7.69117 7 6.93845V6.73244Z" fill="#0E1B29"/>
</svg>
