<svg width="12" height="14" viewBox="0 0 12 14" fill="none" xmlns="http://www.w3.org/2000/svg">
<path d="M3 3.73244C3.5978 3.38663 4 2.74028 4 2C4 0.895431 3.10457 0 2 0C0.895431 0 0 0.895431 0 2C0 2.74028 0.402199 3.38663 1 3.73244V3.93845C1 5.6089 2.13688 7.065 3.75746 7.47014C4.48771 7.6527 5 8.30883 5 9.06155V10.2676C4.4022 10.6134 4 11.2597 4 12C4 13.1046 4.89543 14 6 14C7.10457 14 8 13.1046 8 12C8 11.2597 7.5978 10.6134 7 10.2676V9.06155C7 8.30883 7.51229 7.6527 8.24254 7.47014C9.86312 7.065 11 5.6089 11 3.93845V3.73244C11.5978 3.38663 12 2.74028 12 2C12 0.895431 11.1046 0 10 0C8.89543 0 8 0.895431 8 2C8 2.74028 8.4022 3.38663 9 3.73244V3.93845C9 4.69117 8.48771 5.3473 7.75746 5.52986C7.067 5.70247 6.46434 6.06587 6 6.55533C5.53566 6.06587 4.933 5.70247 4.24254 5.52986C3.51229 5.3473 3 4.69117 3 3.93845V3.73244Z" fill="black"/>
</svg>
