<svg width="14" height="15" viewBox="0 0 14 15" fill="none" xmlns="http://www.w3.org/2000/svg">
<path d="M9 7V4.67071C10.1652 5.08254 11 6.19378 11 7.5V11.2676C10.4022 11.6134 10 12.2597 10 13C10 14.1046 10.8954 15 12 15C13.1046 15 14 14.1046 14 13C14 12.2597 13.5978 11.6134 13 11.2676V7.5C13 5.08104 11.2822 3.06329 9 2.60002V0L5 3.5L9 7Z" fill="black"/>
<path d="M3 4.73244C3.5978 4.38663 4 3.74028 4 3C4 1.89543 3.10457 1 2 1C0.895431 1 0 1.89543 0 3C0 3.74028 0.402198 4.38663 1 4.73244L1 11.2676C0.402199 11.6134 0 12.2597 0 13C0 14.1046 0.895431 15 2 15C3.10457 15 4 14.1046 4 13C4 12.2597 3.5978 11.6134 3 11.2676L3 4.73244Z" fill="black"/>
</svg>
