<svg width="14" height="14" viewBox="0 0 14 14" fill="none" xmlns="http://www.w3.org/2000/svg">
<path d="M8 3.73244C8.5978 3.38663 9 2.74028 9 2C9 0.895431 8.10457 0 7 0C5.89543 0 5 0.895431 5 2C5 2.74028 5.4022 3.38663 6 3.73244V10C6 11.1046 5.10457 12 4 12C2.89543 12 2 11.1046 2 10L5 7H0V10C0 12.2091 1.79086 14 4 14C5.19469 14 6.26706 13.4762 7 12.6458C7.73295 13.4762 8.80531 14 10 14C12.2091 14 14 12.2091 14 10V7H9L12 10C12 11.1046 11.1046 12 10 12C8.89543 12 8 11.1046 8 10V3.73244Z" fill="black"/>
</svg>
