<svg width="20" height="20" viewBox="0 0 20 20" fill="none" xmlns="http://www.w3.org/2000/svg">
<path d="M11.1429 6.26564C11.8261 5.87043 12.2857 5.13175 12.2857 4.28571C12.2857 3.02335 11.2624 2 10 2C8.73764 2 7.71429 3.02335 7.71429 4.28571C7.71429 5.13175 8.17394 5.87043 8.85714 6.26564V13.4286C8.85714 14.6909 7.83379 15.7143 6.57143 15.7143C5.30906 15.7143 4.28571 14.6909 4.28571 13.4286L7.71429 10H2V13.4286C2 15.9533 4.0467 18 6.57143 18C7.93679 18 9.16235 17.4014 10 16.4524C10.8377 17.4014 12.0632 18 13.4286 18C15.9533 18 18 15.9533 18 13.4286V10H12.2857L15.7143 13.4286C15.7143 14.6909 14.6909 15.7143 13.4286 15.7143C12.1662 15.7143 11.1429 14.6909 11.1429 13.4286V6.26564Z" fill="currentColor"/>
</svg>
