<svg width="20" height="20" viewBox="0 0 20 20" fill="none" xmlns="http://www.w3.org/2000/svg">
<path d="M7.21302 6.59028C7.69139 6.22484 8 5.64846 8 5C8 3.89543 7.10457 3 6 3C4.89543 3 4 3.89543 4 5C4 5.74028 4.4022 6.38663 5 6.73244L5 13.2676C4.4022 13.6134 4 14.2597 4 15C4 16.1046 4.89543 17 6 17C7.10457 17 8 16.1046 8 15C8 14.2597 7.5978 13.6134 7 13.2676L7 10.2916C8.31028 11.7762 10.1629 12.7707 12.2478 12.9651C12.5884 13.5821 13.2454 14 14 14C15.1046 14 16 13.1046 16 12C16 10.8954 15.1046 10 14 10C13.2769 10 12.6434 10.3837 12.2921 10.9587C9.84574 10.6712 7.84955 8.91188 7.21302 6.59028Z" fill="#0E1B29"/>
</svg>
