<svg width="12" height="14" viewBox="0 0 12 14" fill="none" xmlns="http://www.w3.org/2000/svg">
<path d="M3.21302 3.59028C3.69139 3.22484 4 2.64846 4 2C4 0.895431 3.10457 0 2 0C0.895431 0 0 0.895431 0 2C0 2.74028 0.402198 3.38663 1 3.73244L1 10.2676C0.402199 10.6134 0 11.2597 0 12C0 13.1046 0.895431 14 2 14C3.10457 14 4 13.1046 4 12C4 11.2597 3.5978 10.6134 3 10.2676L3 7.29165C4.31028 8.77618 6.16291 9.77069 8.24784 9.96511C8.58841 10.5821 9.2454 11 10 11C11.1046 11 12 10.1046 12 9C12 7.89543 11.1046 7 10 7C9.2769 7 8.64344 7.38374 8.29213 7.95868C5.84574 7.67116 3.84955 5.91188 3.21302 3.59028Z" fill="black"/>
</svg>
