<svg width="20" height="20" viewBox="0 0 20 20" fill="none" xmlns="http://www.w3.org/2000/svg">
<path d="M8.70711 4.70711C9.09763 4.31658 9.09763 3.68342 8.70711 3.29289C8.31658 2.90237 7.68342 2.90237 7.29289 3.29289L6 4.58579L4.70711 3.29289C4.31658 2.90237 3.68342 2.90237 3.29289 3.29289C2.90237 3.68342 2.90237 4.31658 3.29289 4.70711L4.58579 6L3.29289 7.29289C2.90237 7.68342 2.90237 8.31658 3.29289 8.70711C3.68342 9.09763 4.31658 9.09763 4.70711 8.70711L6 7.41421L7.29289 8.70711C7.68342 9.09763 8.31658 9.09763 8.70711 8.70711C9.09763 8.31658 9.09763 7.68342 8.70711 7.29289L7.41421 6L8.70711 4.70711Z" fill="currentColor"/>
<path d="M14 13.2676V10C14 8.34315 12.6569 7 11 7C10.4477 7 10 6.55228 10 6C10 5.44772 10.4477 5 11 5C13.7614 5 16 7.23858 16 10V13.2676C16.5978 13.6134 17 14.2597 17 15C17 16.1046 16.1046 17 15 17C13.8954 17 13 16.1046 13 15C13 14.2597 13.4022 13.6134 14 13.2676Z" fill="currentColor"/>
<path d="M8 15C8 16.1046 7.10457 17 6 17C4.89543 17 4 16.1046 4 15C4 14.2597 4.4022 13.6134 5 13.2676L5 11C5 10.4477 5.44772 10 6 10C6.55228 10 7 10.4477 7 11V13.2676C7.5978 13.6134 8 14.2597 8 15Z" fill="currentColor"/>
</svg>
