<svg width="20" height="20" viewBox="0 0 20 20" fill="none" xmlns="http://www.w3.org/2000/svg">
<path d="M12 9V6.67071C13.1652 7.08254 14 8.19378 14 9.5V13.2676C13.4022 13.6134 13 14.2597 13 15C13 16.1046 13.8954 17 15 17C16.1046 17 17 16.1046 17 15C17 14.2597 16.5978 13.6134 16 13.2676V9.5C16 7.08104 14.2822 5.06329 12 4.60002V2L8 5.5L12 9Z" fill="currentColor"/>
<path d="M6 6.73244C6.5978 6.38663 7 5.74028 7 5C7 3.89543 6.10457 3 5 3C3.89543 3 3 3.89543 3 5C3 5.74028 3.4022 6.38663 4 6.73244L4 13.2676C3.4022 13.6134 3 14.2597 3 15C3 16.1046 3.89543 17 5 17C6.10457 17 7 16.1046 7 15C7 14.2597 6.5978 13.6134 6 13.2676L6 6.73244Z" fill="currentColor"/>
</svg>
