<svg width="14" height="14" viewBox="0 0 14 14" fill="none" xmlns="http://www.w3.org/2000/svg">
<path d="M5.70711 1.70711C6.09763 1.31658 6.09763 0.683418 5.70711 0.292893C5.31658 -0.0976311 4.68342 -0.0976311 4.29289 0.292893L3 1.58579L1.70711 0.292893C1.31658 -0.0976311 0.683417 -0.0976311 0.292893 0.292893C-0.0976309 0.683418 -0.0976309 1.31658 0.292893 1.70711L1.58579 3L0.292893 4.29289C-0.0976311 4.68342 -0.0976311 5.31658 0.292893 5.70711C0.683418 6.09763 1.31658 6.09763 1.70711 5.70711L3 4.41421L4.29289 5.70711C4.68342 6.09763 5.31658 6.09763 5.70711 5.70711C6.09763 5.31658 6.09763 4.68342 5.70711 4.29289L4.41421 3L5.70711 1.70711Z" fill="black"/>
<path d="M11 10.2676V7C11 5.34315 9.65685 4 8 4C7.44772 4 7 3.55228 7 3C7 2.44772 7.44772 2 8 2C10.7614 2 13 4.23858 13 7V10.2676C13.5978 10.6134 14 11.2597 14 12C14 13.1046 13.1046 14 12 14C10.8954 14 10 13.1046 10 12C10 11.2597 10.4022 10.6134 11 10.2676Z" fill="black"/>
<path d="M5 12C5 13.1046 4.10457 14 3 14C1.89543 14 1 13.1046 1 12C1 11.2597 1.4022 10.6134 2 10.2676L2 8C2 7.44772 2.44772 7 3 7C3.55228 7 4 7.44771 4 8V10.2676C4.5978 10.6134 5 11.2597 5 12Z" fill="black"/>
</svg>
