<svg width="16" height="16" viewBox="0 0 16 16" fill="none" xmlns="http://www.w3.org/2000/svg">
<g clip-path="url(#clip0_2545_774)">
<path fill-rule="evenodd" clip-rule="evenodd" d="M0 8C0 5.87827 0.842855 3.84344 2.34315 2.34315C3.84344 0.842855 5.87827 0 8 0C10.1217 0 12.1566 0.842855 13.6569 2.34315C15.1571 3.84344 16 5.87827 16 8C16 10.1217 15.1571 12.1566 13.6569 13.6569C12.1566 15.1571 10.1217 16 8 16C5.87827 16 3.84344 15.1571 2.34315 13.6569C0.842855 12.1566 0 10.1217 0 8H0Z" fill="#394754"/>
<path fill-rule="evenodd" clip-rule="evenodd" d="M14.8574 8C14.8574 7.0995 14.68 6.20783 14.3354 5.37588C13.9908 4.54393 13.4857 3.78801 12.8489 3.15126C12.2122 2.51452 11.4563 2.00943 10.6243 1.66482C9.79238 1.32022 8.9007 1.14285 8.00021 1.14285C7.09972 1.14285 6.20804 1.32022 5.37609 1.66482C4.54415 2.00943 3.78822 2.51452 3.15148 3.15126C2.51473 3.78801 2.00964 4.54393 1.66504 5.37588C1.32043 6.20783 1.14307 7.0995 1.14307 8C1.14307 9.81862 1.86551 11.5628 3.15148 12.8487C4.43744 14.1347 6.18158 14.8571 8.00021 14.8571C9.81884 14.8571 11.563 14.1347 12.8489 12.8487C14.1349 11.5628 14.8574 9.81862 14.8574 8Z" fill="white"/>
<path fill-rule="evenodd" clip-rule="evenodd" d="M7.99994 3.42856C10.5142 3.42856 12.5714 5.4857 12.5714 7.99999C12.5714 10.5143 10.5142 12.5714 7.99994 12.5714C6.51423 12.5714 5.1428 11.7714 4.22852 10.6286L7.99994 7.99999V3.42856Z" fill="#394754"/>
</g>
<defs>
<clipPath id="clip0_2545_774">
<rect width="16" height="16" fill="white"/>
</clipPath>
</defs>
</svg>
