<?xml version="1.0" encoding="UTF-8"?>
<svg width="3574px" height="1886px" viewBox="0 0 3574 1886" version="1.1" xmlns="http://www.w3.org/2000/svg" xmlns:xlink="http://www.w3.org/1999/xlink">
    <title>Flag Management</title>
    <defs>
        <linearGradient x1="50%" y1="-2.10643329e-14%" x2="50%" y2="99.6033188%" id="linearGradient-1">
            <stop stop-color="#A65193" stop-opacity="0.311408196" offset="0%"></stop>
            <stop stop-color="#FEC2FC" offset="100%"></stop>
        </linearGradient>
        <linearGradient x1="-48.423731%" y1="3.9332329%" x2="118.593568%" y2="80.6480021%" id="linearGradient-2">
            <stop stop-color="#F8D1E8" offset="0%"></stop>
            <stop stop-color="#F8D1E8" offset="0%"></stop>
            <stop stop-color="#EAE8FE" offset="100%"></stop>
        </linearGradient>
        <linearGradient x1="-48.1796418%" y1="-8.4034173%" x2="118.827349%" y2="87.509737%" id="linearGradient-3">
            <stop stop-color="#F8D1E8" offset="0%"></stop>
            <stop stop-color="#F8D1E8" offset="0%"></stop>
            <stop stop-color="#EAE8FE" offset="100%"></stop>
        </linearGradient>
        <linearGradient x1="50.0001798%" y1="0.00227887698%" x2="50.0001798%" y2="100.013805%" id="linearGradient-4">
            <stop stop-color="#BE94CC" offset="0%"></stop>
            <stop stop-color="#EAC2FE" offset="100%"></stop>
        </linearGradient>
        <linearGradient x1="50.000814%" y1="-10.3006842%" x2="50.000814%" y2="89.6994895%" id="linearGradient-5">
            <stop stop-color="#AC6EA6" offset="0%"></stop>
            <stop stop-color="#B479B2" offset="13.47%"></stop>
            <stop stop-color="#EAC2FE" offset="100%"></stop>
        </linearGradient>
        <linearGradient x1="50.0013973%" y1="-14.6804083%" x2="50.0013973%" y2="85.3148044%" id="linearGradient-6">
            <stop stop-color="#AC6EA6" offset="0%"></stop>
            <stop stop-color="#EAC2FE" offset="100%"></stop>
        </linearGradient>
        <linearGradient x1="49.9985737%" y1="0.0124402114%" x2="49.9985737%" y2="145.586468%" id="linearGradient-7">
            <stop stop-color="#B965A6" offset="0%"></stop>
            <stop stop-color="#EAC2FE" offset="100%"></stop>
        </linearGradient>
        <linearGradient x1="49.9975527%" y1="41.6444351%" x2="49.9975527%" y2="254.695717%" id="linearGradient-8">
            <stop stop-color="#C151A6" offset="0%"></stop>
            <stop stop-color="#EAC2FE" offset="100%"></stop>
        </linearGradient>
        <linearGradient x1="50.0004594%" y1="34.3618027%" x2="50.0004594%" y2="149.360184%" id="linearGradient-9">
            <stop stop-color="#C151A6" offset="0%"></stop>
            <stop stop-color="#EAC2FE" offset="100%"></stop>
        </linearGradient>
        <linearGradient x1="-2344.1875%" y1="-200.98501%" x2="105.215625%" y2="54.6847581%" id="linearGradient-10">
            <stop stop-color="#F8D1E8" offset="0%"></stop>
            <stop stop-color="#F8D1E8" offset="0%"></stop>
            <stop stop-color="#EAE8FE" offset="100%"></stop>
        </linearGradient>
        <linearGradient x1="34.436392%" y1="42.5072406%" x2="68.1856164%" y2="57.4299316%" id="linearGradient-11">
            <stop stop-color="#F8D1E8" offset="0%"></stop>
            <stop stop-color="#F8D1E8" offset="0%"></stop>
            <stop stop-color="#EAE8FE" offset="100%"></stop>
        </linearGradient>
        <linearGradient x1="4.75473942%" y1="18.5172414%" x2="1309.23655%" y2="921.082759%" id="linearGradient-12">
            <stop stop-color="#F8D1E8" offset="0%"></stop>
            <stop stop-color="#F8D1E8" offset="0%"></stop>
            <stop stop-color="#EAE8FE" offset="100%"></stop>
        </linearGradient>
    </defs>
    <g id="Flag-Management" stroke="none" stroke-width="1" fill="none" fill-rule="evenodd">
        <rect id="Rectangle" fill="#FFFFFF" x="0" y="0" width="3574" height="1886"></rect>
        <g id="flag-blog-postv3-cropped">
            <g id="Background" fill="url(#linearGradient-1)" fill-rule="nonzero" opacity="0.533531552">
                <rect id="Rectangle" x="0" y="0" width="3574" height="1884"></rect>
            </g>
            <g id="bg-circles" transform="translate(429.000000, 0.000000)" fill-rule="nonzero">
                <path d="M0,899.736714 C0,1297.20043 181.861211,1652.20808 466.932694,1886 L2081.91608,1886 C2366.94395,1652.20808 2548.84878,1297.24406 2548.84878,899.736714 C2548.84878,548.568864 2406.90194,230.562987 2177.23073,0 L371.618051,0 C141.946841,230.562987 0,548.568864 0,899.736714 Z" id="Path" fill="url(#linearGradient-2)" opacity="0.46983817"></path>
                <path d="M253.881566,898.471323 C253.881566,1373.60387 578.823797,1772.85658 1018.57982,1885.95637 L1527.78249,1885.95637 C1967.53851,1772.85658 2292.48074,1373.60387 2292.48074,898.471323 C2292.48074,509.865349 2075.11101,172.005923 1755.35983,0 L791.00248,0 C471.251298,172.049557 253.881566,509.865349 253.881566,898.471323 Z" id="Path" fill="url(#linearGradient-3)" opacity="0.607209269"></path>
                <ellipse id="Oval-Copy-11" fill="#FF0077" cx="606.087711" cy="360.723735" rx="18.6703282" ry="18.6754274"></ellipse>
                <ellipse id="Oval-Copy-12" fill="#FF0077" cx="2460.47008" cy="1199.76531" rx="11.2109214" ry="11.2139833"></ellipse>
                <ellipse id="Oval-Copy-12_1_" fill="#FF0077" cx="2609.78908" cy="552.408671" rx="11.2109214" ry="11.2139833"></ellipse>
                <ellipse id="Oval-Copy-12_2_" fill="#FF0077" cx="1751.43383" cy="846.895727" rx="11.2109214" ry="11.2139833"></ellipse>
                <ellipse id="Oval-Copy-14" fill="#FF0077" cx="1347.84066" cy="417.971774" rx="16.1838593" ry="16.1882794"></ellipse>
                <ellipse id="Oval-Copy-14_1_" fill="#FF0077" cx="1151.1915" cy="1672.80341" rx="16.1838593" ry="16.1882794"></ellipse>
                <ellipse id="Oval-Copy-14_2_" fill="#FF0077" cx="252.660142" cy="1065.28478" rx="16.1838593" ry="16.1882794"></ellipse>
            </g>
            <g id="Layer_1" fill-rule="nonzero">
                <path d="M1678.41008,1411.83838 C1678.41008,1411.83838 1787,1348.30849 1919.9343,1408.17319 C1943.88604,1418.95058 1997.15574,1427.72085 2011.37844,1427.72085 C2025.60115,1427.72085 2052.21418,1401.54095 2082.44834,1395.99954 C2112.6825,1390.45813 2162.37471,1411.88201 2162.37471,1411.88201 C2162.37471,1411.88201 2221.01064,1418.16519 2260.05764,1411.40205 C2299.10464,1404.6389 2311.58223,1431.29877 2373.75203,1443.73422 C2435.92183,1456.16967 2494.55776,1440.19994 2538.971,1443.73422 C2583.38423,1447.26851 2643.76528,1450.84643 2693.50112,1436.62202 C2743.23696,1422.3976 2817.40444,1449.79923 2850.47441,1448.53387 C2883.58801,1447.26851 3050.5521,1450.80279 3093.17659,1438.36734 C3135.80107,1425.93189 3206.87097,1401.67185 3276.15212,1421.78674 C3345.43328,1441.90163 3449.61677,1587.59277 3449.61677,1587.59277 C3449.61677,1587.59277 3332.99932,1816.75416 3322.3541,1816.75416 C3311.70889,1816.75416 2046.01902,1816.75416 2046.01902,1816.75416 L1741.36519,1624.89913 L1678.41008,1411.83838 Z" id="Path" fill="url(#linearGradient-4)"></path>
                <path d="M3574,1441.24713 C3545.07468,1429.64071 3519.37783,1422.7903 3503.80266,1422.7903 C3452.80161,1422.7903 3389.06121,1381.33879 3325.3208,1369.20877 C3261.5804,1357.03512 3162.80676,1457.87137 3095.88152,1492.55974 C3028.95627,1527.2481 2914.21482,1543.91597 2914.21482,1543.91597 L2850.47441,1730.14233 L3029.52344,1885.95637 L3574,1885.95637 L3574,1441.24713 Z" id="Path" fill="url(#linearGradient-5)"></path>
                <path d="M3057.61982,1617.21969 C2923.76934,1559.84208 2962.03103,1527.98987 2933.32385,1508.83491 C2904.6603,1489.72358 2863.21377,1480.16792 2799.47336,1508.83491 C2735.73296,1537.5019 2582.77344,1550.28641 2582.77344,1550.28641 L2302.33311,1777.09162 L2546.60588,1885.95637 L3449.44226,1885.95637 C3450.31482,1855.89311 3447.65352,1821.72835 3436.83379,1789.35254 C3408.17024,1703.2643 3191.47031,1674.59731 3057.61982,1617.21969 Z" id="Path" fill="url(#linearGradient-6)"></path>
                <path d="M3309.26572,1840.31607 C3242.20959,1776.56802 3185.10063,1795.67934 3105.43604,1770.28484 C3025.77144,1744.89034 2958.84619,1770.28484 2958.84619,1770.28484 C2958.84619,1770.28484 2767.62498,1821.20475 2751.70078,1792.49412 C2735.77659,1763.82713 2659.29683,1693.70863 2630.58965,1668.18323 C2601.9261,1642.70146 2627.40481,1591.69429 2582.77344,1550.24278 C2538.14207,1508.79127 2496.73916,1547.05756 2423.44424,1530.65149 C2350.14932,1514.24542 2324.67061,1499.23561 2273.66956,1492.86517 C2222.66851,1486.49473 2066.13149,1568.74324 2066.13149,1568.74324 L1919.9343,1750.99898 L2093.31169,1885.8691 L3345.34602,1885.8691 C3336.8822,1871.07746 3325.23354,1855.50042 3309.26572,1840.31607 Z" id="Path" fill="url(#linearGradient-7)"></path>
                <path d="M3574,1885.95637 L3574,1472.40121 L3425.4469,1504.07889 C3425.4469,1504.07889 3348.96714,1599.67916 3253.37834,1615.6489 C3157.78955,1631.575 3065.34197,1606.09324 3030.30874,1660.28563 C2995.27551,1714.47802 2906.01277,1838.78891 2816.79365,1851.5298 C2727.57454,1864.27068 2593.72405,1889.79609 2552.27751,1877.01157 C2526.71155,1869.1576 2508.43145,1874.61174 2493.68521,1886 L3574,1886 L3574,1885.95637 Z" id="Path" fill="url(#linearGradient-8)"></path>
                <path d="M2165.29778,1885.91273 C2130.22092,1854.06052 2085.63318,1787.12724 1977.2614,1723.37919 C1868.88962,1659.63113 1837.17212,1637.33458 1806.85071,1535.32024 C1776.48567,1433.34953 1766.93115,1331.33518 1709.56042,1283.51323 C1652.1897,1235.69128 1664.92905,1170.15427 1626.71099,1137.56029 C1588.44929,1105.00995 1556.6009,1047.63233 1524.75251,1022.15056 C1492.90413,996.668795 1448.27275,987.069498 1410.01106,977.513835 C1371.74937,967.958171 1317.6071,923.321442 1253.8667,926.506663 C1190.12629,929.691884 1091.35266,961.587729 1065.83032,1022.10693 C1040.35161,1082.66977 928.794995,1115.91824 836.39104,1137.51666 C743.987085,1159.11507 610.136597,1203.7518 587.799097,1232.46243 C565.505225,1261.12942 326.467798,1321.16866 183.062793,1306.20248 C60.206543,1293.41796 70.720874,1298.52304 0,1338.97099 L0,1885.95637 L2165.34141,1885.95637 C2165.34141,1885.91273 2165.34141,1885.91273 2165.29778,1885.91273 Z" id="Path" fill="url(#linearGradient-9)"></path>
                <ellipse id="Oval" fill="#99007C" cx="1327.46702" cy="983.491579" rx="13.9609375" ry="8.50846752"></ellipse>
                <polyline id="Path" fill="#99007C" points="1336.62888 983.360679 1353.60015 981.266287 1365.94685 988.640292 1380.12593 986.109569 1366.47039 987.287664 1353.94917 978.386498 1338.98479 978.386498 1336.62888 983.360679"></polyline>
                <polyline id="Path" fill="#99007C" points="1315.16394 975.332177 1311.89185 969.834398 1301.07212 967.085508 1312.89529 969.049001 1314.77129 971.230659 1315.16394 975.332177"></polyline>
                <polyline id="Path" fill="#99007C" points="1323.58413 987.287664 1332.22246 1000.20308 1324.67483 1008.53702 1326.41995 1026.20845 1306.70012 1034.54238 1328.29595 1026.68841 1326.85623 1008.71155 1336.62888 1000.07218 1329.69204 987.63673 1323.58413 987.287664"></polyline>
                <polyline id="Path" fill="#99007C" points="1316.56003 981.266287 1297.7564 987.723996 1297.7564 994.748936 1280.13071 1003.3883 1265.64624 1000.63941 1257.05154 1003.3883 1265.34084 1001.55571 1280.47974 1005.04636 1301.07212 995.141634 1301.07212 990.211086 1319.30859 984.844207 1316.56003 981.266287"></polyline>
                <g id="Flag" transform="translate(2272.563866, 1374.881085)">
                    <path d="M609.977076,124.049093 L609.977076,124.049093 C611.067775,124.179993 612.071217,123.394596 612.202101,122.303766 L623.327223,33.9466037 C623.458107,32.8557746 622.672804,31.8522117 621.582106,31.7213122 L621.582106,31.7213122 C620.491407,31.5904127 619.487965,32.3758097 619.357081,33.4666389 L608.231959,121.823802 C608.101075,122.914631 608.886378,123.918194 609.977076,124.049093 Z" id="Path" fill="#FFFFFF" opacity="0.8"></path>
                    <path d="M623.239967,34.5574681 C623.239967,34.5574681 631.005738,32.8557746 645.533839,36.4773274 C660.06194,40.0988803 667.609571,43.8513326 684.406324,42.2369054 L679.476368,81.5503887 C679.476368,81.5503887 675.593483,83.732047 657.662403,80.1977605 C641.738209,75.878077 628.475318,72.3437905 618.310011,73.9145845 L623.239967,34.5574681 Z" id="Path" fill="#F06BA8" opacity="0.8"></path>
                    <path d="M6.77732043,37.9608551 L6.77732043,37.9608551 C7.1699718,37.8735887 7.47536731,37.4808902 7.38811145,37.0881917 L1.49834094,3.79608551 C1.41108508,3.40338701 1.01843372,3.09795484 0.625782348,3.18522117 L0.625782348,3.18522117 C0.233130981,3.27248751 -0.0722645268,3.66518601 0.0149913325,4.05788451 L5.90476184,37.3499907 C5.9920177,37.7863224 6.38466907,38.0481214 6.77732043,37.9608551 Z" id="Path" fill="#FFFFFF" opacity="0.6"></path>
                    <path d="M1.54196887,4.05788451 C1.54196887,4.05788451 4.15964465,2.57435684 9.83127551,2.26892467 C15.5029064,1.9634925 18.6441173,2.48709051 24.5775157,0 L27.1951915,14.7916435 C27.1951915,14.7916435 26.0172374,16.0133722 19.1240245,16.755136 C12.8852306,16.9733019 7.64987903,17.1914677 4.15964465,18.8931612 L1.54196887,4.05788451 Z" id="Path" fill="#F06BA8" opacity="0.6"></path>
                </g>
            </g>
            <g id="person+flag" transform="translate(961.000000, 410.718999)">
                <g id="Layer_4" transform="translate(28.394189, 252.886899)" fill-rule="nonzero">
                    <path d="M137.515234,234.670107 C137.515234,234.670107 180.663257,240.64785 197.329126,248.807253 C213.994995,256.966655 226.647095,279.263203 229.221143,292.222254 C231.79519,305.181304 197.896289,388.084321 197.896289,388.084321 L174.598975,386.644426 C174.598975,386.644426 209.501318,301.865183 178.7,298.636329 C147.898682,295.407475 106.408521,290.258761 94.6289795,280.484932 C94.6289795,280.484932 92.6657227,300.730721 87.2994873,325.427093 C81.933252,350.123466 63.5658936,375.561602 63.5658936,375.561602 L20.0688477,425.82701 L0,415.442317 C0,415.442317 43.4970459,355.228546 42.4499756,347.374576 C41.4029053,339.56424 24.2571289,287.029907 25.0860596,271.409233 C25.9149902,255.832192 30.1905273,218.744001 30.1905273,218.744001 C30.1905273,218.744001 40.1813232,206.046749 52.1790039,213.726187 C64.1766846,221.405624 100.126099,227.819699 109.680615,227.863333 C119.27876,227.950599 137.515234,234.670107 137.515234,234.670107 Z" id="Path" fill="#364755"></path>
                    <path d="M52.2662598,213.813453 C40.2685791,206.134016 30.2777832,218.831267 30.2777832,218.831267 C30.2777832,218.831267 26.0022461,255.875826 25.1733154,271.496499 C24.3443848,287.07354 41.4901611,339.607873 42.5372314,347.461843 C43.5843018,355.27218 0.0872558594,415.529583 0.0872558594,415.529583 C0.0872558594,415.529583 6.23879395,419.8929 13.7427979,415.835015 C21.2468018,411.77713 25.9586182,381.233914 40.7921143,368.449396 C55.6256104,355.664878 58.8540771,347.723642 56.2800293,342.705828 C53.7059814,337.688013 44.675,311.46448 49.3868164,280.135866 C54.2731445,247.629157 106.364893,237.113564 106.364893,237.113564 L52.2662598,213.813453 Z" id="Path" fill="#0A1B2A"></path>
                    <path d="M213.645972,17.2896698 C213.645972,17.2896698 219.099463,21.783886 218.096021,39.6298512 C217.616113,48.1819519 226.559839,57.5194496 219.36123,58.4357461 C216.481787,58.7848114 212.337134,59.0029772 212.468018,63.9771583 C212.598901,68.9513393 210.766528,73.4891886 209.850342,76.5871435 C209.195923,78.7688018 211.769971,87.1463698 204.484106,85.619209 C200.81936,82.6957868 186.858423,79.4232993 184.80791,83.8302491 L178.787256,99.8872545 C178.787256,99.8872545 173.333765,85.5319426 155.620825,82.215822 C155.620825,82.215822 156.537012,74.7981836 157.671338,63.8462588 C158.849292,52.8507007 163.561108,29.2015244 163.561108,29.2015244 L183.76084,19.2095292 L202.913501,14.8462125 L213.645972,17.2896698 Z" id="Path" fill="#96654D"></path>
                    <path d="M174.031812,43.7313689 C174.031812,43.7313689 178.438232,44.5603991 179.354419,49.2291479 C180.270605,53.8978967 180.008838,55.5123239 182.539258,55.5559571 C183.804468,55.5995902 185.724097,52.9816002 187.33833,50.3636102 C188.996191,47.7019871 190.741309,44.9094644 190.741309,44.9094644 C190.741309,44.9094644 195.147729,41.5060774 194.798706,35.921032 C194.449683,30.3359867 193.533496,24.2709765 205.094897,23.0056147 C208.803271,22.6129162 219.884766,21.9584187 220.277417,18.8604638 C220.670068,15.762509 217.179834,4.89785047 206.141968,5.68324747 C201.430151,5.98867964 192.61731,3.4143228 190.043262,4.02518713 C190.043262,4.02518713 184.589771,-1.82165721 172.112183,0.578166958 C159.590967,2.97799113 152.261475,10.6137953 150.734497,22.6129162 C149.251147,34.612037 154.442871,59.4829421 154.442871,59.4829421 C154.442871,59.4829421 156.231616,67.7732438 158.107617,64.8498216 C159.93999,61.9263994 163.081201,55.3377912 166.222412,50.9744746 C169.145483,47.0474896 170.105298,44.1240674 174.031812,43.7313689 Z" id="Path" fill="#351313"></path>
                    <path d="M183.368188,162.849914 C183.368188,162.849914 245.7125,165.031572 259.41167,161.759085 C273.11084,158.486597 306.878857,100.10542 306.878857,100.10542 L302.995972,81.0813596 C302.995972,81.0813596 275.990283,129.121476 256.139575,133.659326 C236.288867,138.197175 201.735547,126.067155 201.735547,126.067155" id="Path" fill="#754E3E"></path>
                    <path d="M183.76084,115.900627 L204.702246,123.449165 C204.702246,123.449165 214.51853,124.147295 210.7229,129.252376 C206.883643,134.357456 196.936475,150.93806 196.936475,150.93806 L155.838965,141.818728 L183.76084,115.900627 Z" id="Path" fill="#60C5E8"></path>
                    <path d="M155.664453,82.215822 C155.664453,82.215822 144.452075,89.1098623 139.565747,90.2006915 C134.679419,91.2915207 90.6588379,101.414415 57.5888672,141.382396 C24.5188965,181.350377 19.3708008,219.616664 24.2571289,220.576594 C29.0998291,221.536523 32.5464355,214.031619 44.2823486,218.04587 C56.0182617,222.060121 71.8115723,234.888272 94.8034912,236.328167 C117.79541,237.768061 121.940063,237.811695 131.49458,236.5027 C141.049097,235.193705 143.099609,229.34686 139.216724,227.121569 C135.333838,224.896277 123.685181,224.459946 123.990576,219.616664 C124.295972,214.773383 129.487695,216.649609 128.920532,212.853523 C128.353369,209.057438 125.910205,205.91585 131.974487,199.196342 C138.03877,192.476834 157.84585,159.010195 162.034131,158.879296 C166.222412,158.748396 179.223535,176.201663 185.549585,177.292492 C191.875635,178.383322 197.896289,164.595241 197.896289,164.595241 C197.896289,164.595241 204.484106,153.294251 203.34978,147.098341 C202.215454,140.902431 198.943359,137.804476 192.835449,133.31026 C186.727539,128.816044 183.455444,120.133044 183.848096,115.81336 C184.284375,111.493677 180.270605,102.461611 178.91814,99.7999882 C177.522046,97.2256313 173.377393,83.9611486 155.664453,82.215822 Z" id="Path" fill="#85CDED"></path>
                    <path d="M155.664453,82.215822 C155.664453,82.215822 144.452075,89.1098623 139.565747,90.2006915 C134.679419,91.2915207 90.6588379,101.414415 57.5888672,141.382396 C24.5188965,181.350377 19.3708008,219.616664 24.2571289,220.576594 C29.0998291,221.536523 32.5464355,214.031619 44.2823486,218.04587 C44.2823486,218.04587 54.57854,222.627353 57.6324951,211.326362 C60.6864502,200.025372 52.0044922,186.673623 59.2903564,176.98706 C66.5762207,167.300497 82.0205078,158.268432 95.5887939,152.203421 C109.15708,146.138411 103.703589,132.044898 133.457837,108.832054 C142.706958,101.632581 161.117944,99.8436213 159.765479,92.3823498 C158.413013,84.9210783 160.638037,83.001219 160.638037,83.001219 L155.664453,82.215822 Z" id="Path" fill="#60C5E8"></path>
                    <path d="M186.334888,53.1997661 C186.334888,53.1997661 186.160376,60.7046708 192.050146,63.3226608 C197.939917,65.9406508 205.531177,63.6717261 205.531177,63.6717261 C205.531177,63.6717261 210.635645,62.8863291 212.511646,63.4535603 C214.387646,64.0207914 213.515088,69.4749373 212.511646,69.7803694 C211.508203,70.1294348 208.846899,71.0893644 209.065039,72.0056609 C209.283179,72.9219574 211.071924,73.2273896 211.769971,74.9290831 C212.468018,76.6744098 212.380762,82.6521536 209.937598,85.1828773 C207.494434,87.713601 201.124756,86.8847871 199.379639,86.0991738 C197.634521,85.3137768 193.009961,82.3030883 190.435913,83.001219 C187.861865,83.6993496 184.197119,84.1356813 183.586328,82.215822 C183.019165,80.2959626 181.404932,75.409048 181.099536,70.2603343 C180.837769,65.1116206 180.619629,55.8177561 179.877954,52.0653037 C179.179907,48.3128514 183.324561,43.4259367 184.415259,46.2184594 C185.505957,49.0109821 186.683911,51.4108062 186.334888,53.1997661 Z" id="Path" fill="#351313"></path>
                    <path d="M93.2765137,279.481369 C93.2765137,279.481369 91.6186523,279.306836 85.0744629,276.776113 C78.5302734,274.201756 76.5670166,289.298831 80.2753906,296.018339 C83.9837646,302.737847 88.1720459,311.551746 88.1720459,311.551746 L89.9171631,312.729842 L94.6726074,280.572198 L93.2765137,279.481369 Z" id="Path" fill="#0A1B2A"></path>
                    <path d="M119.889551,290.040595 C136.55542,294.709344 167.138599,297.458234 178.743628,298.636329 C208.061597,301.603384 174.642603,386.644426 174.642603,386.644426 C174.642603,386.644426 185.811353,385.815396 186.509399,379.706753 C187.207446,373.59811 183.5427,368.405763 195.104102,330.488541 C200.164941,319.362083 202.913501,299.727158 198.114429,294.491178 C193.315356,289.255198 195.802148,289.69153 174.642603,292.004088 C153.483057,294.316646 140.481934,285.459113 121.416528,283.801052 C121.416528,283.801052 101.78396,283.451987 98.2500977,281.968459 C94.7162354,280.484932 102.656519,285.633645 111.294849,287.815304 C119.889551,290.040595 119.889551,290.040595 119.889551,290.040595 Z" id="Path" fill="#0A1B2A"></path>
                    <path d="M183.586328,82.2594551 C183.586328,82.2594551 176.605859,82.6957868 171.981299,79.9905305 C170.454321,79.074234 164.346411,70.6093996 164.520923,70.8711986 C166.527808,74.0127866 165.611621,77.2852741 168.491064,83.524817 C169.930786,86.5791386 174.075439,90.9424553 176.344092,95.4366715 C177.696558,98.0982947 178.787256,99.8872545 178.787256,99.8872545 L184.80791,83.8302491 L183.586328,82.2594551 Z" id="Path" fill="#754E3E"></path>
                </g>
                <g id="backpack_1_" transform="translate(39.501458, 318.957411)">
                    <path d="M35.9236395,70.0322703 C35.9236395,70.0322703 55.2071844,28.2753297 67.204865,19.3305305 C79.2025457,10.4293645 87.4045965,11.083862 92.2472967,12.5237565 C97.0899969,13.963651 99.6204168,13.7454852 104.943024,15.7526108 C110.222004,17.7161034 125.360895,22.6902844 127.324152,24.1301789 C129.287409,25.5700734 126.364338,31.504184 126.364338,31.504184 C126.364338,31.504184 93.2507391,63.13823 79.2025457,89.841728 C65.1543523,116.545226 60.7043035,124.922794 60.7043035,124.922794 C60.7043035,124.922794 34.7456854,122.217538 15.723908,104.153407 C-3.29786933,86.0892757 15.723908,104.153407 15.723908,104.153407 C15.723908,104.153407 23.3151678,89.9726275 27.2853094,83.6458183 C31.255451,77.3190091 35.9236395,70.0322703 35.9236395,70.0322703" id="Path" fill="#F06BA8" fill-rule="nonzero"></path>
                    <path d="M2.19924981,97.3466327 C3.42083184,102.277181 15.723908,104.109774 15.723908,104.109774 C15.723908,104.109774 8.08902032,118.290553 15.723908,104.109774 C21.962702,92.5033512 35.9236395,70.0322703 35.9236395,70.0322703 C35.9236395,70.0322703 34.5275457,69.3341396 32.6079168,68.9414411 C30.6882879,68.5051095 24.3186102,69.8577376 18.2543279,71.3412653 C12.2336736,72.824793 1.457575,97.0412005 1.457575,97.0412005 L2.19924981,97.3466327 Z" id="Path" fill="#FF2E89" fill-rule="nonzero"></path>
                    <g id="backpack" transform="translate(0.000000, 97.008473)" fill="#E40062" fill-rule="nonzero">
                        <path d="M2.19924981,0.338159596 C2.19924981,0.338159596 3.5080877,3.82881294 15.723908,7.10130044 C15.723908,7.10130044 29.6848455,21.8056776 60.7043035,27.8706878 C60.7043035,27.8706878 61.7950018,30.0959793 57.2576971,38.2117483 C52.7203924,46.3275174 12.7135809,32.1467382 5.55860039,22.1983761 C-1.55275214,12.206381 -0.854705269,-2.41072991 2.19924981,0.338159596 Z" id="Path"></path>
                    </g>
                    <path d="M104.070466,20.4213597 C104.070466,20.4213597 109.262189,3.92802266 112.316144,0.960967318 C112.316144,0.960967318 113.843122,-0.871625686 116.940705,0.524635651 C120.038288,1.96453015 124.575593,4.05892216 124.575593,4.05892216 C124.575593,4.05892216 125.491779,4.45162066 125.666291,4.93158549 C125.666291,4.93158549 118.991218,6.67691216 115.500983,12.3492238 C112.010749,18.0215355 110.222004,23.1702492 110.222004,23.1702492 L104.070466,20.4213597 Z" id="Path" fill="#E40062" fill-rule="nonzero"></path>
                    <path d="M116.635309,10.7784298 C116.635309,10.7784298 118.94759,13.6582188 116.373542,21.1194904 L121.739777,24.0865457 C121.739777,24.0865457 127.542292,6.58964583 125.666291,4.93158549 C125.666291,4.97521866 120.910846,5.62971616 116.635309,10.7784298 Z" id="Path" fill="#FF2E89" fill-rule="nonzero"></path>
                    <path d="M60.8351873,63.7054611 C60.8351873,63.7054611 59.0028143,64.709024 77.152033,70.9922 C77.152033,70.9922 65.1107244,92.8960497 64.107282,101.142718 C64.107282,101.142718 51.4115545,95.9503714 47.397785,94.9904417 C47.397785,94.9904417 46.4815984,94.55411 47.8340643,91.1943562 C49.2737859,87.8346023 60.8351873,63.7054611 60.8351873,63.7054611 Z" id="Path" fill="#E40062" fill-rule="nonzero"></path>
                    <g id="Group" transform="translate(35.530988, 13.348334)" stroke-width="5.3644">
                        <path d="M63.1296143,0.266251365 C63.1296143,0.266251365 62.649707,0.135351864 61.7335205,0.178985031" id="Path" stroke="url(#linearGradient-10)"></path>
                        <path d="M58.9849609,0.484417198 C51.9172363,1.96794487 36.3420654,9.60374905 15.9241943,45.8629106 L1.1779541,77.0169917" id="Path" stroke="url(#linearGradient-11)" stroke-dasharray="6.3592,6.3592"></path>
                        <line x1="0.610791016" y1="78.2823535" x2="0" y2="79.5477154" id="Path" stroke="url(#linearGradient-12)"></line>
                    </g>
                    <path d="M123.397638,34.3839731 C123.397638,34.3839731 154.155329,26.1373045 161.790217,31.8096162 C169.425104,37.5255611 170.297663,39.6635862 170.297663,39.6635862 L172.609943,47.7357221 C172.609943,47.7357221 161.353937,36.4347319 144.557184,38.9218224 C127.804059,41.4089129 113.014191,45.1177321 113.014191,45.1177321 L121.216242,36.5656314" id="Path" fill="#F06BA8" fill-rule="nonzero"></path>
                    <path d="M149.48714,93.5941803 C149.48714,93.5941803 125.666291,110.523849 104.070466,112.836407 C82.5618963,115.105332 67.6411443,110.436583 67.6411443,110.436583 L62.9293279,118.159653 C62.9293279,118.159653 106.557258,129.722442 137.05318,109.782085" id="Path" fill="#F06BA8" fill-rule="nonzero"></path>
                </g>
                <g id="flag" transform="translate(301.845695, 0.000000)" fill-rule="nonzero">
                    <path d="M65.5811356,577.092264 L65.5811356,577.092264 C72.125325,576.437766 76.9680252,570.547289 76.3572342,563.95868 L23.9600906,32.6376087 C23.3056717,26.0926337 17.4159012,21.2493522 10.8280838,21.8602165 L10.8280838,21.8602165 C4.28389434,22.514714 -0.558805851,28.4051916 0.0519851651,34.9937997 L52.4491287,566.314871 C53.1471756,572.90348 59.0369461,577.746761 65.5811356,577.092264 Z" id="Path" fill="#FFFFFF"></path>
                    <path d="M24.3091141,36.3027947 C24.3091141,36.3027947 67.4135086,16.1006385 157.287044,18.0204979 C247.160579,19.896724 296.154744,31.8085786 392.267073,0 L415.608015,236.491764 C415.608015,236.491764 395.844563,254.381362 286.163948,257.65385 C187.303059,253.465066 105.195296,250.410744 47.6936844,273.187257 L24.3091141,36.3027947 Z" id="Path" fill="#FF0077"></path>
                    <path d="M284.200691,136.440912 C281.888411,137.880807 279.401619,139.102536 277.26385,140.760596 C275.213338,142.33139 273.555476,142.375023 271.199568,141.327827 C254.271931,133.779289 234.988387,142.811355 230.189314,160.351888 C228.313313,167.202295 228.836848,173.965436 232.021687,180.292245 C233.286897,182.735702 233.417781,184.873728 232.327083,187.229919 C230.974617,190.153341 229.534895,193.03313 228.051546,196.043818 C217.493587,186.400888 213.348933,169.209421 218.497029,154.417777 C222.074519,144.12035 228.662337,136.353646 238.173225,131.161299 C247.684114,125.968952 257.849422,125.009023 268.407381,126.928882 C269.236311,112.57357 245.45909,93.942208 225.782893,93.0259115 C197.293855,91.7169165 177.879427,113.5335 175.91617,133.342958 C190.749666,128.630576 204.623347,130.114103 217.362703,139.320701 C215.355818,143.16042 213.479817,146.73834 211.472932,150.578058 C210.600374,150.010827 209.771443,149.530862 208.942513,148.963631 C197.904646,141.545993 186.64864,141.327827 175.305379,148.090968 C173.254866,149.312697 171.727888,149.35633 169.764632,148.309134 C167.27784,146.956506 164.616536,145.952943 161.99886,144.774847 C161.911604,143.553119 161.824348,142.33139 161.737093,141.109661 C162.086116,138.186239 162.391512,135.262817 162.784163,132.383028 C166.885188,102.450676 193.890877,79.3687303 224.953963,80.32866 C251.087093,81.114057 273.817244,98.2618915 281.408504,123.350962 C282.368318,126.448917 283.066365,129.634138 283.895296,132.775726 C284.069807,133.997455 284.157063,135.219184 284.200691,136.440912 Z" id="Path" fill="#FFFFFF"></path>
                </g>
                <g id="arms" transform="translate(217.303125, 333.972562)" fill="#96654D" fill-rule="nonzero">
                    <path d="M0,93.0652407 C0,93.0652407 65.2673828,127.011844 78.9665527,123.695724 C92.6657227,120.423236 144.713843,33.1569027 144.713843,33.1569027 L124.295972,24.6920684 C124.295972,24.6920684 94.1490723,84.7313059 74.2983643,89.2691552 C54.4476562,93.8070045 13.8300537,68.543401 13.8300537,68.543401" id="Path"></path>
                    <path d="M144.757471,33.1569027 C144.757471,33.1569027 145.499146,27.9209227 151.607056,21.4632141 C157.714966,15.0491385 161.248828,8.41689719 159.590967,2.74458551 C157.933105,-2.97135933 147.680542,1.47922368 138.300537,4.92624385 C128.920532,8.37326403 126.084717,3.74814835 126.084717,3.74814835 C126.084717,3.74814835 121.242017,-0.135203492 122.550854,5.62437452 C123.859692,11.3839525 128.353369,17.1435305 124.3396,24.7357016 C120.32583,32.2842394 144.757471,33.1569027 144.757471,33.1569027 Z" id="Path"></path>
                </g>
                <g id="Layer_7" transform="translate(0.000000, 634.281001)" fill-rule="nonzero">
                    <path d="M227.432923,3.57102707 L219.376118,26.0621961 C219.376118,26.0621961 207.312686,16.4106459 202.173752,15.3188416 C202.173752,15.3188416 201.738249,13.4409381 203.43671,6.32237396 C205.135172,-0.839862395 209.490201,0.0335810634 209.490201,0.0335810634 L227.432923,3.57102707 Z" id="Path" fill="#96654D"></path>
                    <path d="M219.376118,26.0621961 C219.376118,26.0621961 218.766414,28.2458048 219.550319,35.1896802 C220.334225,42.1772279 217.590556,47.3742165 212.364521,46.8938226 C207.138485,46.4134287 196.250911,41.5658175 196.250911,41.5658175 L195.771858,33.355449 L202.130201,15.2751694 C202.173752,15.3188416 212.451621,17.7208111 219.376118,26.0621961 Z" id="Path" fill="#FFFFFF"></path>
                    <path d="M196.860615,32.6566942 C196.860615,32.6566942 207.007834,43.4000488 216.284047,35.8447628 C216.284047,35.8447628 218.026059,28.6388543 222.685941,35.0586637 C227.345822,41.4784731 234.444521,50.5622851 243.15458,52.4401885 C251.864639,54.318092 259.268189,55.0168467 258.745585,60.4758684 L188.890911,53.9250424 C188.890911,53.9250424 187.976355,53.7503537 188.281207,50.2565799 C188.586059,46.7628061 189.282864,36.4125011 191.024876,34.0105316 C192.766888,31.6959064 195.684757,30.4730856 196.860615,32.6566942 Z" id="Path" fill="#0A1B2A"></path>
                    <path d="M258.745585,60.5632127 C258.745585,60.5632127 259.485941,61.9170501 258.440733,63.7076092 C257.395526,65.4544961 252.822745,64.93043 248.816118,64.5810526 C244.853041,64.1880031 188.76026,58.9473423 188.76026,58.9473423 C188.76026,58.9473423 187.323101,58.7289814 187.627953,57.0694389 C187.932805,55.4535685 187.627953,53.9250424 188.890911,54.0123868 C190.15387,54.0997311 258.745585,60.5632127 258.745585,60.5632127 Z" id="Path" fill="#FAFAFA"></path>
                    <path d="M54.4946991,37.7663384 L39.9053501,56.6763893 C39.9053501,56.6763893 31.4130424,43.7494261 26.8402614,41.1290958 C26.8402614,41.1290958 27.0144626,39.2075202 30.8033383,32.9187273 C34.592214,26.6299344 38.5117406,28.7698708 38.5117406,28.7698708 L54.4946991,37.7663384 Z" id="Path" fill="#96654D"></path>
                    <path d="M39.9053501,56.6763893 C39.9053501,56.6763893 38.6423915,58.5542928 37.2487821,65.4108239 C35.8551726,72.267355 31.6307939,76.4162115 26.8402614,74.3199472 C22.0061786,72.2236829 13.1654686,64.2753474 13.1654686,64.2753474 L15.2558828,56.3270119 L26.8402614,41.0854236 C26.8402614,41.1290958 35.8987229,46.5881174 39.9053501,56.6763893 Z" id="Path" fill="#FFFFFF"></path>
                    <path d="M16.4752911,56.0213067 C16.4752911,56.0213067 22.8336342,69.3849916 33.9825099,65.0614465 C33.9825099,65.0614465 37.8584862,58.7726536 40.340853,66.2842674 C42.8232199,73.8395533 46.7862968,84.6702521 54.4511488,89.168486 C62.1595511,93.6667198 68.9969476,96.5927553 66.8194328,101.658727 L2.40854557,73.8832254 C2.40854557,73.8832254 1.58108996,73.4465037 2.97469942,70.2147629 C4.36830888,66.9830221 8.20073489,57.3751441 10.5524509,55.584585 C12.8606165,53.7940259 16.0397881,53.575665 16.4752911,56.0213067 Z" id="Path" fill="#0A1B2A"></path>
                    <path d="M66.7758825,101.658727 C66.7758825,101.658727 67.0807345,103.187253 65.5564742,104.541091 C64.0322139,105.894928 59.8078352,103.973353 56.1496103,102.401154 C52.4913855,100.828956 0.753634341,78.5124758 0.753634341,78.5124758 C0.753634341,78.5124758 -0.552874527,77.8573932 0.27458109,76.4162115 C1.10203671,74.9750298 1.23268759,73.4028315 2.40854557,73.9268976 C3.49730296,74.3636193 66.7758825,101.658727 66.7758825,101.658727 Z" id="Path" fill="#FAFAFA"></path>
                </g>
            </g>
        </g>
    </g>
</svg>