<svg xmlns="http://www.w3.org/2000/svg" width="3574" height="1886">
    <defs>
        <linearGradient id="a" x1="50%" x2="50%" y1="0%" y2="99.6%">
            <stop offset="0%" stop-color="#A65193" stop-opacity=".31" />
            <stop offset="100%" stop-color="#FEC2FC" />
        </linearGradient>
        <linearGradient id="b" x1="-48.42%" x2="118.59%" y1="3.93%" y2="80.65%">
            <stop offset="0%" stop-color="#F8D1E8" />
            <stop offset="0%" stop-color="#F8D1E8" />
            <stop offset="100%" stop-color="#EAE8FE" />
        </linearGradient>
        <linearGradient id="c" x1="-48.18%" x2="118.83%" y1="-8.4%" y2="87.51%">
            <stop offset="0%" stop-color="#F8D1E8" />
            <stop offset="0%" stop-color="#F8D1E8" />
            <stop offset="100%" stop-color="#EAE8FE" />
        </linearGradient>
        <linearGradient id="d" x1="50%" x2="50%" y1="0%" y2="100.01%">
            <stop offset="0%" stop-color="#BE94CC" />
            <stop offset="100%" stop-color="#EAC2FE" />
        </linearGradient>
        <linearGradient id="e" x1="50%" x2="50%" y1="-10.3%" y2="89.7%">
            <stop offset="0%" stop-color="#AC6EA6" />
            <stop offset="13.47%" stop-color="#B479B2" />
            <stop offset="100%" stop-color="#EAC2FE" />
        </linearGradient>
        <linearGradient id="f" x1="50%" x2="50%" y1="-14.68%" y2="85.31%">
            <stop offset="0%" stop-color="#AC6EA6" />
            <stop offset="100%" stop-color="#EAC2FE" />
        </linearGradient>
        <linearGradient id="g" x1="50%" x2="50%" y1=".01%" y2="145.59%">
            <stop offset="0%" stop-color="#B965A6" />
            <stop offset="100%" stop-color="#EAC2FE" />
        </linearGradient>
        <linearGradient id="h" x1="50%" x2="50%" y1="41.64%" y2="254.7%">
            <stop offset="0%" stop-color="#C151A6" />
            <stop offset="100%" stop-color="#EAC2FE" />
        </linearGradient>
        <linearGradient id="i" x1="50%" x2="50%" y1="34.36%" y2="149.36%">
            <stop offset="0%" stop-color="#C151A6" />
            <stop offset="100%" stop-color="#EAC2FE" />
        </linearGradient>
        <linearGradient id="j" x1="-2344.19%" x2="105.22%" y1="-200.99%" y2="54.68%">
            <stop offset="0%" stop-color="#F8D1E8" />
            <stop offset="0%" stop-color="#F8D1E8" />
            <stop offset="100%" stop-color="#EAE8FE" />
        </linearGradient>
        <linearGradient id="k" x1="34.44%" x2="68.19%" y1="42.51%" y2="57.43%">
            <stop offset="0%" stop-color="#F8D1E8" />
            <stop offset="0%" stop-color="#F8D1E8" />
            <stop offset="100%" stop-color="#EAE8FE" />
        </linearGradient>
        <linearGradient id="l" x1="4.75%" x2="1309.24%" y1="18.52%" y2="921.08%">
            <stop offset="0%" stop-color="#F8D1E8" />
            <stop offset="0%" stop-color="#F8D1E8" />
            <stop offset="100%" stop-color="#EAE8FE" />
        </linearGradient>
    </defs>
    <g fill="none" fill-rule="evenodd">
        <path fill="#FFF" d="M0 0h3574v1886H0z" />
        <path fill="url(#a)" fill-rule="nonzero" d="M0 0h3574v1884H0z" opacity=".53" />
        <g fill-rule="nonzero" transform="translate(429)">
            <path fill="url(#b)"
                d="M0 899.74C0 1297.2 181.86 1652.2 466.93 1886h1614.99c285.02-233.8 466.93-588.76 466.93-986.26 0-351.17-141.95-669.18-371.62-899.74H371.62C141.95 230.56 0 548.57 0 899.74Z"
                opacity=".47" />
            <path fill="url(#c)"
                d="M253.88 898.47c0 475.13 324.94 874.39 764.7 987.49h509.2c439.76-113.1 764.7-512.36 764.7-987.49 0-388.6-217.37-726.46-537.12-898.47H791C471.25 172.05 253.88 509.87 253.88 898.47Z"
                opacity=".61" />
            <ellipse cx="606.09" cy="360.72" fill="#F07" rx="18.67" ry="18.68" />
            <circle cx="2460.47" cy="1199.77" r="11.21" fill="#F07" />
            <circle cx="2609.79" cy="552.41" r="11.21" fill="#F07" />
            <circle cx="1751.43" cy="846.9" r="11.21" fill="#F07" />
            <ellipse cx="1347.84" cy="417.97" fill="#F07" rx="16.18" ry="16.19" />
            <ellipse cx="1151.19" cy="1672.8" fill="#F07" rx="16.18" ry="16.19" />
            <ellipse cx="252.66" cy="1065.28" fill="#F07" rx="16.18" ry="16.19" />
        </g>
        <g fill-rule="nonzero">
            <path fill="url(#d)"
                d="M1678.41 1411.84s108.59-63.53 241.52-3.67c23.96 10.78 77.23 19.55 91.45 19.55 14.22 0 40.83-26.18 71.07-31.72 30.23-5.54 79.92 15.88 79.92 15.88s58.64 6.29 97.69-.48c39.04-6.76 51.52 19.9 113.7 32.33 62.16 12.44 120.8-3.53 165.21 0 44.41 3.54 104.8 7.12 154.53-7.1 49.74-14.23 123.9 13.17 156.97 11.9 33.12-1.26 200.08 2.27 242.7-10.16 42.63-12.44 113.7-36.7 182.98-16.58 69.28 20.11 173.47 165.8 173.47 165.8s-116.62 229.16-127.27 229.16H2046.02l-304.65-191.85-62.96-213.06Z" />
            <path fill="url(#e)"
                d="M3574 1441.25c-28.93-11.6-54.62-18.46-70.2-18.46-51 0-114.74-41.45-178.48-53.58-63.74-12.17-162.51 88.66-229.44 123.35-66.92 34.69-181.67 51.36-181.67 51.36l-63.74 186.22 179.05 155.82H3574v-444.71Z" />
            <path fill="url(#f)"
                d="M3057.62 1617.22c-133.85-57.38-95.59-89.23-124.3-108.39-28.66-19.1-70.1-28.66-133.85 0-63.74 28.67-216.7 41.46-216.7 41.46l-280.44 226.8 244.28 108.87h902.83c.87-30.07-1.79-64.23-12.6-96.6-28.67-86.1-245.37-114.76-379.22-172.14Z" />
            <path fill="url(#g)"
                d="M3309.27 1840.32c-67.06-63.75-124.17-44.64-203.83-70.04-79.67-25.39-146.6 0-146.6 0s-191.22 50.92-207.14 22.21c-15.92-28.66-92.4-98.78-121.11-124.3-28.66-25.49-3.19-76.5-47.82-117.95s-86.03-3.18-159.33-19.59c-73.3-16.4-98.77-31.41-149.77-37.78-51-6.38-207.54 75.87-207.54 75.87L1919.93 1751l173.38 134.87h1252.04c-8.47-14.8-20.12-30.37-36.08-45.55Z" />
            <path fill="url(#h)"
                d="M3574 1885.96V1472.4l-148.55 31.68s-76.48 95.6-172.07 111.57c-95.59 15.92-188.04-9.56-223.07 44.64-35.03 54.19-124.3 178.5-213.52 191.24-89.22 12.74-223.07 38.27-264.51 25.48-25.57-7.85-43.85-2.4-58.6 8.99H3574v-.04Z" />
            <path fill="url(#i)"
                d="M2165.3 1885.91c-35.08-31.85-79.67-98.78-188.04-162.53-108.37-63.75-140.09-86.05-170.4-188.06-30.37-101.97-39.93-203.98-97.3-251.8-57.37-47.83-44.63-113.37-82.85-145.96-38.26-32.55-70.1-89.93-101.96-115.4-31.85-25.5-76.48-35.1-114.74-44.65-38.26-9.55-92.4-54.19-156.14-51-63.74 3.18-162.52 35.08-188.04 95.6-25.48 60.56-137.04 93.8-229.44 115.4-92.4 21.6-226.25 66.24-248.6 94.95-22.28 28.67-261.32 88.7-404.73 73.74-122.85-12.78-112.34-7.68-183.06 32.77v546.99h2165.34c0-.05 0-.05-.04-.05Z" />
            <ellipse cx="1327.47" cy="983.49" fill="#99007C" rx="13.96" ry="8.51" />
            <path fill="#99007C"
                d="m1336.63 983.36 16.97-2.09 12.35 7.37 14.18-2.53-13.66 1.18-12.52-8.9h-14.97l-2.35 4.97M1315.16 975.33l-3.27-5.5-10.82-2.74 11.83 1.96 1.87 2.18.39 4.1M1323.58 987.29l8.64 12.91-7.55 8.34 1.75 17.67-19.72 8.33 21.6-7.85-1.44-17.98 9.77-8.64-6.94-12.43-6.11-.35M1316.56 981.27l-18.8 6.45v7.03l-17.63 8.64-14.48-2.75-8.6 2.75 8.29-1.83 15.14 3.49 20.59-9.91v-4.93l18.24-5.37-2.75-3.57" />
            <path fill="#FFF"
                d="M2882.54 1498.93a2 2 0 0 0 2.23-1.75l11.12-88.35a2 2 0 0 0-1.74-2.23 2 2 0 0 0-2.23 1.75l-11.12 88.35a2 2 0 0 0 1.74 2.23Z"
                opacity=".8" />
            <path fill="#F06BA8"
                d="M2895.8 1409.44s7.77-1.7 22.3 1.92c14.53 3.62 22.07 7.37 38.87 5.76l-4.93 39.31s-3.88 2.18-21.81-1.35c-15.93-4.32-29.2-7.86-39.36-6.28l4.93-39.36Z"
                opacity=".8" />
            <path fill="#FFF"
                d="M2279.34 1412.84c.4-.09.7-.48.61-.87l-5.89-33.3c-.09-.39-.48-.7-.87-.6-.4.08-.7.48-.61.87l5.89 33.3c.09.43.48.69.87.6Z"
                opacity=".6" />
            <path fill="#F06BA8"
                d="M2274.1 1378.94s2.62-1.48 8.3-1.79c5.67-.3 8.8.22 14.74-2.27l2.62 14.8s-1.18 1.21-8.07 1.96c-6.24.21-11.48.43-14.97 2.13l-2.61-14.83Z"
                opacity=".6" />
        </g>
        <g fill-rule="nonzero">
            <path fill="#364755"
                d="M1126.9 898.28s43.16 5.97 59.82 14.13c16.67 8.16 29.32 30.46 31.9 43.42 2.57 12.96-31.33 95.86-31.33 95.86l-23.3-1.44s34.9-84.78 4.1-88c-30.8-3.24-72.29-8.39-84.07-18.16 0 0-1.96 20.25-7.33 44.94-5.36 24.7-23.73 50.14-23.73 50.14l-43.5 50.26-20.07-10.38s43.5-60.22 42.45-68.07c-1.04-7.81-18.19-60.34-17.36-75.96.83-15.58 5.1-52.67 5.1-52.67s10-12.7 22-5.02 47.94 14.1 57.5 14.14c9.6.09 27.83 6.8 27.83 6.8Z" />
            <path fill="#0A1B2A"
                d="M1041.66 877.42c-12-7.68-21.99 5.02-21.99 5.02s-4.27 37.04-5.1 52.66c-.83 15.58 16.31 68.11 17.36 75.97 1.05 7.8-42.45 68.07-42.45 68.07s6.15 4.36 13.66.3c7.5-4.06 12.21-34.6 27.05-47.38 14.83-12.79 18.06-20.73 15.48-25.75-2.57-5.02-11.6-31.24-6.89-62.57 4.89-32.5 56.98-43.02 56.98-43.02l-54.1-23.3Z" />
            <path fill="#96654D"
                d="M1203.04 680.9s5.45 4.49 4.45 22.34c-.48 8.55 8.46 17.89 1.27 18.8-2.88.35-7.03.57-6.9 5.54.13 4.98-1.7 9.52-2.62 12.61-.65 2.18 1.92 10.56-5.36 9.04-3.67-2.93-17.63-6.2-19.68-1.8l-6.02 16.06s-5.45-14.35-23.16-17.67c0 0 .91-7.42 2.05-18.37 1.17-11 5.89-34.64 5.89-34.64l20.2-10 19.15-4.36 10.73 2.45Z" />
            <path fill="#351313"
                d="M1163.43 707.34s4.4.83 5.32 5.5c.91 4.66.65 6.28 3.18 6.32 1.27.05 3.19-2.57 4.8-5.19l3.4-5.45s4.41-3.4 4.06-9c-.35-5.58-1.26-11.64 10.3-12.9 3.7-.4 14.79-1.06 15.18-4.15.4-3.1-3.1-13.97-14.13-13.18-4.72.3-13.53-2.27-16.1-1.66 0 0-5.46-5.85-17.93-3.45-12.52 2.4-19.85 10.04-21.38 22.04-1.48 12 3.7 36.87 3.7 36.87s1.8 8.29 3.67 5.37c1.83-2.93 4.98-9.52 8.12-13.88 2.92-3.93 3.88-6.85 7.8-7.24Z" />
            <path fill="#754E3E"
                d="M1172.76 826.46s62.35 2.18 76.05-1.1c13.7-3.27 47.46-61.65 47.46-61.65l-3.88-19.02s-27 48.04-46.86 52.58c-19.85 4.53-54.4-7.6-54.4-7.6" />
            <path fill="#60C5E8"
                d="m1173.16 779.5 20.94 7.56s9.81.7 6.02 5.8c-3.84 5.1-13.79 21.68-13.79 21.68l-41.1-9.12 27.93-25.91Z" />
            <path fill="#85CDED"
                d="M1145.06 745.82s-11.21 6.9-16.1 7.99c-4.89 1.09-48.9 11.21-81.98 51.18-33.07 39.97-38.22 78.23-33.33 79.2 4.84.95 8.3-6.55 20.03-2.54 11.73 4.02 27.53 16.84 50.52 18.28 22.99 1.44 27.13 1.49 36.69.18 9.55-1.31 11.6-7.16 7.72-9.38-3.88-2.23-15.53-2.66-15.23-7.5.31-4.85 5.5-2.97 4.93-6.77-.56-3.8-3-6.94 3.06-13.66 6.06-6.72 25.87-40.18 30.06-40.31 4.19-.14 17.19 17.32 23.51 18.4 6.33 1.1 12.35-12.69 12.35-12.69s6.59-11.3 5.45-17.5c-1.13-6.2-4.4-9.29-10.51-13.78-6.1-4.5-9.38-13.18-8.99-17.5.44-4.32-3.58-13.35-4.93-16.01-1.4-2.58-5.54-15.84-23.25-17.59Z" />
            <path fill="#60C5E8"
                d="M1145.06 745.82s-11.21 6.9-16.1 7.99c-4.89 1.09-48.9 11.21-81.98 51.18-33.07 39.97-38.22 78.23-33.33 79.2 4.84.95 8.3-6.55 20.03-2.54 0 0 10.3 4.58 13.35-6.72 3.05-11.3-5.63-24.65 1.65-34.34 7.29-9.68 22.73-18.72 36.3-24.78 13.57-6.07 8.12-20.16 37.87-43.37 9.25-7.2 27.66-8.99 26.31-16.45-1.35-7.46.87-9.38.87-9.38l-4.97-.79Z" />
            <path fill="#351313"
                d="M1175.73 716.8s-.18 7.51 5.71 10.13c5.9 2.62 13.49.35 13.49.35s5.1-.79 6.98-.22c1.87.57 1 6.02 0 6.33-1 .35-3.67 1.3-3.45 2.22.22.92 2 1.22 2.7 2.92.7 1.75.61 7.73-1.83 10.26-2.44 2.53-8.81 1.7-10.56.92-1.74-.79-6.37-3.8-8.94-3.1-2.57.7-6.24 1.13-6.85-.79-.57-1.92-2.18-6.8-2.49-11.95-.26-5.15-.48-14.45-1.22-18.2-.7-3.75 3.45-8.64 4.54-5.85 1.09 2.8 2.27 5.2 1.92 6.99Z" />
            <path fill="#0A1B2A"
                d="M1082.67 943.09s-1.66-.18-8.2-2.7c-6.55-2.58-8.5 12.51-4.8 19.23 3.7 6.72 7.9 15.54 7.9 15.54l1.74 1.18 4.76-32.16-1.4-1.1ZM1109.28 953.65c16.67 4.67 47.25 7.41 58.86 8.6 29.32 2.96-4.1 88-4.1 88s11.17-.83 11.86-6.94c.7-6.1-2.96-11.3 8.6-49.22 5.06-11.12 7.8-30.76 3-36-4.79-5.23-2.3-4.8-23.46-2.48-21.16 2.31-34.16-6.54-53.23-8.2 0 0-19.63-.35-23.17-1.84-3.53-1.48 4.41 3.67 13.05 5.85l8.6 2.23Z" />
            <path fill="#754E3E"
                d="M1172.98 745.87s-6.98.43-11.6-2.27c-1.53-.92-7.64-9.38-7.46-9.12 2 3.14 1.09 6.41 3.97 12.65 1.43 3.06 5.58 7.42 7.85 11.91a72.72 72.72 0 0 0 2.44 4.45l6.02-16.05-1.22-1.57Z" />
        </g>
        <path fill="#F06BA8" fill-rule="nonzero"
            d="M1036.43 799.7s19.28-41.75 31.28-50.7c12-8.9 20.2-8.24 25.04-6.8 4.84 1.44 7.37 1.22 12.7 3.23 5.27 1.96 20.41 6.94 22.38 8.38 1.96 1.44-.96 7.37-.96 7.37s-33.12 31.63-47.17 58.34a12277.4 12277.4 0 0 1-18.5 35.08s-25.95-2.7-44.97-20.77c-19.03-18.06 0 0 0 0s7.59-14.18 11.56-20.5c3.97-6.33 8.64-13.62 8.64-13.62" />
        <path fill="#FF2E89" fill-rule="nonzero"
            d="M1002.7 827.02c1.22 4.93 13.53 6.77 13.53 6.77s-7.64 14.18 0 0c6.23-11.61 20.2-34.08 20.2-34.08s-1.4-.7-3.32-1.1c-1.92-.43-8.29.92-14.35 2.4-6.02 1.5-16.8 25.7-16.8 25.7l.74.31Z" />
        <path fill="#E40062" fill-rule="nonzero"
            d="M1002.7 827.02s1.31 3.5 13.53 6.77c0 0 13.96 14.7 44.98 20.77 0 0 1.09 2.22-3.45 10.34-4.54 8.11-44.54-6.07-51.7-16.02-7.11-9.99-6.41-24.6-3.36-21.86ZM1104.57 750.1s5.2-16.5 8.25-19.46c0 0 1.52-1.84 4.62-.44l7.64 3.54s.91.39 1.09.87c0 0-6.68 1.74-10.17 7.42-3.49 5.67-5.28 10.82-5.28 10.82l-6.15-2.75Z" />
        <path fill="#FF2E89" fill-rule="nonzero"
            d="M1117.14 740.45s2.3 2.88-.27 10.35l5.37 2.96s5.8-17.5 3.93-19.15c0 .04-4.76.7-9.03 5.84Z" />
        <path fill="#E40062" fill-rule="nonzero"
            d="M1061.34 793.38s-1.84 1 16.31 7.29c0 0-12.04 21.9-13.04 30.15 0 0-12.7-5.2-16.71-6.15 0 0-.92-.44.44-3.8 1.44-3.36 13-27.49 13-27.49Z" />
        <g stroke-width="5.36">
            <path stroke="url(#j)" d="M63.13.27s-.48-.13-1.4-.1"
                transform="translate(1036.03 743.02)" />
            <path stroke="url(#k)" stroke-dasharray="6.3592,6.3592"
                d="M58.98.48C51.92 1.97 36.34 9.6 15.92 45.86L1.18 77.02"
                transform="translate(1036.03 743.02)" />
            <path stroke="url(#l)" d="M.61 78.28 0 79.55" transform="translate(1036.03 743.02)" />
        </g>
        <path fill="#F06BA8" fill-rule="nonzero"
            d="M1123.9 764.06s30.76-8.25 38.4-2.57c7.63 5.71 8.5 7.85 8.5 7.85l2.31 8.07s-11.25-11.3-28.05-8.81a368.93 368.93 0 0 0-31.54 6.2l8.2-8.56M1149.99 823.27s-23.82 16.93-45.42 19.24c-21.5 2.27-36.43-2.4-36.43-2.4l-4.7 7.73s43.62 11.56 74.11-8.38" />
        <g fill-rule="nonzero">
            <path fill="#FFF"
                d="M1328.43 987.81a12.1 12.1 0 0 0 10.77-13.13l-52.4-531.32a12.1 12.1 0 0 0-13.13-10.78 12.1 12.1 0 0 0-10.77 13.13l52.4 531.32a12.08 12.08 0 0 0 13.13 10.78Z" />
            <path fill="#F07"
                d="M1287.15 447.02s43.1-20.2 132.98-18.28c89.88 1.88 138.87 13.79 234.98-18.02l23.34 236.5s-19.76 17.88-129.44 21.15c-98.86-4.19-180.97-7.24-238.47 15.54l-23.39-236.89Z" />
            <path fill="#FFF"
                d="M1547.05 547.16c-2.32 1.44-4.8 2.66-6.94 4.32-2.05 1.57-3.7 1.61-6.06.57-16.93-7.55-36.22 1.48-41.01 19.02-1.88 6.85-1.36 13.61 1.83 19.94 1.26 2.44 1.4 4.58.3 6.94-1.35 2.92-2.79 5.8-4.27 8.81-10.56-9.64-14.7-26.83-9.56-41.62a40.99 40.99 0 0 1 19.68-23.26c9.51-5.2 19.68-6.15 30.23-4.23.83-14.36-22.95-32.99-42.62-33.9-28.49-1.31-47.9 20.5-49.87 40.31 14.84-4.71 28.7-3.23 41.45 5.98-2 3.84-3.88 7.42-5.9 11.26-.86-.57-1.7-1.05-2.52-1.62-11.04-7.42-22.3-7.63-33.64-.87-2.05 1.22-3.58 1.27-5.54.22-2.49-1.35-5.15-2.36-7.77-3.54l-.26-3.66c.35-2.92.66-5.85 1.05-8.73 4.1-29.93 31.1-53.01 62.17-52.05a60.67 60.67 0 0 1 56.45 43.02c.96 3.1 1.66 6.28 2.5 9.42.17 1.23.25 2.45.3 3.67Z" />
        </g>
        <g fill="#96654D" fill-rule="nonzero">
            <path
                d="M1178.3 837.76s65.27 33.94 78.97 30.63c13.7-3.28 65.75-90.54 65.75-90.54l-20.42-8.47s-30.15 60.04-50 64.58c-19.85 4.54-60.47-20.73-60.47-20.73" />
            <path
                d="M1323.06 777.85s.74-5.24 6.85-11.7c6.1-6.4 9.64-13.04 7.98-18.71-1.65-5.72-11.9-1.27-21.29 2.18-9.38 3.44-12.21-1.18-12.21-1.18s-4.84-3.88-3.54 1.88c1.31 5.76 5.8 11.52 1.8 19.1-4.02 7.56 20.41 8.43 20.41 8.43Z" />
        </g>
        <g fill-rule="nonzero">
            <path fill="#96654D"
                d="m1188.43 1048.57-8.05 22.5s-12.07-9.66-17.2-10.75c0 0-.44-1.88 1.26-9 1.7-7.16 6.05-6.29 6.05-6.29l17.94 3.54Z" />
            <path fill="#FFF"
                d="M1180.38 1071.06s-.61 2.19.17 9.13c.78 6.99-1.96 12.18-7.19 11.7-5.22-.48-16.1-5.32-16.1-5.32l-.49-8.21 6.36-18.08c.04.04 10.32 2.44 17.25 10.78Z" />
            <path fill="#0A1B2A"
                d="M1157.86 1077.66s10.15 10.74 19.42 3.18c0 0 1.75-7.2 6.4-.78 4.67 6.42 11.76 15.5 20.47 17.38 8.71 1.88 16.12 2.58 15.6 8.04l-69.86-6.55s-.91-.18-.6-3.67c.3-3.5 1-13.85 2.73-16.25 1.75-2.31 4.66-3.54 5.84-1.35Z" />
            <path fill="#FAFAFA"
                d="M1219.75 1105.56s.74 1.36-.3 3.15c-1.05 1.74-5.63 1.22-9.63.87-3.97-.4-60.06-5.63-60.06-5.63s-1.44-.22-1.13-1.88c.3-1.62 0-3.14 1.26-3.06 1.26.09 69.86 6.55 69.86 6.55Z" />
            <path fill="#96654D"
                d="m1015.5 1082.77-14.6 18.9s-8.49-12.92-13.06-15.54c0 0 .17-1.92 3.96-8.21 3.8-6.29 7.71-4.15 7.71-4.15l15.98 9Z" />
            <path fill="#FFF"
                d="M1000.9 1101.68s-1.26 1.87-2.65 8.73c-1.4 6.86-5.62 11-10.41 8.91-4.83-2.1-13.67-10.04-13.67-10.04l2.09-7.95 11.58-15.24c0 .04 9.06 5.5 13.07 15.59Z" />
            <path fill="#0A1B2A"
                d="M977.48 1101.02s6.35 13.36 17.5 9.04c0 0 3.88-6.29 6.36 1.22 2.48 7.56 6.45 18.39 14.11 22.89 7.71 4.5 14.55 7.42 12.37 12.49l-64.41-27.78s-.83-.43.56-3.67c1.4-3.23 5.23-12.83 7.58-14.63 2.31-1.79 5.49-2 5.93.44Z" />
            <path fill="#FAFAFA"
                d="M1027.78 1146.66s.3 1.53-1.22 2.88c-1.53 1.35-5.75-.57-9.41-2.14l-55.4-23.89s-1.3-.65-.48-2.1c.83-1.43.96-3 2.14-2.48 1.09.43 64.37 27.73 64.37 27.73Z" />
        </g>
    </g>
</svg>