<?xml version="1.0" encoding="UTF-8"?>
<svg width="25px" height="29px" viewBox="0 0 25 29" version="1.1" xmlns="http://www.w3.org/2000/svg" xmlns:xlink="http://www.w3.org/1999/xlink">
    <title>FF3C06F1-D772-4F84-B228-9C0C6DDAD918</title>
    <g id="Final-Designs" stroke="none" stroke-width="1" fill="none" fill-rule="evenodd">
        <g id="Admin-Dashboard:-admin-plan-and-billing" transform="translate(-302.000000, -1048.000000)" fill="#C7CBD1">
            <g id="Billing-&amp;-Users" transform="translate(275.000000, 222.000000)">
                <g id="Invoices" transform="translate(0.000000, 764.000000)">
                    <path d="M44.7083333,62 L29.0833333,62 C27.9327401,62 27,62.9274102 27,64.0714286 L27,88.9285714 C27,90.0725898 27.9327401,91 29.0833333,91 L49.9166667,91 C51.0672599,91 52,90.0725898 52,88.9285714 L52,69.25 L44.7083333,62 Z M29.0833333,64.0714286 L37.4166667,64.0714286 C37.1671067,64.147713 36.9436029,64.291085 36.7708333,64.4857143 C36.5332629,64.7662787 36.3687113,65.100615 36.2916667,65.4592857 C36.0501407,66.4555118 35.9866744,67.4862045 36.1041667,68.5042857 C36.2291667,69.7657857 36.4645833,71.0127857 36.8125,72.2328571 C36.1648746,74.1182782 35.3923501,75.9589745 34.5,77.7428571 C33.4583333,79.8142857 32.8333333,81.1814286 32.6041667,81.5542857 C32.1143717,81.7362216 31.6345419,81.9436511 31.1666667,82.1757143 C30.4125,82.5175 29.7104167,82.9628571 29.0833333,83.5014286 L29.0833333,64.0714286 L29.0833333,64.0714286 Z M38.2916667,74.0142857 C38.7836505,75.6140022 39.6148249,77.0902654 40.7291667,78.3435714 C41.3020833,78.8345 41.96875,79.2073571 42.6875,79.4414286 C41.3541667,79.6278571 40.125,79.8557143 38.9166667,80.125 C37.6291667,80.4357143 36.36875,80.8437857 35.1458333,81.3471429 C33.9229167,81.8505 35.6041667,80.4357143 36.4166667,78.7578571 C37.1770833,77.225 37.8125,75.63 38.3125,73.9935714 L38.2916667,74.0142857 L38.2916667,74.0142857 Z M49.9166667,88.9285714 L30.125,88.9285714 C30.0073333,88.9420442 29.8885001,88.9420442 29.7708333,88.9285714 C30.334608,88.7302664 30.852008,88.4201909 31.2916667,88.0171429 C32.7645954,86.5638214 34.0141246,84.9026495 35,83.0871429 C35.6458333,82.8178571 36.2083333,82.6107143 36.6875,82.445 L37.5625,82.155 C38.5,81.8857143 39.5208333,81.6785714 40.5625,81.4714286 C41.6041667,81.2642857 42.6458333,81.14 43.6458333,81.0571429 C44.5770833,81.5045714 45.5458333,81.8732857 46.5416667,82.155 C47.38125,82.3828571 48.2375,82.5444286 49.1041667,82.6314286 L49.8958333,82.6314286 L49.8958333,88.9285714 L49.9166667,88.9285714 Z M49.9166667,78.8614286 C49.4913786,78.6271906 49.0449906,78.4330118 48.5833333,78.2814286 C48.0704271,78.1590364 47.5474856,78.0827766 47.0208333,78.0535714 C46.1645833,78.0597857 45.3083333,78.1157143 44.4583333,78.2192857 C43.6819994,77.9197876 42.9736864,77.4690577 42.375,76.8935714 C41.1308673,75.5024132 40.212942,73.8539291 39.6875,72.0671429 C39.91875,70.6979286 40.0583333,69.3121429 40.1041667,67.9242857 C40.1458333,67.4064286 40.1458333,66.8885714 40.1041667,66.3707143 C40.2483683,65.7317112 40.0953137,65.0621191 39.6875,64.5478571 C39.3483123,64.2212488 38.8882942,64.0487906 38.4166667,64.0714286 L43.6666667,64.0714286 L49.9166667,70.2857143 L49.9166667,78.8614286 L49.9166667,78.8614286 Z" id="Shape"></path>
                </g>
            </g>
        </g>
    </g>
</svg>
