<svg xmlns="http://www.w3.org/2000/svg" width="25" height="29">
    <path fill="#C7CBD1" fill-rule="evenodd"
        d="M17.7 0H2.1A2 2 0 0 0 0 2v25c0 1 1 2 2 2h21c1 0 2-1 2-2V7.1L17.7 0ZM2.1 2h8.3l-.6.5c-.3.3-.4.6-.5 1-.2 1-.3 2-.2 3 .1 1.3.4 2.5.7 3.7a45 45 0 0 1-2.3 5.5l-1.9 3.9a15 15 0 0 0-3.5 1.9V2.1Zm9.2 10c.5 1.6 1.3 3 2.4 4.3.6.5 1.3 1 2 1.1a47.1 47.1 0 0 0-7.6 2c-1.2.5.5-1 1.3-2.6s1.4-3.2 2-4.8h-.1Zm11.6 15H2.8l1.5-1A21 21 0 0 0 8 21l1.7-.6.9-.2a37.7 37.7 0 0 1 6-1.1 18 18 0 0 0 5.5 1.5h.8V27Zm0-10.1c-.4-.3-.9-.5-1.3-.6L20 16l-2.5.1c-.8-.3-1.5-.7-2.1-1.3-1.3-1.4-2.2-3-2.7-4.8a31 31 0 0 0 .4-5.7c.1-.7 0-1.3-.4-1.9-.4-.3-.8-.5-1.3-.4h5.3l6.2 6.2v8.6Z" />
</svg>