<svg width="421" height="120" viewBox="0 0 421 120" fill="none" xmlns="http://www.w3.org/2000/svg">
<path d="M421 105.496C421 113.518 326.754 120 210.494 120C94.2465 120 0 113.518 0 105.496C0 97.4863 94.2465 91 210.494 91C326.754 91 421 97.4863 421 105.496Z" fill="#EAEBEF"/>
<path d="M391 26.0595H386.94V22H384.059V26.0595H380V28.9405H384.059V33H386.94V28.9405H391V26.0595Z" fill="#967697"/>
<path d="M421 7.79782H416.202V3H412.797V7.79782H408V11.2022H412.797V16H416.202V11.2022H421V7.79782Z" fill="#967697"/>
<path d="M413 28.5837H410.048V26H407.952V28.5837H405V30.4169H407.952V33H410.048V30.4169H413V28.5837Z" fill="#967697"/>
<path d="M276.474 109.811H172V12.1534H276.474V109.811Z" fill="#F7F8FB"/>
<path d="M269.363 103.751H179.115V29.3299H269.363V103.751Z" fill="#999FA7"/>
<path d="M276.474 22.7761H172V12H276.474V22.7761Z" fill="#999FA7"/>
<path d="M182.482 20.0813H176.53V14.3585H182.482V20.0813Z" fill="white"/>
<path d="M271.382 20.0813H265.43V14.3585H271.382V20.0813Z" fill="white"/>
<path d="M263.298 20.0813H257.348V14.3585H263.298V20.0813Z" fill="white"/>
<path d="M255.217 20.0813H249.267V14.3585H255.217V20.0813Z" fill="white"/>
<path d="M198.189 34.7725H184.166V33.2158H198.189V34.7725Z" fill="white"/>
<path d="M196.789 39.4497H191.177V37.8888H196.789V39.4497Z" fill="#F08422"/>
<path d="M204.266 39.4497H198.661V37.8888H204.266V39.4497Z" fill="#F08422"/>
<path d="M211.748 39.4497H206.139V37.8888H211.748V39.4497Z" fill="white"/>
<path d="M219.231 39.4497H213.618V37.8888H219.231V39.4497Z" fill="white"/>
<path d="M226.241 39.4497H220.633V37.8888H226.241V39.4497Z" fill="white"/>
<path d="M199.127 44.1248H193.514V42.5657H199.127V44.1248Z" fill="#F08422"/>
<path d="M206.605 44.1248H200.994V42.5657H206.605V44.1248Z" fill="#F08422"/>
<path d="M214.083 44.1248H208.479V42.5657H214.083V44.1248Z" fill="white"/>
<path d="M221.566 44.1248H215.955V42.5657H221.566V44.1248Z" fill="white"/>
<path d="M228.579 44.1248H222.968V42.5657H228.579V44.1248Z" fill="white"/>
<path d="M237.931 44.1248H232.318V42.5657H237.931V44.1248Z" fill="white"/>
<path d="M198.189 48.8018H184.166V47.2385H198.189V48.8018Z" fill="white"/>
<path d="M196.789 53.4749H191.177V51.9158H196.789V53.4749Z" fill="#F08422"/>
<path d="M204.266 53.4749H198.661V51.9158H204.266V53.4749Z" fill="#F08422"/>
<path d="M211.748 53.4749H206.139V51.9158H211.748V53.4749Z" fill="white"/>
<path d="M219.231 53.4749H213.618V51.9158H219.231V53.4749Z" fill="white"/>
<path d="M226.241 53.4749H220.633V51.9158H226.241V53.4749Z" fill="white"/>
<path d="M199.127 58.1504H193.514V56.5907H199.127V58.1504Z" fill="#F08422"/>
<path d="M206.605 58.1504H200.994V56.5907H206.605V58.1504Z" fill="#F08422"/>
<path d="M214.083 58.1504H208.479V56.5907H214.083V58.1504Z" fill="white"/>
<path d="M221.566 58.1504H215.955V56.5907H221.566V58.1504Z" fill="white"/>
<path d="M228.579 58.1504H222.968V56.5907H228.579V58.1504Z" fill="white"/>
<path d="M237.931 58.1504H232.318V56.5907H237.931V58.1504Z" fill="white"/>
<path d="M214.556 62.8252H200.528V61.2679H214.556V62.8252Z" fill="white"/>
<path d="M213.152 67.502H207.541V65.9411H213.152V67.502Z" fill="#F08422"/>
<path d="M220.632 67.502H215.021V65.9411H220.632V67.502Z" fill="#F08422"/>
<path d="M228.113 67.502H222.502V65.9411H228.113V67.502Z" fill="white"/>
<path d="M235.591 67.502H229.98V65.9411H235.591V67.502Z" fill="white"/>
<path d="M242.606 67.502H236.995V65.9411H242.606V67.502Z" fill="white"/>
<path d="M215.489 72.1748H209.878V70.6163H215.489V72.1748Z" fill="#F08422"/>
<path d="M222.968 72.1748H217.361V70.6163H222.968V72.1748Z" fill="#F08422"/>
<path d="M230.45 72.1748H224.839V70.6163H230.45V72.1748Z" fill="white"/>
<path d="M237.931 72.1748H232.318V70.6163H237.931V72.1748Z" fill="white"/>
<path d="M244.944 72.1748H239.331V70.6163H244.944V72.1748Z" fill="white"/>
<path d="M254.291 72.1748H248.683V70.6163H254.291V72.1748Z" fill="white"/>
<path d="M214.556 79.1897H200.528V77.6288H214.556V79.1897Z" fill="white"/>
<path d="M213.152 84.0181H207.541V82.4596H213.152V84.0181Z" fill="#F08422"/>
<path d="M220.633 84.0181H215.021V82.4596H220.633V84.0181Z" fill="#F08422"/>
<path d="M228.113 84.0181H222.502V82.4596H228.113V84.0181Z" fill="white"/>
<path d="M235.592 84.0181H229.981V82.4596H235.592V84.0181Z" fill="white"/>
<path d="M242.606 84.0181H236.995V82.4596H242.606V84.0181Z" fill="white"/>
<path d="M215.49 88.6912H209.879V87.1345H215.49V88.6912Z" fill="#F08422"/>
<path d="M222.968 88.6912H217.361V87.1345H222.968V88.6912Z" fill="#F08422"/>
<path d="M230.45 88.6912H224.839V87.1345H230.45V88.6912Z" fill="white"/>
<path d="M237.931 88.6912H232.318V87.1345H237.931V88.6912Z" fill="white"/>
<path d="M244.944 88.6912H239.331V87.1345H244.944V88.6912Z" fill="white"/>
<path d="M254.292 88.6912H248.683V87.1345H254.292V88.6912Z" fill="white"/>
<path d="M198.189 91.0293H184.166V89.472H198.189V91.0293Z" fill="white"/>
<path d="M196.789 95.7061H191.177V94.147H196.789V95.7061Z" fill="#F08422"/>
<path d="M204.266 95.7061H198.661V94.147H204.266V95.7061Z" fill="#F08422"/>
<path d="M211.748 95.7061H206.139V94.147H211.748V95.7061Z" fill="white"/>
<path d="M219.231 95.7061H213.618V94.147H219.231V95.7061Z" fill="white"/>
<path d="M226.241 95.7061H220.633V94.147H226.241V95.7061Z" fill="white"/>
<path d="M199.127 100.381H193.514V98.8223H199.127V100.381Z" fill="#F08422"/>
<path d="M206.605 100.381H200.994V98.8223H206.605V100.381Z" fill="#F08422"/>
<path d="M214.083 100.381H208.479V98.8223H214.083V100.381Z" fill="white"/>
<path d="M221.566 100.381H215.955V98.8223H221.566V100.381Z" fill="white"/>
<path d="M228.579 100.381H222.968V98.8223H228.579V100.381Z" fill="white"/>
<path d="M237.931 100.381H232.318V98.8223H237.931V100.381Z" fill="white"/>
<path d="M195 19.0016C195 29.4923 186.494 38 176.001 38C165.509 38 157 29.4923 157 19.0016C157 8.50726 165.509 0 176.001 0C186.494 0 195 8.50726 195 19.0016Z" fill="#D10D62"/>
<path d="M185.443 25.118L182.798 27.9656L166.56 12.8788L169.203 10.0326L185.443 25.118Z" fill="white"/>
<path d="M167.051 25.8212L169.907 28.4585L184.95 12.1772L182.095 9.53812L167.051 25.8212Z" fill="white"/>
<path d="M287 98.1287H367.158V10.9999H287V98.1287Z" fill="#F7F8FB"/>
<path d="M367.158 21.4556H287V11.0001H367.158V21.4556Z" fill="#999FA7"/>
<path d="M295.713 16.663C295.713 17.8662 294.738 18.8416 293.535 18.8416C292.332 18.8416 291.356 17.8662 291.356 16.663C291.356 15.4604 292.332 14.4851 293.535 14.4851C294.738 14.4851 295.713 15.4604 295.713 16.663Z" fill="#68737E"/>
<path d="M303.554 16.663C303.554 17.8662 302.58 18.8416 301.376 18.8416C300.173 18.8416 299.198 17.8662 299.198 16.663C299.198 15.4604 300.173 14.4851 301.376 14.4851C302.58 14.4851 303.554 15.4604 303.554 16.663Z" fill="#D8DCE2"/>
<path d="M311.396 16.663C311.396 17.8662 310.42 18.8416 309.218 18.8416C308.015 18.8416 307.04 17.8662 307.04 16.663C307.04 15.4604 308.015 14.4851 309.218 14.4851C310.42 14.4851 311.396 15.4604 311.396 16.663Z" fill="#394754"/>
<path d="M327.95 73.7327C322.816 73.7327 317.682 71.7786 313.774 67.8699C305.957 60.053 305.957 47.3332 313.774 39.5163C317.682 35.6081 322.816 33.6535 327.95 33.6535C333.085 33.6535 338.218 35.6075 342.127 39.5163C348.867 46.2559 349.796 56.6388 344.914 64.383L344.83 64.2992L338.557 70.5729L338.641 70.6567C335.388 72.7067 331.668 73.7327 327.95 73.7327Z" fill="#D10D62"/>
<path d="M373.257 95.6766L369.934 99L340.149 69.2145L343.472 65.8911L373.257 95.6766Z" fill="#967697"/>
<path d="M353.218 72.7728L347.031 78.9604L338.406 70.3356L344.593 64.1486L353.218 72.7728Z" fill="#50174F"/>
<path d="M315.248 40.9903C308.244 47.9949 308.244 59.391 315.248 66.395C322.252 73.3995 333.649 73.4001 340.653 66.395C347.657 59.391 347.657 47.9949 340.653 40.9903C333.649 33.9864 322.252 33.9858 315.248 40.9903ZM343.976 69.719C335.14 78.5553 320.761 78.5559 311.924 69.719C303.088 60.8821 303.088 46.5032 311.924 37.6669C320.761 28.8307 335.139 28.8301 343.976 37.6669C352.813 46.5038 352.813 60.8821 343.976 69.719Z" fill="#967697"/>
<path d="M337.535 46.9315L334.712 44.109L327.95 50.871L321.189 44.109L318.366 46.9315L325.128 53.6935L318.366 60.4555L321.189 63.2773L327.95 56.5159L334.712 63.2773L337.535 60.4555L330.773 53.6935L337.535 46.9315Z" fill="white"/>
<path d="M134 15.0595H129.94V11H127.059V15.0595H123V17.9406H127.059V22H129.94V17.9406H134V15.0595Z" fill="#967697"/>
<path d="M121 32.9521H118.048V30H115.952V32.9521H113V35.0472H115.952V38H118.048V35.0472H121V32.9521Z" fill="#967697"/>
<path d="M90.4265 62.6578L67.1112 51L46 93.0188L81.9618 111L97 81.068L90.4265 62.6578Z" fill="#967697"/>
<path d="M90.2427 63L97 81L84 74.8168L90.2427 63Z" fill="#CCBDCE"/>
<path d="M85 79.4907L83.8604 76.2243L75.6446 78.8246L72.9151 71L69.4857 72.0845L72.2155 79.9091L64 82.5093L65.139 85.775L73.3549 83.1754L76.0849 91L79.5142 89.9149L76.7841 82.0902L85 79.4907Z" fill="#CCBDCE"/>
<path d="M144.307 28L126 33.9528L136.762 67L165 57.8187L157.334 34.2769L144.307 28Z" fill="#967697"/>
<path d="M144 28L157 33.9431L147.09 37L144 28Z" fill="#CCBDCE"/>
<path d="M150.199 39.2114L147.818 38L144.915 43.704L139.212 40.8004L138 43.1811L143.704 46.0846L140.8 51.7886L143.181 53L146.084 47.296L151.788 50.1996L153 47.8182L147.296 44.9154L150.199 39.2114Z" fill="#CCBDCE"/>
<path d="M84.978 29.9514C81.5172 29.9388 78.7215 27.0407 78.7336 23.4781C78.7451 19.9154 81.5605 17.0375 85.0213 17.0493C88.4821 17.0619 91.2785 19.96 91.2657 23.5226C91.2542 27.0853 88.4395 29.9632 84.978 29.9514ZM99.7618 20.2888L98.1799 20.2825C97.8497 18.8435 97.3037 17.4937 96.5777 16.2651L97.7008 15.1166C98.5771 14.2208 98.5825 12.7491 97.7123 11.8472L96.4079 10.4952C95.5377 9.59328 94.1074 9.58771 93.2319 10.4841L92.1074 11.6326C90.9199 10.8762 89.612 10.3051 88.2162 9.95478L88.2216 8.32704C88.2264 7.05523 87.2189 6.01117 85.9841 6.00698L84.1329 6.00002C82.8981 5.99583 81.8839 7.03293 81.8792 8.30405L81.8737 9.93247C80.4766 10.2731 79.1653 10.8344 77.9711 11.5825L76.8554 10.4256C75.9846 9.52293 74.5556 9.51806 73.6794 10.4145L72.3661 11.7566C71.4899 12.653 71.4845 14.124 72.3553 15.026L73.471 16.1829C72.7369 17.4066 72.1814 18.7523 71.8411 20.1892L70.2599 20.1836C69.0244 20.1787 68.0102 21.2158 68.0061 22.4876L68 24.3926C67.996 25.6637 69.0027 26.7078 70.2375 26.7126L71.8194 26.7182C72.1496 28.1565 72.6963 29.5063 73.4223 30.7356L72.2985 31.8842C71.4223 32.7799 71.4168 34.2516 72.2876 35.1535L73.5915 36.5054C74.4616 37.4074 75.8919 37.413 76.7681 36.5166L77.8919 35.3681C79.0801 36.1238 80.3873 36.6956 81.7831 37.0459L81.7777 38.6737C81.7736 39.9455 82.7804 40.9895 84.0152 40.9937L85.8664 41C87.1019 41.0049 88.1154 39.9678 88.1201 38.6959L88.1256 37.0682C89.5234 36.7283 90.8347 36.1656 92.0282 35.4182L93.1446 36.5751C94.0147 37.4771 95.4437 37.4827 96.3206 36.5863L97.6332 35.2441C98.5094 34.3477 98.5148 32.8767 97.644 31.974L96.529 30.8178C97.2631 29.5941 97.8179 28.2484 98.1582 26.8115L99.7394 26.8171C100.975 26.8213 101.989 25.7849 101.993 24.5131L102 22.6081C102.004 21.3363 100.997 20.2923 99.7618 20.2888Z" fill="#68737E"/>
<path d="M84.9803 29.3997C81.8942 29.3882 79.4007 26.7383 79.411 23.4802C79.4219 20.2214 81.933 17.5895 85.0197 17.601C88.1058 17.6118 90.5999 20.2624 90.5897 23.5205C90.5788 26.7785 88.067 29.4112 84.9803 29.3997ZM85.0307 14.0001C80.0607 13.9828 76.0171 18.2207 76.0001 23.4673C75.983 28.7138 79.9987 32.982 84.9693 32.9999C89.9393 33.0179 93.9829 28.78 93.9999 23.5334C94.0177 18.2861 90.0019 14.0187 85.0307 14.0001Z" fill="#D8DCE2"/>
</svg>
