<svg xmlns="http://www.w3.org/2000/svg" width="34" height="17" fill="none">
    <path fill="url(#a)" fill-rule="evenodd" d="M0 0v17h34V0H0Z" clip-rule="evenodd" />
    <path fill="#fff" fill-rule="evenodd"
        d="M10.15 7.74h.37l.1-.24v.24h6.05V6.63h.28V7.74H20v-.33c.41.27.92.33 1.21.33h1.24l.26-.68h.74l.28.68h2.42v-.8l.47.8h1.91V3.5h-1.88v.63l-.37-.63h-2v.65l-.26-.65h-2.75c-.53 0-.95.12-1.27.34V3.5h-1.88v.2a2.3 2.3 0 0 0-1.08-.2h-6.68l-.51 1.23-.56-1.23H7.18v.66L6.9 3.5H5.07L3.3 7.74h2.03l.28-.68h.73l.28.68h2.42V7.5l.1.24h1.01ZM20 4.68c.05-.08.1-.16.17-.23.24-.25.6-.36 1.1-.36h.7v.65h-.69c-.26 0-.41.04-.55.19-.13.13-.21.37-.21.7 0 .32.06.56.2.72.1.12.31.15.5.15h.32l1.02-2.41h1.08l1.22 2.9V4.1h1.1l1.27 2.14V4.09h.73v3.07h-1.02l-1.36-2.3v2.3H24.1l-.28-.69h-1.5l-.27.7h-.85c-.35 0-.8-.09-1.04-.35-.26-.26-.39-.61-.39-1.17 0-.36.06-.69.22-.97Zm-1.3 1.17V4.1h.73v3.07h-.73v-1.3ZM15.38 4.1h1.66c.37 0 .64 0 .87.14.23.14.37.34.37.69 0 .21-.07.37-.16.5a.85.85 0 0 1-.35.31c.16.07.3.17.35.26.1.15.13.3.13.57v.6h-.73v-.39c0-.18.01-.45-.12-.6-.1-.1-.26-.13-.52-.13h-.78v1.12h-.72V4.1Zm-2.9 0h2.4v.64H13.2v.55h1.64v.63H13.2v.61h1.68v.64h-2.4V4.1Zm-4.01.66v2.41H7l-.27-.69h-1.5l-.28.7h-.79l1.3-3.08h1.06l1.23 2.9V4.1h1.18l.94 2.08.87-2.08h1.2v3.07h-.74v-2.4l-1.05 2.4h-.63L8.47 4.75Z"
        clip-rule="evenodd" />
    <path fill="#fff" fill-rule="evenodd"
        d="M5.4 5.74h1l-.5-1.16-.5 1.16ZM17.4 5.22c.1-.05.16-.15.16-.27 0-.12-.06-.2-.15-.24a.86.86 0 0 0-.36-.05h-.9v.61h.9a.8.8 0 0 0 .36-.05ZM23.06 4.58l-.5 1.16h1l-.5-1.16ZM15.27 12.1V9.6l-1.08 1.22 1.08 1.28ZM16.84 9.86h-.96v.85h.95c.29 0 .46-.15.46-.44 0-.3-.18-.4-.45-.4ZM10.64 9.86v.54h1.56v.6h-1.56v.6h1.75l.81-.87-.78-.87h-1.78Z"
        clip-rule="evenodd" />
    <path fill="#fff" fill-rule="evenodd"
        d="M30.26 10.53h.08V8.7h-2c-.35 0-.62.08-.85.2v-.2h-2c-.32 0-.59.07-.8.18V8.7h-3.54v.18a2.33 2.33 0 0 0-1.06-.18h-2.23v.2c-.24-.13-.56-.2-.98-.2h-2.54l-.66.72-.63-.72H9.34v4.24H13l.17-.19.5-.55.63.74h2.21v-1.03h.33c.44 0 .77-.09 1.02-.21v1.24h1.86v-1.13h.27v1.13h5.95c.34 0 .63-.07.88-.18v.18h1.97c1.06 0 1.7-.58 1.7-1.56 0-.35-.08-.63-.23-.86Zm-12.59.62-.07.04-.15.06-.09.02-.18.04-.07.01-.27.01h-.9v1.03h-1.39l-.88-1.01-.92 1.01H9.91V9.3h2.88l.89 1 .91-1h2.3l.24.01.07.01a1.71 1.71 0 0 1 .25.06c.06.01.11.04.16.06l.06.03a.8.8 0 0 1 .2.15c.13.15.22.38.22.7 0 .43-.17.7-.42.84Zm3.49.04c.1.15.12.3.12.57v.6h-.72v-.38c0-.19.02-.46-.12-.6-.1-.11-.26-.14-.52-.14h-.77v1.12h-.72V9.3h1.66c.36 0 .63.01.86.15a.75.75 0 0 1 .37.68c0 .49-.32.74-.51.81a.83.83 0 0 1 .35.26Zm2.95-1.79v.53h-1.68v.55h1.64v.63h-1.64v.61h1.68v.64h-2.4V9.3h2.4v.11Zm2.71 2.67a.98.98 0 0 1-.36.22l-.12.03c-.12.02-.25.04-.4.04h-1.4v-.66h1.4c.13 0 .23-.01.29-.07a.27.27 0 0 0 .08-.2.26.26 0 0 0-.09-.2c-.05-.05-.12-.07-.25-.07l-.34-.02h-.04a1.84 1.84 0 0 1-.69-.14.75.75 0 0 1-.26-.2.91.91 0 0 1-.18-.6c0-.27.1-.56.36-.73.05-.04.1-.06.16-.09H25l.18-.06.04-.01.26-.02h1.44v.65h-1.31c-.13 0-.22 0-.3.06-.07.05-.1.12-.1.22 0 .12.07.2.16.23.07.03.15.03.28.04h.38a2.54 2.54 0 0 1 .45.06h.01c.15.04.27.1.36.2.14.14.22.33.22.64 0 .3-.1.52-.25.68Zm1.97.3h-1.4v-.67h1.4c.13 0 .22-.01.29-.07a.27.27 0 0 0 .08-.2.26.26 0 0 0-.09-.2c-.05-.05-.13-.07-.25-.07l-.32-.02h-.03c-.11 0-.22-.01-.32-.03h-.01c-.45-.06-.83-.25-.83-.9a.83.83 0 0 1 .32-.7v-.02l.16-.09.03-.02.18-.05.06-.02.27-.02h1.44v.65h-1.32c-.13 0-.21 0-.28.06-.08.05-.11.12-.11.22 0 .12.07.2.16.23.07.03.15.03.27.04h.4c.38.02.65.08.81.25.14.15.22.34.22.65 0 .67-.4.97-1.13.97Z"
        clip-rule="evenodd" />
    <path fill="#fff" fill-rule="evenodd"
        d="M20.47 9.91a.81.81 0 0 0-.36-.05h-.9v.62h.9a.8.8 0 0 0 .36-.05.3.3 0 0 0 .15-.27c0-.12-.06-.2-.15-.25Z"
        clip-rule="evenodd" />
    <path fill="#2584BA" fill-rule="evenodd"
        d="M17.79 5.6ZM17.07 11.21ZM16.87 9.28ZM17.42 11.21ZM17.59 11.13ZM17.45 9.28ZM17.25 9.28ZM17.71 9.4ZM26.78 11.94ZM25.2 9.3ZM26.5 12.18l-.1.02.1-.02ZM24.79 9.48ZM25.94 11.07l-.31-.01h.3ZM25.6 11.07ZM25.05 9.33ZM26.28 10.44ZM24.87 10.89ZM28.9 11.07l-.29-.01h.3ZM27.7 9.48ZM28.08 9.3ZM27.62 9.6ZM28.49 11.08ZM27.85 9.33ZM21 9.4Z"
        clip-rule="evenodd" />
    <defs>
        <radialGradient id="a" cx="0" cy="0" r="1"
            gradientTransform="rotate(41.1 -.18 10.94) scale(17.347 21.762)"
            gradientUnits="userSpaceOnUse">
            <stop stop-color="#65BCF2" />
            <stop offset="1" stop-color="#004FC5" />
        </radialGradient>
    </defs>
</svg>