<svg width="16" height="16" viewBox="0 0 16 16" fill="none" xmlns="http://www.w3.org/2000/svg">
<g clip-path="url(#clip0_2014_1216)">
<path fill-rule="evenodd" clip-rule="evenodd" d="M4.99983 7.5V14H6.49983V7.5H9.49983V14H10.9998V7.5H13.9998V14H14.9998C15.265 14 15.5194 14.1054 15.7069 14.2929C15.8945 14.4804 15.9998 14.7348 15.9998 15V16H-0.000174466V15C-0.000174466 14.7348 0.105182 14.4804 0.292719 14.2929C0.480255 14.1054 0.734609 14 0.999825 14H1.99983V7.5H4.99983ZM7.99983 0C12.6808 2.572 15.1808 3.95 15.4998 4.134C15.692 4.24488 15.8419 4.41655 15.9258 4.62197C16.0098 4.82739 16.023 5.05489 15.9634 5.26865C15.9039 5.48241 15.7749 5.67028 15.5968 5.80269C15.4187 5.93509 15.2017 6.00451 14.9798 6H1.01983C0.797967 6.00451 0.58091 5.93509 0.402836 5.80269C0.224761 5.67028 0.095785 5.48241 0.0362163 5.26865C-0.0233523 5.05489 -0.0101292 4.82739 0.0738035 4.62197C0.157736 4.41655 0.30761 4.24488 0.499826 4.134C0.819826 3.95 3.31983 2.572 7.99983 0Z" fill="#6D6E78"/>
</g>
<defs>
<clipPath id="clip0_2014_1216">
<rect width="16" height="16" fill="white"/>
</clipPath>
</defs>
</svg>
