<svg xmlns="http://www.w3.org/2000/svg" width="34" height="17" fill="none">
    <path fill="#fff" d="M0 0h34v17H0z" />
    <path fill="#0079BE"
        d="M17.77 15c3.61.02 6.91-2.9 6.91-6.44 0-3.88-3.3-6.56-6.9-6.56h-3.12A6.47 6.47 0 0 0 8 8.56c0 3.54 3 6.46 6.66 6.44h3.11Z" />
    <path fill="#fff"
        d="M14.68 2.54a6 6 0 0 0-6.05 5.95 6 6 0 0 0 6.05 5.95 6 6 0 0 0 6.05-5.95 6 6 0 0 0-6.05-5.95Zm-3.83 5.95c0-1.6 1.02-2.98 2.46-3.52V12a3.78 3.78 0 0 1-2.46-3.52Zm5.2 3.52V4.97a3.78 3.78 0 0 1 2.46 3.52c0 1.6-1.02 2.98-2.46 3.52Z" />
    <path fill="#0079BE"
        d="M17.77 15c3.61.02 6.91-2.9 6.91-6.44 0-3.88-3.3-6.56-6.9-6.56h-3.12A6.47 6.47 0 0 0 8 8.56c0 3.54 3 6.46 6.66 6.44h3.11Z" />
    <path fill="#fff"
        d="M14.68 2.54a6 6 0 0 0-6.05 5.95 6 6 0 0 0 6.05 5.95 6 6 0 0 0 6.05-5.95 6 6 0 0 0-6.05-5.95Zm-3.83 5.95c0-1.6 1.02-2.98 2.46-3.52V12a3.78 3.78 0 0 1-2.46-3.52Zm5.2 3.52V4.97a3.78 3.78 0 0 1 2.46 3.52c0 1.6-1.02 2.98-2.46 3.52Z" />
</svg>