<svg xmlns="http://www.w3.org/2000/svg" width="34" height="17" fill="none">
    <path fill="#fff" d="M0 0h33.75v17H0z" />
    <mask id="a" width="20" height="8" x="14" y="9" maskUnits="userSpaceOnUse"
        style="mask-type:luminance">
        <path fill="#fff" fill-rule="evenodd" d="M33.6 16.3V9.2H14.4v7.1h19.2Z" clip-rule="evenodd" />
    </mask>
    <g mask="url(#a)">
        <path fill="#F4811F" fill-rule="evenodd" d="M33.6 9.2s-6.79 4.9-19.2 7.1h19.2V9.2Z"
            clip-rule="evenodd" />
    </g>
    <path stroke="#fff" stroke-width=".5" d="M8.19.25h25.56v16.5H8.19z" />
    <path fill="#001722" fill-rule="evenodd"
        d="M6.94 5.26h-.98v3.67h.97c.52 0 .9-.13 1.23-.42.39-.35.62-.87.62-1.41 0-1.09-.76-1.84-1.84-1.84Zm.78 2.76c-.21.2-.48.3-.92.3h-.18V5.87h.18c.44 0 .7.08.92.3.23.22.37.56.37.91 0 .36-.14.7-.37.93ZM9.09 5.26h.66v3.67H9.1V5.26ZM11.39 6.67c-.4-.16-.52-.27-.52-.46 0-.24.2-.41.5-.41.2 0 .36.09.54.3l.35-.5c-.3-.27-.64-.4-1.01-.4-.6 0-1.07.45-1.07 1.05 0 .5.22.77.84 1 .26.1.4.17.47.22.13.1.2.22.2.38a.5.5 0 0 1-.52.52c-.32 0-.58-.17-.73-.5l-.43.45c.3.49.67.7 1.18.7.7 0 1.18-.5 1.18-1.2 0-.59-.22-.85-.98-1.15ZM12.59 7.1c0 1.08.79 1.92 1.8 1.92.3 0 .54-.06.84-.22v-.84c-.27.29-.5.4-.8.4-.68 0-1.16-.52-1.16-1.27 0-.7.5-1.26 1.12-1.26.32 0 .56.12.84.41V5.4c-.3-.16-.53-.22-.82-.22-1.01 0-1.82.85-1.82 1.92ZM20.65 7.73l-.92-2.47H19l1.46 3.77h.36l1.48-3.77h-.73l-.92 2.47ZM22.6 8.93h1.9v-.62h-1.23v-1h1.18V6.7h-1.18v-.82h1.23v-.62h-1.9v3.67ZM27.14 6.34c0-.69-.44-1.08-1.21-1.08h-1v3.67h.68V7.46h.08l.93 1.47h.82L26.36 7.4c.5-.12.78-.48.78-1.05Zm-1.34.61h-.2V5.84h.21c.42 0 .64.18.64.54 0 .37-.22.57-.65.57Z"
        clip-rule="evenodd" />
    <path fill="#231F20" fill-rule="evenodd"
        d="M27.63 5.54c0-.07-.05-.1-.12-.1h-.1v.34h.07v-.14l.09.14h.1l-.11-.15c.04 0 .07-.04.07-.1Zm-.14.04h-.01V5.5h.01c.04 0 .06.02.06.05 0 .03-.02.04-.06.04Z"
        clip-rule="evenodd" />
    <path fill="#231F20" fill-rule="evenodd"
        d="M27.51 5.31c-.14 0-.26.13-.26.28 0 .16.12.29.26.29.15 0 .26-.13.26-.29 0-.15-.11-.28-.26-.28Zm0 .52c-.11 0-.2-.1-.2-.24 0-.13.09-.23.2-.23.12 0 .21.1.21.23s-.1.24-.2.24Z"
        clip-rule="evenodd" />
    <path fill="#F58220" fill-rule="evenodd"
        d="M17.31 5.19c-1 0-1.83.84-1.83 1.89 0 1.1.79 1.94 1.83 1.94 1.02 0 1.83-.84 1.83-1.92 0-1.07-.8-1.91-1.83-1.91Z"
        clip-rule="evenodd" />
    <mask id="b" width="5" height="5" x="15" y="5" maskUnits="userSpaceOnUse"
        style="mask-type:luminance">
        <path fill="#fff" fill-rule="evenodd"
            d="M17.31 5.19c-1 0-1.83.84-1.83 1.89 0 1.1.79 1.94 1.83 1.94 1.02 0 1.83-.84 1.83-1.92 0-1.07-.8-1.91-1.83-1.91Z"
            clip-rule="evenodd" />
    </mask>
</svg>