<svg xmlns="http://www.w3.org/2000/svg" width="34" height="17" fill="none">
    <path fill="#fff" d="M0 0h34v17H0z" />
    <g clip-path="url(#a)">
        <path fill="#fff"
            d="M27.86 13.53a3.4 3.4 0 0 1-3.38 3.4H6.08V3.47A3.4 3.4 0 0 1 9.45.07h18.4v13.46Z" />
        <path fill="url(#b)"
            d="M21.87 10.08h1.4l.17-.02c.27-.05.5-.29.5-.62a.65.65 0 0 0-.5-.63c-.04-.02-.12-.02-.17-.02h-1.4v1.29Z" />
        <path fill="url(#c)"
            d="M23.1 1.21a2.43 2.43 0 0 0-2.42 2.43v2.53h3.43c.08 0 .17 0 .24.02.77.04 1.34.44 1.34 1.13 0 .55-.38 1.02-1.1 1.11v.03c.78.05 1.38.5 1.38 1.18 0 .73-.66 1.21-1.54 1.21h-3.76v4.95h3.56a2.43 2.43 0 0 0 2.42-2.43V1.2h-3.54Z" />
        <path fill="url(#d)"
            d="M23.76 7.48a.57.57 0 0 0-.5-.57l-.13-.02h-1.26v1.18h1.26l.14-.01c.26-.04.49-.26.49-.58Z" />
        <path fill="url(#e)"
            d="M9.7 1.21A2.43 2.43 0 0 0 7.3 3.64v6.01c.67.33 1.38.55 2.09.55.84 0 1.29-.51 1.29-1.2V6.15h2.08v2.82c0 1.1-.68 2-2.99 2-1.4 0-2.49-.31-2.49-.31v5.12h3.56a2.43 2.43 0 0 0 2.42-2.43V1.2H9.71Z" />
        <path fill="url(#f)"
            d="M16.4 1.21a2.43 2.43 0 0 0-2.42 2.43v3.19c.62-.52 1.68-.86 3.4-.78.92.04 1.9.3 1.9.3v1.03a4.6 4.6 0 0 0-1.83-.54c-1.3-.1-2.1.55-2.1 1.67 0 1.14.8 1.78 2.1 1.68.76-.06 1.34-.3 1.84-.54v1.03s-.98.25-1.9.3c-1.73.07-2.8-.26-3.4-.78v5.62h3.55a2.43 2.43 0 0 0 2.42-2.44V1.21h-3.55Z" />
    </g>
    <defs>
        <linearGradient id="b" x1="20.68" x2="26.67" y1="9.44" y2="9.44"
            gradientUnits="userSpaceOnUse">
            <stop stop-color="#007940" />
            <stop offset=".23" stop-color="#00873F" />
            <stop offset=".74" stop-color="#40A737" />
            <stop offset="1" stop-color="#5CB531" />
        </linearGradient>
        <linearGradient id="c" x1="20.68" x2="26.67" y1="8.5" y2="8.5"
            gradientUnits="userSpaceOnUse">
            <stop stop-color="#007940" />
            <stop offset=".23" stop-color="#00873F" />
            <stop offset=".74" stop-color="#40A737" />
            <stop offset="1" stop-color="#5CB531" />
        </linearGradient>
        <linearGradient id="d" x1="20.68" x2="26.67" y1="7.48" y2="7.48"
            gradientUnits="userSpaceOnUse">
            <stop stop-color="#007940" />
            <stop offset=".23" stop-color="#00873F" />
            <stop offset=".74" stop-color="#40A737" />
            <stop offset="1" stop-color="#5CB531" />
        </linearGradient>
        <linearGradient id="e" x1="7.28" x2="13.36" y1="8.5" y2="8.5" gradientUnits="userSpaceOnUse">
            <stop stop-color="#1F286F" />
            <stop offset=".48" stop-color="#004E94" />
            <stop offset=".83" stop-color="#0066B1" />
            <stop offset="1" stop-color="#006FBC" />
        </linearGradient>
        <linearGradient id="f" x1="13.95" x2="19.85" y1="8.5" y2="8.5"
            gradientUnits="userSpaceOnUse">
            <stop stop-color="#6C2C2F" />
            <stop offset=".17" stop-color="#882730" />
            <stop offset=".57" stop-color="#BE1833" />
            <stop offset=".86" stop-color="#DC0436" />
            <stop offset="1" stop-color="#E60039" />
        </linearGradient>
        <clipPath id="a">
            <path fill="#fff" d="M6 0h21.94v17H6z" />
        </clipPath>
    </defs>
</svg>