<svg xmlns="http://www.w3.org/2000/svg" width="34" height="17" fill="none">
    <path fill="#000" d="M0 0h34v17H0z" />
    <mask id="a" width="18" height="3" x="9" y="13" maskUnits="userSpaceOnUse"
        style="mask-type:luminance">
        <path fill="#fff" fill-rule="evenodd" d="M9.91 15.52h16.52v-2.16H9.91v2.16Z"
            clip-rule="evenodd" />
    </mask>
    <g mask="url(#a)">
        <path fill="#fff" fill-rule="evenodd"
            d="M24.6 14.7c0-.28.16-.5.44-.5.27 0 .44.2.44.5 0 .29-.17.5-.44.5-.28 0-.45-.22-.45-.5Zm1.16 0v-1.34h-.29v.77a.57.57 0 0 0-.47-.21c-.4 0-.71.32-.71.78 0 .45.3.78.71.78.2 0 .37-.08.47-.22v.18h.3v-.74Zm-4.09 0c0-.28.17-.5.45-.5.27 0 .44.2.44.5 0 .29-.17.5-.44.5-.28 0-.45-.22-.45-.5Zm1.17 0v-.75h-.29v.18a.57.57 0 0 0-.47-.21c-.4 0-.71.32-.71.78 0 .45.3.78.71.78.2 0 .37-.08.47-.22v.18h.3v-.74Zm3.42.63v.04h.05l.01-.02v-.01h-.06Zm.04-.02h.04l.01.04-.01.03-.03.01.04.05h-.03l-.04-.05h-.02v.05h-.03v-.13h.07Zm-.01.18a.1.1 0 0 0 .08-.03.12.12 0 0 0 .02-.13.11.11 0 0 0-.2 0 .12.12 0 0 0 0 .1s0 .02.02.03l.03.02a.1.1 0 0 0 .05.01Zm0-.26a.14.14 0 0 1 .1.04.15.15 0 0 1 .03.16.15.15 0 0 1-.08.08.14.14 0 0 1-.16-.03.15.15 0 0 1-.04-.1.15.15 0 0 1 .15-.15Zm-2.33-1.31a.44.44 0 0 0-.4.21v-.18h-.29v1.5h.3v-.84c0-.25.11-.41.32-.41a.5.5 0 0 1 .2.04l.09-.28a.66.66 0 0 0-.22-.04Zm-11.18.78c0-.28.18-.5.46-.5.26 0 .44.2.44.5 0 .29-.18.5-.44.5-.28 0-.46-.22-.46-.5Zm1.18 0v-.75h-.3v.18a.57.57 0 0 0-.46-.21c-.4 0-.72.32-.72.78 0 .45.31.78.72.78.2 0 .37-.08.47-.22v.18h.29v-.74Zm3.91-.5c.22 0 .36.14.39.37h-.79c.03-.22.17-.38.4-.38Zm.01-.28c-.42 0-.71.31-.71.78 0 .47.3.78.73.78.22 0 .42-.05.6-.2l-.16-.23a.68.68 0 0 1-.42.16c-.2 0-.41-.12-.45-.39h1.08l.01-.12c0-.47-.27-.78-.68-.78Zm2.03.78c0 .45.3.78.76.78.22 0 .37-.05.52-.18l-.15-.23a.62.62 0 0 1-.38.13c-.25 0-.44-.2-.44-.5s.2-.5.45-.5c.13 0 .26.04.37.13l.15-.24a.74.74 0 0 0-.52-.17c-.46 0-.76.33-.76.78Zm-4.39-.63c-.15-.1-.36-.15-.59-.15-.36 0-.59.17-.59.47 0 .24.17.39.5.44l.14.02c.17.02.27.09.27.17 0 .12-.13.19-.35.19a.74.74 0 0 1-.48-.16l-.15.24c.22.16.48.2.63.2.42 0 .65-.2.65-.5 0-.25-.18-.39-.5-.43l-.14-.03c-.14-.01-.26-.06-.26-.16s.11-.18.29-.18.36.07.45.13l.13-.25Zm4.06-.15a.44.44 0 0 0-.39.21v-.18h-.29v1.5h.3v-.84c0-.25.1-.41.31-.41a.5.5 0 0 1 .2.04l.1-.28a.65.65 0 0 0-.23-.04Zm-2.68.03h-.53v-.45h-.3v.45h-.3v.28h.3v.7c0 .35.13.55.5.55.13 0 .3-.04.4-.11l-.1-.27c-.1.06-.2.09-.28.09-.15 0-.22-.1-.22-.25v-.71h.53v-.28Zm-4.72 1.5v-.94c0-.36-.2-.59-.55-.6a.56.56 0 0 0-.51.27.53.53 0 0 0-.48-.26.49.49 0 0 0-.44.21v-.18h-.29v1.5h.3v-.86c0-.26.15-.4.36-.4s.33.14.33.4v.85h.3v-.85c0-.26.15-.4.36-.4s.33.14.33.4v.85h.3Z"
            clip-rule="evenodd" />
    </g>
    <mask id="b" width="18" height="15" x="9" y="1" maskUnits="userSpaceOnUse"
        style="mask-type:luminance">
        <path fill="#fff" fill-rule="evenodd" d="M9 15.52h17.61V1.42H9v14.1Z" clip-rule="evenodd" />
    </mask>
    <g fill-rule="evenodd" clip-rule="evenodd" mask="url(#b)">
        <path fill="#FF5F00" d="M15.19 11.43h5.24V2.6h-5.24v8.82Z" />
        <path fill="#EB001B"
            d="M15.73 7.02c0-1.79.81-3.38 2.08-4.4a5.32 5.32 0 0 0-3.37-1.2c-3 0-5.44 2.5-5.44 5.6 0 3.1 2.44 5.6 5.44 5.6 1.27 0 2.44-.44 3.37-1.2a5.66 5.66 0 0 1-2.08-4.4Z" />
        <path fill="#F79E1B"
            d="M26.44 10.55v-.27h-.05l-.07.18-.06-.18h-.05v.27h.03v-.2l.06.17h.04l.06-.18v.2h.04Zm-.35 0v-.23h.07v-.04h-.18v.04h.07v.23h.04ZM26.61 7.02c0 3.1-2.43 5.6-5.44 5.6a5.32 5.32 0 0 1-3.36-1.2 5.66 5.66 0 0 0 2.08-4.4c0-1.79-.82-3.38-2.08-4.4.92-.76 2.09-1.2 3.36-1.2 3 0 5.44 2.5 5.44 5.6Z" />
    </g>
</svg>