<svg xmlns="http://www.w3.org/2000/svg" width="34" height="17" fill="none">
    <path fill="#fff" stroke="#fff" stroke-width=".5" d="M.25.25h33.5v16.5H.25z" />
    <path fill="#fff" fill-rule="evenodd"
        d="m22.22 9.24-.52 2.24h.18l-.1.46h-.19l-.03.14h-.64l.04-.14h-1.3l.1-.43h.14l.53-2.27.1-.45h.65l-.05.23s.16-.13.32-.17c.16-.05 1.1-.06 1.1-.06l-.1.45h-.23Zm-1.14 0-.13.58s.18-.1.28-.12c.1-.03.27-.04.27-.04l.1-.42h-.52Zm-.2.86-.14.6s.19-.11.3-.14c.1-.03.26-.04.26-.04l.1-.42h-.52Zm-.32 1.38h.51l.12-.5h-.52l-.11.5ZM22.59 8.8h.7v.25c0 .04.03.07.11.07h.12l-.1.43h-.38c-.32.02-.45-.12-.44-.28l-.01-.48Z"
        clip-rule="evenodd" />
    <path fill="#fff" fill-rule="evenodd"
        d="M22.7 10.83h-.65l.08-.38h.76l.08-.35h-.74l.1-.43h2.07l-.1.43h-.7l-.08.35h.7l-.1.38h-.75l-.12.16h.3l.11.49.03.1.17.02h.09l-.11.47h-.4c-.07-.01-.13-.05-.18-.08a.25.25 0 0 1-.13-.16l-.1-.48-.31.47a.55.55 0 0 1-.5.26h-.48l.1-.41h.18c.06 0 .1-.02.14-.04a.24.24 0 0 0 .1-.09l.45-.7ZM15.4 9.78h1.75l-.1.42h-.7l-.09.36h.72l-.1.44h-.72l-.14.58c-.02.07.18.07.24.07l.36-.04-.12.48h-.8c-.07 0-.11-.01-.19-.03a.22.22 0 0 1-.13-.1c-.03-.04-.08-.08-.06-.18l.19-.77h-.4l.1-.45h.4l.09-.36h-.4l.1-.42ZM16.53 9.02h.72l-.1.45h-.98l-.1.09c-.04.04-.06.03-.12.06a.68.68 0 0 1-.32.08h-.31l.1-.42h.1c.07 0 .13 0 .15-.03a.35.35 0 0 0 .1-.13l.16-.34h.71l-.1.24ZM17.54 8.79h.62l-.07.3s.18-.15.31-.2c.13-.05.44-.1.44-.1h.99l-.27 1.13c-.05.2-.1.32-.14.38a.41.41 0 0 1-.16.15.71.71 0 0 1-.23.08h-1.25l-.22.9c-.02.1-.03.14 0 .16 0 .02.04.05.09.05l.41-.05-.1.5h-.48l-.33-.01c-.08 0-.16 0-.2-.04-.05-.04-.12-.09-.13-.14l.04-.25.68-2.86Zm1.37 1.14h-1l-.05.2h1l.05-.2Zm-.96-.18s.19-.18.52-.24c.08-.02.56 0 .56 0l.05-.25h-1l-.13.49Z"
        clip-rule="evenodd" />
    <path fill="#fff" fill-rule="evenodd"
        d="m19.44 10.62-.04.27c-.02.08-.04.15-.1.2a.43.43 0 0 1-.32.12l-.33.02v.3c.01.09.03.08.05.1l.04.02h.11l.32-.02-.1.45h-.37c-.26 0-.46 0-.52-.06-.07-.04-.08-.1-.08-.17l-.06-1.2h.6v.24h.15c.05 0 .08 0 .1-.02.02-.01.03-.03.04-.06l.04-.2h.47ZM10.96 4.6l-.4 1.88c-.09.36-.15.61-.35.78a.64.64 0 0 1-.4.14c-.25 0-.4-.12-.43-.37v-.08l.07-.48s.4-1.61.48-1.83v-.02c-.77 0-.91 0-.92-.02l-.03.12-.4 1.83-.04.15-.07.5c0 .15.03.28.09.38.18.33.72.38 1.02.38.38 0 .74-.09.99-.24.42-.25.54-.65.63-1l.05-.18s.41-1.68.48-1.9l.01-.02-.78-.01ZM13.23 7.94l-.69.01-.01-.02.08-.37.04-.17.13-.67c0-.05.02-.2-.14-.2-.06 0-.13.04-.2.07l-.16.71-.12.61-.02.03-.71.01-.02-.03.16-.67c.14-.61.17-.84.2-1.15l.04-.03c.32-.04.4-.05.74-.12l.03.03-.06.2.18-.1c.16-.08.34-.1.44-.1.15 0 .32.03.39.21.07.16.02.35-.07.74l-.04.19c-.09.42-.1.5-.15.8l-.04.02ZM14.36 7.94h-.38l-.36.01-.01-.01v-.02c.03-.16.05-.21.08-.27l.07-.28.1-.5c.03-.12.04-.23.05-.35l.02-.01V6.5l.39-.06.39-.07v.02l.01.01-.1.4-.09.4-.1.46-.04.25-.02.02-.01.01ZM16.84 6.98c.1-.43.02-.63-.08-.75-.14-.19-.4-.25-.66-.25-.16 0-.53.02-.83.3-.2.2-.3.46-.37.72-.06.26-.12.74.3.9.14.06.33.08.45.08.32 0 .64-.09.88-.35.2-.2.28-.52.3-.65Zm-.73-.03a1.5 1.5 0 0 1-.16.45c-.06.09-.13.14-.2.14-.02 0-.16 0-.17-.2 0-.1.02-.21.05-.32.07-.33.16-.6.37-.6.18 0 .19.2.11.53ZM22.92 7.44c-.06.08-.19.13-.27.13-.02 0-.15 0-.16-.2 0-.1.02-.2.05-.32.07-.32.15-.59.38-.59.14 0 .2.14.19.37l-.04.16-.07.3a.52.52 0 0 1-.08.15ZM24.02 6c-.35.07-.44.08-.77.13l-.03.02-.01.08a.44.44 0 0 0-.24-.2c-.15-.06-.5.01-.79.29-.21.2-.3.46-.37.71-.06.26-.13.74.3.9.14.06.26.08.38.07.14 0 .26-.07.37-.17l-.03.12.02.03c.3-.02.4-.02.74-.01l.03-.03a16.79 16.79 0 0 1 .4-1.9V6ZM18.72 7.94l-.7.01v-.02l.08-.37.04-.17.13-.67c0-.05.02-.2-.14-.2a.55.55 0 0 0-.2.07l-.16.71-.12.61-.03.03-.7.01-.02-.03.16-.67c.14-.61.17-.84.2-1.15l.04-.03c.31-.04.4-.05.74-.12l.03.03-.06.2.18-.1c.16-.08.34-.1.44-.1.15 0 .32.03.39.21.06.16.02.35-.07.74l-.04.19c-.1.42-.1.5-.16.8l-.03.02ZM21.41 5.64a.73.73 0 0 1-.37.5c-.15.08-.34.09-.53.09h-.12v-.05l.23-1 .01-.05V5.1h.1l.48.05c.18.07.26.26.2.5Zm-.3-1.04h-1.16l-.02.12-.22 1-.53 2.23H20l.14-.7.11-.44s.03-.05.07-.07h.05c.44 0 .95 0 1.35-.3a1.47 1.47 0 0 0 .58-1.16.65.65 0 0 0-.11-.38c-.2-.29-.6-.3-1.08-.3ZM14.66 6.23c.18-.13.2-.3.05-.4-.16-.09-.43-.06-.61.07-.19.13-.2.3-.05.4.15.09.43.06.6-.07ZM26.32 6l-.03-.03c-.34.07-.4.08-.72.12l-.02.03v.01c-.24.54-.23.42-.42.85v-.05L25.08 6l-.03-.03c-.36.07-.37.08-.7.12l-.02.03v.03l.07.5.06.5.1.82c-.23.37-.28.51-.5.84l-.15.24c-.01.03-.03.05-.05.05a.24.24 0 0 1-.1.02h-.12l-.1.43h.44c.25 0 .4-.13.49-.29l.27-.46L26.32 6Z"
        clip-rule="evenodd" />
    <path fill="#D80029" fill-rule="evenodd"
        d="M10.3 1.49h5.5c.76 0 1.24.63 1.06 1.4L14.3 13.96c-.18.78-.94 1.4-1.7 1.4H7.1c-.76 0-1.24-.62-1.06-1.4L8.6 2.9c.17-.77.94-1.4 1.7-1.4Z"
        clip-rule="evenodd" />
    <path fill="#0E2E62" fill-rule="evenodd"
        d="M15.34 1.49h5.5c.76 0 1.24.63 1.05 1.4l-2.55 11.07c-.18.78-.95 1.4-1.72 1.4h-5.48c-.77 0-1.25-.62-1.07-1.4L13.63 2.9c.18-.77.94-1.4 1.71-1.4Z"
        clip-rule="evenodd" />
    <path fill="#0C606C" fill-rule="evenodd"
        d="M21.4 1.49h5.5c.76 0 1.24.63 1.06 1.4L25.4 13.96c-.18.78-.95 1.4-1.71 1.4h-5.5c-.76 0-1.24-.62-1.06-1.4L19.7 2.9c.18-.77.95-1.4 1.72-1.4Z"
        clip-rule="evenodd" />
    <path fill="#fff" fill-rule="evenodd"
        d="m22.22 9.66-.52 2.23h.18l-.1.47h-.19l-.03.14h-.64l.04-.14h-1.3l.1-.43h.14l.53-2.27.1-.46h.65l-.05.23s.16-.12.32-.17c.16-.04 1.1-.06 1.1-.06l-.1.46h-.23Zm-1.14 0-.13.57s.18-.09.28-.11c.1-.03.27-.05.27-.05l.1-.41h-.52Zm-.2.86-.14.59s.19-.1.3-.13c.1-.03.26-.05.26-.05l.1-.41h-.52Zm-.32 1.38h.51l.12-.5h-.52l-.11.5ZM22.59 9.2h.7v.27c0 .04.03.06.11.06h.12l-.1.43h-.38c-.32.02-.45-.12-.44-.27l-.01-.48Z"
        clip-rule="evenodd" />
    <path fill="#fff" fill-rule="evenodd"
        d="M22.7 11.25h-.65l.08-.39h.76l.08-.35h-.74l.1-.43h2.07l-.1.43h-.7l-.08.35h.7l-.1.39h-.75l-.12.16h.3l.11.48.03.1c.02.02.11.02.17.02h.09l-.11.48h-.24l-.16-.01c-.07 0-.13-.05-.18-.07a.25.25 0 0 1-.13-.17l-.1-.48-.31.48a.55.55 0 0 1-.5.26h-.48l.1-.42h.18c.06 0 .1-.02.14-.04a.21.21 0 0 0 .1-.08l.45-.71ZM15.4 10.2h1.75l-.1.42h-.7l-.09.36h.72l-.1.43h-.72l-.14.59c-.02.06.18.07.24.07l.36-.05-.12.48h-.8c-.07 0-.11 0-.19-.02a.23.23 0 0 1-.13-.1c-.03-.04-.08-.09-.06-.19l.19-.77h-.4l.1-.44h.4l.09-.36h-.4l.1-.42ZM16.53 9.44h.72l-.1.44h-.98l-.1.1c-.04.04-.06.02-.12.05a.65.65 0 0 1-.32.09h-.31l.1-.43h.1c.07 0 .13 0 .15-.02.03-.02.07-.07.1-.14l.16-.33h.71l-.1.24ZM17.54 9.2h.62l-.07.32s.18-.16.31-.21c.13-.06.44-.1.44-.1h.99l-.27 1.13c-.05.2-.1.32-.14.37a.4.4 0 0 1-.16.16.57.57 0 0 1-.23.07l-.3.01h-.95l-.22.9c-.02.09-.03.13 0 .16 0 .02.04.04.09.04l.41-.04-.1.5h-.48l-.33-.02c-.08 0-.16 0-.2-.04-.05-.04-.12-.09-.13-.14a2 2 0 0 1 .04-.24l.68-2.87Zm1.37 1.15h-1l-.05.2h1l.05-.2Zm-.96-.18s.19-.19.52-.25h.56l.05-.25h-1l-.13.5Z"
        clip-rule="evenodd" />
    <path fill="#fff" fill-rule="evenodd"
        d="m19.44 11.03-.04.27c-.02.09-.04.15-.1.21a.43.43 0 0 1-.32.12l-.33.01v.3c.01.1.03.09.05.1a.1.1 0 0 0 .04.03h.11l.32-.03-.1.45h-.37c-.26 0-.46 0-.52-.05-.07-.05-.08-.1-.08-.18l-.06-1.2h.6v.24h.15l.1-.01a.16.16 0 0 0 .04-.06l.04-.2h.47ZM10.96 5.02l-.4 1.87c-.09.36-.15.62-.35.78a.63.63 0 0 1-.4.14c-.25 0-.4-.12-.43-.36v-.08l.07-.48s.4-1.62.48-1.83a.1.1 0 0 1 0-.03c-.77.01-.91 0-.92-.01l-.03.12-.4 1.82-.04.16-.07.5c0 .15.03.27.09.38.18.32.72.37 1.02.37a2 2 0 0 0 .99-.23c.42-.26.54-.65.63-1l.05-.19s.41-1.68.48-1.9l.01-.02c-.56.01-.73 0-.78-.01ZM13.23 8.35c-.27 0-.37 0-.69.02l-.01-.03.08-.37.04-.17.13-.66c0-.06.02-.2-.14-.2a.52.52 0 0 0-.2.07l-.16.71-.12.6-.02.03c-.29 0-.39 0-.71.02l-.02-.03.16-.68c.14-.6.17-.84.2-1.15l.04-.02c.32-.04.4-.05.74-.13l.03.04-.06.2c.06-.04.12-.08.18-.1.16-.09.34-.11.44-.11.15 0 .32.04.39.21.07.16.02.36-.07.74l-.04.2c-.09.42-.1.5-.15.79l-.04.02ZM14.36 8.35a5.52 5.52 0 0 0-.74.02l-.01-.02v-.01c.03-.16.05-.22.08-.27l.07-.28.1-.5c.03-.12.04-.23.05-.35l.02-.01V6.9a6.4 6.4 0 0 0 .78-.12v.01l.01.02-.1.4-.09.4-.1.45-.04.26-.02.01-.01.01ZM16.84 7.4c.1-.43.02-.64-.08-.76-.14-.18-.4-.24-.66-.24-.16 0-.53.01-.83.29-.2.2-.3.47-.37.72-.06.26-.12.74.3.91.14.06.33.08.45.08.32 0 .64-.1.88-.35.2-.21.28-.53.3-.65Zm-.73-.03c-.01.06-.07.34-.16.45-.06.08-.13.13-.2.13-.02 0-.16 0-.17-.2 0-.1.02-.2.05-.32.07-.32.16-.6.37-.6.18 0 .19.2.11.54ZM22.92 7.85c-.06.09-.19.14-.27.14-.02 0-.15 0-.16-.2 0-.1.02-.21.05-.32.07-.32.15-.6.38-.6.14 0 .2.15.19.38l-.04.15-.07.3a.5.5 0 0 1-.08.15Zm1.1-1.43c-.35.06-.44.08-.77.12l-.03.02-.01.09a.46.46 0 0 0-.24-.21c-.15-.06-.5.02-.79.3-.21.19-.3.45-.37.71-.06.26-.13.73.3.9.14.06.26.08.38.07a.6.6 0 0 0 .37-.18l-.03.13.02.02h.74l.03-.03a16.78 16.78 0 0 1 .4-1.91v-.03ZM18.72 8.35c-.28 0-.37 0-.7.02v-.03l.08-.37.04-.17.13-.66c0-.06.02-.2-.14-.2a.53.53 0 0 0-.2.07l-.16.71-.12.6-.03.03c-.28 0-.38 0-.7.02l-.02-.03.16-.68a10 10 0 0 0 .2-1.15l.04-.02c.31-.04.4-.05.74-.13l.03.04-.06.2c.06-.04.12-.08.18-.1.16-.09.34-.11.44-.11.15 0 .32.04.39.21.06.16.02.36-.07.74l-.04.2c-.1.42-.1.5-.16.79l-.03.02ZM21.41 6.06a.74.74 0 0 1-.37.5c-.15.08-.34.08-.53.08h-.12V6.6l.23-1 .01-.04V5.5h.1l.48.05c.18.07.26.26.2.5Zm-.3-1.04h-1.16l-.02.12-.22 1-.53 2.23c.52-.02.73-.02.82 0l.14-.7.11-.45s.03-.04.07-.06h.05c.44 0 .95 0 1.35-.3a1.47 1.47 0 0 0 .58-1.16.66.66 0 0 0-.11-.4c-.2-.28-.6-.28-1.08-.28ZM14.66 6.64c.18-.12.2-.3.05-.4-.16-.08-.43-.06-.61.07-.19.13-.2.3-.05.4.15.1.43.06.6-.07ZM26.32 6.42l-.03-.04c-.34.08-.4.09-.72.13l-.02.02v.02c-.24.54-.23.42-.42.85v-.06l-.05-.92-.03-.04c-.36.08-.37.09-.7.13l-.02.02v.04l.07.5.06.5.1.81c-.23.38-.28.52-.5.84l-.15.25a.12.12 0 0 1-.05.05.25.25 0 0 1-.1.01h-.12l-.1.44.44-.01c.25 0 .4-.13.49-.28l.27-.47 1.58-2.8Z"
        clip-rule="evenodd" />
</svg>