<svg width="34" height="17" viewBox="0 0 34 17" fill="none" xmlns="http://www.w3.org/2000/svg">
<rect x="0.25" y="0.25" width="33.5" height="16.5" fill="white" stroke="white" stroke-width="0.5"/>
<path fill-rule="evenodd" clip-rule="evenodd" d="M22.2208 9.24218L21.7034 11.4786H21.8831L21.7731 11.9396H21.5942L21.5614 12.082H20.9239L20.9584 11.9396H19.6641L19.7657 11.5142L19.8976 11.5117L20.425 9.24218L20.5292 8.7854H21.1801L21.128 9.0193C21.128 9.0193 21.2927 8.89133 21.4506 8.85065C21.6135 8.80489 22.5542 8.79133 22.5542 8.79133L22.4467 9.24218H22.2208ZM21.076 9.24219L20.9458 9.81507C20.9458 9.81507 21.1297 9.72863 21.2339 9.69897C21.338 9.67015 21.4968 9.65914 21.4968 9.65914L21.5942 9.24219H21.076ZM20.876 10.0998L20.7391 10.693C20.7391 10.693 20.9281 10.5896 21.0339 10.5625C21.1373 10.5337 21.296 10.5168 21.296 10.5168L21.3934 10.0998H20.876ZM20.5577 11.4837H21.0743L21.1902 10.982H20.672L20.5577 11.4837Z" fill="white"/>
<path fill-rule="evenodd" clip-rule="evenodd" d="M22.5898 8.79138H23.2811L23.2903 9.04986C23.2853 9.09223 23.3239 9.11511 23.4029 9.11681H23.5213L23.4163 9.54562H23.04C22.7175 9.57105 22.594 9.42782 22.6033 9.27104L22.5898 8.79138Z" fill="white"/>
<path fill-rule="evenodd" clip-rule="evenodd" d="M22.707 10.8312H22.046L22.1342 10.4482H22.8885L22.9708 10.0973H22.2258L22.3274 9.66681H24.4003L24.2978 10.0973H23.6041L23.5209 10.4482H24.2172L24.1282 10.8312H23.3748L23.2488 10.9922H23.5554L23.6629 11.4761C23.6729 11.5244 23.6788 11.5533 23.6939 11.5744C23.7082 11.5922 23.8015 11.6016 23.856 11.6016H23.9493L23.8384 12.0719H23.6041C23.568 12.0719 23.5134 12.0719 23.4378 12.0617C23.3681 12.0583 23.3143 12.0151 23.2639 11.9922C23.2185 11.9719 23.1514 11.9185 23.1287 11.8287L23.0228 11.3473L22.7154 11.8227C22.6138 11.9711 22.4744 12.0838 22.2241 12.0838H21.7437L21.8402 11.666H22.025C22.0771 11.666 22.125 11.6473 22.1561 11.6295C22.1913 11.6109 22.2207 11.5948 22.256 11.5439L22.707 10.8312Z" fill="white"/>
<path fill-rule="evenodd" clip-rule="evenodd" d="M15.4018 9.78204H17.1522L17.0522 10.2049H16.3476L16.2644 10.5626H16.9758L16.8717 10.9998H16.1586L16.0217 11.5812C16.0049 11.6473 16.1955 11.6549 16.2644 11.6549L16.618 11.6058L16.5038 12.0854H15.6991C15.6328 12.0854 15.5857 12.0778 15.5144 12.06C15.4455 12.0439 15.4127 12.0126 15.3774 11.9676C15.348 11.9202 15.2993 11.882 15.3245 11.7804L15.5076 11.0058H15.1104L15.2145 10.5626H15.6151L15.6991 10.2049H15.301L15.4018 9.78204Z" fill="white"/>
<path fill-rule="evenodd" clip-rule="evenodd" d="M16.5334 9.02443H17.2515L17.1482 9.46511H16.1672L16.0664 9.55748C16.0252 9.60325 16.0076 9.5863 15.9513 9.61596C15.8967 9.64392 15.7833 9.70155 15.6313 9.70155H15.3188L15.4196 9.27782H15.5112C15.5935 9.27782 15.6464 9.27104 15.6733 9.25325C15.7027 9.23291 15.7354 9.18969 15.7699 9.1168L15.9311 8.78375H16.6442L16.5334 9.02443Z" fill="white"/>
<path fill-rule="evenodd" clip-rule="evenodd" d="M17.5445 8.7871H18.1593L18.0871 9.09896C18.0871 9.09896 18.2685 8.94388 18.4046 8.89133C18.5339 8.83794 18.838 8.79303 18.838 8.79303L19.8266 8.7854L19.5578 9.921C19.5124 10.1151 19.4562 10.2396 19.4159 10.2998C19.3814 10.3524 19.3428 10.4049 19.258 10.4515C19.1782 10.4956 19.1017 10.5202 19.032 10.532C18.9682 10.5354 18.8674 10.5371 18.728 10.5379H17.778L17.5638 11.4346C17.542 11.5244 17.5344 11.5659 17.5521 11.5888C17.5664 11.6108 17.6008 11.6371 17.6453 11.6371L18.0619 11.5947L17.951 12.0854H17.4773C17.3295 12.0854 17.2186 12.0837 17.1456 12.0778C17.0716 12.0719 16.9935 12.0778 16.9406 12.0371C16.8961 11.999 16.8272 11.9498 16.8247 11.8964C16.8272 11.8464 16.8423 11.7642 16.8642 11.6549L17.5445 8.7871ZM18.9126 9.93286H17.9131L17.8644 10.1354H18.732C18.832 10.1252 18.8546 10.1405 18.8605 10.1354L18.9126 9.93286ZM17.9542 9.74896C17.9542 9.74896 18.1382 9.57099 18.4716 9.51082C18.5464 9.49387 19.0268 9.50065 19.0268 9.50065L19.0806 9.25912H18.0727L17.9542 9.74896Z" fill="white"/>
<path fill-rule="evenodd" clip-rule="evenodd" d="M19.44 10.6185L19.4014 10.8922C19.3796 10.9744 19.3636 11.0388 19.3056 11.0947C19.2401 11.1507 19.1654 11.2117 18.9814 11.2117L18.6455 11.2253L18.6589 11.5329C18.6623 11.6202 18.6833 11.6108 18.6984 11.6236C18.7169 11.6397 18.7278 11.6473 18.7446 11.6524L18.8529 11.6473L19.1729 11.6261L19.0688 12.0778H18.6984C18.4372 12.0778 18.2406 12.0719 18.1759 12.0236C18.1104 11.9795 18.1004 11.9278 18.0962 11.8464L18.0449 10.643H18.6404L18.6471 10.8922H18.7891C18.8395 10.8922 18.8706 10.8854 18.8916 10.871C18.9067 10.8591 18.9176 10.8397 18.9285 10.8075L18.9705 10.6185H19.44Z" fill="white"/>
<path fill-rule="evenodd" clip-rule="evenodd" d="M10.9578 4.6066C10.9352 4.70575 10.5555 6.47694 10.5538 6.47694C10.4715 6.83881 10.4094 7.09305 10.212 7.26C10.0927 7.35237 9.95834 7.39898 9.80631 7.39898C9.55601 7.39898 9.40903 7.27525 9.38215 7.03457L9.37627 6.95407C9.37627 6.95407 9.45354 6.4761 9.45354 6.47271C9.45354 6.47271 9.85419 4.85575 9.92726 4.64219C9.92894 4.63118 9.93146 4.62524 9.93398 4.61762C9.15537 4.62609 9.01679 4.62016 9.00755 4.60321C9.00251 4.62101 8.98235 4.72185 8.98235 4.72185L8.57415 6.54559L8.53551 6.69898L8.47168 7.20491C8.47168 7.35237 8.4994 7.4778 8.55819 7.5778C8.74381 7.90915 9.27632 7.95831 9.57533 7.95831C9.96253 7.95831 10.3229 7.87356 10.569 7.72271C10.9948 7.47017 11.1073 7.07017 11.2039 6.71932L11.2501 6.53966C11.2501 6.53966 11.6642 4.85999 11.7339 4.64219C11.7356 4.63118 11.739 4.62524 11.7406 4.61762C11.1771 4.62524 11.0116 4.61762 10.9578 4.6066Z" fill="white"/>
<path fill-rule="evenodd" clip-rule="evenodd" d="M13.2347 7.93967C12.9592 7.93543 12.8618 7.93543 12.5401 7.95068L12.525 7.92865C12.5544 7.80238 12.5855 7.68119 12.6132 7.55577L12.6518 7.38797C12.7123 7.12102 12.7728 6.81678 12.7761 6.72187C12.7829 6.66763 12.8005 6.52695 12.6426 6.52695C12.5762 6.52695 12.5057 6.55915 12.4343 6.59136C12.3982 6.73288 12.3159 7.12526 12.2797 7.30492C12.2008 7.68458 12.1932 7.72695 12.1588 7.91255L12.1353 7.93967C11.8497 7.93543 11.7523 7.93543 11.4264 7.95068L11.4121 7.92441C11.465 7.69899 11.5205 7.47356 11.5709 7.24729C11.7094 6.63966 11.7422 6.40576 11.7792 6.09644L11.8052 6.07441C12.126 6.03373 12.2025 6.02102 12.5485 5.94983L12.5762 5.98373L12.5233 6.17949C12.583 6.1422 12.6409 6.10746 12.7005 6.07441C12.8618 5.99644 13.0432 5.97271 13.144 5.97271C13.2935 5.97271 13.4582 6.01424 13.5279 6.19136C13.5976 6.34898 13.5505 6.54136 13.464 6.92526L13.422 7.12017C13.3305 7.54475 13.3179 7.62441 13.2675 7.91255L13.2347 7.93967Z" fill="white"/>
<path fill-rule="evenodd" clip-rule="evenodd" d="M14.3562 7.93969C14.189 7.93715 14.0832 7.93545 13.979 7.93715C13.8749 7.93969 13.7724 7.94223 13.6187 7.95071L13.6095 7.93715L13.6011 7.92443C13.6422 7.76172 13.6649 7.70579 13.6859 7.64901C13.7069 7.59223 13.7271 7.53376 13.764 7.36935C13.8111 7.15748 13.8421 7.00918 13.8623 6.87782C13.8858 6.75155 13.8976 6.64477 13.9135 6.51935L13.9286 6.50918L13.9387 6.49985C14.1059 6.47612 14.21 6.46002 14.3192 6.44138C14.425 6.42358 14.5359 6.40579 14.7081 6.37189L14.7131 6.38799L14.7207 6.40155C14.6854 6.5346 14.656 6.66765 14.6233 6.8024C14.5922 6.93291 14.5619 7.0668 14.5325 7.19816C14.467 7.47952 14.446 7.58545 14.4301 7.65664C14.4166 7.73037 14.4133 7.76935 14.3881 7.91257L14.373 7.92698L14.3562 7.93969Z" fill="white"/>
<path fill-rule="evenodd" clip-rule="evenodd" d="M16.8354 6.98038C16.9328 6.54987 16.8598 6.35071 16.764 6.22868C16.6179 6.04224 16.3667 5.98376 16.1013 5.98376C15.9434 5.98376 15.5688 6.00071 15.274 6.2736C15.064 6.47105 14.9607 6.7397 14.9044 6.99817C14.8448 7.26004 14.7751 7.73546 15.2043 7.90835C15.3378 7.96343 15.5285 7.98123 15.6503 7.98123C15.9678 7.98123 16.2903 7.89309 16.5314 7.63123C16.7212 7.4219 16.8052 7.11173 16.8354 6.98038ZM16.1148 6.94818C16.0989 7.01936 16.0367 7.29309 15.951 7.40496C15.8922 7.48886 15.8217 7.53971 15.7478 7.53971C15.7251 7.53971 15.5873 7.53971 15.584 7.33377C15.584 7.23292 15.6016 7.13038 15.6277 7.01598C15.6999 6.69225 15.7872 6.42191 16.0048 6.42191C16.177 6.42191 16.1879 6.62275 16.1148 6.94818Z" fill="white"/>
<path fill-rule="evenodd" clip-rule="evenodd" d="M22.9204 7.43881C22.865 7.52016 22.7298 7.56931 22.655 7.56931C22.6323 7.56931 22.4971 7.56931 22.4938 7.36847C22.4921 7.26847 22.5106 7.16508 22.5366 7.05067C22.6071 6.73457 22.6945 6.46338 22.9154 6.46338C23.0557 6.46338 23.1254 6.60321 23.1061 6.83202C23.0935 6.88287 23.0867 6.93118 23.0733 6.99219C23.0489 7.08965 23.0212 7.18965 22.9969 7.28881C22.9759 7.34728 22.9515 7.40067 22.9204 7.43881ZM24.0168 6.00488C23.6699 6.07014 23.5784 6.08031 23.2491 6.12607L23.2206 6.15065C23.2189 6.17776 23.2138 6.20319 23.2096 6.23031C23.1601 6.14387 23.0887 6.07098 22.9711 6.02692C22.8216 5.96675 22.4764 6.04387 22.1816 6.31844C21.9699 6.51251 21.8725 6.78031 21.8103 7.03455C21.7532 7.29387 21.6835 7.7676 22.1119 7.9354C22.2479 7.99387 22.3722 8.00997 22.494 8.00404C22.6293 7.99641 22.7477 7.92692 22.8619 7.83116C22.8493 7.87353 22.8409 7.91252 22.83 7.95235L22.8493 7.97947C23.1584 7.96336 23.2542 7.96336 23.5876 7.9676L23.6178 7.94218C23.6649 7.65574 23.7136 7.37438 23.8387 6.82183C23.8992 6.55743 23.9614 6.29556 24.026 6.0337L24.0168 6.00488Z" fill="white"/>
<path fill-rule="evenodd" clip-rule="evenodd" d="M18.722 7.93967C18.4432 7.93543 18.3516 7.93543 18.0257 7.95068L18.014 7.92865C18.0434 7.80238 18.0745 7.68119 18.1022 7.55577L18.1417 7.38797C18.1988 7.12102 18.2601 6.81678 18.2676 6.72187C18.2702 6.66763 18.2878 6.52695 18.1299 6.52695C18.0652 6.52695 17.993 6.55915 17.9216 6.59136C17.8855 6.73288 17.8057 7.12526 17.767 7.30492C17.6906 7.68458 17.6839 7.72695 17.6495 7.91255L17.6234 7.93967C17.3404 7.93543 17.2429 7.93543 16.9145 7.95068L16.8994 7.92441C16.9548 7.69899 17.0086 7.47356 17.059 7.24729C17.1976 6.63966 17.2295 6.40576 17.269 6.09644L17.295 6.07441C17.615 6.03373 17.6906 6.02102 18.0383 5.94983L18.0652 5.98373L18.014 6.17949C18.0686 6.1422 18.1282 6.10746 18.187 6.07441C18.35 5.99644 18.5305 5.97271 18.6296 5.97271C18.7808 5.97271 18.9471 6.01424 19.016 6.19136C19.0824 6.34898 19.0395 6.54136 18.9522 6.92526L18.9085 7.12017C18.8186 7.54475 18.8043 7.62441 18.7548 7.91255L18.722 7.93967Z" fill="white"/>
<path fill-rule="evenodd" clip-rule="evenodd" d="M21.4136 5.64306C21.364 5.86425 21.2238 6.05238 21.039 6.14221C20.8869 6.21933 20.7047 6.22526 20.5115 6.22526H20.3864L20.3981 6.17526C20.3981 6.17526 20.6249 5.1778 20.6249 5.18119L20.6299 5.13289L20.635 5.09052L20.7265 5.09814C20.7265 5.09814 21.196 5.14306 21.2061 5.14475C21.3901 5.21424 21.4682 5.40323 21.4136 5.64306ZM21.1137 4.60153L20.8853 4.60661C20.2881 4.61424 20.0504 4.61085 19.9496 4.59729C19.9412 4.64221 19.9253 4.72017 19.9253 4.72017C19.9253 4.72017 19.7136 5.72102 19.7136 5.72272C19.7136 5.72272 19.2021 7.84984 19.1777 7.94815C19.696 7.94222 19.9118 7.93967 20 7.95069C20.021 7.85323 20.1428 7.25832 20.1436 7.25832C20.1436 7.25832 20.2461 6.82187 20.2537 6.80747C20.2537 6.80747 20.2822 6.76086 20.3175 6.74391H20.3662C20.8139 6.74391 21.322 6.74391 21.721 6.4473C21.9906 6.24645 22.1737 5.94814 22.2594 5.58458C22.2787 5.4939 22.2955 5.38882 22.2955 5.28119C22.2955 5.14475 22.2678 5.00407 22.188 4.8956C21.9873 4.61085 21.5824 4.60661 21.1137 4.60153Z" fill="white"/>
<path fill-rule="evenodd" clip-rule="evenodd" d="M14.6591 6.22866C14.8406 6.10324 14.8658 5.92357 14.7112 5.8329C14.555 5.74052 14.2829 5.76934 14.0989 5.89646C13.9133 6.02527 13.894 6.20154 14.0485 6.29476C14.2031 6.38629 14.4752 6.35747 14.6591 6.22866Z" fill="white"/>
<path fill-rule="evenodd" clip-rule="evenodd" d="M26.3163 6.00072L26.2869 5.96936C25.9467 6.0397 25.8854 6.05072 25.5713 6.09224L25.5469 6.11512C25.5469 6.1219 25.5469 6.12529 25.5461 6.13038L25.5444 6.12529C25.3101 6.67021 25.3193 6.55157 25.1295 6.98038C25.127 6.96004 25.127 6.94563 25.127 6.92699L25.0791 6.00072L25.0497 5.96936C24.6936 6.0397 24.6835 6.05072 24.3559 6.09224L24.3291 6.11512C24.3257 6.12614 24.324 6.13885 24.3223 6.15156L24.3257 6.15665C24.366 6.36851 24.3568 6.3236 24.3988 6.6575C24.4164 6.82191 24.4424 6.98801 24.4609 7.15326C24.4954 7.42021 24.5138 7.5575 24.5516 7.97021C24.3291 8.3431 24.277 8.48377 24.0645 8.8075V8.81089L23.9133 9.04988C23.8957 9.07869 23.8805 9.09564 23.8579 9.10157C23.8352 9.11259 23.8016 9.11683 23.7587 9.11683H23.6445L23.5454 9.55327L23.9754 9.54564C24.2257 9.5431 24.3845 9.42107 24.4693 9.26429L24.7356 8.80072L26.3163 6.00072Z" fill="white"/>
<path fill-rule="evenodd" clip-rule="evenodd" d="M10.3061 1.48541H15.7958C16.5626 1.48541 17.0388 2.11508 16.8599 2.89135L14.3032 13.9634C14.1235 14.7371 13.3583 15.3668 12.5931 15.3668H7.10092C6.33576 15.3668 5.85868 14.7371 6.03758 13.9634L8.59514 2.89135C8.7732 2.11508 9.53836 1.48541 10.3061 1.48541Z" fill="#D80029"/>
<path fill-rule="evenodd" clip-rule="evenodd" d="M15.3414 1.48541H20.8311C21.5963 1.48541 22.0767 2.11508 21.8936 2.89135L19.3394 13.9634C19.1589 14.7371 18.3912 15.3668 17.6235 15.3668H12.1355C11.3686 15.3668 10.8924 14.7371 11.0721 13.9634L13.6271 2.89135C13.8061 2.11508 14.5746 1.48541 15.3414 1.48541Z" fill="#0E2E62"/>
<path fill-rule="evenodd" clip-rule="evenodd" d="M21.4062 1.48541H26.8909C27.6577 1.48541 28.1365 2.11508 27.9559 2.89135L25.4 13.9634C25.222 14.7371 24.4543 15.3668 23.6883 15.3668H18.196C17.43 15.3668 16.9513 14.7371 17.1319 13.9634L19.6877 2.89135C19.8666 2.11508 20.6352 1.48541 21.4062 1.48541Z" fill="#0C606C"/>
<path fill-rule="evenodd" clip-rule="evenodd" d="M22.2208 9.65918L21.7034 11.8914H21.8831L21.7731 12.3558H21.5942L21.5614 12.4982H20.9239L20.9584 12.3558H19.6641L19.7657 11.9278L19.8976 11.927L20.425 9.65918L20.5292 9.20325H21.1801L21.128 9.43291C21.128 9.43291 21.2927 9.30579 21.4506 9.26426C21.6135 9.2202 22.5542 9.20409 22.5542 9.20409L22.4467 9.65918H22.2208ZM21.076 9.65918L20.9458 10.2304C20.9458 10.2304 21.1297 10.1422 21.2339 10.1151C21.338 10.0863 21.4968 10.0719 21.4968 10.0719L21.5942 9.65918H21.076ZM20.876 10.5168L20.7391 11.1058C20.7391 11.1058 20.9281 11.0058 21.0339 10.9753C21.1373 10.9482 21.296 10.9304 21.296 10.9304L21.3934 10.5168H20.876ZM20.5577 11.8999H21.0743L21.1902 11.3965H20.672L20.5577 11.8999Z" fill="white"/>
<path fill-rule="evenodd" clip-rule="evenodd" d="M22.5898 9.2066H23.2811L23.2903 9.46508C23.2853 9.5083 23.3239 9.52864 23.4029 9.53033H23.5213L23.4163 9.96H23.04C22.7175 9.98457 22.594 9.84389 22.6033 9.68542L22.5898 9.2066Z" fill="white"/>
<path fill-rule="evenodd" clip-rule="evenodd" d="M22.707 11.2456H22.046L22.1342 10.8642H22.8885L22.9708 10.5142H22.2258L22.3274 10.082H24.4003L24.2978 10.5142H23.6041L23.5209 10.8642H24.2172L24.1282 11.2456H23.3748L23.2488 11.4083H23.5554L23.6629 11.8914C23.6729 11.938 23.6788 11.9693 23.6939 11.9905C23.7082 12.0058 23.8015 12.0142 23.856 12.0142H23.9493L23.8384 12.4871H23.6041C23.568 12.4871 23.5134 12.4863 23.4378 12.4786C23.3681 12.4736 23.3143 12.4295 23.2639 12.4083C23.2185 12.3863 23.1514 12.3354 23.1287 12.2431L23.0228 11.7634L22.7154 12.2363C22.6138 12.3863 22.4744 12.499 22.2241 12.499H21.7437L21.8402 12.082H22.025C22.0771 12.082 22.125 12.06 22.1561 12.0422C22.1913 12.027 22.2207 12.0092 22.256 11.9592L22.707 11.2456Z" fill="white"/>
<path fill-rule="evenodd" clip-rule="evenodd" d="M15.4018 10.1981H17.1522L17.0522 10.6185H16.3476L16.2644 10.9795H16.9758L16.8717 11.4134H16.1586L16.0217 11.9956C16.0049 12.06 16.1955 12.0719 16.2644 12.0719L16.618 12.0219L16.5038 12.499H15.6991C15.6328 12.499 15.5857 12.4939 15.5144 12.4769C15.4455 12.4591 15.4127 12.4278 15.3774 12.3829C15.348 12.3371 15.2993 12.2947 15.3245 12.1947L15.5076 11.4202H15.1104L15.2145 10.9795H15.6151L15.6991 10.6185H15.301L15.4018 10.1981Z" fill="white"/>
<path fill-rule="evenodd" clip-rule="evenodd" d="M16.5334 9.44137H17.2515L17.1482 9.87951H16.1672L16.0664 9.97442C16.0252 10.0185 16.0076 10.0007 15.9513 10.0304C15.8967 10.0617 15.7833 10.1151 15.6313 10.1151H15.3188L15.4196 9.69391H15.5112C15.5935 9.69391 15.6464 9.68374 15.6733 9.66679C15.7027 9.649 15.7354 9.60323 15.7699 9.53035L15.9311 9.20154H16.6442L16.5334 9.44137Z" fill="white"/>
<path fill-rule="evenodd" clip-rule="evenodd" d="M17.5445 9.20325H18.1593L18.0871 9.51596C18.0871 9.51596 18.2685 9.35748 18.4046 9.30579C18.5339 9.25325 18.838 9.20833 18.838 9.20833L19.8266 9.20325L19.5578 10.3355C19.5124 10.5321 19.4562 10.6558 19.4159 10.7117C19.3814 10.7694 19.3428 10.8185 19.258 10.8668C19.1782 10.9126 19.1017 10.938 19.032 10.9448C18.9682 10.9524 18.8674 10.9524 18.728 10.9533H17.778L17.5638 11.8499C17.542 11.9397 17.5344 11.9812 17.5521 12.0058C17.5664 12.0253 17.6008 12.0499 17.6453 12.0499L18.0619 12.0092L17.951 12.5033H17.4773C17.3295 12.5033 17.2186 12.499 17.1456 12.4931C17.0716 12.4872 16.9935 12.4931 16.9406 12.4524C16.8961 12.4117 16.8272 12.3634 16.8247 12.3117C16.8272 12.2626 16.8423 12.1812 16.8642 12.0727L17.5445 9.20325ZM18.9126 10.349H17.9131L17.8644 10.5515H18.732C18.832 10.5422 18.8546 10.5549 18.8605 10.5507L18.9126 10.349ZM17.9542 10.166C17.9542 10.166 18.1382 9.98459 18.4716 9.92443C18.5464 9.91171 19.0268 9.9151 19.0268 9.9151L19.0806 9.67273H18.0727L17.9542 10.166Z" fill="white"/>
<path fill-rule="evenodd" clip-rule="evenodd" d="M19.44 11.0329L19.4014 11.3049C19.3796 11.3888 19.3636 11.4541 19.3056 11.5117C19.2401 11.5668 19.1654 11.6261 18.9814 11.6261L18.6455 11.6397L18.6589 11.9465C18.6623 12.0371 18.6833 12.027 18.6984 12.0405C18.7169 12.0566 18.7278 12.0617 18.7446 12.0668L18.8529 12.0617L19.1729 12.0422L19.0688 12.4939H18.6984C18.4372 12.4939 18.2406 12.4863 18.1759 12.4354C18.1104 12.3931 18.1004 12.3448 18.0962 12.2617L18.0449 11.0592H18.6404L18.6471 11.3049H18.7891C18.8395 11.3049 18.8706 11.3015 18.8916 11.288C18.9067 11.2727 18.9176 11.2549 18.9285 11.2253L18.9705 11.0329H19.44Z" fill="white"/>
<path fill-rule="evenodd" clip-rule="evenodd" d="M10.9578 5.02014C10.9352 5.12184 10.5555 6.89218 10.5538 6.89388C10.4715 7.2515 10.4094 7.50744 10.212 7.67354C10.0927 7.7693 9.95834 7.81422 9.80631 7.81422C9.55601 7.81422 9.40903 7.69049 9.38215 7.45235L9.37627 7.3693C9.37627 7.3693 9.45354 6.89218 9.45354 6.89049C9.45354 6.89049 9.85419 5.27184 9.92726 5.05743C9.92894 5.04557 9.93146 5.03709 9.93398 5.03116C9.15537 5.04048 9.01679 5.03455 9.00755 5.02014C9.00251 5.03709 8.98235 5.13963 8.98235 5.13963L8.57415 6.95998L8.53551 7.11506L8.47168 7.61845C8.47168 7.7693 8.4994 7.89218 8.55819 7.99557C8.74381 8.32269 9.27632 8.371 9.57533 8.371C9.96253 8.371 10.3229 8.28625 10.569 8.1388C10.9948 7.88201 11.1073 7.4854 11.2039 7.13455L11.2501 6.95405C11.2501 6.95405 11.6642 5.27438 11.7339 5.05743C11.7356 5.04557 11.739 5.03709 11.7406 5.03116C11.1771 5.03963 11.0116 5.03455 10.9578 5.02014Z" fill="white"/>
<path fill-rule="evenodd" clip-rule="evenodd" d="M13.2347 8.35409C12.9592 8.34986 12.8618 8.34986 12.5401 8.36511L12.525 8.34308C12.5544 8.21765 12.5855 8.09392 12.6132 7.97019L12.6518 7.8024C12.7123 7.53799 12.7728 7.2329 12.7761 7.13799C12.7829 7.08206 12.8005 6.94223 12.6426 6.94223C12.5762 6.94223 12.5057 6.97358 12.4343 7.00748C12.3982 7.14646 12.3159 7.54138 12.2797 7.72019C12.2008 8.09986 12.1932 8.14392 12.1588 8.32867L12.1353 8.35409C11.8497 8.34986 11.7523 8.34986 11.4264 8.36511L11.4121 8.33969C11.465 8.11087 11.5205 7.88799 11.5709 7.66172C11.7094 7.05324 11.7422 6.82189 11.7792 6.51256L11.8052 6.49138C12.126 6.44731 12.2025 6.43629 12.5485 6.36426L12.5762 6.39646L12.5233 6.59307C12.583 6.55917 12.6409 6.52358 12.7005 6.49138C12.8618 6.41172 13.0432 6.38629 13.144 6.38629C13.2935 6.38629 13.4582 6.43036 13.5279 6.60494C13.5976 6.76256 13.5505 6.95663 13.464 7.33968L13.422 7.53206C13.3305 7.96003 13.3179 8.03884 13.2675 8.32867L13.2347 8.35409Z" fill="white"/>
<path fill-rule="evenodd" clip-rule="evenodd" d="M14.3562 8.35408C14.189 8.34985 14.0832 8.34985 13.979 8.35408C13.8749 8.35408 13.7724 8.35747 13.6187 8.3651L13.6095 8.34985L13.6011 8.33968C13.6422 8.17866 13.6649 8.12103 13.6859 8.0651C13.7069 8.00747 13.7271 7.95069 13.764 7.78629C13.8111 7.57442 13.8421 7.42188 13.8623 7.29391C13.8858 7.1651 13.8976 7.06001 13.9135 6.93628L13.9286 6.92527L13.9387 6.91255C14.1059 6.89222 14.21 6.87611 14.3192 6.85662C14.425 6.84137 14.5359 6.82188 14.7081 6.78967L14.7131 6.80238L14.7207 6.81679C14.6854 6.94984 14.656 7.08205 14.6233 7.21595C14.5922 7.349 14.5619 7.48205 14.5325 7.6134C14.467 7.89307 14.446 7.99985 14.4301 8.07358C14.4166 8.14561 14.4133 8.18205 14.3881 8.32866L14.373 8.34307L14.3562 8.35408Z" fill="white"/>
<path fill-rule="evenodd" clip-rule="evenodd" d="M16.8354 7.39558C16.9328 6.96507 16.8598 6.76422 16.764 6.64473C16.6179 6.45744 16.3667 6.39642 16.1013 6.39642C15.9434 6.39642 15.5688 6.41422 15.274 6.69049C15.064 6.88626 14.9607 7.1566 14.9044 7.41168C14.8448 7.67439 14.7751 8.15067 15.2043 8.3227C15.3378 8.37948 15.5285 8.39812 15.6503 8.39812C15.9678 8.39812 16.2903 8.30829 16.5314 8.04558C16.7212 7.83965 16.8052 7.52355 16.8354 7.39558ZM16.1148 7.36508C16.0989 7.43457 16.0367 7.70576 15.951 7.82017C15.8922 7.90152 15.8217 7.95237 15.7478 7.95237C15.7251 7.95237 15.5873 7.95237 15.584 7.74983C15.584 7.64813 15.6016 7.54474 15.6277 7.43203C15.6999 7.11169 15.7872 6.83881 16.0048 6.83881C16.177 6.83881 16.1879 7.03626 16.1148 7.36508Z" fill="white"/>
<path fill-rule="evenodd" clip-rule="evenodd" d="M22.9204 7.85408C22.865 7.93544 22.7298 7.98544 22.655 7.98544C22.6323 7.98544 22.4971 7.98544 22.4938 7.78544C22.4921 7.68289 22.5106 7.58035 22.5366 7.46849C22.6071 7.14815 22.6945 6.87781 22.9154 6.87781C23.0557 6.87781 23.1254 7.01764 23.1061 7.2473C23.0935 7.29815 23.0867 7.34561 23.0733 7.40493C23.0489 7.50578 23.0212 7.60408 22.9969 7.70239C22.9759 7.76171 22.9515 7.81764 22.9204 7.85408ZM24.0168 6.41846C23.6699 6.48202 23.5784 6.49897 23.2491 6.54388L23.2206 6.56337C23.2189 6.59134 23.2138 6.61676 23.2096 6.64558C23.1601 6.56083 23.0887 6.48625 22.9711 6.44049C22.8216 6.38456 22.4764 6.45744 22.1816 6.73286C21.9699 6.92778 21.8725 7.19219 21.8103 7.45066C21.7532 7.70744 21.6835 8.18202 22.1119 8.34982C22.2479 8.40829 22.3722 8.42524 22.494 8.41846C22.6293 8.41338 22.7477 8.34304 22.8619 8.24473C22.8493 8.28541 22.8409 8.32694 22.83 8.36846L22.8493 8.39219C23.1584 8.37948 23.2542 8.37948 23.5876 8.38372L23.6178 8.35745C23.6649 8.07016 23.7136 7.78795 23.8387 7.23456C23.8992 6.97185 23.9614 6.70998 24.026 6.44727L24.0168 6.41846Z" fill="white"/>
<path fill-rule="evenodd" clip-rule="evenodd" d="M18.722 8.35409C18.4432 8.34986 18.3516 8.34986 18.0257 8.36511L18.014 8.34308C18.0434 8.21765 18.0745 8.09392 18.1022 7.97019L18.1417 7.8024C18.1988 7.53799 18.2601 7.2329 18.2676 7.13799C18.2702 7.08206 18.2878 6.94223 18.1299 6.94223C18.0652 6.94223 17.993 6.97358 17.9216 7.00748C17.8855 7.14646 17.8057 7.54138 17.767 7.72019C17.6906 8.09986 17.6839 8.14392 17.6495 8.32867L17.6234 8.35409C17.3404 8.34986 17.2429 8.34986 16.9145 8.36511L16.8994 8.33969C16.9548 8.11087 17.0086 7.88799 17.059 7.66172C17.1976 7.05324 17.2295 6.82189 17.269 6.51256L17.295 6.49138C17.615 6.44731 17.6906 6.43629 18.0383 6.36426L18.0652 6.39646L18.014 6.59307C18.0686 6.55917 18.1282 6.52358 18.187 6.49138C18.35 6.41172 18.5305 6.38629 18.6296 6.38629C18.7808 6.38629 18.9471 6.43036 19.016 6.60494C19.0824 6.76256 19.0395 6.95663 18.9522 7.33968L18.9085 7.53206C18.8186 7.96003 18.8043 8.03884 18.7548 8.32867L18.722 8.35409Z" fill="white"/>
<path fill-rule="evenodd" clip-rule="evenodd" d="M21.4136 6.06004C21.364 6.28122 21.2238 6.46597 21.039 6.55919C20.8869 6.63546 20.7047 6.64139 20.5115 6.64139H20.3864L20.3981 6.59139C20.3981 6.59139 20.6249 5.59478 20.6249 5.59648L20.6299 5.54563L20.635 5.50749L20.7265 5.51342C20.7265 5.51342 21.196 5.5558 21.2061 5.55919C21.3901 5.63122 21.4682 5.81597 21.4136 6.06004ZM21.1137 5.01681L20.8853 5.0219C20.2881 5.02952 20.0504 5.02698 19.9496 5.01257C19.9412 5.05749 19.9253 5.13545 19.9253 5.13545L19.7136 6.138C19.7136 6.138 19.2021 8.26343 19.1777 8.36513C19.696 8.35496 19.9118 8.35496 20 8.36682C20.021 8.26682 20.1428 7.6736 20.1436 7.67021C20.1436 7.67021 20.2461 7.23461 20.2537 7.2236C20.2537 7.2236 20.2822 7.17614 20.3175 7.1575H20.3662C20.8139 7.1575 21.322 7.1575 21.721 6.86088C21.9906 6.66258 22.1737 6.36003 22.2594 5.99902C22.2787 5.91003 22.2955 5.8041 22.2955 5.69647C22.2955 5.55919 22.2678 5.4219 22.188 5.30918C21.9873 5.02359 21.5824 5.0219 21.1137 5.01681Z" fill="white"/>
<path fill-rule="evenodd" clip-rule="evenodd" d="M14.6591 6.64475C14.8406 6.51763 14.8658 6.34051 14.7112 6.24559C14.555 6.15661 14.2829 6.18373 14.0989 6.31254C13.9133 6.43797 13.894 6.61678 14.0485 6.71C14.2031 6.80238 14.4752 6.77187 14.6591 6.64475Z" fill="white"/>
<path fill-rule="evenodd" clip-rule="evenodd" d="M26.3163 6.41763L26.2869 6.38458C25.9467 6.45577 25.8854 6.46594 25.5713 6.50831L25.5469 6.52865C25.5469 6.53458 25.5469 6.54136 25.5461 6.5456L25.5444 6.54136C25.3101 7.08543 25.3193 6.96679 25.1295 7.3956C25.127 7.37442 25.127 7.35916 25.127 7.34137L25.0791 6.41763L25.0497 6.38458C24.6936 6.45577 24.6835 6.46594 24.3559 6.50831L24.3291 6.52865C24.3257 6.54391 24.324 6.55407 24.3223 6.56763L24.3257 6.57187C24.366 6.78543 24.3568 6.73713 24.3988 7.07187C24.4164 7.23459 24.4424 7.40238 24.4609 7.56594C24.4954 7.83713 24.5138 7.97188 24.5516 8.38374C24.3291 8.75917 24.277 8.89815 24.0645 9.22357L23.9133 9.4668C23.8957 9.49391 23.8805 9.50832 23.8579 9.51849C23.8352 9.52866 23.8016 9.53374 23.7587 9.53374H23.6445L23.5454 9.96849L23.9754 9.96002C24.2257 9.96002 24.3845 9.83459 24.4693 9.67612L24.7356 9.21425L26.3163 6.41763Z" fill="white"/>
</svg>
