<svg xmlns="http://www.w3.org/2000/svg" width="34" height="17" fill="none">
    <path fill="#2566AF" d="M0 0h34v17H0z" />
    <path fill="#fff"
        d="M14.57 12.8h-2.23l1.4-8.45h2.23l-1.4 8.46Zm-4.11-8.45-2.13 5.82-.25-1.26-.75-3.8s-.1-.76-1.06-.76H2.75l-.05.14s1.08.22 2.34.97l1.94 7.35h2.33l3.55-8.46h-2.4Zm17.57 8.46h2.05L28.3 4.35h-1.8c-.83 0-1.03.63-1.03.63l-3.33 7.83h2.33l.46-1.26h2.84l.26 1.26Zm-2.46-3 1.18-3.16.66 3.16h-1.84Zm-3.26-3.43.32-1.82s-.98-.37-2-.37c-1.12 0-3.75.48-3.75 2.8 0 2.2 3.09 2.22 3.09 3.37s-2.77.94-3.69.22l-.33 1.9s1 .47 2.52.47c1.53 0 3.83-.77 3.83-2.9 0-2.2-3.12-2.4-3.12-3.35 0-.96 2.18-.84 3.13-.32Z" />
</svg>