<?xml version="1.0" encoding="utf-8"?>
<!-- Generator: Adobe Illustrator 27.1.1, SVG Export Plug-In . SVG Version: 6.00 Build 0)  -->
<svg version="1.1" id="Layer_1" xmlns="http://www.w3.org/2000/svg" xmlns:xlink="http://www.w3.org/1999/xlink" x="0px" y="0px"
	 viewBox="0 0 3574 920" style="enable-background:new 0 0 3574 920;" xml:space="preserve">
<style type="text/css">
	.st0{fill-rule:evenodd;clip-rule:evenodd;fill:#FFFFFF;}
	.st1{opacity:0.5335;}
	.st2{fill:url(#SVGID_1_);}
	.st3{opacity:0.4698;fill:url(#SVGID_00000038373191811853120760000016703112387724200876_);enable-background:new    ;}
	.st4{opacity:0.6072;fill:url(#SVGID_00000093167331039711724070000015999886354608573589_);enable-background:new    ;}
	.st5{fill:#FF0077;}
	.st6{fill:url(#SVGID_00000155859911484502011770000016081925254326457222_);}
	.st7{fill:#99007C;}
	.st8{fill:#364755;}
	.st9{fill:#0A1B2A;}
	.st10{fill:#96654D;}
	.st11{fill:#351313;}
	.st12{fill:#754E3E;}
	.st13{fill:#60C5E8;}
	.st14{fill:#85CDED;}
	.st15{fill:#F06BA8;}
	.st16{fill:#FF2E89;}
	.st17{fill:#E40062;}
	.st18{fill:none;stroke:url(#Path_00000001654856393999706540000016129655318203158443_);stroke-width:5.3644;}
	
		.st19{fill:none;stroke:url(#Path_00000119813959816205520540000013673470533964451969_);stroke-width:5.3644;stroke-dasharray:6.3592,6.3592;}
	.st20{fill:none;stroke:url(#Path_00000167368794422093834770000014705808018703314075_);stroke-width:5.3644;}
	.st21{fill:#FFFFFF;}
	.st22{fill:#FAFAFA;}
</style>
<g id="Flag-Management">
	<polygon class="st0" points="717.8,920 456.4,920 0,920 0,0 610.3,0 920.5,0 2483.8,0 2796.6,0 3574,0 3574,920 2950.4,920 
		2686.5,920 1646.2,920 739.8,920 	"/>
	<g id="flag-blog-postv3-cropped">
		<g id="Background" class="st1">
			<linearGradient id="SVGID_1_" gradientUnits="userSpaceOnUse" x1="1787" y1="920.029" x2="1787" y2="3.6486">
				<stop  offset="0" style="stop-color:#A65193;stop-opacity:0.3114"/>
				<stop  offset="1" style="stop-color:#FEC2FC"/>
			</linearGradient>
			<polygon class="st2" points="717.8,920 456.4,920 0,920 0,0 610.3,0 920.5,0 2483.8,0 2796.6,0 3574,0 3574,920 2950.4,920 
				2686.5,920 1646.2,920 739.8,920 			"/>
		</g>
		<g id="bg-circles" transform="translate(429.000000, 0.000000)">
			
				<linearGradient id="SVGID_00000031917575108546846180000009490216712026010272_" gradientUnits="userSpaceOnUse" x1="-1076.252" y1="1575.061" x2="2855.3474" y2="-230.8101">
				<stop  offset="0" style="stop-color:#F8D1E8"/>
				<stop  offset="0" style="stop-color:#F8D1E8"/>
				<stop  offset="1" style="stop-color:#EAE8FE"/>
			</linearGradient>
			
				<path style="opacity:0.4698;fill:url(#SVGID_00000031917575108546846180000009490216712026010272_);enable-background:new    ;" d="
				M288.8,920H27.4C9.5,834.7,0,746.3,0,655.7C0,415.9,66.2,191.6,181.3,0h310.2h1563.3h312.7c115.1,191.6,181.3,415.9,181.3,655.7
				c0,90.6-9.5,179.1-27.5,264.4h-263.9H1217.2H310.8H288.8z"/>
			
				<linearGradient id="SVGID_00000170983034880707857180000014474368756262208447_" gradientUnits="userSpaceOnUse" x1="-696.8016" y1="1649.5925" x2="2583.9021" y2="-234.5359">
				<stop  offset="0" style="stop-color:#F8D1E8"/>
				<stop  offset="0" style="stop-color:#F8D1E8"/>
				<stop  offset="1" style="stop-color:#EAE8FE"/>
			</linearGradient>
			
				<path style="opacity:0.6072;fill:url(#SVGID_00000170983034880707857180000014474368756262208447_);enable-background:new    ;" d="
				M288.8,920c-8.3-30.9-15.2-62.4-20.6-94.3c0,0,0,0,0,0c-0.8-4.5-1.5-9.1-2.2-13.6c0,0,0,0,0,0c-8-51.4-12.1-104-12.1-157.6
				c0-249.1,89.3-477.3,237.6-654.4h1563.3c148.3,177.1,237.6,405.3,237.6,654.4c0,91.9-12.2,180.9-34.9,265.6H1217.2H310.8H288.8z"
				/>
			<ellipse id="Oval-Copy-11" class="st5" cx="606.1" cy="116.7" rx="18.7" ry="18.7"/>
			<ellipse id="Oval-Copy-12_1_" class="st5" cx="2609.8" cy="308.3" rx="11.2" ry="11.2"/>
			<ellipse id="Oval-Copy-12_2_" class="st5" cx="1751.4" cy="602.8" rx="11.2" ry="11.2"/>
			<ellipse id="Oval-Copy-14" class="st5" cx="1347.8" cy="173.9" rx="16.2" ry="16.2"/>
			<ellipse id="Oval-Copy-14_2_" class="st5" cx="252.7" cy="821.2" rx="16.2" ry="16.2"/>
		</g>
		<g id="Layer_1_00000091697927203536585870000003101958272138875063_">
			
				<linearGradient id="SVGID_00000103968947658875709560000009527401426422151865_" gradientUnits="userSpaceOnUse" x1="1193.015" y1="838.3325" x2="1193.015" y2="564.9198">
				<stop  offset="0" style="stop-color:#C151A6"/>
				<stop  offset="1" style="stop-color:#EAC2FE"/>
			</linearGradient>
			<path style="fill:url(#SVGID_00000103968947658875709560000009527401426422151865_);" d="M1646.2,920H739.8
				c33.1-10.4,66.9-19.7,96.5-26.6c49.1-11.5,103.7-26.3,147.9-46.7c2-0.9,4-1.9,5.9-2.8c0,0,0,0,0,0c0.1,0,0.1-0.1,0.2-0.1
				c2.8-1.4,5.5-2.7,8.2-4.1c3.2-1.7,6.4-3.4,9.5-5.2c9.3-5.3,17.8-10.9,25.4-16.9l0,0c14.9-11.7,26.1-24.8,32.3-39.5
				c11.3-26.9,37.2-48.2,68-63.8h0c0.1-0.1,0.3-0.1,0.4-0.2c2.6-1.3,5.2-2.6,7.9-3.8h0c21.1-9.7,44.1-16.9,66-21.6h0
				c16.2-3.4,31.7-5.5,45.7-6.2c20.1-1,39.3,2.8,57.3,8.7c8.6,2.8,17,6.2,25.1,9.7c28.5,12.5,53.4,27.5,73.8,32.6
				c38.3,9.6,82.9,19.2,114.7,44.6c31.8,25.5,63.7,82.9,102,115.4C1635.3,900.8,1641.4,909.9,1646.2,920z"/>
			<ellipse id="Oval" class="st7" cx="1327.5" cy="739.4" rx="14" ry="8.5"/>
			<polygon id="Path_00000179624765257307434300000003391355080992527520_" class="st7" points="1336.6,739.3 1353.6,737.2 
				1365.9,744.6 1380.1,742 1366.5,743.2 1353.9,734.3 1339,734.3 1336.6,739.3 			"/>
			<polygon id="Path_00000153687229400734524590000017815805941462928009_" class="st7" points="1315.2,731.3 1311.9,725.8 
				1301.1,723 1312.9,725 1314.8,727.2 1315.2,731.3 			"/>
			<polygon id="Path_00000135673544450822782870000010001210398012014215_" class="st7" points="1323.6,743.2 1332.2,756.1 
				1324.7,764.5 1326.4,782.1 1306.7,790.5 1328.3,782.6 1326.9,764.6 1336.6,756 1329.7,743.6 1323.6,743.2 			"/>
			<polygon id="Path_00000076575916354792502070000011546031241639384451_" class="st7" points="1316.6,737.2 1297.8,743.7 
				1297.8,750.7 1280.1,759.3 1265.6,756.6 1257.1,759.3 1265.3,757.5 1280.5,761 1301.1,751.1 1301.1,746.1 1319.3,740.8 
				1316.6,737.2 			"/>
		</g>
		<g id="person_x2B_flag" transform="translate(961.000000, 410.718999)">
			<g id="Layer_4" transform="translate(28.394189, 252.886899)">
				<path id="Path_00000149374348478636915960000002282582562259331503_" class="st8" d="M137.5-9.4c0,0,43.1,6,59.8,14.1
					c16.7,8.2,29.3,30.5,31.9,43.4S197.9,144,197.9,144l-23.3-1.4c0,0,34.9-84.8,4.1-88s-72.3-8.4-84.1-18.2c0,0-2,20.2-7.3,44.9
					c-5.4,24.7-23.7,50.1-23.7,50.1l-43.5,50.3L0,171.4c0,0,43.5-60.2,42.4-68.1c-1-7.8-18.2-60.3-17.4-76
					c0.8-15.6,5.1-52.7,5.1-52.7s10-12.7,22-5c12,7.7,47.9,14.1,57.5,14.1C119.3-16.1,137.5-9.4,137.5-9.4z"/>
				<path id="Path_00000038388872012108132800000017056267281077667001_" class="st9" d="M52.3-30.3c-12-7.7-22,5-22,5
					s-4.3,37-5.1,52.7c-0.8,15.6,16.3,68.1,17.4,76c1,7.8-42.4,68.1-42.4,68.1s6.2,4.4,13.7,0.3s12.2-34.6,27-47.4
					s18.1-20.7,15.5-25.7c-2.6-5-11.6-31.2-6.9-62.6c4.9-32.5,57-43,57-43L52.3-30.3z"/>
				<path id="Path_00000070840713136151630030000007371984630582808204_" class="st10" d="M213.6-226.8c0,0,5.5,4.5,4.5,22.3
					c-0.5,8.6,8.5,17.9,1.3,18.8c-2.9,0.3-7,0.6-6.9,5.5s-1.7,9.5-2.6,12.6c-0.7,2.2,1.9,10.6-5.4,9c-3.7-2.9-17.6-6.2-19.7-1.8
					l-6,16.1c0,0-5.5-14.4-23.2-17.7c0,0,0.9-7.4,2.1-18.4c1.2-11,5.9-34.6,5.9-34.6l20.2-10l19.2-4.4L213.6-226.8z"/>
				<path id="Path_00000127745248584823882270000006323794251580908731_" class="st11" d="M174-200.3c0,0,4.4,0.8,5.3,5.5
					c0.9,4.7,0.7,6.3,3.2,6.3c1.3,0,3.2-2.6,4.8-5.2c1.7-2.7,3.4-5.5,3.4-5.5s4.4-3.4,4.1-9c-0.3-5.6-1.3-11.7,10.3-12.9
					c3.7-0.4,14.8-1,15.2-4.1c0.4-3.1-3.1-14-14.1-13.2c-4.7,0.3-13.5-2.3-16.1-1.7c0,0-5.5-5.8-17.9-3.4c-12.5,2.4-19.9,10-21.4,22
					c-1.5,12,3.7,36.9,3.7,36.9s1.8,8.3,3.7,5.4c1.8-2.9,5-9.5,8.1-13.9C169.1-197,170.1-199.9,174-200.3z"/>
				<path id="Path_00000070810175877473070360000009372136121937736333_" class="st12" d="M183.4-81.2c0,0,62.3,2.2,76-1.1
					c13.7-3.3,47.5-61.7,47.5-61.7l-3.9-19c0,0-27,48-46.9,52.6c-19.9,4.5-54.4-7.6-54.4-7.6L183.4-81.2z"/>
				<path id="Path_00000081628251909492379200000017395926505185767313_" class="st13" d="M183.8-128.2l20.9,7.5c0,0,9.8,0.7,6,5.8
					c-3.8,5.1-13.8,21.7-13.8,21.7l-41.1-9.1L183.8-128.2z"/>
				<path id="Path_00000160909465739397811880000016815721836890347441_" class="st14" d="M155.7-161.9c0,0-11.2,6.9-16.1,8
					c-4.9,1.1-48.9,11.2-82,51.2S19.4-24.5,24.3-23.5c4.8,1,8.3-6.5,20-2.5S71.8-9.2,94.8-7.7s27.1,1.5,36.7,0.2s11.6-7.2,7.7-9.4
					s-15.5-2.7-15.2-7.5c0.3-4.8,5.5-3,4.9-6.8c-0.6-3.8-3-6.9,3.1-13.7c6.1-6.7,25.9-40.2,30.1-40.3c4.2-0.1,17.2,17.3,23.5,18.4
					c6.3,1.1,12.3-12.7,12.3-12.7s6.6-11.3,5.5-17.5s-4.4-9.3-10.5-13.8s-9.4-13.2-9-17.5c0.4-4.3-3.6-13.4-4.9-16
					C177.5-146.8,173.4-160.1,155.7-161.9z"/>
				<path id="Path_00000044139367023527022800000013109231494954808989_" class="st13" d="M155.7-161.9c0,0-11.2,6.9-16.1,8
					c-4.9,1.1-48.9,11.2-82,51.2S19.4-24.5,24.3-23.5c4.8,1,8.3-6.5,20-2.5c0,0,10.3,4.6,13.4-6.7C60.7-44,52-57.4,59.3-67.1
					S82-85.8,95.6-91.9c13.6-6.1,8.1-20.2,37.9-43.4c9.2-7.2,27.7-9,26.3-16.4c-1.4-7.5,0.9-9.4,0.9-9.4L155.7-161.9z"/>
				<path id="Path_00000044899141672261412120000011143885582374305192_" class="st11" d="M186.3-190.9c0,0-0.2,7.5,5.7,10.1
					s13.5,0.3,13.5,0.3s5.1-0.8,7-0.2c1.9,0.6,1,6,0,6.3c-1,0.3-3.7,1.3-3.4,2.2c0.2,0.9,2,1.2,2.7,2.9c0.7,1.7,0.6,7.7-1.8,10.3
					c-2.4,2.5-8.8,1.7-10.6,0.9c-1.7-0.8-6.4-3.8-8.9-3.1s-6.2,1.1-6.8-0.8c-0.6-1.9-2.2-6.8-2.5-12c-0.3-5.1-0.5-14.4-1.2-18.2
					c-0.7-3.8,3.4-8.6,4.5-5.8S186.7-192.7,186.3-190.9z"/>
				<path id="Path_00000045598409946208354280000000017589344050415008_" class="st9" d="M93.3,35.4c0,0-1.7-0.2-8.2-2.7
					c-6.5-2.6-8.5,12.5-4.8,19.2s7.9,15.5,7.9,15.5l1.7,1.2l4.8-32.2L93.3,35.4z"/>
				<path id="Path_00000091694625097791921980000016126526751428385721_" class="st9" d="M119.9,46c16.7,4.7,47.2,7.4,58.9,8.6
					c29.3,3-4.1,88-4.1,88s11.2-0.8,11.9-6.9s-3-11.3,8.6-49.2c5.1-11.1,7.8-30.8,3-36s-2.3-4.8-23.5-2.5s-34.2-6.5-53.2-8.2
					c0,0-19.6-0.3-23.2-1.8c-3.5-1.5,4.4,3.7,13,5.8C119.9,46,119.9,46,119.9,46z"/>
				<path id="Path_00000081650146743618566710000010014060489515561894_" class="st12" d="M183.6-161.8c0,0-7,0.4-11.6-2.3
					c-1.5-0.9-7.6-9.4-7.5-9.1c2,3.1,1.1,6.4,4,12.7c1.4,3.1,5.6,7.4,7.9,11.9c1.4,2.7,2.4,4.5,2.4,4.5l6-16.1L183.6-161.8z"/>
			</g>
			<g id="backpack_1_" transform="translate(39.501458, 318.957411)">
				<path id="Path_00000091717816580808919890000012493655547645217979_" class="st15" d="M35.9-174c0,0,19.3-41.8,31.3-50.7
					c12-8.9,20.2-8.2,25-6.8c4.8,1.4,7.4,1.2,12.7,3.2c5.3,2,20.4,6.9,22.4,8.4c2,1.4-1,7.4-1,7.4s-33.1,31.6-47.2,58.3
					s-18.5,35.1-18.5,35.1s-26-2.7-45-20.8s0,0,0,0s7.6-14.2,11.6-20.5C31.3-166.8,35.9-174,35.9-174L35.9-174z"/>
				<path id="Path_00000068661899155111679330000017308108195457305279_" class="st16" d="M2.2-146.7c1.2,4.9,13.5,6.8,13.5,6.8
					s-7.6,14.2,0,0C22-151.6,35.9-174,35.9-174s-1.4-0.7-3.3-1.1c-1.9-0.4-8.3,0.9-14.4,2.4c-6,1.5-16.8,25.7-16.8,25.7L2.2-146.7z"
					/>
				<g id="backpack" transform="translate(0.000000, 97.008473)">
					<path id="Path_00000168113766298264587310000005202731138643772551_" class="st17" d="M2.2-243.7c0,0,1.3,3.5,13.5,6.8
						c0,0,14,14.7,45,20.8c0,0,1.1,2.2-3.4,10.3s-44.5-6.1-51.7-16C-1.6-231.9-0.9-246.5,2.2-243.7z"/>
				</g>
				<path id="Path_00000077300801143809803630000011293503945628191118_" class="st17" d="M104.1-223.6c0,0,5.2-16.5,8.2-19.5
					c0,0,1.5-1.8,4.6-0.4c3.1,1.4,7.6,3.5,7.6,3.5s0.9,0.4,1.1,0.9c0,0-6.7,1.7-10.2,7.4c-3.5,5.7-5.3,10.8-5.3,10.8L104.1-223.6z"
					/>
				<path id="Path_00000150101851927707787540000009295488954007146118_" class="st16" d="M116.6-233.3c0,0,2.3,2.9-0.3,10.3l5.4,3
					c0,0,5.8-17.5,3.9-19.2C125.7-239.1,120.9-238.4,116.6-233.3z"/>
				<path id="Path_00000162325766867095358700000013239712144827983489_" class="st17" d="M60.8-180.4c0,0-1.8,1,16.3,7.3
					c0,0-12,21.9-13,30.2c0,0-12.7-5.2-16.7-6.2c0,0-0.9-0.4,0.4-3.8C49.3-156.2,60.8-180.4,60.8-180.4z"/>
				<g id="Group" transform="translate(35.530988, 13.348334)">
					
						<linearGradient id="Path_00000046312935812869241580000003614457522885914542_" gradientUnits="userSpaceOnUse" x1="-722.6274" y1="6813.0649" x2="-698.1334" y2="6810.5083" gradientTransform="matrix(1.3961 0 0 -9.617107e-02 1037.9684 411.0561)">
						<stop  offset="0" style="stop-color:#F8D1E8"/>
						<stop  offset="0" style="stop-color:#F8D1E8"/>
						<stop  offset="1" style="stop-color:#EAE8FE"/>
					</linearGradient>
					
						<path id="Path_00000110455644707778926810000016942248219446823073_" style="fill:none;stroke:url(#Path_00000046312935812869241580000003614457522885914542_);stroke-width:5.3644;" d="
						M63.1-243.8c0,0-0.5-0.1-1.4-0.1"/>
					
						<linearGradient id="Path_00000152942889551507078070000016551565190445105834_" gradientUnits="userSpaceOnUse" x1="131.0425" y1="278.296" x2="131.38" y2="278.1467" gradientTransform="matrix(57.807 0 0 -76.5326 -7538.8047 21041.8809)">
						<stop  offset="0" style="stop-color:#F8D1E8"/>
						<stop  offset="0" style="stop-color:#F8D1E8"/>
						<stop  offset="1" style="stop-color:#EAE8FE"/>
					</linearGradient>
					
						<path id="Path_00000167360050001418936960000015612179805706749066_" style="fill:none;stroke:url(#Path_00000152942889551507078070000016551565190445105834_);stroke-width:5.3644;stroke-dasharray:6.3592,6.3592;" d="
						M59-243.6c-7.1,1.5-22.6,9.1-43.1,45.4L1.2-167.1"/>
					
						<linearGradient id="Path_00000044172125045903248620000003360924063336543874_" gradientUnits="userSpaceOnUse" x1="-1792.3673" y1="766.8104" x2="-1779.3224" y2="757.7848" gradientTransform="matrix(0.6108 0 0 -1.2654 1094.7904 804.7369)">
						<stop  offset="0" style="stop-color:#F8D1E8"/>
						<stop  offset="0" style="stop-color:#F8D1E8"/>
						<stop  offset="1" style="stop-color:#EAE8FE"/>
					</linearGradient>
					
						<line id="Path_00000075121939866150645980000000822014120463306655_" style="fill:none;stroke:url(#Path_00000044172125045903248620000003360924063336543874_);stroke-width:5.3644;" x1="0.6" y1="-165.8" x2="0" y2="-164.5"/>
				</g>
				<path id="Path_00000175322589288058154680000009871720801439601570_" class="st15" d="M123.4-209.7c0,0,30.8-8.2,38.4-2.6
					c7.6,5.7,8.5,7.9,8.5,7.9l2.3,8.1c0,0-11.3-11.3-28.1-8.8c-16.8,2.5-31.5,6.2-31.5,6.2l8.2-8.6L123.4-209.7z"/>
				<path id="Path_00000031914689575628333910000009919133755754239922_" class="st15" d="M149.5-150.5c0,0-23.8,16.9-45.4,19.2
					c-21.5,2.3-36.4-2.4-36.4-2.4l-4.7,7.7c0,0,43.6,11.6,74.1-8.4L149.5-150.5z"/>
			</g>
			<g id="flag" transform="translate(301.845695, 0.000000)">
				<path id="Path_00000179647627854994990010000015000156680785930152_" class="st21" d="M65.6,333L65.6,333
					c6.5-0.7,11.4-6.5,10.8-13.1L24-211.4c-0.7-6.5-6.5-11.4-13.1-10.8l0,0c-6.5,0.7-11.4,6.5-10.8,13.1l52.4,531.3
					C53.1,328.8,59,333.7,65.6,333z"/>
				<path id="Path_00000152264841847928196110000009374173047975361963_" class="st5" d="M24.3-207.8c0,0,43.1-20.2,133-18.3
					c89.9,1.9,138.9,13.8,235-18L415.6-7.6c0,0-19.8,17.9-129.4,21.2c-98.9-4.2-181-7.2-238.5,15.5L24.3-207.8z"/>
				<path id="Path_00000115512756926661390340000011700270836300031374_" class="st21" d="M284.2-107.6c-2.3,1.4-4.8,2.7-6.9,4.3
					c-2.1,1.6-3.7,1.6-6.1,0.6c-16.9-7.5-36.2,1.5-41,19c-1.9,6.9-1.4,13.6,1.8,19.9c1.3,2.4,1.4,4.6,0.3,6.9
					c-1.4,2.9-2.8,5.8-4.3,8.8c-10.6-9.6-14.7-26.8-9.6-41.6c3.6-10.3,10.2-18.1,19.7-23.3c9.5-5.2,19.7-6.2,30.2-4.2
					c0.8-14.4-22.9-33-42.6-33.9c-28.5-1.3-47.9,20.5-49.9,40.3c14.8-4.7,28.7-3.2,41.4,6c-2,3.8-3.9,7.4-5.9,11.3
					c-0.9-0.6-1.7-1-2.5-1.6c-11-7.4-22.3-7.6-33.6-0.9c-2.1,1.2-3.6,1.3-5.5,0.2c-2.5-1.4-5.1-2.4-7.8-3.5
					c-0.1-1.2-0.2-2.4-0.3-3.7c0.3-2.9,0.7-5.8,1-8.7c4.1-29.9,31.1-53,62.2-52.1c26.1,0.8,48.9,17.9,56.5,43c1,3.1,1.7,6.3,2.5,9.4
					C284.1-110.1,284.2-108.9,284.2-107.6z"/>
			</g>
			<g id="arms" transform="translate(217.303125, 333.972562)">
				<path id="Path_00000075160184045281461730000005851158277651483024_" class="st10" d="M0-151c0,0,65.3,33.9,79,30.6
					c13.7-3.3,65.7-90.5,65.7-90.5l-20.4-8.5c0,0-30.1,60-50,64.6c-19.9,4.5-60.5-20.7-60.5-20.7L0-151z"/>
				<path id="Path_00000135658928416501748110000011145082622460182462_" class="st10" d="M144.8-210.9c0,0,0.7-5.2,6.8-11.7
					c6.1-6.4,9.6-13,8-18.7c-1.7-5.7-11.9-1.3-21.3,2.2s-12.2-1.2-12.2-1.2s-4.8-3.9-3.5,1.9s5.8,11.5,1.8,19.1
					C120.3-211.8,144.8-210.9,144.8-210.9z"/>
			</g>
			<g id="Layer_7" transform="translate(0.000000, 634.281001)">
				<path id="Path_00000116955783694370836130000012391215377808280214_" class="st10" d="M227.4-240.5l-8.1,22.5
					c0,0-12.1-9.7-17.2-10.7c0,0-0.4-1.9,1.3-9c1.7-7.2,6.1-6.3,6.1-6.3L227.4-240.5z"/>
				<path id="Path_00000033356105321527218830000010390028112265485458_" class="st21" d="M219.4-218c0,0-0.6,2.2,0.2,9.1
					c0.8,7-2,12.2-7.2,11.7c-5.2-0.5-16.1-5.3-16.1-5.3l-0.5-8.2l6.4-18.1C202.2-228.8,212.5-226.4,219.4-218z"/>
				<path id="Path_00000131328475907915332600000002737268958618942866_" class="st9" d="M196.9-211.4c0,0,10.1,10.7,19.4,3.2
					c0,0,1.7-7.2,6.4-0.8c4.7,6.4,11.8,15.5,20.5,17.4c8.7,1.9,16.1,2.6,15.6,8l-69.9-6.6c0,0-0.9-0.2-0.6-3.7s1-13.8,2.7-16.2
					C192.8-212.4,195.7-213.6,196.9-211.4z"/>
				<path id="Path_00000005238447019712555190000000873787966975891853_" class="st22" d="M258.7-183.5c0,0,0.7,1.4-0.3,3.1
					c-1,1.7-5.6,1.2-9.6,0.9c-4-0.4-60.1-5.6-60.1-5.6s-1.4-0.2-1.1-1.9c0.3-1.6,0-3.1,1.3-3.1S258.7-183.5,258.7-183.5z"/>
				<path id="Path_00000146487334338398452400000006915581454438823808_" class="st10" d="M54.5-206.3l-14.6,18.9
					c0,0-8.5-12.9-13.1-15.5c0,0,0.2-1.9,4-8.2c3.8-6.3,7.7-4.1,7.7-4.1L54.5-206.3z"/>
				<path id="Path_00000048493478433853015970000005299172234788782241_" class="st21" d="M39.9-187.4c0,0-1.3,1.9-2.7,8.7
					c-1.4,6.9-5.6,11-10.4,8.9c-4.8-2.1-13.7-10-13.7-10l2.1-7.9L26.8-203C26.8-202.9,35.9-197.5,39.9-187.4z"/>
				<path id="Path_00000139975459105126281870000013503315590930854068_" class="st9" d="M16.5-188c0,0,6.4,13.4,17.5,9
					c0,0,3.9-6.3,6.4,1.2c2.5,7.6,6.4,18.4,14.1,22.9c7.7,4.5,14.5,7.4,12.4,12.5L2.4-170.2c0,0-0.8-0.4,0.6-3.7s5.2-12.8,7.6-14.6
					C12.9-190.3,16-190.5,16.5-188z"/>
				<path id="Path_00000062173790573298822370000000796039613396112001_" class="st22" d="M66.8-142.4c0,0,0.3,1.5-1.2,2.9
					s-5.7-0.6-9.4-2.1c-3.7-1.6-55.4-23.9-55.4-23.9s-1.3-0.7-0.5-2.1s1-3,2.1-2.5C3.5-169.7,66.8-142.4,66.8-142.4z"/>
			</g>
		</g>
	</g>
</g>
</svg>
