<svg xmlns="http://www.w3.org/2000/svg" xml:space="preserve" id="Layer_1" x="0" y="0"
    style="enable-background:new 0 0 3574 920" version="1.1" viewBox="0 0 3574 920"><style>.st5{fill:#f07}.st7{fill:#99007c}.st9{fill:#0a1b2a}.st10{fill:#96654d}.st11{fill:#351313}.st12{fill:#754e3e}.st13{fill:#60c5e8}.st15{fill:#f06ba8}.st16{fill:#ff2e89}.st17{fill:#e40062}.st21{fill:#fff}.st22{fill:#fafafa}</style><g id="Flag-Management"><path d="M717.8 920H0V0H3574v920H739.8z" style="fill-rule:evenodd;clip-rule:evenodd;fill:#fff"/><g id="flag-blog-postv3-cropped"><g id="Background" style="opacity:.5335"><linearGradient id="SVGID_1_" x1="1787" x2="1787" y1="920" y2="3.6" gradientUnits="userSpaceOnUse"><stop offset="0" style="stop-color:#a65193;stop-opacity:.3114"/><stop offset="1" style="stop-color:#fec2fc"/></linearGradient><path d="M717.8 920H0V0H3574v920H739.8z" style="fill:url(#SVGID_1_)"/></g><g id="bg-circles" transform="translate(429)"><linearGradient id="SVGID_00000031917575108546846180000009490216712026010272_" x1="-1076.3" x2="2855.3" y1="1575.1" y2="-230.8" gradientUnits="userSpaceOnUse"><stop offset="0" style="stop-color:#f8d1e8"/><stop offset="0" style="stop-color:#f8d1e8"/><stop offset="1" style="stop-color:#eae8fe"/></linearGradient><path d="M288.8 920H27.4A1285.8 1285.8 0 0 1 0 655.7C0 415.9 66.2 191.6 181.3 0h2186.2a1269.1 1269.1 0 0 1 181.3 655.7c0 90.6-9.5 179.1-27.5 264.4H288.8z" style="opacity:.4698;fill:url(#SVGID_00000031917575108546846180000009490216712026010272_);enable-background:new"/><linearGradient id="SVGID_00000170983034880707857180000014474368756262208447_" x1="-696.8" x2="2583.9" y1="1649.6" y2="-234.5" gradientUnits="userSpaceOnUse"><stop offset="0" style="stop-color:#f8d1e8"/><stop offset="0" style="stop-color:#f8d1e8"/><stop offset="1" style="stop-color:#eae8fe"/></linearGradient><path d="M288.8 920a1020 1020 0 0 1-20.6-94.3l-2.2-13.6a1024 1024 0 0 1-12.1-157.6c0-249.1 89.3-477.3 237.6-654.4h1563.3a1015.8 1015.8 0 0 1 237.6 654.4c0 91.9-12.2 180.9-34.9 265.6H288.8z" style="opacity:.6072;fill:url(#SVGID_00000170983034880707857180000014474368756262208447_);enable-background:new"/><circle id="Oval-Copy-11" cx="606.1" cy="116.7" r="18.7" class="st5"/><circle id="Oval-Copy-12_1_" cx="2609.8" cy="308.3" r="11.2" class="st5"/><circle id="Oval-Copy-12_2_" cx="1751.4" cy="602.8" r="11.2" class="st5"/><circle id="Oval-Copy-14" cx="1347.8" cy="173.9" r="16.2" class="st5"/><circle id="Oval-Copy-14_2_" cx="252.7" cy="821.2" r="16.2" class="st5"/></g><g id="Layer_1_00000091697927203536585870000003101958272138875063_"><linearGradient id="SVGID_00000103968947658875709560000009527401426422151865_" x1="1193" x2="1193" y1="838.3" y2="564.9" gradientUnits="userSpaceOnUse"><stop offset="0" style="stop-color:#c151a6"/><stop offset="1" style="stop-color:#eac2fe"/></linearGradient><path d="M1646.2 920H739.8c33.1-10.4 66.9-19.7 96.5-26.6 49.1-11.5 103.7-26.3 147.9-46.7l5.9-2.8.2-.1 8.2-4.1 9.5-5.2c9.3-5.3 17.8-10.9 25.4-16.9a102 102 0 0 0 32.3-39.5c11.3-26.9 37.2-48.2 68-63.8l.4-.2a322.4 322.4 0 0 1 73.9-25.4c16.2-3.4 31.7-5.5 45.7-6.2 20.1-1 39.3 2.8 57.3 8.7 8.6 2.8 17 6.2 25.1 9.7 28.5 12.5 53.4 27.5 73.8 32.6 38.3 9.6 82.9 19.2 114.7 44.6 31.8 25.5 63.7 82.9 102 115.4a76.3 76.3 0 0 1 19.6 26.5z" style="fill:url(#SVGID_00000103968947658875709560000009527401426422151865_)"/><ellipse id="Oval" cx="1327.5" cy="739.4" class="st7" rx="14" ry="8.5"/><path id="Path_00000179624765257307434300000003391355080992527520_" d="m1336.6 739.3 17-2.1 12.3 7.4 14.2-2.6-13.6 1.2-12.6-8.9H1339l-2.4 5z" class="st7"/><path id="Path_00000153687229400734524590000017815805941462928009_" d="m1315.2 731.3-3.3-5.5-10.8-2.8 11.8 2 1.9 2.2.4 4.1z" class="st7"/><path id="Path_00000135673544450822782870000010001210398012014215_" d="m1323.6 743.2 8.6 12.9-7.5 8.4 1.7 17.6-19.7 8.4 21.6-7.9-1.4-18 9.7-8.6-6.9-12.4-6.1-.4z" class="st7"/><path id="Path_00000076575916354792502070000011546031241639384451_" d="m1316.6 737.2-18.8 6.5v7l-17.7 8.6-14.5-2.7-8.5 2.7 8.2-1.8 15.2 3.5 20.6-9.9v-5l18.2-5.3-2.7-3.6z" class="st7"/></g><g id="person_x2B_flag" transform="translate(961 410.7)"><g id="Layer_4" transform="translate(28.4 252.9)"><path id="Path_00000149374348478636915960000002282582562259331503_" d="M137.5-9.4s43.1 6 59.8 14.1c16.7 8.2 29.3 30.5 31.9 43.4S197.9 144 197.9 144l-23.3-1.4s34.9-84.8 4.1-88-72.3-8.4-84.1-18.2c0 0-2 20.2-7.3 44.9-5.4 24.7-23.7 50.1-23.7 50.1l-43.5 50.3L0 171.4s43.5-60.2 42.4-68.1c-1-7.8-18.2-60.3-17.4-76 .8-15.6 5.1-52.7 5.1-52.7s10-12.7 22-5c12 7.7 47.9 14.1 57.5 14.1 9.7.2 27.9 6.9 27.9 6.9z" style="fill:#364755"/><path id="Path_00000038388872012108132800000017056267281077667001_" d="M52.3-30.3c-12-7.7-22 5-22 5s-4.3 37-5.1 52.7c-.8 15.6 16.3 68.1 17.4 76 1 7.8-42.4 68.1-42.4 68.1s6.2 4.4 13.7.3 12.2-34.6 27-47.4S59 103.7 56.4 98.7c-2.6-5-11.6-31.2-6.9-62.6 4.9-32.5 57-43 57-43L52.3-30.3z" class="st9"/><path id="Path_00000070840713136151630030000007371984630582808204_" d="M213.6-226.8s5.5 4.5 4.5 22.3c-.5 8.6 8.5 17.9 1.3 18.8-2.9.3-7 .6-6.9 5.5s-1.7 9.5-2.6 12.6c-.7 2.2 1.9 10.6-5.4 9-3.7-2.9-17.6-6.2-19.7-1.8l-6 16.1s-5.5-14.4-23.2-17.7l2.1-18.4c1.2-11 5.9-34.6 5.9-34.6l20.2-10 19.2-4.4 10.6 2.6z" class="st10"/><path id="Path_00000127745248584823882270000006323794251580908731_" d="M174-200.3s4.4.8 5.3 5.5c.9 4.7.7 6.3 3.2 6.3 1.3 0 3.2-2.6 4.8-5.2l3.4-5.5s4.4-3.4 4.1-9c-.3-5.6-1.3-11.7 10.3-12.9 3.7-.4 14.8-1 15.2-4.1.4-3.1-3.1-14-14.1-13.2-4.7.3-13.5-2.3-16.1-1.7 0 0-5.5-5.8-17.9-3.4-12.5 2.4-19.9 10-21.4 22s3.7 36.9 3.7 36.9 1.8 8.3 3.7 5.4c1.8-2.9 5-9.5 8.1-13.9 2.8-3.9 3.8-6.8 7.7-7.2z" class="st11"/><path id="Path_00000070810175877473070360000009372136121937736333_" d="M183.4-81.2s62.3 2.2 76-1.1c13.7-3.3 47.5-61.7 47.5-61.7l-3.9-19s-27 48-46.9 52.6c-19.9 4.5-54.4-7.6-54.4-7.6l-18.3 36.8z" class="st12"/><path id="Path_00000081628251909492379200000017395926505185767313_" d="m183.8-128.2 20.9 7.5s9.8.7 6 5.8a453.3 453.3 0 0 0-13.8 21.7l-41.1-9.1 28-25.9z" class="st13"/><path id="Path_00000160909465739397811880000016815721836890347441_" d="M155.7-161.9s-11.2 6.9-16.1 8c-4.9 1.1-48.9 11.2-82 51.2S19.4-24.5 24.3-23.5c4.8 1 8.3-6.5 20-2.5S71.8-9.2 94.8-7.7s27.1 1.5 36.7.2 11.6-7.2 7.7-9.4-15.5-2.7-15.2-7.5c.3-4.8 5.5-3 4.9-6.8-.6-3.8-3-6.9 3.1-13.7 6.1-6.7 25.9-40.2 30.1-40.3 4.2-.1 17.2 17.3 23.5 18.4 6.3 1.1 12.3-12.7 12.3-12.7s6.6-11.3 5.5-17.5-4.4-9.3-10.5-13.8-9.4-13.2-9-17.5c.4-4.3-3.6-13.4-4.9-16-1.5-2.5-5.6-15.8-23.3-17.6z" style="fill:#85cded"/><path id="Path_00000044139367023527022800000013109231494954808989_" d="M155.7-161.9s-11.2 6.9-16.1 8c-4.9 1.1-48.9 11.2-82 51.2S19.4-24.5 24.3-23.5c4.8 1 8.3-6.5 20-2.5 0 0 10.3 4.6 13.4-6.7 3-11.3-5.7-24.7 1.6-34.4S82-85.8 95.6-91.9c13.6-6.1 8.1-20.2 37.9-43.4 9.2-7.2 27.7-9 26.3-16.4-1.4-7.5.9-9.4.9-9.4l-5-.8z" class="st13"/><path id="Path_00000044899141672261412120000011143885582374305192_" d="M186.3-190.9s-.2 7.5 5.7 10.1 13.5.3 13.5.3 5.1-.8 7-.2c1.9.6 1 6 0 6.3-1 .3-3.7 1.3-3.4 2.2.2.9 2 1.2 2.7 2.9.7 1.7.6 7.7-1.8 10.3-2.4 2.5-8.8 1.7-10.6.9-1.7-.8-6.4-3.8-8.9-3.1s-6.2 1.1-6.8-.8c-.6-1.9-2.2-6.8-2.5-12-.3-5.1-.5-14.4-1.2-18.2-.7-3.8 3.4-8.6 4.5-5.8s2.2 5.3 1.8 7.1z" class="st11"/><path id="Path_00000045598409946208354280000000017589344050415008_" d="M93.3 35.4s-1.7-.2-8.2-2.7c-6.5-2.6-8.5 12.5-4.8 19.2s7.9 15.5 7.9 15.5l1.7 1.2 4.8-32.2-1.4-1z" class="st9"/><path id="Path_00000091694625097791921980000016126526751428385721_" d="M119.9 46c16.7 4.7 47.2 7.4 58.9 8.6 29.3 3-4.1 88-4.1 88s11.2-.8 11.9-6.9-3-11.3 8.6-49.2c5.1-11.1 7.8-30.8 3-36s-2.3-4.8-23.5-2.5-34.2-6.5-53.2-8.2c0 0-19.6-.3-23.2-1.8-3.5-1.5 4.4 3.7 13 5.8l8.6 2.2z" class="st9"/><path id="Path_00000081650146743618566710000010014060489515561894_" d="M183.6-161.8s-7 .4-11.6-2.3c-1.5-.9-7.6-9.4-7.5-9.1 2 3.1 1.1 6.4 4 12.7 1.4 3.1 5.6 7.4 7.9 11.9l2.4 4.5 6-16.1-1.2-1.6z" class="st12"/></g><g id="backpack_1_" transform="translate(39.5 319)"><path id="Path_00000091717816580808919890000012493655547645217979_" d="M35.9-174s19.3-41.8 31.3-50.7c12-8.9 20.2-8.2 25-6.8 4.8 1.4 7.4 1.2 12.7 3.2 5.3 2 20.4 6.9 22.4 8.4 2 1.4-1 7.4-1 7.4s-33.1 31.6-47.2 58.3l-18.5 35.1s-26-2.7-45-20.8 7.6-14.2 11.6-20.5l8.7-13.6z" class="st15"/><path id="Path_00000068661899155111679330000017308108195457305279_" d="M2.2-146.7c1.2 4.9 13.5 6.8 13.5 6.8s-7.6 14.2 0 0A904 904 0 0 1 35.9-174s-1.4-.7-3.3-1.1c-1.9-.4-8.3.9-14.4 2.4-6 1.5-16.8 25.7-16.8 25.7l.8.3z" class="st16"/><g id="backpack" transform="translate(0 97)"><path id="Path_00000168113766298264587310000005202731138643772551_" d="M2.2-243.7s1.3 3.5 13.5 6.8c0 0 14 14.7 45 20.8 0 0 1.1 2.2-3.4 10.3s-44.5-6.1-51.7-16c-7.2-10.1-6.5-24.7-3.4-21.9z" class="st17"/></g><path id="Path_00000077300801143809803630000011293503945628191118_" d="M104.1-223.6s5.2-16.5 8.2-19.5c0 0 1.5-1.8 4.6-.4l7.6 3.5s.9.4 1.1.9c0 0-6.7 1.7-10.2 7.4-3.5 5.7-5.3 10.8-5.3 10.8l-6-2.7z" class="st17"/><path id="Path_00000150101851927707787540000009295488954007146118_" d="M116.6-233.3s2.3 2.9-.3 10.3l5.4 3s5.8-17.5 3.9-19.2c.1.1-4.7.8-9 5.9z" class="st16"/><path id="Path_00000162325766867095358700000013239712144827983489_" d="M60.8-180.4s-1.8 1 16.3 7.3c0 0-12 21.9-13 30.2 0 0-12.7-5.2-16.7-6.2 0 0-.9-.4.4-3.8l13-27.5z" class="st17"/><g id="Group" transform="translate(35.5 13.3)"><linearGradient id="Path_00000046312935812869241580000003614457522885914542_" x1="-722.6" x2="-698.1" y1="6813.1" y2="6810.5" gradientTransform="matrix(1.4 0 0 -.1 1038 411)" gradientUnits="userSpaceOnUse"><stop offset="0" style="stop-color:#f8d1e8"/><stop offset="0" style="stop-color:#f8d1e8"/><stop offset="1" style="stop-color:#eae8fe"/></linearGradient><path id="Path_00000110455644707778926810000016942248219446823073_" d="m63.1-243.8-1.4-.1" style="fill:none;stroke:url(#Path_00000046312935812869241580000003614457522885914542_);stroke-width:5.3644"/><linearGradient id="Path_00000152942889551507078070000016551565190445105834_" x1="131" x2="131.4" y1="278.3" y2="278.1" gradientTransform="matrix(57.8 0 0 -76.53 -7538.8 21041.9)" gradientUnits="userSpaceOnUse"><stop offset="0" style="stop-color:#f8d1e8"/><stop offset="0" style="stop-color:#f8d1e8"/><stop offset="1" style="stop-color:#eae8fe"/></linearGradient><path id="Path_00000167360050001418936960000015612179805706749066_" d="M59-243.6c-7.1 1.5-22.6 9.1-43.1 45.4L1.2-167.1" style="fill:none;stroke:url(#Path_00000152942889551507078070000016551565190445105834_);stroke-width:5.3644;stroke-dasharray:6.3592,6.3592"/><linearGradient id="Path_00000044172125045903248620000003360924063336543874_" x1="-1792.4" x2="-1779.3" y1="766.8" y2="757.8" gradientTransform="matrix(.61 0 0 -1.27 1094.8 804.7)" gradientUnits="userSpaceOnUse"><stop offset="0" style="stop-color:#f8d1e8"/><stop offset="0" style="stop-color:#f8d1e8"/><stop offset="1" style="stop-color:#eae8fe"/></linearGradient><path id="Path_00000075121939866150645980000000822014120463306655_" d="m.6-165.8-.6 1.3" style="fill:none;stroke:url(#Path_00000044172125045903248620000003360924063336543874_);stroke-width:5.3644"/></g><path id="Path_00000175322589288058154680000009871720801439601570_" d="M123.4-209.7s30.8-8.2 38.4-2.6c7.6 5.7 8.5 7.9 8.5 7.9l2.3 8.1s-11.3-11.3-28.1-8.8-31.5 6.2-31.5 6.2l8.2-8.6 2.2-2.2z" class="st15"/><path id="Path_00000031914689575628333910000009919133755754239922_" d="M149.5-150.5s-23.8 16.9-45.4 19.2c-21.5 2.3-36.4-2.4-36.4-2.4L63-126s43.6 11.6 74.1-8.4l12.4-16.1z" class="st15"/></g><g id="flag" transform="translate(301.8)"><path id="Path_00000179647627854994990010000015000156680785930152_" d="M65.6 333c6.5-.7 11.4-6.5 10.8-13.1L24-211.4a12.1 12.1 0 0 0-13.1-10.8c-6.5.7-11.4 6.5-10.8 13.1l52.4 531.3A12 12 0 0 0 65.6 333z" class="st21"/><path id="Path_00000152264841847928196110000009374173047975361963_" d="M24.3-207.8s43.1-20.2 133-18.3c89.9 1.9 138.9 13.8 235-18L415.6-7.6s-19.8 17.9-129.4 21.2c-98.9-4.2-181-7.2-238.5 15.5L24.3-207.8z" class="st5"/><path id="Path_00000115512756926661390340000011700270836300031374_" d="M284.2-107.6c-2.3 1.4-4.8 2.7-6.9 4.3-2.1 1.6-3.7 1.6-6.1.6a29.7 29.7 0 0 0-41 19 26.9 26.9 0 0 0 1.8 19.9 7 7 0 0 1 .3 6.9l-4.3 8.8a40 40 0 0 1-9.6-41.6 41.3 41.3 0 0 1 19.7-23.3 44 44 0 0 1 30.2-4.2c.8-14.4-22.9-33-42.6-33.9a47.4 47.4 0 0 0-49.9 40.3 44.1 44.1 0 0 1 41.4 6l-5.9 11.3-2.5-1.6a29.3 29.3 0 0 0-33.6-.9c-2.1 1.2-3.6 1.3-5.5.2-2.5-1.4-5.1-2.4-7.8-3.5l-.3-3.7 1-8.7a61.3 61.3 0 0 1 62.2-52.1 60.7 60.7 0 0 1 56.5 43c1 3.1 1.7 6.3 2.5 9.4.3 1.3.4 2.5.4 3.8z" class="st21"/></g><g id="arms" transform="translate(217.3 334)"><path id="Path_00000075160184045281461730000005851158277651483024_" d="M0-151s65.3 33.9 79 30.6c13.7-3.3 65.7-90.5 65.7-90.5l-20.4-8.5s-30.1 60-50 64.6c-19.9 4.5-60.5-20.7-60.5-20.7L0-151z" class="st10"/><path id="Path_00000135658928416501748110000011145082622460182462_" d="M144.8-210.9s.7-5.2 6.8-11.7c6.1-6.4 9.6-13 8-18.7-1.7-5.7-11.9-1.3-21.3 2.2s-12.2-1.2-12.2-1.2-4.8-3.9-3.5 1.9 5.8 11.5 1.8 19.1c-4.1 7.5 20.4 8.4 20.4 8.4z" class="st10"/></g><g id="Layer_7" transform="translate(0 634.3)"><path id="Path_00000116955783694370836130000012391215377808280214_" d="m227.4-240.5-8.1 22.5s-12.1-9.7-17.2-10.7c0 0-.4-1.9 1.3-9 1.7-7.2 6.1-6.3 6.1-6.3l17.9 3.5z" class="st10"/><path id="Path_00000033356105321527218830000010390028112265485458_" d="M219.4-218s-.6 2.2.2 9.1c.8 7-2 12.2-7.2 11.7s-16.1-5.3-16.1-5.3l-.5-8.2 6.4-18.1s10.3 2.4 17.2 10.8z" class="st21"/><path id="Path_00000131328475907915332600000002737268958618942866_" d="M196.9-211.4s10.1 10.7 19.4 3.2c0 0 1.7-7.2 6.4-.8s11.8 15.5 20.5 17.4c8.7 1.9 16.1 2.6 15.6 8l-69.9-6.6s-.9-.2-.6-3.7 1-13.8 2.7-16.2c1.8-2.3 4.7-3.5 5.9-1.3z" class="st9"/><path id="Path_00000005238447019712555190000000873787966975891853_" d="M258.7-183.5s.7 1.4-.3 3.1c-1 1.7-5.6 1.2-9.6.9l-60.1-5.6s-1.4-.2-1.1-1.9c.3-1.6 0-3.1 1.3-3.1s69.8 6.6 69.8 6.6z" class="st22"/><path id="Path_00000146487334338398452400000006915581454438823808_" d="m54.5-206.3-14.6 18.9s-8.5-12.9-13.1-15.5c0 0 .2-1.9 4-8.2 3.8-6.3 7.7-4.1 7.7-4.1l16 8.9z" class="st10"/><path id="Path_00000048493478433853015970000005299172234788782241_" d="M39.9-187.4s-1.3 1.9-2.7 8.7c-1.4 6.9-5.6 11-10.4 8.9a80.5 80.5 0 0 1-13.7-10l2.1-7.9L26.8-203c0 .1 9.1 5.5 13.1 15.6z" class="st21"/><path id="Path_00000139975459105126281870000013503315590930854068_" d="M16.5-188s6.4 13.4 17.5 9c0 0 3.9-6.3 6.4 1.2 2.5 7.6 6.4 18.4 14.1 22.9 7.7 4.5 14.5 7.4 12.4 12.5L2.4-170.2s-.8-.4.6-3.7 5.2-12.8 7.6-14.6c2.3-1.8 5.4-2 5.9.5z" class="st9"/><path id="Path_00000062173790573298822370000000796039613396112001_" d="M66.8-142.4s.3 1.5-1.2 2.9-5.7-.6-9.4-2.1L.8-165.5s-1.3-.7-.5-2.1 1-3 2.1-2.5l64.4 27.7z" class="st22"/></g></g></g></g></svg>