<?xml version="1.0" encoding="UTF-8"?><svg id="Layer_2" xmlns="http://www.w3.org/2000/svg" xmlns:xlink="http://www.w3.org/1999/xlink" viewBox="0 0 921.9 325.41"><defs><style>.cls-1{fill:#fff;}.cls-2{fill:#f1f6fc;}.cls-3{fill:#ff99c9;}.cls-4{fill:#f07;}.cls-5{fill:#80003c;}.cls-6{fill:#c4def4;}.cls-7{fill:#d9e8f7;}.cls-8{fill:url(#radial-gradient);}</style><radialGradient id="radial-gradient" cx="493.42" cy="1.29" fx="493.42" fy="1.29" r="60.37" gradientTransform="matrix(1, 0, 0, 1, 0, 0)" gradientUnits="userSpaceOnUse"><stop offset="0" stop-color="#ffcce4"/><stop offset="1" stop-color="#f07"/></radialGradient></defs><g id="Layer_3"><g><g><g><rect class="cls-5" x="445.44" y="11.52" width="1.61" height="200.04"/><g><path class="cls-8" d="M546.18,71.74c-33.1-13.63-66.2,13.63-99.3,0V19.3c33.1,13.63,66.2-13.63,99.3,0v52.43Z"/><path class="cls-1" d="M496.56,30.14c-8.89,1.91-16.14,10.18-16.14,18.89,0,.02,0,.05,0,.07,.91,.4,1.82,.79,2.73,1.16h.07c1.72-1.44,3.8-2.24,5.88-2.28,1.43,.01,2.8,.38,3.87,1.17,.17,.11,.33,.22,.5,.33l.29-.63c.29-.63,.57-1.19,.86-1.75,.14-.24,.29-.42,.43-.66l.29-.42-.36-.21c-1.51-.91-3.3-1.4-5.24-1.38-1.86,0-3.73,.42-5.45,1.28,1.29-5.86,6.31-10.8,12.26-12.05,3.37-.7,6.53-.05,8.89,1.88,1.72,1.33,2.87,3.21,3.37,5.42-1.08-.18-2.22-.12-3.37,.1l-.22,.04c-.43,.08-.86,.23-1.36,.33h-.07c-.14,.04-.36,.15-.5,.18-.29,.13-.5,.17-.79,.3l-.22,.11c-.22,.11-.43,.23-.65,.34h-.07c-.5,.26-.93,.56-1.43,.88h0c-.22,.12-.43,.3-.65,.49h-.07c-1.08,.88-2.08,1.87-2.87,3.04l-.07,.16c-.22,.33-.36,.58-.5,.75-.14,.17-.22,.4-.36,.65l-.07,.16c-.14,.24-.22,.47-.29,.63,0,.02,0,.05,0,.07-.22,.47-.43,1.02-.57,1.55v.07c-.36,1.22-.57,2.48-.57,3.77v.14c0,.14,0,.36,0,.5,0,.07,0,.14,0,.22,0,.07,0,.22,0,.29v.22c0,.14,.07,.34,.07,.49,.36,1.65,1.15,3.13,2.37,4.39l.07,.06,.07-.09c.5-.68,1.65-2.7,1.79-3.81h0c-.57-.96-.86-2.12-.86-3.26,0-4.01,3.16-8.05,7.24-9.04,.1-.02,.19-.04,.29-.05,1.65-.38,3.3-.17,4.66,.54h.07c.91-.68,1.82-1.35,2.73-2h0v-.07c0-4.22-1.65-8.03-4.73-10.5-3.01-2.49-7.03-3.34-11.33-2.45"/></g><rect class="cls-5" x="446.25" y="24.51" width="2.81" height="1.11"/><rect class="cls-5" x="446.25" y="66.88" width="2.81" height="1.11"/><rect class="cls-4" x="445.44" y="11.52" width=".81" height="200.04"/><circle class="cls-5" cx="446.25" cy="11.52" r="3.62"/><path class="cls-4" d="M446.25,15.51c-2.2,0-3.99-1.79-3.99-3.99s1.79-3.99,3.99-3.99v.74c-1.79,0-3.25,1.46-3.25,3.25s1.46,3.25,3.25,3.25v.74Z"/></g><path class="cls-5" d="M468.35,76.12c-4.13,0-7.57-.32-10.28-.74-7.51-1.16-11.22-3.23-11.37-3.31l.37-.65c.15,.08,15.12,8.26,45.11,.83,29.79-7.38,44.08-4.57,54.13-.86l-.26,.7c-9.95-3.67-24.1-6.44-53.7,.88-9.6,2.38-17.63,3.15-24,3.15Z"/><path class="cls-3" d="M469.18,23.39c-4.82,0-8.84-.42-11.91-.92-6.72-1.1-10.39-2.75-10.54-2.82l.31-.68s3.75,1.69,10.38,2.77c6.12,1,16.05,1.68,28.61-.74,3.22-.62,6.29-1.24,9.25-1.85,19.76-4.02,34.03-6.93,51.04-.19l-.27,.69c-16.8-6.66-30.98-3.78-50.61,.22-2.97,.6-6.04,1.23-9.26,1.85-6.38,1.23-12.1,1.67-16.99,1.67Z"/></g><g><polygon class="cls-7" points="921.9 325.41 0 325.41 51.3 289.36 146.66 247.45 160.39 234.44 268.77 234.44 330.9 219.27 372.08 190.37 395.2 169.42 424.82 158.59 440 158.59 464.35 149.92 499.97 162.93 528.87 183.15 543.32 163.65 560.65 170.15 582.33 191.09 608.34 211.33 624.96 207 642.3 208.44 650.97 217.11 701.54 198.32 734.05 217.11 768.01 241.23 804.14 250.35 859.77 285.02 900.23 289.36 921.9 325.41"/><polygon class="cls-6" points="59.49 314.96 79.23 299.82 89.77 286 108.2 267.56 129.26 270.86 110.83 291.26 112.81 300.48 59.49 314.96"/><polygon class="cls-6" points="137.82 264.27 164.15 281.39 192.45 281.39 214.18 314.96 176 306.4 158.88 294.55 137.82 264.27"/><polygon class="cls-6" points="197.06 271.51 210.23 253.74 227.34 245.18 245.12 251.11 216.81 267.56 197.06 271.51"/><polygon class="cls-6" points="276.05 245.18 292.51 255.06 289.88 271.51 268.81 286 258.28 286 247.75 302.45 221.09 302.45 259.6 264.27 271.45 264.27 276.05 245.18"/><polygon class="cls-6" points="342.54 222.8 342.54 258.35 326.08 273.82 314.23 289.62 292.51 293.89 267.5 302.45 249.06 314.96 276.05 289.62 315.55 273.82 331.35 247.82 342.54 222.8"/><polygon class="cls-6" points="391.25 206.35 407.05 195.16 426.14 175.41 430.08 168.17 450.72 158.95 445.22 171.46 445.22 182.65 436.67 195.81 418.89 206.35 391.25 206.35"/><polygon class="cls-6" points="360.31 289.62 391.25 289.62 404.41 278.1 424.16 278.1 443.25 264.27 467.61 245.18 474.85 228.73 492.62 228.73 507.76 210.95 507.76 198.45 524.22 195.81 518.95 219.51 518.29 242.72 499.86 245.18 484.06 267.56 447.2 280.07 410.34 291.26 360.31 289.62"/><polygon class="cls-6" points="373.47 320.22 427.45 296.53 442.26 296.53 460.36 289.62 470.9 289.62 492.62 273.82 517.63 273.82 534.75 267.56 557.13 255.72 582.8 261.64 632.83 261.64 648.63 255.72 680.88 255.72 697.99 243.54 732.22 233.99 751.97 248.47 719.06 260.98 675.61 291.26 605.84 294.55 546.6 289.62 483.4 307.72 407.7 314.96 373.47 320.22"/><polygon class="cls-6" points="572.93 195.81 590.04 214.9 641.38 222.8 669.03 226.09 629.54 238.6 567.66 238.6 551.86 217.21 572.93 195.81"/><polygon class="cls-2" points="464.35 149.92 456.27 156.19 431.42 161.82 403.49 171.31 347.08 217.21 302.95 231.63 253.81 243.54 165.55 238.6 152.71 250.07 94.38 273.82 52.17 295.87 0 325.41 51.3 289.36 146.66 247.45 160.39 234.44 268.77 234.44 330.9 219.27 372.08 190.37 395.2 169.42 424.82 158.59 440 158.59 464.35 149.92"/><polygon class="cls-2" points="40.05 314.96 76.67 289.62 54.03 314.96 40.05 314.96"/><polygon class="cls-2" points="151.91 264.27 176 255.5 201.85 255.5 181.21 267.56 151.91 264.27"/><polygon class="cls-2" points="369.64 217.21 408.26 182.65 362.98 212.89 369.64 217.21"/><polygon class="cls-2" points="362.98 261.53 434.89 243.54 450.72 211.56 420.98 236.55 373.47 240.86 362.98 261.53"/><polygon class="cls-2" points="720.9 291.26 801.08 273.82 885.54 320.22 803.22 297.02 720.9 291.26"/></g><circle class="cls-2" cx="269.36" cy="55.18" r="55.18"/></g></g></svg>