<svg width="383" height="205" viewBox="0 0 383 205" fill="none" xmlns="http://www.w3.org/2000/svg">
    <g clip-path="url(#clip0_102_133)">
        <path d="M193.171 200.126C298.011 200.126 383 196.007 383 190.925C383 185.844 298.011 181.724 193.171 181.724C88.3316 181.724 3.34229 185.844 3.34229 190.925C3.34229 196.007 88.3316 200.126 193.171 200.126Z"
              fill="url(#paint0_linear_102_133)"/>
        <path d="M172.426 37.9972L168.082 33.8084L188.091 15.3845C188.65 14.8651 189.519 14.8762 190.067 15.4067C190.615 15.9372 190.659 16.7992 190.161 17.3795L172.426 37.9916V37.9972Z"
              fill="#586D7E"/>
        <path opacity="0.4" d="M189.099 16.7218L172.725 35.8696L170.207 33.4381L188.794 16.429L189.099 16.7218Z"
              fill="url(#paint1_linear_102_133)"/>
        <path d="M120.482 86.5814L62.6968 152.802L65.2416 155.017L123.027 88.796L120.482 86.5814Z" fill="#586D7E"/>
        <path d="M62.2177 152.39L37.4421 180.782L40.9423 183.828L65.7178 155.436L62.2177 152.39Z" fill="#586D7E"/>
        <path d="M26.6608 190.301C22.1012 190.301 17.7407 188.676 14.2656 185.653C10.4585 182.343 8.17319 177.746 7.81904 172.711C7.47043 167.677 9.10836 162.814 12.4285 159.012C13.2696 158.045 14.736 157.946 15.7044 158.786C16.6727 159.626 16.7723 161.09 15.9312 162.057C13.4301 164.925 12.1906 168.594 12.4562 172.391C12.7218 176.187 14.4482 179.658 17.3202 182.155C20.1921 184.659 23.8719 185.891 27.6679 185.631C31.4695 185.372 34.939 183.647 37.4457 180.779C38.2868 179.812 39.7532 179.713 40.7216 180.553C41.69 181.393 41.7896 182.857 40.9485 183.824C37.6283 187.626 33.03 189.914 27.9889 190.257C27.5462 190.29 27.1035 190.301 26.6664 190.301H26.6608Z"
              fill="#586D7E"/>
        <path opacity="0.4"
              d="M15.378 184.382C11.914 181.365 9.82782 177.182 9.50687 172.595C9.19146 168.014 10.68 163.582 13.7068 160.117L14.6586 160.946C11.8586 164.157 10.4752 168.257 10.7685 172.507C11.0618 176.756 12.993 180.636 16.208 183.426C22.8372 189.196 32.936 188.505 38.713 181.885L121.279 87.273L122.231 88.1019L39.6703 182.713C33.434 189.859 22.5329 190.61 15.378 184.377V184.382Z"
              fill="url(#paint2_linear_102_133)"/>
        <path d="M227.186 180.47C215.859 187.659 213.064 189.593 205.057 200.529C204.565 201.198 204.05 201.905 203.519 202.651C171.74 179.061 125.357 184.637 125.357 184.637C125.357 184.637 119.348 175.198 91.4311 144.473C58.8218 106.636 13.2087 78.5252 1.68778 70.9159C1.37237 70.7059 1.07909 70.5125 0.813477 70.3356C17.9897 19.0759 3.8182 15.6608 3.8182 15.6608C63.6692 -18.9378 145.881 13.6162 168.204 29.4483C169.886 30.6365 171.231 31.7361 172.193 32.7032C173.461 33.6979 174.695 34.7036 175.906 35.7149C245.236 93.7771 227.18 180.475 227.18 180.475L227.186 180.47Z"
              fill="#D9E8F7"/>
        <path d="M168.204 29.4428C85.8643 11.8258 26.4339 50.3534 1.68778 70.9159C1.37237 70.7059 1.07909 70.5125 0.813477 70.3356C17.9897 19.0759 3.8182 15.6608 3.8182 15.6608C63.6692 -18.9378 145.881 13.6162 168.204 29.4483V29.4428Z"
              fill="url(#paint3_linear_102_133)"/>
        <path style="mix-blend-mode:multiply"
              d="M227.186 180.47C215.859 187.659 213.064 189.593 205.057 200.529C230.55 83.554 175.237 35.621 175.237 35.621C175.458 35.6486 175.691 35.6818 175.912 35.7149C245.242 93.7772 227.186 180.475 227.186 180.475V180.47Z"
              fill="url(#paint4_linear_102_133)"/>
        <path d="M0.265611 72.2918L0 71.9658C19.1517 56.2884 39.9136 44.2858 61.7103 36.2896C79.1465 29.8959 97.2856 26.0388 115.613 24.823C131.92 23.7454 145.367 24.9999 153.772 26.2487C162.886 27.5971 168.215 29.2273 168.27 29.2439L168.148 29.6473C168.093 29.6307 162.786 28.0116 153.7 26.6632C145.311 25.4198 131.898 24.1654 115.629 25.2485C97.3464 26.4587 79.2517 30.3104 61.8542 36.693C40.0962 44.6671 19.3785 56.6476 0.265611 72.2918Z"
              fill="#586D7E"/>
        <path d="M203.862 205L203.458 204.884C203.535 204.613 211.172 177.613 211.471 143.423C211.648 123.347 209.296 104.763 204.487 88.1792C198.539 67.6665 188.783 50.1766 175.491 36.1901C175.724 39.6439 176.609 57.9517 171.756 83.4489C168.597 100.033 163.666 116.373 157.092 132.017C148.875 151.569 138.062 170.081 124.953 187.04L124.621 186.781C137.708 169.854 148.504 151.37 156.705 131.852C163.268 116.235 168.193 99.9221 171.347 83.3716C176.714 55.1887 175.049 35.8309 175.032 35.6375L174.977 35.0407L175.392 35.4773C188.938 49.5853 198.865 67.2852 204.897 88.0742C209.716 104.697 212.074 123.33 211.897 143.445C211.598 177.69 203.945 204.735 203.867 205.006L203.862 205Z"
              fill="#586D7E"/>
        <path d="M170.589 31.609C148.056 18.131 125.28 8.91905 102.88 4.22743C84.9678 0.47524 67.2549 -0.408929 50.2392 1.59703C21.2654 5.01213 4.13352 15.7824 3.96751 15.8929L3.6687 15.4287C3.84024 15.3182 21.0552 4.49268 50.1451 1.05548C67.2217 -0.96706 84.9955 -0.0773655 102.974 3.68588C125.44 8.38855 148.283 17.6226 170.876 31.1393L170.594 31.6145L170.589 31.609Z"
              fill="#586D7E"/>
        <path d="M226.887 183.868L226.339 183.78C230.096 160.747 229.731 138.604 225.243 117.976C221.652 101.469 215.438 85.8915 206.761 71.6619C191.987 47.4356 174.982 35.3889 174.811 35.2673L175.126 34.8141C175.298 34.9357 192.385 47.0323 207.215 71.3524C215.925 85.6317 222.172 101.276 225.775 117.838C230.279 138.544 230.65 160.758 226.881 183.868H226.887Z"
              fill="#586D7E"/>
    </g>
    <defs>
        <linearGradient id="paint0_linear_102_133" x1="3.34229" y1="190.925" x2="383" y2="190.925"
                        gradientUnits="userSpaceOnUse">
            <stop stop-color="#7FA7C7"/>
            <stop offset="1" stop-color="#C4DEF4" stop-opacity="0"/>
        </linearGradient>
        <linearGradient id="paint1_linear_102_133" x1="178.912" y1="24.3907" x2="181.429" y2="26.824"
                        gradientUnits="userSpaceOnUse">
            <stop offset="0.38" stop-color="white" stop-opacity="0.2"/>
            <stop offset="0.41" stop-color="white" stop-opacity="0.33"/>
            <stop offset="0.45" stop-color="white" stop-opacity="0.53"/>
            <stop offset="0.5" stop-color="white" stop-opacity="0.7"/>
            <stop offset="0.54" stop-color="white" stop-opacity="0.83"/>
            <stop offset="0.58" stop-color="white" stop-opacity="0.92"/>
            <stop offset="0.61" stop-color="white" stop-opacity="0.98"/>
            <stop offset="0.64" stop-color="white"/>
            <stop offset="0.68" stop-color="white" stop-opacity="0.98"/>
            <stop offset="0.73" stop-color="white" stop-opacity="0.93"/>
            <stop offset="0.77" stop-color="white" stop-opacity="0.84"/>
            <stop offset="0.82" stop-color="white" stop-opacity="0.72"/>
            <stop offset="0.87" stop-color="white" stop-opacity="0.56"/>
            <stop offset="0.92" stop-color="white" stop-opacity="0.37"/>
            <stop offset="0.97" stop-color="white" stop-opacity="0.14"/>
            <stop offset="1" stop-color="white" stop-opacity="0"/>
        </linearGradient>
        <linearGradient id="paint2_linear_102_133" x1="107.087" y1="82.7668" x2="14.1095" y2="185.589"
                        gradientUnits="userSpaceOnUse">
            <stop offset="0.38" stop-color="white" stop-opacity="0.2"/>
            <stop offset="0.41" stop-color="white" stop-opacity="0.33"/>
            <stop offset="0.45" stop-color="white" stop-opacity="0.53"/>
            <stop offset="0.5" stop-color="white" stop-opacity="0.7"/>
            <stop offset="0.54" stop-color="white" stop-opacity="0.83"/>
            <stop offset="0.58" stop-color="white" stop-opacity="0.92"/>
            <stop offset="0.61" stop-color="white" stop-opacity="0.98"/>
            <stop offset="0.64" stop-color="white"/>
            <stop offset="0.68" stop-color="white" stop-opacity="0.98"/>
            <stop offset="0.73" stop-color="white" stop-opacity="0.93"/>
            <stop offset="0.77" stop-color="white" stop-opacity="0.84"/>
            <stop offset="0.82" stop-color="white" stop-opacity="0.72"/>
            <stop offset="0.87" stop-color="white" stop-opacity="0.56"/>
            <stop offset="0.92" stop-color="white" stop-opacity="0.37"/>
            <stop offset="0.97" stop-color="white" stop-opacity="0.14"/>
            <stop offset="1" stop-color="white" stop-opacity="0"/>
        </linearGradient>
        <linearGradient id="paint3_linear_102_133" x1="0.813477" y1="35.6209" x2="168.204" y2="35.6209"
                        gradientUnits="userSpaceOnUse">
            <stop stop-color="#C4DEF4"/>
            <stop offset="1" stop-color="#C4DEF4" stop-opacity="0"/>
        </linearGradient>
        <linearGradient id="paint4_linear_102_133" x1="174.429" y1="96.8165" x2="261.437" y2="202.016"
                        gradientUnits="userSpaceOnUse">
            <stop stop-color="#C4DEF4"/>
            <stop offset="1" stop-color="#C4DEF4" stop-opacity="0"/>
        </linearGradient>
        <clipPath id="clip0_102_133">
            <rect width="383" height="205" fill="white"/>
        </clipPath>
    </defs>
</svg>
