<svg aria-hidden="true" role="img" baseProfile="full" height="200" version="1.1" viewBox="0 0 280 200" width="200" xmlns="http://www.w3.org/2000/svg" xmlnsEv="http://www.w3.org/2001/xml-events" xmlnsXlink="http://www.w3.org/1999/xlink"><defs /><rect fill="#f00" height="33.3333333333" stroke="white" stroke-width="1" width="280.0" x="14.0" y="10.0" /><rect fill="#f00" height="33.3333333333" stroke="white" stroke-width="1" width="136.504875174" x="14.0" y="43.3333333333" /><rect fill="#f00" height="33.3333333333" stroke="white" stroke-width="1" width="49.1417550627" x="14.0" y="76.6666666667" /><rect fill="#f00" height="33.3333333333" stroke="white" stroke-width="1" width="4.50016072003" x="14.0" y="110.0" /><rect fill="#f00" height="33.3333333333" stroke="white" stroke-width="1" width="5.01017893496" x="18.50016072" y="110.0" /><rect fill="#f00" height="33.3333333333" stroke="white" stroke-width="1" width="3.66013071895" x="23.510339655" y="110.0" /><rect fill="#f00" height="33.3333333333" stroke="white" stroke-width="1" width="0.870031072538" x="27.1704703739" y="110.0" /><rect fill="#f00" height="33.3333333333" stroke="white" stroke-width="1" width="11.7904210865" x="28.0405014465" y="110.0" /><rect fill="#f00" height="33.3333333333" stroke="white" stroke-width="1" width="0.750026786671" x="28.0405014465" y="143.333333333" /><rect fill="#f00" height="33.3333333333" stroke="white" stroke-width="1" width="0.390013929069" x="28.7905282332" y="143.333333333" /><rect fill="#f00" height="33.3333333333" stroke="white" stroke-width="1" width="0.420015000536" x="29.1805421622" y="143.333333333" /><rect fill="#f00" height="33.3333333333" stroke="white" stroke-width="1" width="0.360012857602" x="29.6005571628" y="143.333333333" /><rect fill="#f00" height="33.3333333333" stroke="white" stroke-width="1" width="2.49008893175" x="29.9605700204" y="143.333333333" /><rect fill="#f00" height="33.3333333333" stroke="white" stroke-width="1" width="0.540019286403" x="32.4506589521" y="143.333333333" /><rect fill="#f00" height="33.3333333333" stroke="white" stroke-width="1" width="0.480017143469" x="32.9906782385" y="143.333333333" /><rect fill="#f00" height="33.3333333333" stroke="white" stroke-width="1" width="0.450016072003" x="33.470695382" y="143.333333333" /><rect fill="#f00" height="33.3333333333" stroke="white" stroke-width="1" width="0.630022500804" x="33.920711454" y="143.333333333" /><rect fill="#f00" height="33.3333333333" stroke="white" stroke-width="1" width="0.540019286403" x="34.5507339548" y="143.333333333" /><rect fill="#f00" height="33.3333333333" stroke="white" stroke-width="1" width="0.390013929069" x="35.0907532412" y="143.333333333" /><rect fill="#f00" height="33.3333333333" stroke="white" stroke-width="1" width="0.480017143469" x="35.4807671703" y="143.333333333" /><rect fill="#f00" height="33.3333333333" stroke="white" stroke-width="1" width="1.53005464481" x="35.9607843137" y="143.333333333" /><rect fill="#f00" height="33.3333333333" stroke="white" stroke-width="1" width="0.57002035787" x="37.4908389585" y="143.333333333" /><rect fill="#f00" height="33.3333333333" stroke="white" stroke-width="1" width="0.450016072003" x="38.0608593164" y="143.333333333" /><rect fill="#f00" height="33.3333333333" stroke="white" stroke-width="1" width="0.480017143469" x="38.5108753884" y="143.333333333" /><rect fill="#f00" height="33.3333333333" stroke="white" stroke-width="1" width="0.210007500268" x="38.9908925319" y="143.333333333" /><rect fill="#f00" height="33.3333333333" stroke="white" stroke-width="1" width="0.630022500804" x="39.2009000321" y="143.333333333" /><rect fill="#f00" height="33.3333333333" stroke="white" stroke-width="1" width="0.390013929069" x="39.8309225329" y="110.0" /><rect fill="#f00" height="33.3333333333" stroke="white" stroke-width="1" width="7.86028072431" x="40.220936462" y="110.0" /><rect fill="#f00" height="33.3333333333" stroke="white" stroke-width="1" width="1.50005357334" x="40.220936462" y="143.333333333" /><rect fill="#f00" height="33.3333333333" stroke="white" stroke-width="1" width="1.89006750241" x="41.7209900354" y="143.333333333" /><rect fill="#f00" height="33.3333333333" stroke="white" stroke-width="1" width="1.92006857388" x="43.6110575378" y="143.333333333" /><rect fill="#f00" height="33.3333333333" stroke="white" stroke-width="1" width="0.990035358406" x="45.5311261116" y="143.333333333" /><rect fill="#f00" height="33.3333333333" stroke="white" stroke-width="1" width="1.56005571628" x="46.5211614701" y="143.333333333" /><rect fill="#f00" height="33.3333333333" stroke="white" stroke-width="1" width="1.11003964427" x="48.0812171863" y="110.0" /><rect fill="#f00" height="33.3333333333" stroke="white" stroke-width="1" width="3.48012429015" x="49.1912568306" y="110.0" /><rect fill="#f00" height="33.3333333333" stroke="white" stroke-width="1" width="2.19007821708" x="49.1912568306" y="143.333333333" /><rect fill="#f00" height="33.3333333333" stroke="white" stroke-width="1" width="1.29004607307" x="51.3813350477" y="143.333333333" /><rect fill="#f00" height="33.3333333333" stroke="white" stroke-width="1" width="0.300010714668" x="52.6713811208" y="110.0" /><rect fill="#f00" height="33.3333333333" stroke="white" stroke-width="1" width="4.71016822029" x="52.9713918354" y="110.0" /><rect fill="#f00" height="33.3333333333" stroke="white" stroke-width="1" width="3.48012429015" x="57.6815600557" y="110.0" /><rect fill="#f00" height="33.3333333333" stroke="white" stroke-width="1" width="1.98007071681" x="61.1616843459" y="110.0" /><rect fill="#d78700" height="33.3333333333" stroke="white" stroke-width="1" width="7.17025608057" x="63.1417550627" y="76.6666666667" /><rect fill="#f00" height="33.3333333333" stroke="white" stroke-width="1" width="5.49019607843" x="70.3120111433" y="76.6666666667" /><rect fill="#f00" height="33.3333333333" stroke="white" stroke-width="1" width="0.810028929605" x="70.3120111433" y="110.0" /><rect fill="#f00" height="33.3333333333" stroke="white" stroke-width="1" width="2.82010071788" x="71.1220400729" y="110.0" /><rect fill="#f00" height="33.3333333333" stroke="white" stroke-width="1" width="0.240008571735" x="71.1220400729" y="143.333333333" /><rect fill="#f00" height="33.3333333333" stroke="white" stroke-width="1" width="0.240008571735" x="71.3620486446" y="143.333333333" /><rect fill="#f00" height="33.3333333333" stroke="white" stroke-width="1" width="0.240008571735" x="71.6020572163" y="143.333333333" /><rect fill="#f00" height="33.3333333333" stroke="white" stroke-width="1" width="0.150005357334" x="71.8420657881" y="143.333333333" /><rect fill="#f00" height="33.3333333333" stroke="white" stroke-width="1" width="0.600021429337" x="71.9920711454" y="143.333333333" /><rect fill="#f00" height="33.3333333333" stroke="white" stroke-width="1" width="0.240008571735" x="72.5920925747" y="143.333333333" /><rect fill="#f00" height="33.3333333333" stroke="white" stroke-width="1" width="0.300010714668" x="72.8321011465" y="143.333333333" /><rect fill="#f00" height="33.3333333333" stroke="white" stroke-width="1" width="0.810028929605" x="73.1321118611" y="143.333333333" /><rect fill="#f00" height="33.3333333333" stroke="white" stroke-width="1" width="1.86006643094" x="73.9421407907" y="110.0" /><rect fill="#f00" height="33.3333333333" stroke="white" stroke-width="1" width="6.54023357977" x="75.8022072217" y="76.6666666667" /><rect fill="#f00" height="33.3333333333" stroke="white" stroke-width="1" width="2.85010178935" x="75.8022072217" y="110.0" /><rect fill="#f00" height="33.3333333333" stroke="white" stroke-width="1" width="0.390013929069" x="78.652309011" y="110.0" /><rect fill="#f00" height="33.3333333333" stroke="white" stroke-width="1" width="0.780027858138" x="79.0423229401" y="110.0" /><rect fill="#f00" height="33.3333333333" stroke="white" stroke-width="1" width="2.52009000321" x="79.8223507982" y="110.0" /><rect fill="#008000" height="33.3333333333" stroke="white" stroke-width="1" width="68.1624343727" x="82.3424408015" y="76.6666666667" /><rect fill="#008000" height="33.3333333333" stroke="white" stroke-width="1" width="1.11003964427" x="82.3424408015" y="110.0" /><rect fill="#008000" height="33.3333333333" stroke="white" stroke-width="1" width="50.251794707" x="83.4524804457" y="110.0" /><rect fill="#008000" height="33.3333333333" stroke="white" stroke-width="1" width="3.54012643309" x="83.4524804457" y="143.333333333" /><rect fill="#008000" height="33.3333333333" stroke="white" stroke-width="1" width="1.56005571628" x="86.9926068788" y="143.333333333" /><rect fill="#008000" height="33.3333333333" stroke="white" stroke-width="1" width="3.60012857602" x="88.5526625951" y="143.333333333" /><rect fill="#008000" height="33.3333333333" stroke="white" stroke-width="1" width="1.65005893068" x="92.1527911711" y="143.333333333" /><rect fill="#008000" height="33.3333333333" stroke="white" stroke-width="1" width="0.270009643202" x="93.8028501018" y="143.333333333" /><rect fill="#008000" height="33.3333333333" stroke="white" stroke-width="1" width="0.600021429337" x="94.072859745" y="143.333333333" /><rect fill="#008000" height="33.3333333333" stroke="white" stroke-width="1" width="0.720025715204" x="94.6728811743" y="143.333333333" /><rect fill="#008000" height="33.3333333333" stroke="white" stroke-width="1" width="3.27011678989" x="95.3929068895" y="143.333333333" /><rect fill="#008000" height="33.3333333333" stroke="white" stroke-width="1" width="1.83006535948" x="98.6630236794" y="143.333333333" /><rect fill="#008000" height="33.3333333333" stroke="white" stroke-width="1" width="0.480017143469" x="100.493089039" y="143.333333333" /><rect fill="#008000" height="33.3333333333" stroke="white" stroke-width="1" width="0.870031072538" x="100.973106182" y="143.333333333" /><rect fill="#008000" height="33.3333333333" stroke="white" stroke-width="1" width="1.05003750134" x="101.843137255" y="143.333333333" /><rect fill="#0e8600" height="33.3333333333" stroke="white" stroke-width="1" width="1.98007071681" x="102.893174756" y="143.333333333" /><rect fill="#008000" height="33.3333333333" stroke="white" stroke-width="1" width="1.14004071574" x="104.873245473" y="143.333333333" /><rect fill="#008000" height="33.3333333333" stroke="white" stroke-width="1" width="1.83006535948" x="106.013286189" y="143.333333333" /><rect fill="#008000" height="33.3333333333" stroke="white" stroke-width="1" width="0.420015000536" x="107.843351548" y="143.333333333" /><rect fill="#008000" height="33.3333333333" stroke="white" stroke-width="1" width="0.900032144005" x="108.263366549" y="143.333333333" /><rect fill="#008000" height="33.3333333333" stroke="white" stroke-width="1" width="0.990035358406" x="109.163398693" y="143.333333333" /><rect fill="#008000" height="33.3333333333" stroke="white" stroke-width="1" width="1.02003642987" x="110.153434051" y="143.333333333" /><rect fill="#008000" height="33.3333333333" stroke="white" stroke-width="1" width="0.57002035787" x="111.173470481" y="143.333333333" /><rect fill="#008000" height="33.3333333333" stroke="white" stroke-width="1" width="0.270009643202" x="111.743490839" y="143.333333333" /><rect fill="#008000" height="33.3333333333" stroke="white" stroke-width="1" width="0.480017143469" x="112.013500482" y="143.333333333" /><rect fill="#008000" height="33.3333333333" stroke="white" stroke-width="1" width="0.930033215472" x="112.493517626" y="143.333333333" /><rect fill="#008000" height="33.3333333333" stroke="white" stroke-width="1" width="2.85010178935" x="113.423550841" y="143.333333333" /><rect fill="#008000" height="33.3333333333" stroke="white" stroke-width="1" width="0.540019286403" x="113.423550841" y="176.666666667" /><rect fill="#008000" height="33.3333333333" stroke="white" stroke-width="1" width="0.57002035787" x="113.963570128" y="176.666666667" /><rect fill="#008000" height="33.3333333333" stroke="white" stroke-width="1" width="0.960034286939" x="114.533590485" y="176.666666667" /><rect fill="#008000" height="33.3333333333" stroke="white" stroke-width="1" width="0.780027858138" x="115.493624772" y="176.666666667" /><rect fill="#008000" height="33.3333333333" stroke="white" stroke-width="1" width="1.02003642987" x="116.27365263" y="143.333333333" /><rect fill="#008000" height="33.3333333333" stroke="white" stroke-width="1" width="0.630022500804" x="117.29368906" y="143.333333333" /><rect fill="#008000" height="33.3333333333" stroke="white" stroke-width="1" width="1.17004178721" x="117.923711561" y="143.333333333" /><rect fill="#008000" height="33.3333333333" stroke="white" stroke-width="1" width="0.450016072003" x="119.093753348" y="143.333333333" /><rect fill="#008000" height="33.3333333333" stroke="white" stroke-width="1" width="1.20004285867" x="119.54376942" y="143.333333333" /><rect fill="#008000" height="33.3333333333" stroke="white" stroke-width="1" width="1.86006643094" x="120.743812279" y="143.333333333" /><rect fill="#008000" height="33.3333333333" stroke="white" stroke-width="1" width="0.690024643737" x="122.60387871" y="143.333333333" /><rect fill="#008000" height="33.3333333333" stroke="white" stroke-width="1" width="0.450016072003" x="123.293903354" y="143.333333333" /><rect fill="#008000" height="33.3333333333" stroke="white" stroke-width="1" width="0.57002035787" x="123.743919426" y="143.333333333" /><rect fill="#008000" height="33.3333333333" stroke="white" stroke-width="1" width="0.390013929069" x="124.313939784" y="143.333333333" /><rect fill="#008000" height="33.3333333333" stroke="white" stroke-width="1" width="2.67009536055" x="124.703953713" y="143.333333333" /><rect fill="#008000" height="33.3333333333" stroke="white" stroke-width="1" width="0.210007500268" x="127.374049073" y="143.333333333" /><rect fill="#008000" height="33.3333333333" stroke="white" stroke-width="1" width="2.49008893175" x="127.584056573" y="143.333333333" /><rect fill="#008000" height="33.3333333333" stroke="white" stroke-width="1" width="2.49008893175" x="130.074145505" y="143.333333333" /><rect fill="#008000" height="33.3333333333" stroke="white" stroke-width="1" width="1.14004071574" x="132.564234437" y="143.333333333" /><rect fill="#008000" height="33.3333333333" stroke="white" stroke-width="1" width="3.63012964749" x="133.704275153" y="110.0" /><rect fill="#238f00" height="33.3333333333" stroke="white" stroke-width="1" width="1.56005571628" x="137.3344048" y="110.0" /><rect fill="#008000" height="33.3333333333" stroke="white" stroke-width="1" width="0.180006428801" x="137.3344048" y="143.333333333" /><rect fill="#008000" height="33.3333333333" stroke="white" stroke-width="1" width="0.180006428801" x="137.3344048" y="176.666666667" /><rect fill="#008000" height="33.3333333333" stroke="white" stroke-width="1" width="0.180006428801" x="137.514411229" y="143.333333333" /><rect fill="#008000" height="33.3333333333" stroke="white" stroke-width="1" width="0.180006428801" x="137.514411229" y="176.666666667" /><rect fill="#309500" height="33.3333333333" stroke="white" stroke-width="1" width="1.20004285867" x="137.694417658" y="143.333333333" /><rect fill="#fa1400" height="33.3333333333" stroke="white" stroke-width="1" width="0.210007500268" x="137.694417658" y="176.666666667" /><rect fill="#008000" height="33.3333333333" stroke="white" stroke-width="1" width="0.57002035787" x="137.904425158" y="176.666666667" /><rect fill="#008000" height="33.3333333333" stroke="white" stroke-width="1" width="0.420015000536" x="138.474445516" y="176.666666667" /><rect fill="#008000" height="33.3333333333" stroke="white" stroke-width="1" width="0.510018214936" x="138.894460516" y="110.0" /><rect fill="#008000" height="33.3333333333" stroke="white" stroke-width="1" width="8.73031179685" x="139.404478731" y="110.0" /><rect fill="#008000" height="33.3333333333" stroke="white" stroke-width="1" width="0.480017143469" x="139.404478731" y="143.333333333" /><rect fill="#008000" height="33.3333333333" stroke="white" stroke-width="1" width="0.870031072538" x="139.884495875" y="143.333333333" /><rect fill="#008000" height="33.3333333333" stroke="white" stroke-width="1" width="0.720025715204" x="140.754526947" y="143.333333333" /><rect fill="#008000" height="33.3333333333" stroke="white" stroke-width="1" width="2.31008250295" x="141.474552663" y="143.333333333" /><rect fill="#008000" height="33.3333333333" stroke="white" stroke-width="1" width="1.44005143041" x="143.784635166" y="143.333333333" /><rect fill="#008000" height="33.3333333333" stroke="white" stroke-width="1" width="0.66002357227" x="145.224686596" y="143.333333333" /><rect fill="#008000" height="33.3333333333" stroke="white" stroke-width="1" width="0.390013929069" x="145.884710168" y="143.333333333" /><rect fill="#008000" height="33.3333333333" stroke="white" stroke-width="1" width="0.360012857602" x="146.274724097" y="143.333333333" /><rect fill="#008000" height="33.3333333333" stroke="white" stroke-width="1" width="0.240008571735" x="146.634736955" y="143.333333333" /><rect fill="#008000" height="33.3333333333" stroke="white" stroke-width="1" width="0.270009643202" x="146.874745527" y="143.333333333" /><rect fill="#008000" height="33.3333333333" stroke="white" stroke-width="1" width="0.240008571735" x="147.14475517" y="143.333333333" /><rect fill="#008000" height="33.3333333333" stroke="white" stroke-width="1" width="0.420015000536" x="147.384763742" y="143.333333333" /><rect fill="#008000" height="33.3333333333" stroke="white" stroke-width="1" width="0.330011786135" x="147.804778742" y="143.333333333" /><rect fill="#008000" height="33.3333333333" stroke="white" stroke-width="1" width="2.37008464588" x="148.134790528" y="110.0" /><rect fill="#f00" height="33.3333333333" stroke="white" stroke-width="1" width="6.63023679417" x="150.504875174" y="43.3333333333" /><rect fill="#f00" height="33.3333333333" stroke="white" stroke-width="1" width="136.504875174" x="157.135111968" y="43.3333333333" /><rect fill="#f00" height="33.3333333333" stroke="white" stroke-width="1" width="47.1316832744" x="157.135111968" y="76.6666666667" /><rect fill="#f00" height="33.3333333333" stroke="white" stroke-width="1" width="1.20004285867" x="157.135111968" y="110.0" /><rect fill="#f00" height="33.3333333333" stroke="white" stroke-width="1" width="0.390013929069" x="158.335154827" y="110.0" /><rect fill="#f00" height="33.3333333333" stroke="white" stroke-width="1" width="2.52009000321" x="158.725168756" y="110.0" /><rect fill="#f00" height="33.3333333333" stroke="white" stroke-width="1" width="1.05003750134" x="161.245258759" y="110.0" /><rect fill="#f00" height="33.3333333333" stroke="white" stroke-width="1" width="21.1207543127" x="162.295296261" y="110.0" /><rect fill="#f00" height="33.3333333333" stroke="white" stroke-width="1" width="14.3105110897" x="162.295296261" y="143.333333333" /><rect fill="#f00" height="33.3333333333" stroke="white" stroke-width="1" width="0.840030001071" x="162.295296261" y="176.666666667" /><rect fill="#f00" height="33.3333333333" stroke="white" stroke-width="1" width="0.0600021429337" x="163.135326262" y="176.666666667" /><rect fill="#f00" height="33.3333333333" stroke="white" stroke-width="1" width="0.450016072003" x="163.195328405" y="176.666666667" /><rect fill="#f00" height="33.3333333333" stroke="white" stroke-width="1" width="1.77006321654" x="163.645344477" y="176.666666667" /><rect fill="#f00" height="33.3333333333" stroke="white" stroke-width="1" width="1.38004928747" x="165.415407693" y="176.666666667" /><rect fill="#f00" height="33.3333333333" stroke="white" stroke-width="1" width="1.11003964427" x="166.795456981" y="176.666666667" /><rect fill="#f00" height="33.3333333333" stroke="white" stroke-width="1" width="0.840030001071" x="167.905496625" y="176.666666667" /><rect fill="#f00" height="33.3333333333" stroke="white" stroke-width="1" width="1.41005035894" x="168.745526626" y="176.666666667" /><rect fill="#f00" height="33.3333333333" stroke="white" stroke-width="1" width="0.720025715204" x="170.155576985" y="176.666666667" /><rect fill="#f00" height="33.3333333333" stroke="white" stroke-width="1" width="0.240008571735" x="170.8756027" y="176.666666667" /><rect fill="#f00" height="33.3333333333" stroke="white" stroke-width="1" width="1.74006214508" x="171.115611272" y="176.666666667" /><rect fill="#f00" height="33.3333333333" stroke="white" stroke-width="1" width="1.32004714454" x="172.855673417" y="176.666666667" /><rect fill="#f00" height="33.3333333333" stroke="white" stroke-width="1" width="0.990035358406" x="174.175720561" y="176.666666667" /><rect fill="#f00" height="33.3333333333" stroke="white" stroke-width="1" width="1.05003750134" x="175.16575592" y="176.666666667" /><rect fill="#f00" height="33.3333333333" stroke="white" stroke-width="1" width="0.390013929069" x="176.215793421" y="176.666666667" /><rect fill="#f00" height="33.3333333333" stroke="white" stroke-width="1" width="4.44015857709" x="176.60580735" y="143.333333333" /><rect fill="#f00" height="33.3333333333" stroke="white" stroke-width="1" width="1.44005143041" x="181.045965927" y="143.333333333" /><rect fill="#f00" height="33.3333333333" stroke="white" stroke-width="1" width="0.930033215472" x="182.486017358" y="143.333333333" /><rect fill="#f00" height="33.3333333333" stroke="white" stroke-width="1" width="2.46008786028" x="183.416050573" y="110.0" /><rect fill="#f00" height="33.3333333333" stroke="white" stroke-width="1" width="3.09011036108" x="185.876138434" y="110.0" /><rect fill="#f00" height="33.3333333333" stroke="white" stroke-width="1" width="4.74016929176" x="188.966248795" y="110.0" /><rect fill="#f00" height="33.3333333333" stroke="white" stroke-width="1" width="0.990035358406" x="188.966248795" y="143.333333333" /><rect fill="#f00" height="33.3333333333" stroke="white" stroke-width="1" width="0.630022500804" x="189.956284153" y="143.333333333" /><rect fill="#f00" height="33.3333333333" stroke="white" stroke-width="1" width="0.630022500804" x="190.586306654" y="143.333333333" /><rect fill="#f00" height="33.3333333333" stroke="white" stroke-width="1" width="1.29004607307" x="191.216329155" y="143.333333333" /><rect fill="#f00" height="33.3333333333" stroke="white" stroke-width="1" width="1.20004285867" x="192.506375228" y="143.333333333" /><rect fill="#f00" height="33.3333333333" stroke="white" stroke-width="1" width="1.11003964427" x="193.706418086" y="110.0" /><rect fill="#f00" height="33.3333333333" stroke="white" stroke-width="1" width="0.330011786135" x="193.706418086" y="143.333333333" /><rect fill="#f00" height="33.3333333333" stroke="white" stroke-width="1" width="0.780027858138" x="194.036429872" y="143.333333333" /><rect fill="#f00" height="33.3333333333" stroke="white" stroke-width="1" width="0.270009643202" x="194.816457731" y="110.0" /><rect fill="#f00" height="33.3333333333" stroke="white" stroke-width="1" width="4.65016607736" x="195.086467374" y="110.0" /><rect fill="#f00" height="33.3333333333" stroke="white" stroke-width="1" width="3.69013179042" x="199.736633451" y="110.0" /><rect fill="#f00" height="33.3333333333" stroke="white" stroke-width="1" width="0.840030001071" x="203.426765242" y="110.0" /><rect fill="#269100" height="33.3333333333" stroke="white" stroke-width="1" width="5.37019179256" x="204.266795243" y="76.6666666667" /><rect fill="#a9ba00" height="33.3333333333" stroke="white" stroke-width="1" width="43.4715525554" x="209.636987035" y="76.6666666667" /><rect fill="#008000" height="33.3333333333" stroke="white" stroke-width="1" width="0.540019286403" x="209.636987035" y="110.0" /><rect fill="#ea4c00" height="33.3333333333" stroke="white" stroke-width="1" width="1.32004714454" x="210.177006322" y="110.0" /><rect fill="#008000" height="33.3333333333" stroke="white" stroke-width="1" width="0.120004285867" x="211.497053466" y="110.0" /><rect fill="#008000" height="33.3333333333" stroke="white" stroke-width="1" width="0.120004285867" x="211.497053466" y="143.333333333" /><rect fill="#5da400" height="33.3333333333" stroke="white" stroke-width="1" width="3.57012750455" x="211.617057752" y="110.0" /><rect fill="#198c00" height="33.3333333333" stroke="white" stroke-width="1" width="1.05003750134" x="215.187185257" y="110.0" /><rect fill="#fa1400" height="33.3333333333" stroke="white" stroke-width="1" width="0.840030001071" x="216.237222758" y="110.0" /><rect fill="#ea4c00" height="33.3333333333" stroke="white" stroke-width="1" width="0.120004285867" x="217.077252759" y="110.0" /><rect fill="#008000" height="33.3333333333" stroke="white" stroke-width="1" width="0.66002357227" x="217.197257045" y="110.0" /><rect fill="#fe0500" height="33.3333333333" stroke="white" stroke-width="1" width="11.7304189435" x="217.857280617" y="110.0" /><rect fill="#008000" height="33.3333333333" stroke="white" stroke-width="1" width="0.240008571735" x="229.587699561" y="110.0" /><rect fill="#008000" height="33.3333333333" stroke="white" stroke-width="1" width="0.420015000536" x="229.827708132" y="110.0" /><rect fill="#008000" height="33.3333333333" stroke="white" stroke-width="1" width="0.390013929069" x="230.247723133" y="110.0" /><rect fill="#008000" height="33.3333333333" stroke="white" stroke-width="1" width="0.420015000536" x="230.637737062" y="110.0" /><rect fill="#f00" height="33.3333333333" stroke="white" stroke-width="1" width="0.990035358406" x="231.057752063" y="110.0" /><rect fill="#d29500" height="33.3333333333" stroke="white" stroke-width="1" width="0.930033215472" x="232.047787421" y="110.0" /><rect fill="#008000" height="33.3333333333" stroke="white" stroke-width="1" width="0.330011786135" x="232.977820636" y="110.0" /><rect fill="#008000" height="33.3333333333" stroke="white" stroke-width="1" width="0.120004285867" x="233.307832423" y="110.0" /><rect fill="#008000" height="33.3333333333" stroke="white" stroke-width="1" width="0.120004285867" x="233.307832423" y="143.333333333" /><rect fill="#008000" height="33.3333333333" stroke="white" stroke-width="1" width="0.300010714668" x="233.427836708" y="110.0" /><rect fill="#c7b000" height="33.3333333333" stroke="white" stroke-width="1" width="0.360012857602" x="233.727847423" y="110.0" /><rect fill="#008000" height="33.3333333333" stroke="white" stroke-width="1" width="0.180006428801" x="234.087860281" y="110.0" /><rect fill="#008000" height="33.3333333333" stroke="white" stroke-width="1" width="0.630022500804" x="234.26786671" y="110.0" /><rect fill="#f00" height="33.3333333333" stroke="white" stroke-width="1" width="0.360012857602" x="234.89788921" y="110.0" /><rect fill="#59a300" height="33.3333333333" stroke="white" stroke-width="1" width="1.11003964427" x="235.257902068" y="110.0" /><rect fill="#008000" height="33.3333333333" stroke="white" stroke-width="1" width="0.450016072003" x="236.367941712" y="110.0" /><rect fill="#008000" height="33.3333333333" stroke="white" stroke-width="1" width="0.480017143469" x="236.817957784" y="110.0" /><rect fill="#008000" height="33.3333333333" stroke="white" stroke-width="1" width="0.420015000536" x="237.297974928" y="110.0" /><rect fill="#008000" height="33.3333333333" stroke="white" stroke-width="1" width="0.960034286939" x="237.717989928" y="110.0" /><rect fill="#008000" height="33.3333333333" stroke="white" stroke-width="1" width="0.960034286939" x="237.717989928" y="143.333333333" /><rect fill="#cda100" height="33.3333333333" stroke="white" stroke-width="1" width="0.66002357227" x="238.678024215" y="110.0" /><rect fill="#f00" height="33.3333333333" stroke="white" stroke-width="1" width="0.240008571735" x="239.338047787" y="110.0" /><rect fill="#008000" height="33.3333333333" stroke="white" stroke-width="1" width="0.300010714668" x="239.578056359" y="110.0" /><rect fill="#008000" height="33.3333333333" stroke="white" stroke-width="1" width="0.630022500804" x="239.878067074" y="110.0" /><rect fill="#008000" height="33.3333333333" stroke="white" stroke-width="1" width="1.41005035894" x="240.508089575" y="110.0" /><rect fill="#008000" height="33.3333333333" stroke="white" stroke-width="1" width="2.28008143148" x="241.918139934" y="110.0" /><rect fill="#008000" height="33.3333333333" stroke="white" stroke-width="1" width="0.720025715204" x="241.918139934" y="143.333333333" /><rect fill="#008000" height="33.3333333333" stroke="white" stroke-width="1" width="1.56005571628" x="242.638165649" y="143.333333333" /><rect fill="#108800" height="33.3333333333" stroke="white" stroke-width="1" width="3.00010714668" x="244.198221365" y="110.0" /><rect fill="#008000" height="33.3333333333" stroke="white" stroke-width="1" width="1.02003642987" x="244.198221365" y="143.333333333" /><rect fill="#1c8d00" height="33.3333333333" stroke="white" stroke-width="1" width="1.98007071681" x="245.218257795" y="143.333333333" /><rect fill="#008000" height="33.3333333333" stroke="white" stroke-width="1" width="0.300010714668" x="247.198328512" y="110.0" /><rect fill="#008000" height="33.3333333333" stroke="white" stroke-width="1" width="0.360012857602" x="247.498339226" y="110.0" /><rect fill="#138900" height="33.3333333333" stroke="white" stroke-width="1" width="2.64009428908" x="247.858352084" y="110.0" /><rect fill="#008000" height="33.3333333333" stroke="white" stroke-width="1" width="0.600021429337" x="247.858352084" y="143.333333333" /><rect fill="#198c00" height="33.3333333333" stroke="white" stroke-width="1" width="2.04007285974" x="248.458373513" y="143.333333333" /><rect fill="#1c8d00" height="33.3333333333" stroke="white" stroke-width="1" width="0.930033215472" x="250.498446373" y="110.0" /><rect fill="#008000" height="33.3333333333" stroke="white" stroke-width="1" width="1.44005143041" x="251.428479589" y="110.0" /><rect fill="#008000" height="33.3333333333" stroke="white" stroke-width="1" width="0.240008571735" x="252.868531019" y="110.0" /><rect fill="#dc7800" height="33.3333333333" stroke="white" stroke-width="1" width="5.10018214936" x="253.108539591" y="76.6666666667" /><rect fill="#208e00" height="33.3333333333" stroke="white" stroke-width="1" width="6.93024750884" x="258.20872174" y="76.6666666667" /><rect fill="#008000" height="33.3333333333" stroke="white" stroke-width="1" width="0.0900032144005" x="258.20872174" y="110.0" /><rect fill="#008000" height="33.3333333333" stroke="white" stroke-width="1" width="0.0900032144005" x="258.20872174" y="143.333333333" /><rect fill="#008000" height="33.3333333333" stroke="white" stroke-width="1" width="0.150005357334" x="258.298724954" y="110.0" /><rect fill="#008000" height="33.3333333333" stroke="white" stroke-width="1" width="0.150005357334" x="258.298724954" y="143.333333333" /><rect fill="#238f00" height="33.3333333333" stroke="white" stroke-width="1" width="6.57023465124" x="258.448730312" y="110.0" /><rect fill="#008000" height="33.3333333333" stroke="white" stroke-width="1" width="1.86006643094" x="258.448730312" y="143.333333333" /><rect fill="#008000" height="33.3333333333" stroke="white" stroke-width="1" width="4.38015643416" x="260.308796743" y="143.333333333" /><rect fill="#f00" height="33.3333333333" stroke="white" stroke-width="1" width="0.270009643202" x="264.688953177" y="143.333333333" /><rect fill="#008000" height="33.3333333333" stroke="white" stroke-width="1" width="0.0600021429337" x="264.95896282" y="143.333333333" /><rect fill="#008000" height="33.3333333333" stroke="white" stroke-width="1" width="0.120004285867" x="265.018964963" y="110.0" /><rect fill="#2d9300" height="33.3333333333" stroke="white" stroke-width="1" width="20.0107146684" x="265.138969249" y="76.6666666667" /><rect fill="#008000" height="33.3333333333" stroke="white" stroke-width="1" width="0.900032144005" x="265.138969249" y="110.0" /><rect fill="#d58e00" height="33.3333333333" stroke="white" stroke-width="1" width="0.600021429337" x="266.039001393" y="110.0" /><rect fill="#459c00" height="33.3333333333" stroke="white" stroke-width="1" width="1.80006428801" x="266.639022822" y="110.0" /><rect fill="#008000" height="33.3333333333" stroke="white" stroke-width="1" width="1.14004071574" x="268.43908711" y="110.0" /><rect fill="#008000" height="33.3333333333" stroke="white" stroke-width="1" width="0.450016072003" x="269.579127826" y="110.0" /><rect fill="#c9ab00" height="33.3333333333" stroke="white" stroke-width="1" width="0.690024643737" x="270.029143898" y="110.0" /><rect fill="#008000" height="33.3333333333" stroke="white" stroke-width="1" width="0.360012857602" x="270.719168542" y="110.0" /><rect fill="#1c8d00" height="33.3333333333" stroke="white" stroke-width="1" width="3.72013286189" x="271.079181399" y="110.0" /><rect fill="#008000" height="33.3333333333" stroke="white" stroke-width="1" width="0.360012857602" x="274.799314261" y="110.0" /><rect fill="#008000" height="33.3333333333" stroke="white" stroke-width="1" width="0.57002035787" x="275.159327119" y="110.0" /><rect fill="#008000" height="33.3333333333" stroke="white" stroke-width="1" width="0.540019286403" x="275.729347477" y="110.0" /><rect fill="#008000" height="33.3333333333" stroke="white" stroke-width="1" width="1.74006214508" x="276.269366763" y="110.0" /><rect fill="#f00" height="33.3333333333" stroke="white" stroke-width="1" width="0.57002035787" x="278.009428908" y="110.0" /><rect fill="#008000" height="33.3333333333" stroke="white" stroke-width="1" width="6.5102325083" x="278.579449266" y="110.0" /><rect fill="#008000" height="33.3333333333" stroke="white" stroke-width="1" width="0.0600021429337" x="285.089681774" y="110.0" /><rect fill="#f00" height="33.3333333333" stroke="white" stroke-width="1" width="7.02025072324" x="285.149683917" y="76.6666666667" /><rect fill="#f00" height="33.3333333333" stroke="white" stroke-width="1" width="0.420015000536" x="285.149683917" y="110.0" /><rect fill="#f00" height="33.3333333333" stroke="white" stroke-width="1" width="0.390013929069" x="285.569698918" y="110.0" /><rect fill="#ea4c00" height="33.3333333333" stroke="white" stroke-width="1" width="0.120004285867" x="285.959712847" y="110.0" /><rect fill="#f00" height="33.3333333333" stroke="white" stroke-width="1" width="2.70009643202" x="286.079717133" y="110.0" /><rect fill="#ea4c00" height="33.3333333333" stroke="white" stroke-width="1" width="0.120004285867" x="288.779813565" y="110.0" /><rect fill="#f00" height="33.3333333333" stroke="white" stroke-width="1" width="0.210007500268" x="288.899817851" y="110.0" /><rect fill="#ea4c00" height="33.3333333333" stroke="white" stroke-width="1" width="0.120004285867" x="289.109825351" y="110.0" /><rect fill="#ea4c00" height="33.3333333333" stroke="white" stroke-width="1" width="0.120004285867" x="289.229829637" y="110.0" /><rect fill="#f00" height="33.3333333333" stroke="white" stroke-width="1" width="0.270009643202" x="289.349833923" y="110.0" /><rect fill="#ea4c00" height="33.3333333333" stroke="white" stroke-width="1" width="0.120004285867" x="289.619843566" y="110.0" /><rect fill="#008000" height="33.3333333333" stroke="white" stroke-width="1" width="0.120004285867" x="289.739847852" y="110.0" /><rect fill="#339600" height="33.3333333333" stroke="white" stroke-width="1" width="1.17004178721" x="289.859852138" y="110.0" /><rect fill="#f00" height="33.3333333333" stroke="white" stroke-width="1" width="0.270009643202" x="291.029893925" y="110.0" /><rect fill="#f00" height="33.3333333333" stroke="white" stroke-width="1" width="0.750026786671" x="291.299903568" y="110.0" /><rect fill="#ea4c00" height="33.3333333333" stroke="white" stroke-width="1" width="0.120004285867" x="292.049930355" y="110.0" /><rect fill="#76ac00" height="33.3333333333" stroke="white" stroke-width="1" width="1.47005250188" x="292.169934641" y="76.6666666667" /><rect fill="#008000" height="33.3333333333" stroke="white" stroke-width="1" width="0.360012857602" x="293.639987142" y="43.3333333333" /></svg>
