<svg xmlns="http://www.w3.org/2000/svg" width="200" height="200" aria-hidden="true"
    baseProfile="full" viewBox="0 0 280 200">
    <path fill="red" stroke="#fff"
        d="M14 10h280v33.33H14zM14 43.33h136.5v33.33H14zM14 76.67h49.14V110H14zM14 110h4.5v33.33H14zM18.5 110h5.01v33.33H18.5zM23.51 110h3.66v33.33h-3.66zM27.17 110h.87v33.33h-.87z" />
    <path fill="red" stroke="#fff"
        d="M28.04 110h11.79v33.33H28.04zM28.04 143.33h.75v33.33h-.75zM28.79 143.33h.39v33.33h-.39zM29.18 143.33h.42v33.33h-.42zM29.6 143.33h.36v33.33h-.36zM29.96 143.33h2.49v33.33h-2.49zM32.45 143.33h.54v33.33h-.54zM32.99 143.33h.48v33.33h-.48zM33.47 143.33h.45v33.33h-.45zM33.92 143.33h.63v33.33h-.63z" />
    <path fill="red" stroke="#fff" d="M34.55 143.33h.54v33.33h-.54zM35.09 143.33h.39v33.33h-.39z" />
    <path fill="red" stroke="#fff"
        d="M35.48 143.33h.48v33.33h-.48zM35.96 143.33h1.53v33.33h-1.53zM37.49 143.33h.57v33.33h-.57zM38.06 143.33h.45v33.33h-.45z" />
    <path fill="red" stroke="#fff"
        d="M38.51 143.33h.48v33.33h-.48zM38.99 143.33h.21v33.33h-.21zM39.2 143.33h.63v33.33h-.63zM39.83 110h.39v33.33h-.39zM40.22 110h7.86v33.33h-7.86zM40.22 143.33h1.5v33.33h-1.5zM41.72 143.33h1.89v33.33h-1.89zM43.61 143.33h1.92v33.33h-1.92zM45.53 143.33h.99v33.33h-.99zM46.52 143.33h1.56v33.33h-1.56zM48.08 110h1.11v33.33h-1.11zM49.19 110h3.48v33.33h-3.48zM49.19 143.33h2.19v33.33h-2.19zM51.38 143.33h1.29v33.33h-1.29zM52.67 110h.3v33.33h-.3zM52.97 110h4.71v33.33h-4.71zM57.68 110h3.48v33.33h-3.48zM61.16 110h1.98v33.33h-1.98z" />
    <path fill="#d78700" stroke="#fff" d="M63.14 76.67h7.17V110h-7.17z" />
    <path fill="red" stroke="#fff"
        d="M70.31 76.67h5.49V110h-5.49zM70.31 110h.81v33.33h-.81zM71.12 110h2.82v33.33h-2.82zM71.12 143.33h.24v33.33h-.24zM71.36 143.33h.24v33.33h-.24zM71.6 143.33h.24v33.33h-.24zM71.84 143.33h.15v33.33h-.15z" />
    <path fill="red" stroke="#fff"
        d="M71.99 143.33h.6v33.33h-.6zM72.59 143.33h.24v33.33h-.24zM72.83 143.33h.3v33.33h-.3zM73.13 143.33h.81v33.33h-.81zM73.94 110h1.86v33.33h-1.86zM75.8 76.67h6.54V110H75.8zM75.8 110h2.85v33.33H75.8zM78.65 110h.39v33.33h-.39zM79.04 110h.78v33.33h-.78z" />
    <path fill="red" stroke="#fff" d="M79.82 110h2.52v33.33h-2.52z" />
    <path fill="green" stroke="#fff"
        d="M82.34 76.67h68.16V110H82.34zM82.34 110h1.11v33.33h-1.11zM83.45 110h50.25v33.33H83.45zM83.45 143.33h3.54v33.33h-3.54z" />
    <path fill="green" stroke="#fff"
        d="M86.99 143.33h1.56v33.33h-1.56zM88.55 143.33h3.6v33.33h-3.6zM92.15 143.33h1.65v33.33h-1.65z" />
    <path fill="green" stroke="#fff"
        d="M93.8 143.33h.27v33.33h-.27zM94.07 143.33h.6v33.33h-.6zM94.67 143.33h.72v33.33h-.72zM95.39 143.33h3.27v33.33h-3.27zM98.66 143.33h1.83v33.33h-1.83zM100.49 143.33h.48v33.33h-.48zM100.97 143.33h.87v33.33h-.87zM101.84 143.33h1.05v33.33h-1.05z" />
    <path fill="#0e8600" stroke="#fff" d="M102.89 143.33h1.98v33.33h-1.98z" />
    <path fill="green" stroke="#fff"
        d="M104.87 143.33h1.14v33.33h-1.14zM106.01 143.33h1.83v33.33h-1.83zM107.84 143.33h.42v33.33h-.42zM108.26 143.33h.9v33.33h-.9z" />
    <path fill="green" stroke="#fff"
        d="M109.16 143.33h.99v33.33h-.99zM110.15 143.33h1.02v33.33h-1.02zM111.17 143.33h.57v33.33h-.57zM111.74 143.33h.27v33.33h-.27zM112.01 143.33h.48v33.33h-.48z" />
    <path fill="green" stroke="#fff"
        d="M112.49 143.33h.93v33.33h-.93zM113.42 143.33h2.85v33.33h-2.85zM113.42 176.67h.54V210h-.54z" />
    <path fill="green" stroke="#fff"
        d="M113.96 176.67h.57V210h-.57zM114.53 176.67h.96V210h-.96zM115.49 176.67h.78V210h-.78zM116.27 143.33h1.02v33.33h-1.02zM117.29 143.33h.63v33.33h-.63zM117.92 143.33h1.17v33.33h-1.17zM119.09 143.33h.45v33.33h-.45zM119.54 143.33h1.2v33.33h-1.2z" />
    <path fill="green" stroke="#fff"
        d="M120.74 143.33h1.86v33.33h-1.86zM122.6 143.33h.69v33.33h-.69zM123.29 143.33h.45v33.33h-.45z" />
    <path fill="green" stroke="#fff"
        d="M123.74 143.33h.57v33.33h-.57zM124.31 143.33h.39v33.33h-.39zM124.7 143.33h2.67v33.33h-2.67zM127.37 143.33h.21v33.33h-.21zM127.58 143.33h2.49v33.33h-2.49zM130.07 143.33h2.49v33.33h-2.49zM132.56 143.33h1.14v33.33h-1.14zM133.7 110h3.63v33.33h-3.63z" />
    <path fill="#238f00" stroke="#fff" d="M137.33 110h1.56v33.33h-1.56z" />
    <path fill="green" stroke="#fff" d="M137.33 143.33h.18v33.33h-.18zM137.33 176.67h.18V210h-.18z" />
    <path fill="green" stroke="#fff" d="M137.51 143.33h.18v33.33h-.18zM137.51 176.67h.18V210h-.18z" />
    <path fill="#309500" stroke="#fff" d="M137.69 143.33h1.2v33.33h-1.2z" />
    <path fill="#fa1400" stroke="#fff" d="M137.69 176.67h.21V210h-.21z" />
    <path fill="green" stroke="#fff"
        d="M137.9 176.67h.57V210h-.57zM138.47 176.67h.42V210h-.42zM138.89 110h.51v33.33h-.51zM139.4 110h8.73v33.33h-8.73zM139.4 143.33h.48v33.33h-.48zM139.88 143.33h.87v33.33h-.87zM140.75 143.33h.72v33.33h-.72zM141.47 143.33h2.31v33.33h-2.31zM143.78 143.33h1.44v33.33h-1.44zM145.22 143.33h.66v33.33h-.66zM145.88 143.33h.39v33.33h-.39zM146.27 143.33h.36v33.33h-.36z" />
    <path fill="green" stroke="#fff"
        d="M146.63 143.33h.24v33.33h-.24zM146.87 143.33h.27v33.33h-.27z" />
    <path fill="green" stroke="#fff"
        d="M147.14 143.33h.24v33.33h-.24zM147.38 143.33h.42v33.33h-.42zM147.8 143.33h.33v33.33h-.33zM148.13 110h2.37v33.33h-2.37z" />
    <path fill="red" stroke="#fff"
        d="M150.5 43.33h6.63v33.33h-6.63zM157.14 43.33h136.5v33.33h-136.5zM157.14 76.67h47.13V110h-47.13zM157.14 110h1.2v33.33h-1.2zM158.34 110h.39v33.33h-.39zM158.73 110h2.52v33.33h-2.52zM161.25 110h1.05v33.33h-1.05zM162.3 110h21.12v33.33H162.3zM162.3 143.33h14.31v33.33H162.3zM162.3 176.67h.84V210h-.84z" />
    <path fill="red" stroke="#fff"
        d="M163.14 176.67h.06V210h-.06zM163.2 176.67h.45V210h-.45zM163.65 176.67h1.77V210h-1.77z" />
    <path fill="red" stroke="#fff" d="M165.42 176.67h1.38V210h-1.38zM166.8 176.67h1.11V210h-1.11z" />
    <path fill="red" stroke="#fff"
        d="M167.91 176.67h.84V210h-.84zM168.75 176.67h1.41V210h-1.41zM170.16 176.67h.72V210h-.72zM170.88 176.67h.24V210h-.24zM171.12 176.67h1.74V210h-1.74zM172.86 176.67h1.32V210h-1.32zM174.18 176.67h.99V210h-.99z" />
    <path fill="red" stroke="#fff"
        d="M175.17 176.67h1.05V210h-1.05zM176.22 176.67h.39V210h-.39zM176.61 143.33h4.44v33.33h-4.44zM181.05 143.33h1.44v33.33h-1.44zM182.49 143.33h.93v33.33h-.93zM183.42 110h2.46v33.33h-2.46zM185.88 110h3.09v33.33h-3.09zM188.97 110h4.74v33.33h-4.74zM188.97 143.33h.99v33.33h-.99zM189.96 143.33h.63v33.33h-.63zM190.59 143.33h.63v33.33h-.63zM191.22 143.33h1.29v33.33h-1.29zM192.51 143.33h1.2v33.33h-1.2zM193.71 110h1.11v33.33h-1.11zM193.71 143.33h.33v33.33h-.33z" />
    <path fill="red" stroke="#fff"
        d="M194.04 143.33h.78v33.33h-.78zM194.82 110h.27v33.33h-.27zM195.09 110h4.65v33.33h-4.65zM199.74 110h3.69v33.33h-3.69zM203.43 110h.84v33.33h-.84z" />
    <path fill="#269100" stroke="#fff" d="M204.27 76.67h5.37V110h-5.37z" />
    <path fill="#a9ba00" stroke="#fff" d="M209.64 76.67h43.47V110h-43.47z" />
    <path fill="green" stroke="#fff" d="M209.64 110h.54v33.33h-.54z" />
    <path fill="#ea4c00" stroke="#fff" d="M210.18 110h1.32v33.33h-1.32z" />
    <path fill="green" stroke="#fff" d="M211.5 110h.12v33.33h-.12zM211.5 143.33h.12v33.33h-.12z" />
    <path fill="#5da400" stroke="#fff" d="M211.62 110h3.57v33.33h-3.57z" />
    <path fill="#198c00" stroke="#fff" d="M215.19 110h1.05v33.33h-1.05z" />
    <path fill="#fa1400" stroke="#fff" d="M216.24 110h.84v33.33h-.84z" />
    <path fill="#ea4c00" stroke="#fff" d="M217.08 110h.12v33.33h-.12z" />
    <path fill="green" stroke="#fff" d="M217.2 110h.66v33.33h-.66z" />
    <path fill="#fe0500" stroke="#fff" d="M217.86 110h11.73v33.33h-11.73z" />
    <path fill="green" stroke="#fff"
        d="M229.59 110h.24v33.33h-.24zM229.83 110h.42v33.33h-.42zM230.25 110h.39v33.33h-.39zM230.64 110h.42v33.33h-.42z" />
    <path fill="red" stroke="#fff" d="M231.06 110h.99v33.33h-.99z" />
    <path fill="#d29500" stroke="#fff" d="M232.05 110h.93v33.33h-.93z" />
    <path fill="green" stroke="#fff"
        d="M232.98 110h.33v33.33h-.33zM233.31 110h.12v33.33h-.12zM233.31 143.33h.12v33.33h-.12zM233.43 110h.3v33.33h-.3z" />
    <path fill="#c7b000" stroke="#fff" d="M233.73 110h.36v33.33h-.36z" />
    <path fill="green" stroke="#fff" d="M234.09 110h.18v33.33h-.18zM234.27 110h.63v33.33h-.63z" />
    <path fill="red" stroke="#fff" d="M234.9 110h.36v33.33h-.36z" />
    <path fill="#59a300" stroke="#fff" d="M235.26 110h1.11v33.33h-1.11z" />
    <path fill="green" stroke="#fff"
        d="M236.37 110h.45v33.33h-.45zM236.82 110h.48v33.33h-.48zM237.3 110h.42v33.33h-.42zM237.72 110h.96v33.33h-.96zM237.72 143.33h.96v33.33h-.96z" />
    <path fill="#cda100" stroke="#fff" d="M238.68 110h.66v33.33h-.66z" />
    <path fill="red" stroke="#fff" d="M239.34 110h.24v33.33h-.24z" />
    <path fill="green" stroke="#fff" d="M239.58 110h.3v33.33h-.3z" />
    <path fill="green" stroke="#fff"
        d="M239.88 110h.63v33.33h-.63zM240.51 110h1.41v33.33h-1.41zM241.92 110h2.28v33.33h-2.28zM241.92 143.33h.72v33.33h-.72zM242.64 143.33h1.56v33.33h-1.56z" />
    <path fill="#108800" stroke="#fff" d="M244.2 110h3v33.33h-3z" />
    <path fill="green" stroke="#fff" d="M244.2 143.33h1.02v33.33h-1.02z" />
    <path fill="#1c8d00" stroke="#fff" d="M245.22 143.33h1.98v33.33h-1.98z" />
    <path fill="green" stroke="#fff" d="M247.2 110h.3v33.33h-.3zM247.5 110h.36v33.33h-.36z" />
    <path fill="#138900" stroke="#fff" d="M247.86 110h2.64v33.33h-2.64z" />
    <path fill="green" stroke="#fff" d="M247.86 143.33h.6v33.33h-.6z" />
    <path fill="#198c00" stroke="#fff" d="M248.46 143.33h2.04v33.33h-2.04z" />
    <path fill="#1c8d00" stroke="#fff" d="M250.5 110h.93v33.33h-.93z" />
    <path fill="green" stroke="#fff" d="M251.43 110h1.44v33.33h-1.44zM252.87 110h.24v33.33h-.24z" />
    <path fill="#dc7800" stroke="#fff" d="M253.11 76.67h5.1V110h-5.1z" />
    <path fill="#208e00" stroke="#fff" d="M258.21 76.67h6.93V110h-6.93z" />
    <path fill="green" stroke="#fff"
        d="M258.21 110h.09v33.33h-.09zM258.21 143.33h.09v33.33h-.09zM258.3 110h.15v33.33h-.15zM258.3 143.33h.15v33.33h-.15z" />
    <path fill="#238f00" stroke="#fff" d="M258.45 110h6.57v33.33h-6.57z" />
    <path fill="green" stroke="#fff"
        d="M258.45 143.33h1.86v33.33h-1.86zM260.31 143.33h4.38v33.33h-4.38z" />
    <path fill="red" stroke="#fff" d="M264.69 143.33h.27v33.33h-.27z" />
    <path fill="green" stroke="#fff" d="M264.96 143.33h.06v33.33h-.06zM265.02 110h.12v33.33h-.12z" />
    <path fill="#2d9300" stroke="#fff" d="M265.14 76.67h20.01V110h-20.01z" />
    <path fill="green" stroke="#fff" d="M265.14 110h.9v33.33h-.9z" />
    <path fill="#d58e00" stroke="#fff" d="M266.04 110h.6v33.33h-.6z" />
    <path fill="#459c00" stroke="#fff" d="M266.64 110h1.8v33.33h-1.8z" />
    <path fill="green" stroke="#fff" d="M268.44 110h1.14v33.33h-1.14zM269.58 110h.45v33.33h-.45z" />
    <path fill="#c9ab00" stroke="#fff" d="M270.03 110h.69v33.33h-.69z" />
    <path fill="green" stroke="#fff" d="M270.72 110h.36v33.33h-.36z" />
    <path fill="#1c8d00" stroke="#fff" d="M271.08 110h3.72v33.33h-3.72z" />
    <path fill="green" stroke="#fff"
        d="M274.8 110h.36v33.33h-.36zM275.16 110h.57v33.33h-.57zM275.73 110h.54v33.33h-.54z" />
    <path fill="green" stroke="#fff" d="M276.27 110h1.74v33.33h-1.74z" />
    <path fill="red" stroke="#fff" d="M278.01 110h.57v33.33h-.57z" />
    <path fill="green" stroke="#fff" d="M278.58 110h6.51v33.33h-6.51zM285.09 110h.06v33.33h-.06z" />
    <path fill="red" stroke="#fff"
        d="M285.15 76.67h7.02V110h-7.02zM285.15 110h.42v33.33h-.42zM285.57 110h.39v33.33h-.39z" />
    <path fill="#ea4c00" stroke="#fff" d="M285.96 110h.12v33.33h-.12z" />
    <path fill="red" stroke="#fff" d="M286.08 110h2.7v33.33h-2.7z" />
    <path fill="#ea4c00" stroke="#fff" d="M288.78 110h.12v33.33h-.12z" />
    <path fill="red" stroke="#fff" d="M288.9 110h.21v33.33h-.21z" />
    <path fill="#ea4c00" stroke="#fff" d="M289.11 110h.12v33.33h-.12zM289.23 110h.12v33.33h-.12z" />
    <path fill="red" stroke="#fff" d="M289.35 110h.27v33.33h-.27z" />
    <path fill="#ea4c00" stroke="#fff" d="M289.62 110h.12v33.33h-.12z" />
    <path fill="green" stroke="#fff" d="M289.74 110h.12v33.33h-.12z" />
    <path fill="#339600" stroke="#fff" d="M289.86 110h1.17v33.33h-1.17z" />
    <path fill="red" stroke="#fff" d="M291.03 110h.27v33.33h-.27zM291.3 110h.75v33.33h-.75z" />
    <path fill="#ea4c00" stroke="#fff" d="M292.05 110h.12v33.33h-.12z" />
    <path fill="#76ac00" stroke="#fff" d="M292.17 76.67h1.47V110h-1.47z" />
    <path fill="green" stroke="#fff" d="M293.64 43.33h.36v33.33h-.36z" />
</svg>