<svg xmlns="http://www.w3.org/2000/svg" width="280" height="200" aria-hidden="true"
    baseProfile="full">
    <circle cx="140" cy="100" r="14" fill="red" stroke="#fff" />
    <path fill="red" stroke="#fff" d="M140 114v14a28 28 0 0 0 2.2-56L141 86a14 14 0 0 1-1.1 28z" />
    <path fill="red" stroke="#fff"
        d="M140 128v14a42 42 0 0 0 37.5-23l-12.5-6.4a28 28 0 0 1-25 15.4z" />
    <path fill="red" stroke="#fff" d="M140 142v14a56 56 0 0 0 5.6-.3l-1.4-14a42 42 0 0 1-4.2.3z" />
    <path fill="red" stroke="#fff"
        d="m144.2 141.8 1.4 14a56 56 0 0 0 6.3-1l-3-13.8a42 42 0 0 1-4.7.8zM148.9 141l3 13.7a56 56 0 0 0 4.4-1.1l-4-13.4a42 42 0 0 1-3.4.8z" />
    <path fill="red" stroke="#fff"
        d="m152.2 140.2 4.1 13.4a56 56 0 0 0 1-.4L153 140a42 42 0 0 1-.8.3zM153 140l4.4 13.2a56 56 0 0 0 13.3-6.3L163 135a42 42 0 0 1-10 4.8z" />
    <path fill="red" stroke="#fff"
        d="m157.4 153.2 4.3 13.4a70 70 0 0 0 1.1-.4l-4.6-13.3a56 56 0 0 1-.8.3z" />
    <path fill="red" stroke="#fff"
        d="m158.2 153 4.6 13.2a70 70 0 0 0 .6-.2l-4.7-13.2a56 56 0 0 1-.5.1z" />
    <path fill="red" stroke="#fff"
        d="m158.7 152.8 4.7 13.2a70 70 0 0 0 .6-.2l-4.8-13.2a56 56 0 0 1-.5.2zM159.2 152.6l4.8 13.2a70 70 0 0 0 .5-.2l-4.9-13.2a56 56 0 0 1-.4.2zM159.6 152.4l5 13.2a70 70 0 0 0 3.6-1.5l-5.7-12.8a56 56 0 0 1-2.9 1.1z" />
    <path fill="red" stroke="#fff"
        d="m162.5 151.3 5.7 12.8a70 70 0 0 0 .7-.4l-5.8-12.7a56 56 0 0 1-.6.3zM163.1 151l5.8 12.7a70 70 0 0 0 .7-.3l-5.9-12.7a56 56 0 0 1-.6.3zM163.7 150.7l6 12.7a70 70 0 0 0 .6-.3l-6-12.6a56 56 0 0 1-.6.2z" />
    <path fill="red" stroke="#fff"
        d="m164.2 150.5 6 12.6a70 70 0 0 0 1-.4l-6.3-12.5a56 56 0 0 1-.7.3z" />
    <path fill="red" stroke="#fff"
        d="m165 150.2 6.1 12.5a70 70 0 0 0 .8-.4l-6.4-12.5a56 56 0 0 1-.6.4z" />
    <path fill="red" stroke="#fff"
        d="m165.5 149.8 6.4 12.5a70 70 0 0 0 .6-.3l-6.5-12.4a56 56 0 0 1-.5.2z" />
    <path fill="red" stroke="#fff"
        d="m166 149.6 6.5 12.4a70 70 0 0 0 .6-.3l-6.6-12.4a56 56 0 0 1-.5.3z" />
    <path fill="red" stroke="#fff"
        d="m166.5 149.3 6.6 12.4a70 70 0 0 0 2.1-1.2l-7-12.1a56 56 0 0 1-1.7 1zM168.2 148.4l7 12.1a70 70 0 0 0 .8-.5l-7.2-12a56 56 0 0 1-.6.4z" />
    <path fill="red" stroke="#fff"
        d="m168.8 148 7.2 12a70 70 0 0 0 .6-.3l-7.3-12a56 56 0 0 1-.5.3zM169.3 147.7l7.3 12a70 70 0 0 0 .6-.4l-7.4-11.9a56 56 0 0 1-.5.3z" />
    <path fill="red" stroke="#fff"
        d="m169.8 147.4 7.4 11.9a70 70 0 0 0 .3-.2l-7.5-11.8a56 56 0 0 1-.2.1z" />
    <path fill="red" stroke="#fff"
        d="m170 147.3 7.5 11.8a70 70 0 0 0 .8-.5l-7.6-11.7a56 56 0 0 1-.7.4zM163 135.1l7.7 11.8a56 56 0 0 0 .4-.3l-7.8-11.7a42 42 0 0 1-.3.2z" />
    <path fill="red" stroke="#fff"
        d="m163.3 135 7.8 11.6a56 56 0 0 0 7.7-6.2l-9.7-10.1a42 42 0 0 1-5.8 4.6z" />
    <path fill="red" stroke="#fff"
        d="m171 146.6 7.9 11.6a70 70 0 0 0 1.9-1.3l-8.2-11.4a56 56 0 0 1-1.5 1z" />
    <path fill="red" stroke="#fff"
        d="m172.6 145.5 8.2 11.4a70 70 0 0 0 2.4-1.8l-8.7-11a56 56 0 0 1-1.9 1.4z" />
    <path fill="red" stroke="#fff"
        d="m174.5 144 8.7 11.1a70 70 0 0 0 2.3-1.9l-9.1-10.6a56 56 0 0 1-1.9 1.5z" />
    <path fill="red" stroke="#fff"
        d="m176.4 142.6 9.1 10.6a70 70 0 0 0 1.2-1l-9.4-10.5a56 56 0 0 1-.9.9zM177.3 141.7l9.4 10.5a70 70 0 0 0 1.8-1.7l-9.7-10a56 56 0 0 1-1.5 1.2zM169 130.3l9.8 10.1a56 56 0 0 0 1-1l-10-9.8a42 42 0 0 1-.7.7z" />
    <path fill="red" stroke="#fff"
        d="m169.8 129.6 10 9.8a56 56 0 0 0 3-3.2l-10.8-9a42 42 0 0 1-2.2 2.4z" />
    <path fill="red" stroke="#fff"
        d="m179.8 139.4 10 9.9a70 70 0 0 0 2.3-2.5l-10.4-9.4a56 56 0 0 1-2 2z" />
    <path fill="red" stroke="#fff"
        d="m181.7 137.4 10.4 9.4a70 70 0 0 0 1.3-1.5l-10.7-9a56 56 0 0 1-1 1.1zM172 127.2l10.7 9a56 56 0 0 0 .3-.3l-10.8-9a42 42 0 0 1-.2.3z" />
    <path fill="red" stroke="#fff"
        d="m172.2 127 10.8 9a56 56 0 0 0 3.5-4.8l-11.6-7.8a42 42 0 0 1-2.7 3.5z" />
    <path fill="red" stroke="#fff"
        d="m174.9 123.4 11.6 7.8a56 56 0 0 0 2.3-3.7l-12.2-7a42 42 0 0 1-1.7 2.9z" />
    <path fill="red" stroke="#fff"
        d="m176.6 120.6 12.2 6.9a56 56 0 0 0 1.2-2.2l-12.5-6.4a42 42 0 0 1-.9 1.7z" />
    <path fill="#d78700" stroke="#fff"
        d="m165 112.6 12.5 6.3a42 42 0 0 0 2.5-6.2l-13.3-4.2a28 28 0 0 1-1.7 4.1z" />
    <path fill="red" stroke="#fff"
        d="m166.7 108.5 13.3 4.2a42 42 0 0 0 1.3-5l-13.8-2.6a28 28 0 0 1-.8 3.4zM180 112.7l13.4 4.2a56 56 0 0 0 .3-1l-13.4-4a42 42 0 0 1-.3.8z" />
    <path fill="red" stroke="#fff"
        d="m180.3 112 13.4 4a56 56 0 0 0 .9-3.5l-13.7-3.1a42 42 0 0 1-.6 2.6z" />
    <path fill="red" stroke="#fff" d="m193.7 116 13.4 4a70 70 0 0 0 .1-.4l-13.4-4a56 56 0 0 1-.1.4z" />
    <path fill="red" stroke="#fff"
        d="m193.8 115.7 13.4 3.9a70 70 0 0 0 .1-.4l-13.5-3.8a56 56 0 0 1 0 .3z" />
    <path fill="red" stroke="#fff"
        d="m193.8 115.4 13.5 3.8a70 70 0 0 0 .1-.3L194 115a56 56 0 0 1 0 .3z" />
    <path fill="red" stroke="#fff"
        d="m194 115 13.4 3.9a70 70 0 0 0 0-.3L194 115a56 56 0 0 1 0 .2zM194 115l13.5 3.6a70 70 0 0 0 .2-.9l-13.5-3.5a56 56 0 0 1-.2.7z" />
    <path fill="red" stroke="#fff"
        d="m194.2 114.2 13.5 3.5a70 70 0 0 0 .1-.3l-13.5-3.5a56 56 0 0 1-.1.3zM194.3 113.9l13.5 3.5a70 70 0 0 0 .1-.5l-13.6-3.4a56 56 0 0 1 0 .4z" />
    <path fill="red" stroke="#fff"
        d="M194.3 113.5 208 117a70 70 0 0 0 .3-1.2l-13.6-3.2a56 56 0 0 1-.3 1zM181 109.4l13.6 3.1a56 56 0 0 0 .5-2.3l-13.8-2.5a42 42 0 0 1-.4 1.7zM167.5 105.1l13.8 2.6a42 42 0 0 0 .7-6.1l-14-.6a28 28 0 0 1-.5 4.1z" />
    <path fill="red" stroke="#fff"
        d="m181.3 107.7 13.8 2.5a56 56 0 0 0 .5-3.5l-13.9-1.7a42 42 0 0 1-.4 2.7z" />
    <path fill="red" stroke="#fff"
        d="m181.7 105 13.9 1.7a56 56 0 0 0 0-.5l-13.9-1.5a42 42 0 0 1 0 .3zM181.7 104.7l14 1.5a56 56 0 0 0 0-1l-13.9-1.3a42 42 0 0 1 0 .8z" />
    <path fill="red" stroke="#fff"
        d="m181.8 104 14 1.2a56 56 0 0 0 .2-3.1l-14-.5a42 42 0 0 1-.2 2.3z" />
    <path fill="green" stroke="#fff"
        d="m168 101 14 .6A42 42 0 0 0 143.3 58l-1.1 14a28 28 0 0 1 25.8 29z" />
    <path fill="green" stroke="#fff" d="m182 101.6 14 .5a56 56 0 0 0 0-1.4l-14-.2a42 42 0 0 1 0 1z" />
    <path fill="green" stroke="#fff"
        d="m182 100.5 14 .2a56 56 0 0 0-31.4-51l-6.1 12.6a42 42 0 0 1 23.5 38.2z" />
    <path fill="green" stroke="#fff"
        d="m196 100.7 14 .2a70 70 0 0 0-.2-5.6l-14 1a56 56 0 0 1 .2 4.4z" />
    <path fill="green" stroke="#fff"
        d="m195.9 96.2 14-.9a70 70 0 0 0-.3-2.4l-13.9 1.4a56 56 0 0 1 .2 2z" />
    <path fill="green" stroke="#fff"
        d="m195.7 94.3 14-1.4a70 70 0 0 0-.9-5.6l-13.7 2.5a56 56 0 0 1 .6 4.5z" />
    <path fill="green" stroke="#fff"
        d="m195 89.8 13.8-2.5a70 70 0 0 0-.5-2.6l-13.6 3a56 56 0 0 1 .4 2.1z" />
    <path fill="green" stroke="#fff"
        d="m194.7 87.8 13.6-3a70 70 0 0 0 0-.5l-13.7 3.1a56 56 0 0 1 0 .4z" />
    <path fill="green" stroke="#fff"
        d="m194.6 87.4 13.6-3a70 70 0 0 0-.2-1l-13.6 3.3a56 56 0 0 1 .2.7z" />
    <path fill="green" stroke="#fff"
        d="m194.4 86.7 13.6-3.3a70 70 0 0 0-.3-1.1l-13.5 3.5a56 56 0 0 1 .2 1z" />
    <path fill="green" stroke="#fff"
        d="m194.2 85.8 13.5-3.5a70 70 0 0 0-1.5-5L193 82a56 56 0 0 1 1.2 4z" />
    <path fill="green" stroke="#fff"
        d="m193 81.9 13.2-4.5a70 70 0 0 0-1-2.7l-13 5a56 56 0 0 1 .8 2.2z" />
    <path fill="green" stroke="#fff"
        d="m192.2 79.7 13-5a70 70 0 0 0-.2-.7l-13 5.2a56 56 0 0 1 .2.5z" />
    <path fill="green" stroke="#fff"
        d="m192 79.2 13-5.2a70 70 0 0 0-.5-1.3l-13 5.5a56 56 0 0 1 .5 1z" />
    <path fill="green" stroke="#fff"
        d="m191.6 78.2 12.9-5.5a70 70 0 0 0-.7-1.5L191 77a56 56 0 0 1 .6 1.2z" />
    <path fill="#0e8600" stroke="#fff"
        d="m191 77 12.8-5.8a70 70 0 0 0-1.3-2.8L190 74.7a56 56 0 0 1 1 2.3z" />
    <path fill="green" stroke="#fff"
        d="m190 74.7 12.5-6.3a70 70 0 0 0-.9-1.6l-12.3 6.6a56 56 0 0 1 .7 1.3z" />
    <path fill="green" stroke="#fff"
        d="m189.3 73.4 12.3-6.6a70 70 0 0 0-1.4-2.5l-12 7.1a56 56 0 0 1 1.1 2z" />
    <path fill="green" stroke="#fff"
        d="m188.2 71.4 12-7a70 70 0 0 0-.3-.7l-12 7.3a56 56 0 0 1 .3.4z" />
    <path fill="green" stroke="#fff"
        d="m187.9 71 12-7.3a70 70 0 0 0-.8-1.2L187.3 70a56 56 0 0 1 .6 1z" />
    <path fill="green" stroke="#fff"
        d="m187.3 70 11.8-7.5a70 70 0 0 0-.8-1.3L186.6 69a56 56 0 0 1 .7 1z" />
    <path fill="green" stroke="#fff"
        d="m186.6 69 11.7-7.8a70 70 0 0 0-1-1.3L186 68a56 56 0 0 1 .7 1z" />
    <path fill="green" stroke="#fff"
        d="m186 68 11.4-8a70 70 0 0 0-.5-.8l-11.4 8.1a56 56 0 0 1 .4.6zM185.5 67.3l11.4-8.1a70 70 0 0 0-.3-.4l-11.3 8.3a56 56 0 0 1 .2.2z" />
    <path fill="green" stroke="#fff"
        d="m185.3 67 11.3-8.2a70 70 0 0 0-.4-.6l-11.3 8.4a56 56 0 0 1 .4.5z" />
    <path fill="green" stroke="#fff"
        d="m185 66.6 11.2-8.4a70 70 0 0 0-1-1.1l-11 8.6a56 56 0 0 1 .7.9z" />
    <path fill="green" stroke="#fff"
        d="m184.2 65.7 11-8.6a70 70 0 0 0-2.8-3.5L182 63a56 56 0 0 1 2.3 2.8zM195.3 57l11-8.5a84 84 0 0 0-.6-.8l-11 8.7a70 70 0 0 1 .6.7z" />
    <path fill="green" stroke="#fff"
        d="m194.8 56.4 11-8.7a84 84 0 0 0-.8-.9l-10.8 8.9a70 70 0 0 1 .6.7z" />
    <path fill="green" stroke="#fff"
        d="m194.2 55.7 10.8-8.9a84 84 0 0 0-1.1-1.3l-10.7 9a70 70 0 0 1 1 1.2z" />
    <path fill="green" stroke="#fff"
        d="m193.2 54.5 10.7-9a84 84 0 0 0-1-1.2l-10.5 9.3a70 70 0 0 1 .8 1z" />
    <path fill="green" stroke="#fff"
        d="m182 62.9 10.4-9.3a70 70 0 0 0-1-1.2L181 62a56 56 0 0 1 .8 1z" />
    <path fill="green" stroke="#fff"
        d="m181 62 10.4-9.6a70 70 0 0 0-.7-.7l-10.2 9.7a56 56 0 0 1 .6.5zM180.5 61.4l10.2-9.7a70 70 0 0 0-1.3-1.3l-9.9 10a56 56 0 0 1 1 1z" />
    <path fill="green" stroke="#fff"
        d="m179.5 60.3 9.9-9.9a70 70 0 0 0-.5-.5l-9.8 10a56 56 0 0 1 .4.4z" />
    <path fill="green" stroke="#fff"
        d="m179.1 60 9.8-10.1a70 70 0 0 0-1.4-1.3L178 58.9a56 56 0 0 1 1.1 1z" />
    <path fill="green" stroke="#fff"
        d="m178 58.9 9.5-10.3a70 70 0 0 0-2.2-2l-9 10.7A56 56 0 0 1 178 59z" />
    <path fill="green" stroke="#fff"
        d="m176.3 57.3 9-10.6a70 70 0 0 0-.8-.7l-8.9 10.8a56 56 0 0 1 .7.5z" />
    <path fill="green" stroke="#fff"
        d="m175.6 56.8 9-10.8a70 70 0 0 0-.6-.5l-8.8 11a56 56 0 0 1 .4.3zM175.2 56.4l8.8-10.9a70 70 0 0 0-.7-.5l-8.7 11a56 56 0 0 1 .6.4zM174.6 56l8.7-11a70 70 0 0 0-.5-.4l-8.6 11a56 56 0 0 1 .4.4z" />
    <path fill="green" stroke="#fff"
        d="m174.2 55.7 8.6-11.1a70 70 0 0 0-3.4-2.5l-7.9 11.6a56 56 0 0 1 2.7 2z" />
    <path fill="green" stroke="#fff"
        d="m171.5 53.7 7.9-11.6a70 70 0 0 0-.3-.2l-7.8 11.7a56 56 0 0 1 .2.1z" />
    <path fill="green" stroke="#fff"
        d="m171.3 53.6 7.8-11.7a70 70 0 0 0-3.3-2l-7.2 12a56 56 0 0 1 2.7 1.7zM168.6 51.9l7.2-12a70 70 0 0 0-3.4-2l-6.5 12.5a56 56 0 0 1 2.7 1.5z" />
    <path fill="green" stroke="#fff"
        d="m166 50.4 6.4-12.5a70 70 0 0 0-1.6-.8l-6.2 12.6a56 56 0 0 1 1.3.7zM158.5 62.3l6.1-12.6a56 56 0 0 0-4.1-1.8l-5.2 13a42 42 0 0 1 3.2 1.4z" />
    <path fill="#238f00" stroke="#fff"
        d="m155.3 60.9 5.2-13a56 56 0 0 0-1.9-.7L154 60.4a42 42 0 0 1 1.3.5z" />
    <path fill="green" stroke="#fff"
        d="m160.5 47.9 5-13a70 70 0 0 0-.2-.2l-5 13a56 56 0 0 1 .2.2zM165.6 34.8l5-13a84 84 0 0 0-.2-.1l-5 13a70 70 0 0 1 .2.1z" />
    <path fill="green" stroke="#fff"
        d="m160.2 47.8 5.1-13a70 70 0 0 0-.3-.2l-5 13.1a56 56 0 0 1 .2 0zM165.3 34.7l5-13a84 84 0 0 0-.2-.1l-5 13a70 70 0 0 1 .2.1z" />
    <path fill="#309500" stroke="#fff"
        d="m160 47.7 5-13a70 70 0 0 0-1.7-.7l-4.7 13.2a56 56 0 0 1 1.4.5z" />
    <path fill="#fa1400" stroke="#fff"
        d="m165 34.6 5-13a84 84 0 0 0-.3-.2l-5 13.1a70 70 0 0 1 .3.1z" />
    <path fill="green" stroke="#fff"
        d="m164.7 34.5 5-13a84 84 0 0 0-1-.5l-4.8 13.2a70 70 0 0 1 .8.3z" />
    <path fill="green" stroke="#fff"
        d="m163.9 34.2 4.8-13.2a84 84 0 0 0-.8-.2L163.3 34a70 70 0 0 1 .6.2zM154 60.4l4.6-13.2a56 56 0 0 0-.6-.2l-4.5 13.2a42 42 0 0 1 .5.2z" />
    <path fill="green" stroke="#fff"
        d="M153.5 60.2 158 47a56 56 0 0 0-10.7-2.5l-1.8 13.9a42 42 0 0 1 8 1.8z" />
    <path fill="green" stroke="#fff"
        d="m158 47 4.5-13.3a70 70 0 0 0-.7-.2l-4.4 13.3a56 56 0 0 1 .6.2z" />
    <path fill="green" stroke="#fff"
        d="m157.4 46.8 4.4-13.3a70 70 0 0 0-1.3-.4l-4.1 13.4a56 56 0 0 1 1 .3z" />
    <path fill="green" stroke="#fff"
        d="m156.4 46.5 4.1-13.4a70 70 0 0 0-1-.4l-4 13.5a56 56 0 0 1 .9.3z" />
    <path fill="green" stroke="#fff"
        d="m155.5 46.2 4-13.5a70 70 0 0 0-3.6-.9l-3.2 13.7a56 56 0 0 1 2.8.7zM152.7 45.5l3.2-13.7a70 70 0 0 0-2.2-.4L151 45a56 56 0 0 1 1.7.4z" />
    <path fill="green" stroke="#fff"
        d="m151 45 2.7-13.6a70 70 0 0 0-1-.2L150 44.9a56 56 0 0 1 .9.2z" />
    <path fill="green" stroke="#fff"
        d="m150.1 45 2.6-13.8a70 70 0 0 0-.6-.2l-2.4 13.8a56 56 0 0 1 .4.1zM149.7 44.8 152 31a70 70 0 0 0-.6 0l-2.3 13.8a56 56 0 0 1 .5 0z" />
    <path fill="green" stroke="#fff"
        d="m149.2 44.8 2.3-13.8a70 70 0 0 0-.4-.1L149 44.7a56 56 0 0 1 .3 0zM149 44.7 151 31a70 70 0 0 0-.4 0l-2.1 13.8a56 56 0 0 1 .3 0z" />
    <path fill="green" stroke="#fff"
        d="m148.6 44.7 2.1-13.9a70 70 0 0 0-.3 0l-2.1 13.8a56 56 0 0 1 .3 0z" />
    <path fill="green" stroke="#fff"
        d="m148.3 44.6 2-13.8a70 70 0 0 0-.6-.1l-2 13.8a56 56 0 0 1 .6.1z" />
    <path fill="green" stroke="#fff"
        d="m147.8 44.5 1.9-13.8a70 70 0 0 0-.5 0l-1.9 13.8a56 56 0 0 1 .5 0zM145.5 58.4l1.8-14a56 56 0 0 0-3-.2l-1 14a42 42 0 0 1 2.2.2z" />
    <path fill="red" stroke="#fff"
        d="m141.1 86 1-14a28 28 0 0 0-4 0l1 14a14 14 0 0 1 2 0zM139 86l-1-14a28 28 0 0 0 1.8 56v-14a14 14 0 0 1-.8-28z" />
    <path fill="red" stroke="#fff" d="m138 72-1-13.9A42 42 0 0 0 102 82l12.7 6A28 28 0 0 1 138 72z" />
    <path fill="red" stroke="#fff" d="m137 58.1-1-14a56 56 0 0 0-1.4.2l1.3 13.9a42 42 0 0 1 1.1-.1z" />
    <path fill="red" stroke="#fff" d="m136 58.2-1.4-14a56 56 0 0 0-.5.1l1.5 14a42 42 0 0 1 .3-.1z" />
    <path fill="red" stroke="#fff"
        d="M135.6 58.2 134 44.3a56 56 0 0 0-3.2.4l2.3 13.9a42 42 0 0 1 2.4-.4z" />
    <path fill="red" stroke="#fff"
        d="m133.2 58.6-2.3-13.9a56 56 0 0 0-1.3.3l2.6 13.7a42 42 0 0 1 1-.1z" />
    <path fill="red" stroke="#fff"
        d="M132.2 58.7 129.6 45a56 56 0 0 0-24 10.8l8.6 11a42 42 0 0 1 18-8z" />
    <path fill="red" stroke="#fff"
        d="M129.6 45 127 31.2a70 70 0 0 0-21 7.6l6.8 12.3a56 56 0 0 1 16.8-6.1z" />
    <path fill="red" stroke="#fff"
        d="m127 31.2-2.5-13.7a84 84 0 0 0-1.6.3l2.9 13.7a70 70 0 0 1 1.2-.3zM125.8 31.5l-2.9-13.7a84 84 0 0 0-.1 0l2.9 13.7zM125.7 31.5l-3-13.7a84 84 0 0 0-.7.2l3 13.6a70 70 0 0 1 .7-.1z" />
    <path fill="red" stroke="#fff"
        d="M125 31.6 122 18a84 84 0 0 0-3.3.7l3.6 13.6a70 70 0 0 1 2.7-.7z" />
    <path fill="red" stroke="#fff"
        d="m122.3 32.3-3.6-13.6a84 84 0 0 0-2.5.7l4 13.5a70 70 0 0 1 2-.6zM120.2 32.9l-4-13.5a84 84 0 0 0-2 .7l4.3 13.3a70 70 0 0 1 1.7-.5z" />
    <path fill="red" stroke="#fff"
        d="M118.5 33.4 114.2 20a84 84 0 0 0-1.5.5l4.6 13.2a70 70 0 0 1 1.2-.4zM117.3 33.8l-4.6-13.2a84 84 0 0 0-2.5.9l5 13a70 70 0 0 1 2-.7zM115.2 34.5l-5-13a84 84 0 0 0-1.3.5l5.2 13a70 70 0 0 1 1-.5z" />
    <path fill="red" stroke="#fff"
        d="M114.1 35 109 22a84 84 0 0 0-.4.1l5.3 13a70 70 0 0 1 .3-.1zM113.8 35.1l-5.3-13a84 84 0 0 0-3 1.3l5.8 12.8a70 70 0 0 1 2.5-1.1z" />
    <path fill="red" stroke="#fff"
        d="m111.3 36.2-5.8-12.8a84 84 0 0 0-2.2 1l6 12.7a70 70 0 0 1 2-1z" />
    <path fill="red" stroke="#fff"
        d="m109.4 37-6.1-12.5a84 84 0 0 0-1.7.8l6.4 12.4a70 70 0 0 1 1.4-.6zM108 37.7l-6.4-12.4a84 84 0 0 0-1.8 1l6.7 12.2a70 70 0 0 1 1.5-.8z" />
    <path fill="red" stroke="#fff"
        d="m106.5 38.5-6.7-12.3a84 84 0 0 0-.6.4l6.8 12.2a70 70 0 0 1 .5-.3zM112.8 51 106 38.9a70 70 0 0 0-6 3.7l8 11.5a56 56 0 0 1 4.8-3z" />
    <path fill="red" stroke="#fff"
        d="m108 54-8-11.5a70 70 0 0 0-1.8 1.3l8.4 11.3A56 56 0 0 1 108 54z" />
    <path fill="red" stroke="#fff"
        d="m106.6 55-8.4-11.2a70 70 0 0 0-1.1.9l8.6 11a56 56 0 0 1 .9-.6zM114.2 66.8l-8.5-11a56 56 0 0 0-2.4 2l9.2 10.5a42 42 0 0 1 1.7-1.5z" />
    <path fill="red" stroke="#fff"
        d="m112.5 68.3-9.2-10.6a56 56 0 0 0-2.9 2.7l10 9.9a42 42 0 0 1 2-2z" />
    <path fill="red" stroke="#fff"
        d="m110.3 70.3-9.9-10a56 56 0 0 0-4 4.5l11 8.8a42 42 0 0 1 3-3.3z" />
    <path fill="red" stroke="#fff" d="m100.4 60.4-9.9-10a70 70 0 0 0-1 1.2l10 9.7a56 56 0 0 1 1-1z" />
    <path fill="red" stroke="#fff"
        d="m99.6 61.3-10.1-9.7a70 70 0 0 0-.7.7L99 61.8a56 56 0 0 1 .6-.5z" />
    <path fill="red" stroke="#fff"
        d="m99 61.8-10.2-9.5a70 70 0 0 0-.7.7l10.4 9.4a56 56 0 0 1 .5-.6zM98.5 62.4 88 53a70 70 0 0 0-1.3 1.5l10.6 9.1a56 56 0 0 1 1-1.2z" />
    <path fill="red" stroke="#fff"
        d="m97.4 63.6-10.6-9a70 70 0 0 0-1.2 1.4l10.8 8.8a56 56 0 0 1 1-1.2zM107.3 73.6l-10.9-8.8a56 56 0 0 0-.8 1l11 8.6a42 42 0 0 1 .7-.8z" />
    <path fill="red" stroke="#fff" d="M96.4 64.8 85.6 56a70 70 0 0 0-.4.4l11 8.7a56 56 0 0 1 .2-.3z" />
    <path fill="red" stroke="#fff"
        d="m96.2 65.1-11-8.7a70 70 0 0 0-.7 1l11 8.5a56 56 0 0 1 .7-.8zM106.7 74.4 95.6 66a56 56 0 0 0-.2.3l11.1 8.4a42 42 0 0 1 .2-.2z" />
    <path fill="red" stroke="#fff"
        d="m106.5 74.6-11.1-8.4A56 56 0 0 0 92 71l12 7.2a42 42 0 0 1 2.4-3.6z" />
    <path fill="red" stroke="#fff"
        d="M104 78.2 92.2 71a56 56 0 0 0-2.2 4l12.5 6.3a42 42 0 0 1 1.7-3z" />
    <path fill="red" stroke="#fff"
        d="M102.4 81.3 89.9 75a56 56 0 0 0-.5 1l12.7 5.9a42 42 0 0 1 .3-.7z" />
    <path fill="#269100" stroke="#fff"
        d="m114.7 88-12.6-6a42 42 0 0 0-2 4.7l13.3 4.4a28 28 0 0 1 1.3-3.1z" />
    <path fill="#a9ba00" stroke="#fff"
        d="m113.4 91.1-13.2-4.4a42 42 0 0 0 6.4 38.8l11.2-8.5a28 28 0 0 1-4.4-25.9z" />
    <path fill="green" stroke="#fff"
        d="m100.2 86.7-13.3-4.4a56 56 0 0 0-.2.6l13.3 4.3a42 42 0 0 1 .2-.5z" />
    <path fill="#ea4c00" stroke="#fff"
        d="m100 87.2-13.3-4.3a56 56 0 0 0-.5 1.6l13.4 3.9a42 42 0 0 1 .4-1.2z" />
    <path fill="green" stroke="#fff"
        d="m99.6 88.4-13.4-4a56 56 0 0 0 0 .2l13.4 3.9a42 42 0 0 1 0-.1z" />
    <path fill="green" stroke="#fff"
        d="m86.2 84.5-13.5-3.9a70 70 0 0 0 0 .2L86 84.6a56 56 0 0 1 0-.1z" />
    <path fill="#5da400" stroke="#fff"
        d="m99.6 88.5-13.5-3.9a56 56 0 0 0-1 4.4l13.7 2.7a42 42 0 0 1 .8-3.2z" />
    <path fill="#198c00" stroke="#fff"
        d="M98.8 91.7 85.1 89a56 56 0 0 0-.3 1.3l13.8 2.4a42 42 0 0 1 .2-1z" />
    <path fill="#fa1400" stroke="#fff"
        d="m98.6 92.7-13.8-2.4a56 56 0 0 0-.1 1l13.8 2.2a42 42 0 0 1 .1-.8z" />
    <path fill="#ea4c00" stroke="#fff"
        d="m98.5 93.5-13.8-2.2a56 56 0 0 0 0 .2l13.8 2.1a42 42 0 0 1 0-.1z" />
    <path fill="green" stroke="#fff"
        d="m98.5 93.6-13.8-2.1a56 56 0 0 0-.2.8l13.9 2a42 42 0 0 1 0-.7z" />
    <path fill="#fe0500" stroke="#fff"
        d="m98.4 94.2-13.9-1.9a56 56 0 0 0 0 14.7l13.8-1.7a42 42 0 0 1 .1-11z" />
    <path fill="green" stroke="#fff"
        d="M98.3 105.3 84.4 107a56 56 0 0 0 0 .3l14-1.8a42 42 0 0 1 0-.2z" />
    <path fill="green" stroke="#fff"
        d="m98.4 105.5-14 1.8a56 56 0 0 0 .1.5l14-2a42 42 0 0 1-.1-.3zM98.4 105.9l-13.9 2a56 56 0 0 0 .1.4l13.9-2a42 42 0 0 1 0-.4z" />
    <path fill="green" stroke="#fff"
        d="m98.5 106.2-13.9 2.1a56 56 0 0 0 .1.5l13.8-2.2a42 42 0 0 1 0-.4z" />
    <path fill="red" stroke="#fff"
        d="m98.5 106.6-13.8 2.2a56 56 0 0 0 .2 1.3l13.8-2.6a42 42 0 0 1-.2-.9z" />
    <path fill="#d29500" stroke="#fff"
        d="m98.7 107.5-13.8 2.6a56 56 0 0 0 .2 1.1l13.7-2.8a42 42 0 0 1-.1-.9z" />
    <path fill="green" stroke="#fff"
        d="m98.8 108.4-13.7 2.8a56 56 0 0 0 .1.4l13.7-2.9a42 42 0 0 1 0-.3zM99 108.7l-13.8 3 13.7-2.9z" />
    <path fill="green" stroke="#fff"
        d="m85.2 111.6-13.7 3a70 70 0 0 0 0 .1l13.7-3zM99 108.8l-13.8 3a56 56 0 0 0 .1.3l13.7-3a42 42 0 0 1 0-.3z" />
    <path fill="#c7b000" stroke="#fff"
        d="m99 109.1-13.7 3a56 56 0 0 0 .1.5l13.7-3.2a42 42 0 0 1-.1-.3z" />
    <path fill="green" stroke="#fff"
        d="m99 109.4-13.6 3.2a56 56 0 0 0 0 .2l13.7-3.2a42 42 0 0 1 0-.2z" />
    <path fill="green" stroke="#fff"
        d="m99.1 109.6-13.6 3.2a56 56 0 0 0 .2.8l13.5-3.4a42 42 0 0 1 0-.6z" />
    <path fill="red" stroke="#fff"
        d="m99.2 110.2-13.5 3.4a56 56 0 0 0 0 .4l13.6-3.5a42 42 0 0 1 0-.3z" />
    <path fill="#59a300" stroke="#fff"
        d="M99.3 110.5 85.8 114a56 56 0 0 0 .3 1.3l13.5-3.8a42 42 0 0 1-.3-1z" />
    <path fill="green" stroke="#fff"
        d="m99.6 111.5-13.5 3.8a56 56 0 0 0 .2.6l13.4-4a42 42 0 0 1 0-.4zM99.7 112l-13.4 3.9a56 56 0 0 0 .2.6l13.4-4.2a42 42 0 0 1-.2-.4z" />
    <path fill="green" stroke="#fff"
        d="m99.9 112.3-13.4 4.2a56 56 0 0 0 .1.5l13.4-4.3a42 42 0 0 1-.1-.4z" />
    <path fill="green" stroke="#fff"
        d="M100 112.7 86.6 117a56 56 0 0 0 .4 1.1l13.3-4.5a42 42 0 0 1-.3-.9z" />
    <path fill="green" stroke="#fff"
        d="m86.6 117-13.3 4.2a70 70 0 0 0 .5 1.4l13.2-4.5a56 56 0 0 1-.4-1.1z" />
    <path fill="#cda100" stroke="#fff"
        d="M100.3 113.6 87 118a56 56 0 0 0 .3.8l13.2-4.7a42 42 0 0 1-.2-.6z" />
    <path fill="red" stroke="#fff"
        d="m100.5 114.2-13.2 4.7a56 56 0 0 0 0 .3l13.2-4.8a42 42 0 0 1 0-.2z" />
    <path fill="green" stroke="#fff"
        d="m100.5 114.4-13.1 4.8a56 56 0 0 0 .1.3l13.1-4.8a42 42 0 0 1 0-.3zM100.6 114.7l-13 4.8a56 56 0 0 0 .2.8l13-5a42 42 0 0 1-.2-.6z" />
    <path fill="green" stroke="#fff"
        d="m100.8 115.2-13 5a56 56 0 0 0 .7 1.7l12.8-5.5a42 42 0 0 1-.5-1.2zM101.3 116.4 88.5 122a56 56 0 0 0 1.2 2.6l12.5-6.1a42 42 0 0 1-.9-2z" />
    <path fill="green" stroke="#fff"
        d="m88.5 122-13 5.4a70 70 0 0 0 .5 1l12.8-5.7a56 56 0 0 1-.3-.8z" />
    <path fill="green" stroke="#fff"
        d="M88.8 122.7 76 128.4a70 70 0 0 0 1 2.3l12.7-6.2a56 56 0 0 1-.9-1.8z" />
    <path fill="#108800" stroke="#fff"
        d="m102.2 118.4-12.5 6.1a56 56 0 0 0 1.7 3.4l12.2-7a42 42 0 0 1-1.4-2.5z" />
    <path fill="green" stroke="#fff"
        d="M89.7 124.5 77 130.7a70 70 0 0 0 .7 1.4l12.4-6.4a56 56 0 0 1-.5-1.2z" />
    <path fill="#1c8d00" stroke="#fff"
        d="M90.2 125.7 77.8 132a70 70 0 0 0 1.5 2.7l12.1-7a56 56 0 0 1-1.2-2.1z" />
    <path fill="green" stroke="#fff"
        d="m103.6 120.9-12.2 7a56 56 0 0 0 .2.3l12.1-7a42 42 0 0 1-.1-.3z" />
    <path fill="green" stroke="#fff"
        d="m103.7 121.1-12 7a56 56 0 0 0 .1.5l12-7.2a42 42 0 0 1-.1-.3z" />
    <path fill="#138900" stroke="#fff"
        d="m103.9 121.4-12 7.2a56 56 0 0 0 1.7 2.8l11.6-7.9a42 42 0 0 1-1.3-2z" />
    <path fill="green" stroke="#fff"
        d="m91.8 128.6-12 7.1a70 70 0 0 0 .5.8l12-7.3a56 56 0 0 1-.5-.6z" />
    <path fill="#198c00" stroke="#fff"
        d="m92.2 129.2-12 7.3a70 70 0 0 0 1.8 2.7l11.6-7.8a56 56 0 0 1-1.4-2.2z" />
    <path fill="#1c8d00" stroke="#fff"
        d="m105.2 123.5-11.6 7.9a56 56 0 0 0 .7 1l11.4-8.2a42 42 0 0 1-.5-.7z" />
    <path fill="green" stroke="#fff"
        d="m105.7 124.2-11.4 8.1a56 56 0 0 0 1 1.5l11.2-8.5a42 42 0 0 1-.8-1z" />
    <path fill="green" stroke="#fff"
        d="m106.5 125.3-11.2 8.5a56 56 0 0 0 .2.2l11.1-8.5a42 42 0 0 1 0-.2z" />
    <path fill="#dc7800" stroke="#fff"
        d="m117.8 117-11.2 8.5a42 42 0 0 0 3.2 3.7l10-9.8a28 28 0 0 1-2-2.4z" />
    <path fill="#208e00" stroke="#fff"
        d="m119.9 119.4-10.1 9.8a42 42 0 0 0 4.9 4.3l8.4-11.2a28 28 0 0 1-3.2-2.9z" />
    <path fill="green" stroke="#fff"
        d="m109.8 129.2-10 9.7 10-9.7zM99.7 138.9l-10 9.7a70 70 0 0 0 0 .1l10-9.7a56 56 0 0 1 0-.1zM109.8 129.2l-10 9.8a56 56 0 0 0 .1.1l10-9.8z" />
    <path fill="green" stroke="#fff"
        d="m99.8 139-10 9.7a70 70 0 0 0 0 .2L100 139a56 56 0 0 1-.1-.1z" />
    <path fill="#238f00" stroke="#fff"
        d="m110 129.3-10 9.8a56 56 0 0 0 6 5.5l8.6-11.2a42 42 0 0 1-4.7-4z" />
    <path fill="green" stroke="#fff"
        d="M100 139.1 89.8 149a70 70 0 0 0 2 2l9.7-10.2a56 56 0 0 1-1.7-1.6zM101.6 140.7 92 151a70 70 0 0 0 5.2 4.5l8.6-11a56 56 0 0 1-4.2-3.7z" />
    <path fill="red" stroke="#fff"
        d="m105.8 144.3-8.6 11.1a70 70 0 0 0 .3.3l8.5-11.2a56 56 0 0 1-.2-.2z" />
    <path fill="green" stroke="#fff"
        d="m106 144.5-8.5 11.2a70 70 0 0 0 .1 0l8.5-11.1zM114.6 133.4l-8.5 11.2a56 56 0 0 0 .1 0l8.5-11.1a42 42 0 0 1-.1 0z" />
    <path fill="#2d9300" stroke="#fff"
        d="m123.1 122.3-8.4 11.2a42 42 0 0 0 17 7.7l2.8-13.8a28 28 0 0 1-11.4-5z" />
    <path fill="green" stroke="#fff"
        d="m114.7 133.5-8.5 11.2a56 56 0 0 0 1 .6l8.1-11.3a42 42 0 0 1-.6-.5z" />
    <path fill="#d58e00" stroke="#fff"
        d="m115.3 134-8.2 11.3a56 56 0 0 0 .6.5l8.1-11.5a42 42 0 0 1-.5-.3z" />
    <path fill="#459c00" stroke="#fff"
        d="m115.8 134.3-8 11.5a56 56 0 0 0 1.8 1.2l7.6-11.7a42 42 0 0 1-1.4-1z" />
    <path fill="green" stroke="#fff"
        d="m117.2 135.3-7.6 11.7a56 56 0 0 0 1.2.8l7.3-12a42 42 0 0 1-.9-.5z" />
    <path fill="green" stroke="#fff"
        d="m118.1 135.8-7.3 12a56 56 0 0 0 .5.3l7.2-12a42 42 0 0 1-.4-.3z" />
    <path fill="#c9ab00" stroke="#fff"
        d="m118.5 136-7.2 12a56 56 0 0 0 .8.5l7-12.1a42 42 0 0 1-.6-.3z" />
    <path fill="green" stroke="#fff"
        d="m119 136.4-7 12.1a56 56 0 0 0 .5.3l6.8-12.2a42 42 0 0 1-.3-.2z" />
    <path fill="#1c8d00" stroke="#fff"
        d="m119.3 136.6-6.8 12.2a56 56 0 0 0 4.1 2l5.9-12.6a42 42 0 0 1-3.2-1.6z" />
    <path fill="green" stroke="#fff"
        d="m122.5 138.2-5.9 12.7a56 56 0 0 0 .4.2l5.8-12.8a42 42 0 0 1-.3-.1zM122.8 138.3l-5.8 12.8a56 56 0 0 0 .7.3l5.6-12.9a42 42 0 0 1-.5-.2z" />
    <path fill="green" stroke="#fff"
        d="m123.3 138.5-5.6 12.9a56 56 0 0 0 .6.2l5.4-12.9a42 42 0 0 1-.4-.2zM123.7 138.7l-5.4 13a56 56 0 0 0 2 .7l5-13a42 42 0 0 1-1.6-.7z" />
    <path fill="red" stroke="#fff"
        d="m125.3 139.3-5 13.1a56 56 0 0 0 .7.3l4.8-13.2a42 42 0 0 1-.5-.2z" />
    <path fill="green" stroke="#fff"
        d="m125.8 139.5-4.8 13.2a56 56 0 0 0 7.9 2.2l2.8-13.7a42 42 0 0 1-6-1.7zM131.7 141.2l-2.8 13.7 2.8-13.7z" />
    <path fill="red" stroke="#fff"
        d="m134.5 127.4-2.8 13.8a42 42 0 0 0 6.6.8l.6-14a28 28 0 0 1-4.4-.6z" />
    <path fill="red" stroke="#fff"
        d="m131.7 141.2-2.7 13.7a56 56 0 0 0 .5.1l2.6-13.7a42 42 0 0 1-.4-.1zM132.1 141.3l-2.6 13.7a56 56 0 0 0 .5 0l2.5-13.7a42 42 0 0 1-.4 0z" />
    <path fill="#ea4c00" stroke="#fff"
        d="m132.5 141.3-2.5 13.8a56 56 0 0 0 .1 0l2.5-13.8a42 42 0 0 1-.1 0z" />
    <path fill="red" stroke="#fff"
        d="m132.6 141.3-2.5 13.8a56 56 0 0 0 3.4.5l1.6-13.9a42 42 0 0 1-2.5-.4z" />
    <path fill="#ea4c00" stroke="#fff"
        d="m135 141.7-1.5 14a56 56 0 0 0 .1 0l1.6-14a42 42 0 0 1-.1 0z" />
    <path fill="red" stroke="#fff" d="m135.2 141.7-1.6 14a56 56 0 0 0 .3 0l1.5-14a42 42 0 0 1-.2 0z" />
    <path fill="#ea4c00" stroke="#fff"
        d="m135.4 141.7-1.5 14a56 56 0 0 0 .1 0l1.5-14a42 42 0 0 1-.1 0zM135.5 141.8l-1.5 13.9a56 56 0 0 0 .2 0l1.4-14z" />
    <path fill="red" stroke="#fff"
        d="m135.6 141.8-1.4 13.9a56 56 0 0 0 .3 0l1.4-13.9a42 42 0 0 1-.3 0z" />
    <path fill="#ea4c00" stroke="#fff"
        d="m135.9 141.8-1.4 14a56 56 0 0 0 .2 0l1.3-14a42 42 0 0 1-.1 0z" />
    <path fill="green" stroke="#fff" d="m136 141.8-1.3 14a56 56 0 0 0 .1 0l1.3-14a42 42 0 0 1-.1 0z" />
    <path fill="#339600" stroke="#fff"
        d="m136.1 141.8-1.3 14a56 56 0 0 0 1.5 0l.9-13.9a42 42 0 0 1-1.1 0z" />
    <path fill="red" stroke="#fff" d="m137.2 142-1 13.9a56 56 0 0 0 .4 0l.9-14a42 42 0 0 1-.3 0z" />
    <path fill="red" stroke="#fff" d="m137.5 142-.9 13.9a56 56 0 0 0 1 0l.6-14a42 42 0 0 1-.7 0z" />
    <path fill="#ea4c00" stroke="#fff" d="m138.2 142-.6 14a56 56 0 0 0 .1 0l.6-14a42 42 0 0 1-.1 0z" />
    <path fill="#76ac00" stroke="#fff" d="m138.9 128-.6 14a42 42 0 0 0 1.4 0v-14a28 28 0 0 1-.8 0z" />
    <path fill="green" stroke="#fff" d="m139.9 114-.1 14a28 28 0 0 0 .2 0v-14a14 14 0 0 1-.1 0z" />
</svg>