<svg aria-hidden="true" role="img" baseProfile="full" height="200" version="1.1" viewBox="0 0 280 200" width="280" xmlns="http://www.w3.org/2000/svg" xmlnsEv="http://www.w3.org/2001/xml-events" xmlnsXlink="http://www.w3.org/1999/xlink"><defs /><circle cx="140.0" cy="100.0" fill="#f00" r="14.0" stroke="white" stroke-width="1" /><path d="M 140.0,114.0 L 140.0,128.0 A 28.0,28.0 0 0,0 142.193800948,72.0860744896 L 141.096900474,86.0430372448 A 14.0,14.0 0 0,1 140.0,114.0 z" fill="#f00" stroke="white" stroke-width="1" /><path d="M 140.0,128.0 L 140.0,142.0 A 42.0,42.0 0 0,0 177.482738167,118.948465359 L 164.988492112,112.63231024 A 28.0,28.0 0 0,1 140.0,128.0 z" fill="#f00" stroke="white" stroke-width="1" /><path d="M 140.0,142.0 L 140.0,156.0 A 56.0,56.0 0 0,0 145.645462249,155.714708614 L 144.234096687,141.786031461 A 42.0,42.0 0 0,1 140.0,142.0 z" fill="#f00" stroke="white" stroke-width="1" /><path d="M 144.234096687,141.786031461 L 145.645462249,155.714708614 A 56.0,56.0 0 0,0 151.860534284,154.729587304 L 148.895400713,141.047190478 A 42.0,42.0 0 0,1 144.234096687,141.786031461 z" fill="#f00" stroke="white" stroke-width="1" /><path d="M 148.895400713,141.047190478 L 151.860534284,154.729587304 A 56.0,56.0 0 0,0 156.310612793,153.572044112 L 152.232959595,140.179033084 A 42.0,42.0 0 0,1 148.895400713,141.047190478 z" fill="#f00" stroke="white" stroke-width="1" /><path d="M 152.232959595,140.179033084 L 156.310612793,153.572044112 A 56.0,56.0 0 0,0 157.353349141,153.243415307 L 153.015011856,139.93256148 A 42.0,42.0 0 0,1 152.232959595,140.179033084 z" fill="#f00" stroke="white" stroke-width="1" /><path d="M 153.015011856,139.93256148 L 157.353349141,153.243415307 A 56.0,56.0 0 0,0 170.672688387,146.852814079 L 163.00451629,135.139610559 A 42.0,42.0 0 0,1 153.015011856,139.93256148 z" fill="#f00" stroke="white" stroke-width="1" /><path d="M 157.353349141,153.243415307 L 161.691686426,166.554269134 A 70.0,70.0 0 0,0 162.808707073,166.179776984 L 158.246965659,152.943821587 A 56.0,56.0 0 0,1 157.353349141,153.243415307 z" fill="#f00" stroke="white" stroke-width="1" /><path d="M 158.246965659,152.943821587 L 162.808707073,166.179776984 A 70.0,70.0 0 0,0 163.387024429,165.977625665 L 158.709619543,152.782100532 A 56.0,56.0 0 0,1 158.246965659,152.943821587 z" fill="#f00" stroke="white" stroke-width="1" /><path d="M 158.709619543,152.782100532 L 163.387024429,165.977625665 A 70.0,70.0 0 0,0 164.007823144,165.754273077 L 159.206258515,152.603418462 A 56.0,56.0 0 0,1 158.709619543,152.782100532 z" fill="#f00" stroke="white" stroke-width="1" /><path d="M 159.206258515,152.603418462 L 164.007823144,165.754273077 A 70.0,70.0 0 0,0 164.538240985,165.558178204 L 159.630592788,152.446542563 A 56.0,56.0 0 0,1 159.206258515,152.603418462 z" fill="#f00" stroke="white" stroke-width="1" /><path d="M 159.630592788,152.446542563 L 164.538240985,165.558178204 A 70.0,70.0 0 0,0 168.161262013,164.085437674 L 162.52900961,151.268350139 A 56.0,56.0 0 0,1 159.630592788,152.446542563 z" fill="#f00" stroke="white" stroke-width="1" /><path d="M 162.52900961,151.268350139 L 168.161262013,164.085437674 A 70.0,70.0 0 0,0 168.935762966,163.739482439 L 163.148610373,150.991585951 A 56.0,56.0 0 0,1 162.52900961,151.268350139 z" fill="#f00" stroke="white" stroke-width="1" /><path d="M 163.148610373,150.991585951 L 168.935762966,163.739482439 A 70.0,70.0 0 0,0 169.620644676,163.424107475 L 163.696515741,150.73928598 A 56.0,56.0 0 0,1 163.148610373,150.991585951 z" fill="#f00" stroke="white" stroke-width="1" /><path d="M 163.696515741,150.73928598 L 169.620644676,163.424107475 A 70.0,70.0 0 0,0 170.259601514,163.121759451 L 164.207681211,150.497407561 A 56.0,56.0 0 0,1 163.696515741,150.73928598 z" fill="#f00" stroke="white" stroke-width="1" /><path d="M 164.207681211,150.497407561 L 170.259601514,163.121759451 A 70.0,70.0 0 0,0 171.148942509,162.687665299 L 164.919154007,150.150132239 A 56.0,56.0 0 0,1 164.207681211,150.497407561 z" fill="#f00" stroke="white" stroke-width="1" /><path d="M 164.919154007,150.150132239 L 171.148942509,162.687665299 A 70.0,70.0 0 0,0 171.906286303,162.305608852 L 165.525029042,149.844487081 A 56.0,56.0 0 0,1 164.919154007,150.150132239 z" fill="#f00" stroke="white" stroke-width="1" /><path d="M 165.525029042,149.844487081 L 171.906286303,162.305608852 A 70.0,70.0 0 0,0 172.450349375,162.023985888 L 165.9602795,149.619188711 A 56.0,56.0 0 0,1 165.525029042,149.844487081 z" fill="#f00" stroke="white" stroke-width="1" /><path d="M 165.9602795,149.619188711 L 172.450349375,162.023985888 A 70.0,70.0 0 0,0 173.116548979,161.6708536 L 166.493239183,149.33668288 A 56.0,56.0 0 0,1 165.9602795,149.619188711 z" fill="#f00" stroke="white" stroke-width="1" /><path d="M 166.493239183,149.33668288 L 173.116548979,161.6708536 A 70.0,70.0 0 0,0 175.214043644,160.497695247 L 168.171234915,148.398156198 A 56.0,56.0 0 0,1 166.493239183,149.33668288 z" fill="#f00" stroke="white" stroke-width="1" /><path d="M 168.171234915,148.398156198 L 175.214043644,160.497695247 A 70.0,70.0 0 0,0 175.984981548,160.042327595 L 168.787985239,148.033862076 A 56.0,56.0 0 0,1 168.171234915,148.398156198 z" fill="#f00" stroke="white" stroke-width="1" /><path d="M 168.787985239,148.033862076 L 175.984981548,160.042327595 A 70.0,70.0 0 0,0 176.58946411,159.675883874 L 169.271571288,147.740707099 A 56.0,56.0 0 0,1 168.787985239,148.033862076 z" fill="#f00" stroke="white" stroke-width="1" /><path d="M 169.271571288,147.740707099 L 176.58946411,159.675883874 A 70.0,70.0 0 0,0 177.230131361,159.278303947 L 169.784105089,147.422643158 A 56.0,56.0 0 0,1 169.271571288,147.740707099 z" fill="#f00" stroke="white" stroke-width="1" /><path d="M 169.784105089,147.422643158 L 177.230131361,159.278303947 A 70.0,70.0 0 0,0 177.509069324,159.102197239 L 170.007255459,147.281757791 A 56.0,56.0 0 0,1 169.784105089,147.422643158 z" fill="#f00" stroke="white" stroke-width="1" /><path d="M 170.007255459,147.281757791 L 177.509069324,159.102197239 A 70.0,70.0 0 0,0 178.340860483,158.566017599 L 170.672688387,146.852814079 A 56.0,56.0 0 0,1 170.007255459,147.281757791 z" fill="#f00" stroke="white" stroke-width="1" /><path d="M 163.00451629,135.139610559 L 170.672688387,146.852814079 A 56.0,56.0 0 0,0 171.081559236,146.582579098 L 163.311169427,134.936934324 A 42.0,42.0 0 0,1 163.00451629,135.139610559 z" fill="#f00" stroke="white" stroke-width="1" /><path d="M 163.311169427,134.936934324 L 171.081559236,146.582579098 A 56.0,56.0 0 0,0 178.773212856,140.405914974 L 169.079909642,130.30443623 A 42.0,42.0 0 0,1 163.311169427,134.936934324 z" fill="#f00" stroke="white" stroke-width="1" /><path d="M 171.081559236,146.582579098 L 178.851949045,158.228223873 A 70.0,70.0 0 0,0 180.789597423,156.887685329 L 172.631677938,145.510148263 A 56.0,56.0 0 0,1 171.081559236,146.582579098 z" fill="#f00" stroke="white" stroke-width="1" /><path d="M 172.631677938,145.510148263 L 180.789597423,156.887685329 A 70.0,70.0 0 0,0 183.164970428,155.107035195 L 174.531976342,144.085628156 A 56.0,56.0 0 0,1 172.631677938,145.510148263 z" fill="#f00" stroke="white" stroke-width="1" /><path d="M 174.531976342,144.085628156 L 183.164970428,155.107035195 A 70.0,70.0 0 0,0 185.498530654,153.196651289 L 176.398824523,142.557321031 A 56.0,56.0 0 0,1 174.531976342,144.085628156 z" fill="#f00" stroke="white" stroke-width="1" /><path d="M 176.398824523,142.557321031 L 185.498530654,153.196651289 A 70.0,70.0 0 0,0 186.66904061,152.172796058 L 177.335232488,141.738236846 A 56.0,56.0 0 0,1 176.398824523,142.557321031 z" fill="#f00" stroke="white" stroke-width="1" /><path d="M 177.335232488,141.738236846 L 186.66904061,152.172796058 A 70.0,70.0 0 0,0 188.46651607,150.507393717 L 178.773212856,140.405914974 A 56.0,56.0 0 0,1 177.335232488,141.738236846 z" fill="#f00" stroke="white" stroke-width="1" /><path d="M 169.079909642,130.30443623 L 178.773212856,140.405914974 A 56.0,56.0 0 0,0 179.76756088,139.42766924 L 169.82567066,129.57075193 A 42.0,42.0 0 0,1 169.079909642,130.30443623 z" fill="#f00" stroke="white" stroke-width="1" /><path d="M 169.82567066,129.57075193 L 179.76756088,139.42766924 A 56.0,56.0 0 0,0 182.722286473,136.20505819 L 172.041714854,127.153793643 A 42.0,42.0 0 0,1 169.82567066,129.57075193 z" fill="#f00" stroke="white" stroke-width="1" /><path d="M 179.76756088,139.42766924 L 189.7094511,149.284586549 A 70.0,70.0 0 0,0 192.070560656,146.783081482 L 181.656448525,137.426465186 A 56.0,56.0 0 0,1 179.76756088,139.42766924 z" fill="#f00" stroke="white" stroke-width="1" /><path d="M 181.656448525,137.426465186 L 192.070560656,146.783081482 A 70.0,70.0 0 0,0 193.402858091,145.256322738 L 182.722286473,136.20505819 A 56.0,56.0 0 0,1 181.656448525,137.426465186 z" fill="#f00" stroke="white" stroke-width="1" /><path d="M 172.041714854,127.153793643 L 182.722286473,136.20505819 A 56.0,56.0 0 0,0 182.965057074,135.916623876 L 172.223792805,126.937467907 A 42.0,42.0 0 0,1 172.041714854,127.153793643 z" fill="#f00" stroke="white" stroke-width="1" /><path d="M 172.223792805,126.937467907 L 182.965057074,135.916623876 A 56.0,56.0 0 0,0 186.514462039,131.183406184 L 174.885846529,123.387554638 A 42.0,42.0 0 0,1 172.223792805,126.937467907 z" fill="#f00" stroke="white" stroke-width="1" /><path d="M 174.885846529,123.387554638 L 186.514462039,131.183406184 A 56.0,56.0 0 0,0 188.805452943,127.459565965 L 176.604089708,120.594674474 A 42.0,42.0 0 0,1 174.885846529,123.387554638 z" fill="#f00" stroke="white" stroke-width="1" /><path d="M 176.604089708,120.594674474 L 188.805452943,127.459565965 A 56.0,56.0 0 0,0 189.976984223,125.264620479 L 177.482738167,118.948465359 A 42.0,42.0 0 0,1 176.604089708,120.594674474 z" fill="#f00" stroke="white" stroke-width="1" /><path d="M 164.988492112,112.63231024 L 177.482738167,118.948465359 A 42.0,42.0 0 0,0 180.034264528,112.698726855 L 166.689509685,108.465817903 A 28.0,28.0 0 0,1 164.988492112,112.63231024 z" fill="#d78700" stroke="white" stroke-width="1" /><path d="M 166.689509685,108.465817903 L 180.034264528,112.698726855 A 42.0,42.0 0 0,0 181.291350044,107.682734642 L 167.527566696,105.121823095 A 28.0,28.0 0 0,1 166.689509685,108.465817903 z" fill="#f00" stroke="white" stroke-width="1" /><path d="M 180.034264528,112.698726855 L 193.37901937,116.931635807 A 56.0,56.0 0 0,0 193.677950813,115.958621385 L 180.25846311,111.968966039 A 42.0,42.0 0 0,1 180.034264528,112.698726855 z" fill="#f00" stroke="white" stroke-width="1" /><path d="M 180.25846311,111.968966039 L 193.677950813,115.958621385 A 56.0,56.0 0 0,0 194.579738012,112.532046863 L 180.934803509,109.399035147 A 42.0,42.0 0 0,1 180.25846311,111.968966039 z" fill="#f00" stroke="white" stroke-width="1" /><path d="M 193.677950813,115.958621385 L 207.097438516,119.948276732 A 70.0,70.0 0 0,0 207.203901889,119.586617137 L 193.763121511,115.66929371 A 56.0,56.0 0 0,1 193.677950813,115.958621385 z" fill="#f00" stroke="white" stroke-width="1" /><path d="M 193.763121511,115.66929371 L 207.203901889,119.586617137 A 70.0,70.0 0 0,0 207.308415908,119.224389403 L 193.846732727,115.379511522 A 56.0,56.0 0 0,1 193.763121511,115.66929371 z" fill="#f00" stroke="white" stroke-width="1" /><path d="M 193.846732727,115.379511522 L 207.308415908,119.224389403 A 70.0,70.0 0 0,0 207.410977543,118.861604035 L 193.928782034,115.089283228 A 56.0,56.0 0 0,1 193.846732727,115.379511522 z" fill="#f00" stroke="white" stroke-width="1" /><path d="M 193.928782034,115.089283228 L 207.410977543,118.861604035 A 70.0,70.0 0 0,0 207.474085794,118.634584682 L 193.979268635,114.907667745 A 56.0,56.0 0 0,1 193.928782034,115.089283228 z" fill="#f00" stroke="white" stroke-width="1" /><path d="M 193.979268635,114.907667745 L 207.474085794,118.634584682 A 70.0,70.0 0 0,0 207.718866492,117.724421599 L 194.175093194,114.17953728 A 56.0,56.0 0 0,1 193.979268635,114.907667745 z" fill="#f00" stroke="white" stroke-width="1" /><path d="M 194.175093194,114.17953728 L 207.718866492,117.724421599 A 70.0,70.0 0 0,0 207.813343716,117.3594474 L 194.250674973,113.88755792 A 56.0,56.0 0 0,1 194.175093194,114.17953728 z" fill="#f00" stroke="white" stroke-width="1" /><path d="M 194.250674973,113.88755792 L 207.813343716,117.3594474 A 70.0,70.0 0 0,0 207.928673793,116.902522793 L 194.342939034,113.522018235 A 56.0,56.0 0 0,1 194.250674973,113.88755792 z" fill="#f00" stroke="white" stroke-width="1" /><path d="M 194.342939034,113.522018235 L 207.928673793,116.902522793 A 70.0,70.0 0 0,0 208.224672515,115.665058579 L 194.579738012,112.532046863 A 56.0,56.0 0 0,1 194.342939034,113.522018235 z" fill="#f00" stroke="white" stroke-width="1" /><path d="M 180.934803509,109.399035147 L 194.579738012,112.532046863 A 56.0,56.0 0 0,0 195.055133391,110.243646189 L 181.291350044,107.682734642 A 42.0,42.0 0 0,1 180.934803509,109.399035147 z" fill="#f00" stroke="white" stroke-width="1" /><path d="M 167.527566696,105.121823095 L 181.291350044,107.682734642 A 42.0,42.0 0 0,0 181.970949675,101.561852543 L 167.980633117,101.041235029 A 28.0,28.0 0 0,1 167.527566696,105.121823095 z" fill="#f00" stroke="white" stroke-width="1" /><path d="M 181.291350044,107.682734642 L 195.055133391,110.243646189 A 56.0,56.0 0 0,0 195.597270836,106.703989531 L 181.697953127,105.027992148 A 42.0,42.0 0 0,1 181.291350044,107.682734642 z" fill="#f00" stroke="white" stroke-width="1" /><path d="M 181.697953127,105.027992148 L 195.597270836,106.703989531 A 56.0,56.0 0 0,0 195.65381344,106.21715768 L 181.74036008,104.66286826 A 42.0,42.0 0 0,1 181.697953127,105.027992148 z" fill="#f00" stroke="white" stroke-width="1" /><path d="M 181.74036008,104.66286826 L 195.65381344,106.21715768 A 56.0,56.0 0 0,0 195.754106211,105.242102693 L 181.815579658,103.93157702 A 42.0,42.0 0 0,1 181.74036008,104.66286826 z" fill="#f00" stroke="white" stroke-width="1" /><path d="M 181.815579658,103.93157702 L 195.754106211,105.242102693 A 56.0,56.0 0 0,0 195.961266234,102.082470057 L 181.970949675,101.561852543 A 42.0,42.0 0 0,1 181.815579658,103.93157702 z" fill="#f00" stroke="white" stroke-width="1" /><path d="M 167.980633117,101.041235029 L 181.970949675,101.561852543 A 42.0,42.0 0 0,0 143.290701422,58.1291117344 L 142.193800948,72.0860744896 A 28.0,28.0 0 0,1 167.980633117,101.041235029 z" fill="#008000" stroke="white" stroke-width="1" /><path d="M 181.970949675,101.561852543 L 195.961266234,102.082470057 A 56.0,56.0 0 0,0 195.995773358,100.688016054 L 181.996830018,100.51601204 A 42.0,42.0 0 0,1 181.970949675,101.561852543 z" fill="#008000" stroke="white" stroke-width="1" /><path d="M 181.996830018,100.51601204 L 195.995773358,100.688016054 A 56.0,56.0 0 0,0 164.631768911,49.7080924969 L 158.473826683,62.2810693727 A 42.0,42.0 0 0,1 181.996830018,100.51601204 z" fill="#008000" stroke="white" stroke-width="1" /><path d="M 195.995773358,100.688016054 L 209.994716697,100.860020067 A 70.0,70.0 0 0,0 209.842221493,95.3027564544 L 195.873777194,96.2422051635 A 56.0,56.0 0 0,1 195.995773358,100.688016054 z" fill="#008000" stroke="white" stroke-width="1" /><path d="M 195.873777194,96.2422051635 L 209.842221493,95.3027564544 A 70.0,70.0 0 0,0 209.635023511,92.8611274938 L 195.708018809,94.288901995 A 56.0,56.0 0 0,1 195.873777194,96.2422051635 z" fill="#008000" stroke="white" stroke-width="1" /><path d="M 195.708018809,94.288901995 L 209.635023511,92.8611274938 A 70.0,70.0 0 0,0 208.831812122,87.264944442 L 195.065449697,89.8119555536 A 56.0,56.0 0 0,1 195.708018809,94.288901995 z" fill="#008000" stroke="white" stroke-width="1" /><path d="M 195.065449697,89.8119555536 L 208.831812122,87.264944442 A 70.0,70.0 0 0,0 208.313196584,84.725604023 L 194.650557267,87.7804832184 A 56.0,56.0 0 0,1 195.065449697,89.8119555536 z" fill="#008000" stroke="white" stroke-width="1" /><path d="M 194.650557267,87.7804832184 L 208.313196584,84.725604023 A 70.0,70.0 0 0,0 208.219395615,84.3119771176 L 194.575516492,87.4495816941 A 56.0,56.0 0 0,1 194.650557267,87.7804832184 z" fill="#008000" stroke="white" stroke-width="1" /><path d="M 194.575516492,87.4495816941 L 208.219395615,84.3119771176 A 70.0,70.0 0 0,0 208.001987706,83.3948903019 L 194.401590164,86.7159122415 A 56.0,56.0 0 0,1 194.575516492,87.4495816941 z" fill="#008000" stroke="white" stroke-width="1" /><path d="M 194.401590164,86.7159122415 L 208.001987706,83.3948903019 A 70.0,70.0 0 0,0 207.724828895,82.2983743355 L 194.179863116,85.8386994684 A 56.0,56.0 0 0,1 194.401590164,86.7159122415 z" fill="#008000" stroke="white" stroke-width="1" /><path d="M 194.179863116,85.8386994684 L 207.724828895,82.2983743355 A 70.0,70.0 0 0,0 206.244766177,77.3807393091 L 192.995812941,81.9045914473 A 56.0,56.0 0 0,1 194.179863116,85.8386994684 z" fill="#008000" stroke="white" stroke-width="1" /><path d="M 192.995812941,81.9045914473 L 206.244766177,77.3807393091 A 70.0,70.0 0 0,0 205.260279948,74.6801291256 L 192.208223958,79.7441033005 A 56.0,56.0 0 0,1 192.995812941,81.9045914473 z" fill="#008000" stroke="white" stroke-width="1" /><path d="M 192.208223958,79.7441033005 L 205.260279948,74.6801291256 A 70.0,70.0 0 0,0 204.983764802,73.9786566037 L 191.987011842,79.182925283 A 56.0,56.0 0 0,1 192.208223958,79.7441033005 z" fill="#008000" stroke="white" stroke-width="1" /><path d="M 191.987011842,79.182925283 L 204.983764802,73.9786566037 A 70.0,70.0 0 0,0 204.463386256,72.7149888695 L 191.570709005,78.1719910956 A 56.0,56.0 0 0,1 191.987011842,79.182925283 z" fill="#008000" stroke="white" stroke-width="1" /><path d="M 191.570709005,78.1719910956 L 204.463386256,72.7149888695 A 70.0,70.0 0 0,0 203.80264049,71.2037664518 L 191.042112392,76.9630131614 A 56.0,56.0 0 0,1 191.570709005,78.1719910956 z" fill="#008000" stroke="white" stroke-width="1" /><path d="M 191.042112392,76.9630131614 L 203.80264049,71.2037664518 A 70.0,70.0 0 0,0 202.460596296,68.3981976728 L 189.968477037,74.7185581382 A 56.0,56.0 0 0,1 191.042112392,76.9630131614 z" fill="#0e8600" stroke="white" stroke-width="1" /><path d="M 189.968477037,74.7185581382 L 202.460596296,68.3981976728 A 70.0,70.0 0 0,0 201.631794901,66.8108171637 L 189.30543592,73.448653731 A 56.0,56.0 0 0,1 189.968477037,74.7185581382 z" fill="#008000" stroke="white" stroke-width="1" /><path d="M 189.30543592,73.448653731 L 201.631794901,66.8108171637 A 70.0,70.0 0 0,0 200.217249471,64.3085042885 L 188.173799577,71.4468034308 A 56.0,56.0 0 0,1 189.30543592,73.448653731 z" fill="#008000" stroke="white" stroke-width="1" /><path d="M 188.173799577,71.4468034308 L 200.217249471,64.3085042885 A 70.0,70.0 0 0,0 199.878183402,63.7425434917 L 187.902546722,70.9940347933 A 56.0,56.0 0 0,1 188.173799577,71.4468034308 z" fill="#008000" stroke="white" stroke-width="1" /><path d="M 187.902546722,70.9940347933 L 199.878183402,63.7425434917 A 70.0,70.0 0 0,0 199.133741243,62.5406801105 L 187.306992995,70.0325440884 A 56.0,56.0 0 0,1 187.902546722,70.9940347933 z" fill="#008000" stroke="white" stroke-width="1" /><path d="M 187.306992995,70.0325440884 L 199.133741243,62.5406801105 A 70.0,70.0 0 0,0 198.28700806,61.2362967278 L 186.629606448,68.9890373822 A 56.0,56.0 0 0,1 187.306992995,70.0325440884 z" fill="#008000" stroke="white" stroke-width="1" /><path d="M 186.629606448,68.9890373822 L 198.28700806,61.2362967278 A 70.0,70.0 0 0,0 197.384532721,59.9124033592 L 185.907626176,67.9299226874 A 56.0,56.0 0 0,1 186.629606448,68.9890373822 z" fill="#008000" stroke="white" stroke-width="1" /><path d="M 185.907626176,67.9299226874 L 197.384532721,59.9124033592 A 70.0,70.0 0 0,0 196.867082723,59.1816842266 L 185.493666178,67.3453473813 A 56.0,56.0 0 0,1 185.907626176,67.9299226874 z" fill="#008000" stroke="white" stroke-width="1" /><path d="M 185.493666178,67.3453473813 L 196.867082723,59.1816842266 A 70.0,70.0 0 0,0 196.618722135,58.8378778027 L 185.294977708,67.0703022422 A 56.0,56.0 0 0,1 185.493666178,67.3453473813 z" fill="#008000" stroke="white" stroke-width="1" /><path d="M 185.294977708,67.0703022422 L 196.618722135,58.8378778027 A 70.0,70.0 0 0,0 196.172065856,58.2304055866 L 184.937652685,66.5843244692 A 56.0,56.0 0 0,1 185.294977708,67.0703022422 z" fill="#008000" stroke="white" stroke-width="1" /><path d="M 184.937652685,66.5843244692 L 196.172065856,58.2304055866 A 70.0,70.0 0 0,0 195.288169521,57.0672815784 L 184.230535616,65.6538252628 A 56.0,56.0 0 0,1 184.937652685,66.5843244692 z" fill="#008000" stroke="white" stroke-width="1" /><path d="M 184.230535616,65.6538252628 L 195.288169521,57.0672815784 A 70.0,70.0 0 0,0 192.431193854,53.6214498816 L 181.944955083,62.8971599053 A 56.0,56.0 0 0,1 184.230535616,65.6538252628 z" fill="#008000" stroke="white" stroke-width="1" /><path d="M 195.288169521,57.0672815784 L 206.345803425,48.4807378941 A 84.0,84.0 0 0,0 205.716636807,47.680561483 L 194.763864006,56.4004679025 A 70.0,70.0 0 0,1 195.288169521,57.0672815784 z" fill="#008000" stroke="white" stroke-width="1" /><path d="M 194.763864006,56.4004679025 L 205.716636807,47.680561483 A 84.0,84.0 0 0,0 205.04204919,46.8442680683 L 194.201707658,55.7035567236 A 70.0,70.0 0 0,1 194.763864006,56.4004679025 z" fill="#008000" stroke="white" stroke-width="1" /><path d="M 194.201707658,55.7035567236 L 205.04204919,46.8442680683 A 84.0,84.0 0 0,0 203.881904888,45.455502313 L 193.23492074,54.5462519275 A 70.0,70.0 0 0,1 194.201707658,55.7035567236 z" fill="#008000" stroke="white" stroke-width="1" /><path d="M 193.23492074,54.5462519275 L 203.881904888,45.455502313 A 84.0,84.0 0 0,0 202.917432624,44.345739858 L 192.431193854,53.6214498816 A 70.0,70.0 0 0,1 193.23492074,54.5462519275 z" fill="#008000" stroke="white" stroke-width="1" /><path d="M 181.944955083,62.8971599053 L 192.431193854,53.6214498816 A 70.0,70.0 0 0,0 191.355967168,52.4335765872 L 181.084773734,61.9468612697 A 56.0,56.0 0 0,1 181.944955083,62.8971599053 z" fill="#008000" stroke="white" stroke-width="1" /><path d="M 181.084773734,61.9468612697 L 191.355967168,52.4335765872 A 70.0,70.0 0 0,0 190.678378814,51.7123005226 L 180.542703051,61.3698404181 A 56.0,56.0 0 0,1 181.084773734,61.9468612697 z" fill="#008000" stroke="white" stroke-width="1" /><path d="M 180.542703051,61.3698404181 L 190.678378814,51.7123005226 A 70.0,70.0 0 0,0 189.393231433,50.3985011452 L 179.514585146,60.3188009161 A 56.0,56.0 0 0,1 180.542703051,61.3698404181 z" fill="#008000" stroke="white" stroke-width="1" /><path d="M 179.514585146,60.3188009161 L 189.393231433,50.3985011452 A 70.0,70.0 0 0,0 188.889828842,49.9022491939 L 179.111863073,59.9217993552 A 56.0,56.0 0 0,1 179.514585146,60.3188009161 z" fill="#008000" stroke="white" stroke-width="1" /><path d="M 179.111863073,59.9217993552 L 188.889828842,49.9022491939 A 70.0,70.0 0 0,0 187.523189087,48.6040225403 L 178.018551269,58.8832180322 A 56.0,56.0 0 0,1 179.111863073,59.9217993552 z" fill="#008000" stroke="white" stroke-width="1" /><path d="M 178.018551269,58.8832180322 L 187.523189087,48.6040225403 A 70.0,70.0 0 0,0 185.337162796,46.6657551887 L 176.269730237,57.332604151 A 56.0,56.0 0 0,1 178.018551269,58.8832180322 z" fill="#008000" stroke="white" stroke-width="1" /><path d="M 176.269730237,57.332604151 L 185.337162796,46.6657551887 A 70.0,70.0 0 0,0 184.505927258,45.9701708411 L 175.604741806,56.7761366729 A 56.0,56.0 0 0,1 176.269730237,57.332604151 z" fill="#008000" stroke="white" stroke-width="1" /><path d="M 175.604741806,56.7761366729 L 184.505927258,45.9701708411 A 70.0,70.0 0 0,0 183.958055848,45.5234974865 L 175.166444678,56.4187979892 A 56.0,56.0 0 0,1 175.604741806,56.7761366729 z" fill="#008000" stroke="white" stroke-width="1" /><path d="M 175.166444678,56.4187979892 L 183.958055848,45.5234974865 A 70.0,70.0 0 0,0 183.257657484,44.965691891 L 174.606125987,55.9725535128 A 56.0,56.0 0 0,1 175.166444678,56.4187979892 z" fill="#008000" stroke="white" stroke-width="1" /><path d="M 174.606125987,55.9725535128 L 183.257657484,44.965691891 A 70.0,70.0 0 0,0 182.774352643,44.589218053 L 174.219482114,55.6713744424 A 56.0,56.0 0 0,1 174.606125987,55.9725535128 z" fill="#008000" stroke="white" stroke-width="1" /><path d="M 174.219482114,55.6713744424 L 182.774352643,44.589218053 A 70.0,70.0 0 0,0 179.379544575,42.1272821697 L 171.50363566,53.7018257358 A 56.0,56.0 0 0,1 174.219482114,55.6713744424 z" fill="#008000" stroke="white" stroke-width="1" /><path d="M 171.50363566,53.7018257358 L 179.379544575,42.1272821697 A 70.0,70.0 0 0,0 179.106379813,41.94234712 L 171.28510385,53.553877696 A 56.0,56.0 0 0,1 171.50363566,53.7018257358 z" fill="#008000" stroke="white" stroke-width="1" /><path d="M 171.28510385,53.553877696 L 179.106379813,41.94234712 A 70.0,70.0 0 0,0 175.802918396,39.8489315609 L 168.642334716,51.8791452488 A 56.0,56.0 0 0,1 171.28510385,53.553877696 z" fill="#008000" stroke="white" stroke-width="1" /><path d="M 168.642334716,51.8791452488 L 175.802918396,39.8489315609 A 70.0,70.0 0 0,0 172.387698928,37.9432762858 L 165.910159142,50.3546210286 A 56.0,56.0 0 0,1 168.642334716,51.8791452488 z" fill="#008000" stroke="white" stroke-width="1" /><path d="M 165.910159142,50.3546210286 L 172.387698928,37.9432762858 A 70.0,70.0 0 0,0 170.789711139,37.1351156211 L 164.631768911,49.7080924969 A 56.0,56.0 0 0,1 165.910159142,50.3546210286 z" fill="#008000" stroke="white" stroke-width="1" /><path d="M 158.473826683,62.2810693727 L 164.631768911,49.7080924969 A 56.0,56.0 0 0,0 160.457843988,47.8705781794 L 155.343382991,60.9029336346 A 42.0,42.0 0 0,1 158.473826683,62.2810693727 z" fill="#008000" stroke="white" stroke-width="1" /><path d="M 155.343382991,60.9029336346 L 160.457843988,47.8705781794 A 56.0,56.0 0 0,0 158.620757846,47.1864848997 L 153.965568384,60.3898636748 A 42.0,42.0 0 0,1 155.343382991,60.9029336346 z" fill="#238f00" stroke="white" stroke-width="1" /><path d="M 160.457843988,47.8705781794 L 165.572304985,34.8382227243 A 70.0,70.0 0 0,0 165.308886844,34.7354594997 L 160.247109475,47.7883675998 A 56.0,56.0 0 0,1 160.457843988,47.8705781794 z" fill="#008000" stroke="white" stroke-width="1" /><path d="M 165.572304985,34.8382227243 L 170.686765983,21.8058672691 A 84.0,84.0 0 0,0 170.370664213,21.6825513997 L 165.308886844,34.7354594997 A 70.0,70.0 0 0,1 165.572304985,34.8382227243 z" fill="#008000" stroke="white" stroke-width="1" /><path d="M 160.247109475,47.7883675998 L 165.308886844,34.7354594997 A 70.0,70.0 0 0,0 165.045055758,34.6337611447 L 160.036044606,47.7070089157 A 56.0,56.0 0 0,1 160.247109475,47.7883675998 z" fill="#008000" stroke="white" stroke-width="1" /><path d="M 165.308886844,34.7354594997 L 170.370664213,21.6825513997 A 84.0,84.0 0 0,0 170.054066909,21.5605133736 L 165.045055758,34.6337611447 A 70.0,70.0 0 0,1 165.308886844,34.7354594997 z" fill="#008000" stroke="white" stroke-width="1" /><path d="M 160.036044606,47.7070089157 L 165.045055758,34.6337611447 A 70.0,70.0 0 0,0 163.275947307,33.9831061246 L 158.620757846,47.1864848997 A 56.0,56.0 0 0,1 160.036044606,47.7070089157 z" fill="#309500" stroke="white" stroke-width="1" /><path d="M 165.045055758,34.6337611447 L 170.054066909,21.5605133736 A 84.0,84.0 0 0,0 169.684083981,21.419753384 L 164.736736651,34.5164611533 A 70.0,70.0 0 0,1 165.045055758,34.6337611447 z" fill="#fa1400" stroke="white" stroke-width="1" /><path d="M 164.736736651,34.5164611533 L 169.684083981,21.419753384 A 84.0,84.0 0 0,0 168.676545269,21.0464962688 L 163.897121058,34.2054135574 A 70.0,70.0 0 0,1 164.736736651,34.5164611533 z" fill="#008000" stroke="white" stroke-width="1" /><path d="M 163.897121058,34.2054135574 L 168.676545269,21.0464962688 A 84.0,84.0 0 0,0 167.931136769,20.7797273496 L 163.275947307,33.9831061246 A 70.0,70.0 0 0,1 163.897121058,34.2054135574 z" fill="#008000" stroke="white" stroke-width="1" /><path d="M 153.965568384,60.3898636748 L 158.620757846,47.1864848997 A 56.0,56.0 0 0,0 158.015112387,46.9768378376 L 153.51133429,60.2326283782 A 42.0,42.0 0 0,1 153.965568384,60.3898636748 z" fill="#008000" stroke="white" stroke-width="1" /><path d="M 153.51133429,60.2326283782 L 158.015112387,46.9768378376 A 56.0,56.0 0 0,0 147.349178937,44.4843304197 L 145.511884203,58.3632478148 A 42.0,42.0 0 0,1 153.51133429,60.2326283782 z" fill="#008000" stroke="white" stroke-width="1" /><path d="M 158.015112387,46.9768378376 L 162.518890483,33.721047297 A 70.0,70.0 0 0,0 161.803670224,33.4823334388 L 157.442936179,46.785866751 A 56.0,56.0 0 0,1 158.015112387,46.9768378376 z" fill="#008000" stroke="white" stroke-width="1" /><path d="M 157.442936179,46.785866751 L 161.803670224,33.4823334388 A 70.0,70.0 0 0,0 160.500943011,33.0693542862 L 156.400754409,46.4554834289 A 56.0,56.0 0 0,1 157.442936179,46.785866751 z" fill="#008000" stroke="white" stroke-width="1" /><path d="M 156.400754409,46.4554834289 L 160.500943011,33.0693542862 A 70.0,70.0 0 0,0 159.416892987,32.7468642609 L 155.533514389,46.1974914087 A 56.0,56.0 0 0,1 156.400754409,46.4554834289 z" fill="#008000" stroke="white" stroke-width="1" /><path d="M 155.533514389,46.1974914087 L 159.416892987,32.7468642609 A 70.0,70.0 0 0,0 155.90609474,31.8311203693 L 152.724875792,45.4648962954 A 56.0,56.0 0 0,1 155.533514389,46.1974914087 z" fill="#008000" stroke="white" stroke-width="1" /><path d="M 152.724875792,45.4648962954 L 155.90609474,31.8311203693 A 70.0,70.0 0 0,0 153.695318518,31.3527986683 L 150.956254815,45.0822389346 A 56.0,56.0 0 0,1 152.724875792,45.4648962954 z" fill="#008000" stroke="white" stroke-width="1" /><path d="M 150.956254815,45.0822389346 L 153.695318518,31.3527986683 A 70.0,70.0 0 0,0 152.677127152,31.1574953451 L 150.141701722,44.9259962761 A 56.0,56.0 0 0,1 150.956254815,45.0822389346 z" fill="#008000" stroke="white" stroke-width="1" /><path d="M 150.141701722,44.9259962761 L 152.677127152,31.1574953451 A 70.0,70.0 0 0,0 152.074147168,31.0491844126 L 149.659317734,44.8393475301 A 56.0,56.0 0 0,1 150.141701722,44.9259962761 z" fill="#008000" stroke="white" stroke-width="1" /><path d="M 149.659317734,44.8393475301 L 152.074147168,31.0491844126 A 70.0,70.0 0 0,0 151.51672836,30.9538924495 L 149.213382688,44.7631139596 A 56.0,56.0 0 0,1 149.659317734,44.8393475301 z" fill="#008000" stroke="white" stroke-width="1" /><path d="M 149.213382688,44.7631139596 L 151.51672836,30.9538924495 A 70.0,70.0 0 0,0 151.144695999,30.8928675817 L 148.915756799,44.7142940653 A 56.0,56.0 0 0,1 149.213382688,44.7631139596 z" fill="#008000" stroke="white" stroke-width="1" /><path d="M 148.915756799,44.7142940653 L 151.144695999,30.8928675817 A 70.0,70.0 0 0,0 150.725773723,30.8266107666 L 148.580618979,44.6612886133 A 56.0,56.0 0 0,1 148.915756799,44.7142940653 z" fill="#008000" stroke="white" stroke-width="1" /><path d="M 148.580618979,44.6612886133 L 150.725773723,30.8266107666 A 70.0,70.0 0 0,0 150.353067326,30.7698476317 L 148.282453861,44.6158781054 A 56.0,56.0 0 0,1 148.580618979,44.6612886133 z" fill="#008000" stroke="white" stroke-width="1" /><path d="M 148.282453861,44.6158781054 L 150.353067326,30.7698476317 A 70.0,70.0 0 0,0 149.700115026,30.6753451615 L 147.760092021,44.5402761292 A 56.0,56.0 0 0,1 148.282453861,44.6158781054 z" fill="#008000" stroke="white" stroke-width="1" /><path d="M 147.760092021,44.5402761292 L 149.700115026,30.6753451615 A 70.0,70.0 0 0,0 149.186473671,30.6054130246 L 147.349178937,44.4843304197 A 56.0,56.0 0 0,1 147.760092021,44.5402761292 z" fill="#008000" stroke="white" stroke-width="1" /><path d="M 145.511884203,58.3632478148 L 147.349178937,44.4843304197 A 56.0,56.0 0 0,0 144.387601895,44.1721489791 L 143.290701422,58.1291117344 A 42.0,42.0 0 0,1 145.511884203,58.3632478148 z" fill="#008000" stroke="white" stroke-width="1" /><path d="M 141.096900474,86.0430372448 L 142.193800948,72.0860744896 A 28.0,28.0 0 0,0 138.03177557,72.0692625841 L 139.015887785,86.0346312921 A 14.0,14.0 0 0,1 141.096900474,86.0430372448 z" fill="#f00" stroke="white" stroke-width="1" /><path d="M 139.015887785,86.0346312921 L 138.03177557,72.0692625841 A 28.0,28.0 0 0,0 139.773799711,127.999086296 L 139.886899855,113.999543148 A 14.0,14.0 0 0,1 139.015887785,86.0346312921 z" fill="#f00" stroke="white" stroke-width="1" /><path d="M 138.03177557,72.0692625841 L 137.047663356,58.1038938762 A 42.0,42.0 0 0,0 102.050886897,82.0037555385 L 114.700591265,88.0025036923 A 28.0,28.0 0 0,1 138.03177557,72.0692625841 z" fill="#f00" stroke="white" stroke-width="1" /><path d="M 137.047663356,58.1038938762 L 136.063551141,44.1385251682 A 56.0,56.0 0 0,0 134.560872145,44.2647697755 L 135.920654109,58.1985773316 A 42.0,42.0 0 0,1 137.047663356,58.1038938762 z" fill="#f00" stroke="white" stroke-width="1" /><path d="M 135.920654109,58.1985773316 L 134.560872145,44.2647697755 A 56.0,56.0 0 0,0 134.073297956,44.3145063514 L 135.554973467,58.2358797636 A 42.0,42.0 0 0,1 135.920654109,58.1985773316 z" fill="#f00" stroke="white" stroke-width="1" /><path d="M 135.554973467,58.2358797636 L 134.073297956,44.3145063514 A 56.0,56.0 0 0,0 130.93539739,44.7385036439 L 133.201548042,58.5538777329 A 42.0,42.0 0 0,1 135.554973467,58.2358797636 z" fill="#f00" stroke="white" stroke-width="1" /><path d="M 133.201548042,58.5538777329 L 130.93539739,44.7385036439 A 56.0,56.0 0 0,0 129.635919279,44.9674111929 L 132.22693946,58.7255583946 A 42.0,42.0 0 0,1 133.201548042,58.5538777329 z" fill="#f00" stroke="white" stroke-width="1" /><path d="M 132.22693946,58.7255583946 L 129.635919279,44.9674111929 A 56.0,56.0 0 0,0 105.661269997,55.7636843559 L 114.245952498,66.8227632669 A 42.0,42.0 0 0,1 132.22693946,58.7255583946 z" fill="#f00" stroke="white" stroke-width="1" /><path d="M 129.635919279,44.9674111929 L 127.044899099,31.2092639911 A 70.0,70.0 0 0,0 105.994309775,38.8149280272 L 112.79544782,51.0519424218 A 56.0,56.0 0 0,1 129.635919279,44.9674111929 z" fill="#f00" stroke="white" stroke-width="1" /><path d="M 127.044899099,31.2092639911 L 124.453878919,17.4511167893 A 84.0,84.0 0 0,0 122.900667635,17.7588130395 L 125.750556363,31.4656775329 A 70.0,70.0 0 0,1 127.044899099,31.2092639911 z" fill="#f00" stroke="white" stroke-width="1" /><path d="M 125.750556363,31.4656775329 L 122.900667635,17.7588130395 A 84.0,84.0 0 0,0 122.789949938,17.7819108901 L 125.658291615,31.4849257418 A 70.0,70.0 0 0,1 125.750556363,31.4656775329 z" fill="#f00" stroke="white" stroke-width="1" /><path d="M 125.658291615,31.4849257418 L 122.789949938,17.7819108901 A 84.0,84.0 0 0,0 121.960575577,17.9598929396 L 124.967146314,31.6332441163 A 70.0,70.0 0 0,1 125.658291615,31.4849257418 z" fill="#f00" stroke="white" stroke-width="1" /><path d="M 124.967146314,31.6332441163 L 121.960575577,17.9598929396 A 84.0,84.0 0 0,0 118.717017423,18.7409411042 L 122.264181186,32.2841175868 A 70.0,70.0 0 0,1 124.967146314,31.6332441163 z" fill="#f00" stroke="white" stroke-width="1" /><path d="M 122.264181186,32.2841175868 L 118.717017423,18.7409411042 A 84.0,84.0 0 0,0 116.211174822,19.4388940205 L 120.175979018,32.8657450171 A 70.0,70.0 0 0,1 122.264181186,32.2841175868 z" fill="#f00" stroke="white" stroke-width="1" /><path d="M 120.175979018,32.8657450171 L 116.211174822,19.4388940205 A 84.0,84.0 0 0,0 114.212046847,20.0563856697 L 118.510039039,33.3803213914 A 70.0,70.0 0 0,1 120.175979018,32.8657450171 z" fill="#f00" stroke="white" stroke-width="1" /><path d="M 118.510039039,33.3803213914 L 114.212046847,20.0563856697 A 84.0,84.0 0 0,0 112.709762137,20.5566685153 L 117.258135114,33.7972237627 A 70.0,70.0 0 0,1 118.510039039,33.3803213914 z" fill="#f00" stroke="white" stroke-width="1" /><path d="M 117.258135114,33.7972237627 L 112.709762137,20.5566685153 A 84.0,84.0 0 0,0 110.210138983,21.4597925862 L 115.175115819,34.5498271552 A 70.0,70.0 0 0,1 117.258135114,33.7972237627 z" fill="#f00" stroke="white" stroke-width="1" /><path d="M 115.175115819,34.5498271552 L 110.210138983,21.4597925862 A 84.0,84.0 0 0,0 108.9450818,21.9513481502 L 114.1209015,34.9594567918 A 70.0,70.0 0 0,1 115.175115819,34.5498271552 z" fill="#f00" stroke="white" stroke-width="1" /><path d="M 114.1209015,34.9594567918 L 108.9450818,21.9513481502 A 84.0,84.0 0 0,0 108.525181381,22.1197342526 L 113.770984484,35.0997785438 A 70.0,70.0 0 0,1 114.1209015,34.9594567918 z" fill="#f00" stroke="white" stroke-width="1" /><path d="M 113.770984484,35.0997785438 L 108.525181381,22.1197342526 A 84.0,84.0 0 0,0 105.508962027,23.4077791186 L 111.257468356,36.1731492655 A 70.0,70.0 0 0,1 113.770984484,35.0997785438 z" fill="#f00" stroke="white" stroke-width="1" /><path d="M 111.257468356,36.1731492655 L 105.508962027,23.4077791186 A 84.0,84.0 0 0,0 103.255626206,24.4629164284 L 109.379688505,37.052430357 A 70.0,70.0 0 0,1 111.257468356,36.1731492655 z" fill="#f00" stroke="white" stroke-width="1" /><path d="M 109.379688505,37.052430357 L 103.255626206,24.4629164284 A 84.0,84.0 0 0,0 101.586674117,25.2978153293 L 107.988895097,37.7481794411 A 70.0,70.0 0 0,1 109.379688505,37.052430357 z" fill="#f00" stroke="white" stroke-width="1" /><path d="M 107.988895097,37.7481794411 L 101.586674117,25.2978153293 A 84.0,84.0 0 0,0 99.8373085067,26.2235931207 L 106.531090422,38.5196609339 A 70.0,70.0 0 0,1 107.988895097,37.7481794411 z" fill="#f00" stroke="white" stroke-width="1" /><path d="M 106.531090422,38.5196609339 L 99.8373085067,26.2235931207 A 84.0,84.0 0 0,0 99.1931717299,26.5779136326 L 105.994309775,38.8149280272 A 70.0,70.0 0 0,1 106.531090422,38.5196609339 z" fill="#f00" stroke="white" stroke-width="1" /><path d="M 112.79544782,51.0519424218 L 105.994309775,38.8149280272 A 70.0,70.0 0 0,0 100.076755589,42.5010038723 L 108.061404471,54.0008030978 A 56.0,56.0 0 0,1 112.79544782,51.0519424218 z" fill="#f00" stroke="white" stroke-width="1" /><path d="M 108.061404471,54.0008030978 L 100.076755589,42.5010038723 A 70.0,70.0 0 0,0 98.2398602523,43.8209048822 L 106.591888202,55.0567239058 A 56.0,56.0 0 0,1 108.061404471,54.0008030978 z" fill="#f00" stroke="white" stroke-width="1" /><path d="M 106.591888202,55.0567239058 L 98.2398602523,43.8209048822 A 70.0,70.0 0 0,0 97.076587496,44.7046054449 L 105.661269997,55.7636843559 A 56.0,56.0 0 0,1 106.591888202,55.0567239058 z" fill="#f00" stroke="white" stroke-width="1" /><path d="M 114.245952498,66.8227632669 L 105.661269997,55.7636843559 A 56.0,56.0 0 0,0 103.272788361,57.7257534041 L 112.454591271,68.294315053 A 42.0,42.0 0 0,1 114.245952498,66.8227632669 z" fill="#f00" stroke="white" stroke-width="1" /><path d="M 112.454591271,68.294315053 L 103.272788361,57.7257534041 A 56.0,56.0 0 0,0 100.432022139,60.3720410826 L 110.324016604,70.2790308119 A 42.0,42.0 0 0,1 112.454591271,68.294315053 z" fill="#f00" stroke="white" stroke-width="1" /><path d="M 110.324016604,70.2790308119 L 100.432022139,60.3720410826 A 56.0,56.0 0 0,0 96.4484069681,64.7968929726 L 107.336305226,73.5976697295 A 42.0,42.0 0 0,1 110.324016604,70.2790308119 z" fill="#f00" stroke="white" stroke-width="1" /><path d="M 100.432022139,60.3720410826 L 90.5400276733,50.4650513532 A 70.0,70.0 0 0,0 89.4518382373,51.576004477 L 99.5614705898,61.2608035816 A 56.0,56.0 0 0,1 100.432022139,60.3720410826 z" fill="#f00" stroke="white" stroke-width="1" /><path d="M 99.5614705898,61.2608035816 L 89.4518382373,51.576004477 A 70.0,70.0 0 0,0 88.7723100256,52.2954532578 L 99.0178480204,61.8363626062 A 56.0,56.0 0 0,1 99.5614705898,61.2608035816 z" fill="#f00" stroke="white" stroke-width="1" /><path d="M 99.0178480204,61.8363626062 L 88.7723100256,52.2954532578 A 70.0,70.0 0 0,0 88.1030207146,53.0244367671 L 98.4824165717,62.4195494137 A 56.0,56.0 0 0,1 99.0178480204,61.8363626062 z" fill="#f00" stroke="white" stroke-width="1" /><path d="M 98.4824165717,62.4195494137 L 88.1030207146,53.0244367671 A 70.0,70.0 0 0,0 86.7650792603,54.5462519275 L 97.4120634082,63.637001542 A 56.0,56.0 0 0,1 98.4824165717,62.4195494137 z" fill="#f00" stroke="white" stroke-width="1" /><path d="M 97.4120634082,63.637001542 L 86.7650792603,54.5462519275 A 70.0,70.0 0 0,0 85.5605087101,55.9961162158 L 96.4484069681,64.7968929726 A 56.0,56.0 0 0,1 97.4120634082,63.637001542 z" fill="#f00" stroke="white" stroke-width="1" /><path d="M 107.336305226,73.5976697295 L 96.4484069681,64.7968929726 A 56.0,56.0 0 0,0 95.5851258329,65.8925381665 L 106.688844375,74.4194036249 A 42.0,42.0 0 0,1 107.336305226,73.5976697295 z" fill="#f00" stroke="white" stroke-width="1" /><path d="M 96.4484069681,64.7968929726 L 85.5605087101,55.9961162158 A 70.0,70.0 0 0,0 85.2361359939,56.4004679025 L 96.1889087951,65.120374322 A 56.0,56.0 0 0,1 96.4484069681,64.7968929726 z" fill="#f00" stroke="white" stroke-width="1" /><path d="M 96.1889087951,65.120374322 L 85.2361359939,56.4004679025 A 70.0,70.0 0 0,0 84.4814072912,57.3656727081 L 95.5851258329,65.8925381665 A 56.0,56.0 0 0,1 96.1889087951,65.120374322 z" fill="#f00" stroke="white" stroke-width="1" /><path d="M 106.688844375,74.4194036249 L 95.5851258329,65.8925381665 A 56.0,56.0 0 0,0 95.3792851762,66.1622724076 L 106.534463882,74.6217043057 A 42.0,42.0 0 0,1 106.688844375,74.4194036249 z" fill="#f00" stroke="white" stroke-width="1" /><path d="M 106.534463882,74.6217043057 L 95.3792851762,66.1622724076 A 56.0,56.0 0 0,0 92.0974532782,70.9940347934 L 104.073089959,78.245526095 A 42.0,42.0 0 0,1 106.534463882,74.6217043057 z" fill="#f00" stroke="white" stroke-width="1" /><path d="M 104.073089959,78.245526095 L 92.0974532782,70.9940347934 A 56.0,56.0 0 0,0 89.8624562541,75.0555275235 L 102.396842191,81.2916456426 A 42.0,42.0 0 0,1 104.073089959,78.245526095 z" fill="#f00" stroke="white" stroke-width="1" /><path d="M 102.396842191,81.2916456426 L 89.8624562541,75.0555275235 A 56.0,56.0 0 0,0 89.4011825297,76.0050073847 L 102.050886897,82.0037555385 A 42.0,42.0 0 0,1 102.396842191,81.2916456426 z" fill="#f00" stroke="white" stroke-width="1" /><path d="M 114.700591265,88.0025036923 L 102.050886897,82.0037555385 A 42.0,42.0 0 0,0 100.162674934,86.6963339043 L 113.441783289,91.1308892695 A 28.0,28.0 0 0,1 114.700591265,88.0025036923 z" fill="#269100" stroke="white" stroke-width="1" /><path d="M 113.441783289,91.1308892695 L 100.162674934,86.6963339043 A 42.0,42.0 0 0,0 106.645837994,125.524495625 L 117.763891996,117.016330416 A 28.0,28.0 0 0,1 113.441783289,91.1308892695 z" fill="#a9ba00" stroke="white" stroke-width="1" /><path d="M 100.162674934,86.6963339043 L 86.8835665787,82.261778539 A 56.0,56.0 0 0,0 86.6725199139,82.9067303402 L 100.004389935,87.1800477551 A 42.0,42.0 0 0,1 100.162674934,86.6963339043 z" fill="#008000" stroke="white" stroke-width="1" /><path d="M 100.004389935,87.1800477551 L 86.6725199139,82.9067303402 A 56.0,56.0 0 0,0 86.1896551341,84.4936533829 L 99.6422413506,88.3702400372 A 42.0,42.0 0 0,1 100.004389935,87.1800477551 z" fill="#ea4c00" stroke="white" stroke-width="1" /><path d="M 99.6422413506,88.3702400372 L 86.1896551341,84.4936533829 A 56.0,56.0 0 0,0 86.1480934076,84.6386147641 L 99.6110700557,88.4789610731 A 42.0,42.0 0 0,1 99.6422413506,88.3702400372 z" fill="#008000" stroke="white" stroke-width="1" /><path d="M 86.1896551341,84.4936533829 L 72.7370689176,80.6170667286 A 70.0,70.0 0 0,0 72.6851167595,80.7982684551 L 86.1480934076,84.6386147641 A 56.0,56.0 0 0,1 86.1896551341,84.4936533829 z" fill="#008000" stroke="white" stroke-width="1" /><path d="M 99.6110700557,88.4789610731 L 86.1480934076,84.6386147641 A 56.0,56.0 0 0,0 85.0914783752,88.9975342318 L 98.8186087814,91.7481506738 A 42.0,42.0 0 0,1 99.6110700557,88.4789610731 z" fill="#5da400" stroke="white" stroke-width="1" /><path d="M 98.8186087814,91.7481506738 L 85.0914783752,88.9975342318 A 56.0,56.0 0 0,0 84.8474956478,90.294266453 L 98.6356217359,92.7206998398 A 42.0,42.0 0 0,1 98.8186087814,91.7481506738 z" fill="#198c00" stroke="white" stroke-width="1" /><path d="M 98.6356217359,92.7206998398 L 84.8474956478,90.294266453 A 56.0,56.0 0 0,0 84.6743495922,91.3355665534 L 98.5057621941,93.5016749151 A 42.0,42.0 0 0,1 98.6356217359,92.7206998398 z" fill="#fa1400" stroke="white" stroke-width="1" /><path d="M 98.5057621941,93.5016749151 L 84.6743495922,91.3355665534 A 56.0,56.0 0 0,0 84.6512178564,91.484583673 L 98.4884133923,93.6134377548 A 42.0,42.0 0 0,1 98.5057621941,93.5016749151 z" fill="#ea4c00" stroke="white" stroke-width="1" /><path d="M 98.4884133923,93.6134377548 L 84.6512178564,91.484583673 A 56.0,56.0 0 0,0 84.5311721512,92.3052526307 L 98.3983791134,94.228939473 A 42.0,42.0 0 0,1 98.4884133923,93.6134377548 z" fill="#008000" stroke="white" stroke-width="1" /><path d="M 98.3983791134,94.228939473 L 84.5311721512,92.3052526307 A 56.0,56.0 0 0,0 84.4396415435,107.003325509 L 98.3297311576,105.252494132 A 42.0,42.0 0 0,1 98.3983791134,94.228939473 z" fill="#fe0500" stroke="white" stroke-width="1" /><path d="M 98.3297311576,105.252494132 L 84.4396415435,107.003325509 A 56.0,56.0 0 0,0 84.4781655372,107.302458345 L 98.3586241529,105.476843759 A 42.0,42.0 0 0,1 98.3297311576,105.252494132 z" fill="#008000" stroke="white" stroke-width="1" /><path d="M 98.3586241529,105.476843759 L 84.4781655372,107.302458345 A 56.0,56.0 0 0,0 84.549457086,107.825425902 L 98.4120928145,105.869069427 A 42.0,42.0 0 0,1 98.3586241529,105.476843759 z" fill="#008000" stroke="white" stroke-width="1" /><path d="M 98.4120928145,105.869069427 L 84.549457086,107.825425902 A 56.0,56.0 0 0,0 84.6200671156,108.310417181 L 98.4650503367,106.232812885 A 42.0,42.0 0 0,1 98.4120928145,105.869069427 z" fill="#008000" stroke="white" stroke-width="1" /><path d="M 98.4650503367,106.232812885 L 84.6200671156,108.310417181 A 56.0,56.0 0 0,0 84.7008523486,108.832002549 L 98.5256392615,106.624001912 A 42.0,42.0 0 0,1 98.4650503367,106.232812885 z" fill="#008000" stroke="white" stroke-width="1" /><path d="M 98.5256392615,106.624001912 L 84.7008523486,108.832002549 A 56.0,56.0 0 0,0 84.9106973164,110.058266741 L 98.6830229873,107.543700056 A 42.0,42.0 0 0,1 98.5256392615,106.624001912 z" fill="#f00" stroke="white" stroke-width="1" /><path d="M 98.6830229873,107.543700056 L 84.9106973164,110.058266741 A 56.0,56.0 0 0,0 85.1325937735,111.205700959 L 98.8494453301,108.404275719 A 42.0,42.0 0 0,1 98.6830229873,107.543700056 z" fill="#d29500" stroke="white" stroke-width="1" /><path d="M 98.8494453301,108.404275719 L 85.1325937735,111.205700959 A 56.0,56.0 0 0,0 85.2170807166,111.61170766 L 98.9128105375,108.708780745 A 42.0,42.0 0 0,1 98.8494453301,108.404275719 z" fill="#008000" stroke="white" stroke-width="1" /><path d="M 98.9128105375,108.708780745 L 85.2170807166,111.61170766 A 56.0,56.0 0 0,0 85.2485483622,111.759189749 L 98.9364112716,108.819392312 A 42.0,42.0 0 0,1 98.9128105375,108.708780745 z" fill="#008000" stroke="white" stroke-width="1" /><path d="M 85.2170807166,111.61170766 L 71.5213508958,114.514634575 A 70.0,70.0 0 0,0 71.5606854527,114.698987186 L 85.2485483622,111.759189749 A 56.0,56.0 0 0,1 85.2170807166,111.61170766 z" fill="#008000" stroke="white" stroke-width="1" /><path d="M 98.9364112716,108.819392312 L 85.2485483622,111.759189749 A 56.0,56.0 0 0,0 85.328954013,112.12751956 L 98.9967155097,109.09563967 A 42.0,42.0 0 0,1 98.9364112716,108.819392312 z" fill="#008000" stroke="white" stroke-width="1" /><path d="M 98.9967155097,109.09563967 L 85.328954013,112.12751956 A 56.0,56.0 0 0,0 85.4287112118,112.568788327 L 99.0715334089,109.426591245 A 42.0,42.0 0 0,1 98.9967155097,109.09563967 z" fill="#c7b000" stroke="white" stroke-width="1" /><path d="M 99.0715334089,109.426591245 L 85.4287112118,112.568788327 A 56.0,56.0 0 0,0 85.4799258162,112.789116896 L 99.1099443621,109.591837672 A 42.0,42.0 0 0,1 99.0715334089,109.426591245 z" fill="#008000" stroke="white" stroke-width="1" /><path d="M 99.1099443621,109.591837672 L 85.4799258162,112.789116896 A 56.0,56.0 0 0,0 85.6661766066,113.558600055 L 99.249632455,110.168950041 A 42.0,42.0 0 0,1 99.1099443621,109.591837672 z" fill="#008000" stroke="white" stroke-width="1" /><path d="M 99.249632455,110.168950041 L 85.6661766066,113.558600055 A 56.0,56.0 0 0,0 85.7774839019,113.997097842 L 99.3331129264,110.497823381 A 42.0,42.0 0 0,1 99.249632455,110.168950041 z" fill="#f00" stroke="white" stroke-width="1" /><path d="M 99.3331129264,110.497823381 L 85.7774839019,113.997097842 A 56.0,56.0 0 0,0 86.1429256438,115.343257209 L 99.6071942328,111.507442907 A 42.0,42.0 0 0,1 99.3331129264,110.497823381 z" fill="#59a300" stroke="white" stroke-width="1" /><path d="M 99.6071942328,111.507442907 L 86.1429256438,115.343257209 A 56.0,56.0 0 0,0 86.3006104453,115.886332536 L 99.7254578339,111.914749402 A 42.0,42.0 0 0,1 99.6071942328,111.507442907 z" fill="#008000" stroke="white" stroke-width="1" /><path d="M 99.7254578339,111.914749402 L 86.3006104453,115.886332536 A 56.0,56.0 0 0,0 86.4748429584,116.463825912 L 99.8561322188,112.347869434 A 42.0,42.0 0 0,1 99.7254578339,111.914749402 z" fill="#008000" stroke="white" stroke-width="1" /><path d="M 99.8561322188,112.347869434 L 86.4748429584,116.463825912 A 56.0,56.0 0 0,0 86.6323914832,116.967567922 L 99.9742936124,112.725675942 A 42.0,42.0 0 0,1 99.8561322188,112.347869434 z" fill="#008000" stroke="white" stroke-width="1" /><path d="M 99.9742936124,112.725675942 L 86.6323914832,116.967567922 A 56.0,56.0 0 0,0 87.0102811788,118.113246513 L 100.257710884,113.584934885 A 42.0,42.0 0 0,1 99.9742936124,112.725675942 z" fill="#008000" stroke="white" stroke-width="1" /><path d="M 86.6323914832,116.967567922 L 73.290489354,121.209459903 A 70.0,70.0 0 0,0 73.7628514735,122.641558142 L 87.0102811788,118.113246513 A 56.0,56.0 0 0,1 86.6323914832,116.967567922 z" fill="#008000" stroke="white" stroke-width="1" /><path d="M 100.257710884,113.584934885 L 87.0102811788,118.113246513 A 56.0,56.0 0 0,0 87.2843566255,118.896056298 L 100.463267469,114.172042223 A 42.0,42.0 0 0,1 100.257710884,113.584934885 z" fill="#cda100" stroke="white" stroke-width="1" /><path d="M 100.463267469,114.172042223 L 87.2843566255,118.896056298 A 56.0,56.0 0 0,0 87.3868906805,119.179695716 L 100.54016801,114.384771787 A 42.0,42.0 0 0,1 100.463267469,114.172042223 z" fill="#f00" stroke="white" stroke-width="1" /><path d="M 100.54016801,114.384771787 L 87.3868906805,119.179695716 A 56.0,56.0 0 0,0 87.5172040098,119.533461676 L 100.637903007,114.650096257 A 42.0,42.0 0 0,1 100.54016801,114.384771787 z" fill="#008000" stroke="white" stroke-width="1" /><path d="M 100.637903007,114.650096257 L 87.5172040098,119.533461676 A 56.0,56.0 0 0,0 87.7985973616,120.273469426 L 100.848948021,115.20510207 A 42.0,42.0 0 0,1 100.637903007,114.650096257 z" fill="#008000" stroke="white" stroke-width="1" /><path d="M 100.848948021,115.20510207 L 87.7985973616,120.273469426 A 56.0,56.0 0 0,0 88.4661017845,121.914774348 L 101.349576338,116.436080761 A 42.0,42.0 0 0,1 100.848948021,115.20510207 z" fill="#008000" stroke="white" stroke-width="1" /><path d="M 101.349576338,116.436080761 L 88.4661017845,121.914774348 A 56.0,56.0 0 0,0 89.6543192733,124.521672703 L 102.240739455,118.391254527 A 42.0,42.0 0 0,1 101.349576338,116.436080761 z" fill="#008000" stroke="white" stroke-width="1" /><path d="M 88.4661017845,121.914774348 L 75.5826272306,127.393467935 A 70.0,70.0 0 0,0 76.0336217325,128.43066041 L 88.826897386,122.744528328 A 56.0,56.0 0 0,1 88.4661017845,121.914774348 z" fill="#008000" stroke="white" stroke-width="1" /><path d="M 88.826897386,122.744528328 L 76.0336217325,128.43066041 A 70.0,70.0 0 0,0 77.0678990916,130.652090879 L 89.6543192733,124.521672703 A 56.0,56.0 0 0,1 88.826897386,122.744528328 z" fill="#008000" stroke="white" stroke-width="1" /><path d="M 102.240739455,118.391254527 L 89.6543192733,124.521672703 A 56.0,56.0 0 0,0 91.4179740382,127.852948739 L 103.563480529,120.889711554 A 42.0,42.0 0 0,1 102.240739455,118.391254527 z" fill="#108800" stroke="white" stroke-width="1" /><path d="M 89.6543192733,124.521672703 L 77.0678990916,130.652090879 A 70.0,70.0 0 0,0 77.7859361769,132.084423988 L 90.2287489415,125.66753919 A 56.0,56.0 0 0,1 89.6543192733,124.521672703 z" fill="#008000" stroke="white" stroke-width="1" /><path d="M 90.2287489415,125.66753919 L 77.7859361769,132.084423988 A 70.0,70.0 0 0,0 79.2724675478,134.816185924 L 91.4179740382,127.852948739 A 56.0,56.0 0 0,1 90.2287489415,125.66753919 z" fill="#1c8d00" stroke="white" stroke-width="1" /><path d="M 103.563480529,120.889711554 L 91.4179740382,127.852948739 A 56.0,56.0 0 0,0 91.6065858648,128.179380198 L 103.704939399,121.134535149 A 42.0,42.0 0 0,1 103.563480529,120.889711554 z" fill="#008000" stroke="white" stroke-width="1" /><path d="M 103.704939399,121.134535149 L 91.6065858648,128.179380198 A 56.0,56.0 0 0,0 91.8358144788,128.569410793 L 103.876860859,121.427058095 A 42.0,42.0 0 0,1 103.704939399,121.134535149 z" fill="#008000" stroke="white" stroke-width="1" /><path d="M 103.876860859,121.427058095 L 91.8358144788,128.569410793 A 56.0,56.0 0 0,0 93.6118773068,131.371038762 L 105.20890798,123.528279071 A 42.0,42.0 0 0,1 103.876860859,121.427058095 z" fill="#138900" stroke="white" stroke-width="1" /><path d="M 91.8358144788,128.569410793 L 79.7947680985,135.711763492 A 70.0,70.0 0 0,0 80.281050065,136.519132228 L 92.224840052,129.215305782 A 56.0,56.0 0 0,1 91.8358144788,128.569410793 z" fill="#008000" stroke="white" stroke-width="1" /><path d="M 92.224840052,129.215305782 L 80.281050065,136.519132228 A 70.0,70.0 0 0,0 82.0148466335,139.213798452 L 93.6118773068,131.371038762 A 56.0,56.0 0 0,1 92.224840052,129.215305782 z" fill="#198c00" stroke="white" stroke-width="1" /><path d="M 105.20890798,123.528279071 L 93.6118773068,131.371038762 A 56.0,56.0 0 0,0 94.2766419814,132.332252187 L 105.707481486,124.24918914 A 42.0,42.0 0 0,1 105.20890798,123.528279071 z" fill="#1c8d00" stroke="white" stroke-width="1" /><path d="M 105.707481486,124.24918914 L 94.2766419814,132.332252187 A 56.0,56.0 0 0,0 95.3451374556,133.792650845 L 106.508853092,125.344488134 A 42.0,42.0 0 0,1 105.707481486,124.24918914 z" fill="#008000" stroke="white" stroke-width="1" /><path d="M 106.508853092,125.344488134 L 95.3451374556,133.792650845 A 56.0,56.0 0 0,0 95.5277839924,134.032660833 L 106.645837994,125.524495625 A 42.0,42.0 0 0,1 106.508853092,125.344488134 z" fill="#008000" stroke="white" stroke-width="1" /><path d="M 117.763891996,117.016330416 L 106.645837994,125.524495625 A 42.0,42.0 0 0,0 109.778891005,129.16649741 L 119.852594004,119.444331606 A 28.0,28.0 0 0,1 117.763891996,117.016330416 z" fill="#dc7800" stroke="white" stroke-width="1" /><path d="M 119.852594004,119.444331606 L 109.778891005,129.16649741 A 42.0,42.0 0 0,0 114.661148973,133.495412054 L 123.107432649,122.330274702 A 28.0,28.0 0 0,1 119.852594004,119.444331606 z" fill="#208e00" stroke="white" stroke-width="1" /><path d="M 109.778891005,129.16649741 L 99.7051880073,138.888663213 A 56.0,56.0 0 0,0 99.7838123019,138.969965961 L 109.837859226,129.227474471 A 42.0,42.0 0 0,1 109.778891005,129.16649741 z" fill="#008000" stroke="white" stroke-width="1" /><path d="M 99.7051880073,138.888663213 L 89.6314850091,148.610829016 A 70.0,70.0 0 0,0 89.7297653774,148.712457452 L 99.7838123019,138.969965961 A 56.0,56.0 0 0,1 99.7051880073,138.888663213 z" fill="#008000" stroke="white" stroke-width="1" /><path d="M 109.837859226,129.227474471 L 99.7838123019,138.969965961 A 56.0,56.0 0 0,0 99.9152171766,139.105117133 L 109.936412882,129.32883785 A 42.0,42.0 0 0,1 109.837859226,129.227474471 z" fill="#008000" stroke="white" stroke-width="1" /><path d="M 99.7838123019,138.969965961 L 89.7297653774,148.712457452 A 70.0,70.0 0 0,0 89.8940214707,148.881396416 L 99.9152171766,139.105117133 A 56.0,56.0 0 0,1 99.7838123019,138.969965961 z" fill="#008000" stroke="white" stroke-width="1" /><path d="M 109.936412882,129.32883785 L 99.9152171766,139.105117133 A 56.0,56.0 0 0,0 106.094722001,144.569407936 L 114.5710415,133.427055952 A 42.0,42.0 0 0,1 109.936412882,129.32883785 z" fill="#238f00" stroke="white" stroke-width="1" /><path d="M 99.9152171766,139.105117133 L 89.8940214707,148.881396416 A 70.0,70.0 0 0,0 91.9773696971,150.929627711 L 101.581895758,140.743702169 A 56.0,56.0 0 0,1 99.9152171766,139.105117133 z" fill="#008000" stroke="white" stroke-width="1" /><path d="M 101.581895758,140.743702169 L 91.9773696971,150.929627711 A 70.0,70.0 0 0,0 97.2069978891,155.39638048 L 105.765598311,144.317104384 A 56.0,56.0 0 0,1 101.581895758,140.743702169 z" fill="#008000" stroke="white" stroke-width="1" /><path d="M 105.765598311,144.317104384 L 97.2069978891,155.39638048 A 70.0,70.0 0 0,0 97.5434281234,155.65464495 L 106.034742499,144.52371596 A 56.0,56.0 0 0,1 105.765598311,144.317104384 z" fill="#f00" stroke="white" stroke-width="1" /><path d="M 106.034742499,144.52371596 L 97.5434281234,155.65464495 A 70.0,70.0 0 0,0 97.6184025008,155.71175992 L 106.094722001,144.569407936 A 56.0,56.0 0 0,1 106.034742499,144.52371596 z" fill="#008000" stroke="white" stroke-width="1" /><path d="M 114.5710415,133.427055952 L 106.094722001,144.569407936 A 56.0,56.0 0 0,0 106.214865298,144.660549405 L 114.661148973,133.495412054 A 42.0,42.0 0 0,1 114.5710415,133.427055952 z" fill="#008000" stroke="white" stroke-width="1" /><path d="M 123.107432649,122.330274702 L 114.661148973,133.495412054 A 42.0,42.0 0 0,0 131.713498302,141.174432475 L 134.475665535,127.44962165 A 28.0,28.0 0 0,1 123.107432649,122.330274702 z" fill="#2d9300" stroke="white" stroke-width="1" /><path d="M 114.661148973,133.495412054 L 106.214865298,144.660549405 A 56.0,56.0 0 0,0 107.123688878,145.333742036 L 115.342766658,134.000306527 A 42.0,42.0 0 0,1 114.661148973,133.495412054 z" fill="#008000" stroke="white" stroke-width="1" /><path d="M 115.342766658,134.000306527 L 107.123688878,145.333742036 A 56.0,56.0 0 0,0 107.737044361,145.772280841 L 115.802783271,134.329210631 A 42.0,42.0 0 0,1 115.342766658,134.000306527 z" fill="#d58e00" stroke="white" stroke-width="1" /><path d="M 115.802783271,134.329210631 L 107.737044361,145.772280841 A 56.0,56.0 0 0,0 109.6117542,147.037798813 L 117.20881565,135.27834911 A 42.0,42.0 0 0,1 115.802783271,134.329210631 z" fill="#459c00" stroke="white" stroke-width="1" /><path d="M 117.20881565,135.27834911 L 109.6117542,147.037798813 A 56.0,56.0 0 0,0 110.824908697,147.799728529 L 118.118681523,135.849796397 A 42.0,42.0 0 0,1 117.20881565,135.27834911 z" fill="#008000" stroke="white" stroke-width="1" /><path d="M 118.118681523,135.849796397 L 110.824908697,147.799728529 A 56.0,56.0 0 0,0 111.309085835,148.091906225 L 118.481814376,136.068929669 A 42.0,42.0 0 0,1 118.118681523,135.849796397 z" fill="#008000" stroke="white" stroke-width="1" /><path d="M 118.481814376,136.068929669 L 111.309085835,148.091906225 A 56.0,56.0 0 0,0 112.05715614,148.530376848 L 119.042867105,136.397782636 A 42.0,42.0 0 0,1 118.481814376,136.068929669 z" fill="#c9ab00" stroke="white" stroke-width="1" /><path d="M 119.042867105,136.397782636 L 112.05715614,148.530376848 A 56.0,56.0 0 0,0 112.450124595,148.75453174 L 119.337593446,136.565898805 A 42.0,42.0 0 0,1 119.042867105,136.397782636 z" fill="#008000" stroke="white" stroke-width="1" /><path d="M 119.337593446,136.565898805 L 112.450124595,148.75453174 A 56.0,56.0 0 0,0 116.611346791,150.881930988 L 122.458510093,138.161448241 A 42.0,42.0 0 0,1 119.337593446,136.565898805 z" fill="#1c8d00" stroke="white" stroke-width="1" /><path d="M 122.458510093,138.161448241 L 116.611346791,150.881930988 A 56.0,56.0 0 0,0 117.023163855,151.069217742 L 122.767372891,138.301913306 A 42.0,42.0 0 0,1 122.458510093,138.161448241 z" fill="#008000" stroke="white" stroke-width="1" /><path d="M 122.767372891,138.301913306 L 117.023163855,151.069217742 A 56.0,56.0 0 0,0 117.678263652,151.358933852 L 123.258697739,138.519200389 A 42.0,42.0 0 0,1 122.767372891,138.301913306 z" fill="#008000" stroke="white" stroke-width="1" /><path d="M 123.258697739,138.519200389 L 117.678263652,151.358933852 A 56.0,56.0 0 0,0 118.302255118,151.625651251 L 123.726691339,138.719238438 A 42.0,42.0 0 0,1 123.258697739,138.519200389 z" fill="#008000" stroke="white" stroke-width="1" /><path d="M 123.726691339,138.719238438 L 118.302255118,151.625651251 A 56.0,56.0 0 0,0 120.334103472,152.433314923 L 125.250577604,139.324986192 A 42.0,42.0 0 0,1 123.726691339,138.719238438 z" fill="#008000" stroke="white" stroke-width="1" /><path d="M 125.250577604,139.324986192 L 120.334103472,152.433314923 A 56.0,56.0 0 0,0 121.006380413,152.680569615 L 125.75478531,139.510427212 A 42.0,42.0 0 0,1 125.250577604,139.324986192 z" fill="#f00" stroke="white" stroke-width="1" /><path d="M 125.75478531,139.510427212 L 121.006380413,152.680569615 A 56.0,56.0 0 0,0 128.877422299,154.884317116 L 131.658066724,141.163237837 A 42.0,42.0 0 0,1 125.75478531,139.510427212 z" fill="#008000" stroke="white" stroke-width="1" /><path d="M 131.658066724,141.163237837 L 128.877422299,154.884317116 A 56.0,56.0 0 0,0 128.95133107,154.8992433 L 131.713498302,141.174432475 A 42.0,42.0 0 0,1 131.658066724,141.163237837 z" fill="#008000" stroke="white" stroke-width="1" /><path d="M 134.475665535,127.44962165 L 131.713498302,141.174432475 A 42.0,42.0 0 0,0 138.275688793,141.964589249 L 138.850459196,127.976392833 A 28.0,28.0 0 0,1 134.475665535,127.44962165 z" fill="#f00" stroke="white" stroke-width="1" /><path d="M 131.713498302,141.174432475 L 128.95133107,154.8992433 A 56.0,56.0 0 0,0 129.469245806,155.00093832 L 132.101934354,141.25070374 A 42.0,42.0 0 0,1 131.713498302,141.174432475 z" fill="#f00" stroke="white" stroke-width="1" /><path d="M 132.101934354,141.25070374 L 129.469245806,155.00093832 A 56.0,56.0 0 0,0 129.95100524,155.090994766 L 132.46325393,141.318246075 A 42.0,42.0 0 0,1 132.101934354,141.25070374 z" fill="#f00" stroke="white" stroke-width="1" /><path d="M 132.46325393,141.318246075 L 129.95100524,155.090994766 A 56.0,56.0 0 0,0 130.099395479,155.117855819 L 132.574546609,141.338391865 A 42.0,42.0 0 0,1 132.46325393,141.318246075 z" fill="#ea4c00" stroke="white" stroke-width="1" /><path d="M 132.574546609,141.338391865 L 130.099395479,155.117855819 A 56.0,56.0 0 0,0 133.455112354,155.616224662 L 135.091334265,141.712168497 A 42.0,42.0 0 0,1 132.574546609,141.338391865 z" fill="#f00" stroke="white" stroke-width="1" /><path d="M 135.091334265,141.712168497 L 133.455112354,155.616224662 A 56.0,56.0 0 0,0 133.604904272,155.633647648 L 135.203678204,141.725235736 A 42.0,42.0 0 0,1 135.091334265,141.712168497 z" fill="#ea4c00" stroke="white" stroke-width="1" /><path d="M 135.203678204,141.725235736 L 133.604904272,155.633647648 A 56.0,56.0 0 0,0 133.867151065,155.663167031 L 135.400363299,141.747375273 A 42.0,42.0 0 0,1 135.203678204,141.725235736 z" fill="#f00" stroke="white" stroke-width="1" /><path d="M 135.400363299,141.747375273 L 133.867151065,155.663167031 A 56.0,56.0 0 0,0 134.017067899,155.679480273 L 135.512800925,141.759610205 A 42.0,42.0 0 0,1 135.400363299,141.747375273 z" fill="#ea4c00" stroke="white" stroke-width="1" /><path d="M 135.512800925,141.759610205 L 134.017067899,155.679480273 A 56.0,56.0 0 0,0 134.16702812,155.695389747 L 135.62527109,141.77154231 A 42.0,42.0 0 0,1 135.512800925,141.759610205 z" fill="#ea4c00" stroke="white" stroke-width="1" /><path d="M 135.62527109,141.77154231 L 134.16702812,155.695389747 A 56.0,56.0 0 0,0 134.504591614,155.729709192 L 135.87844371,141.797281894 A 42.0,42.0 0 0,1 135.62527109,141.77154231 z" fill="#f00" stroke="white" stroke-width="1" /><path d="M 135.87844371,141.797281894 L 134.504591614,155.729709192 A 56.0,56.0 0 0,0 134.654685328,155.744305638 L 135.991013996,141.808229228 A 42.0,42.0 0 0,1 135.87844371,141.797281894 z" fill="#ea4c00" stroke="white" stroke-width="1" /><path d="M 135.991013996,141.808229228 L 134.654685328,155.744305638 A 56.0,56.0 0 0,0 134.804817804,155.758497845 L 136.103613353,141.818873384 A 42.0,42.0 0 0,1 135.991013996,141.808229228 z" fill="#008000" stroke="white" stroke-width="1" /><path d="M 136.103613353,141.818873384 L 134.804817804,155.758497845 A 56.0,56.0 0 0,0 136.270417253,155.875667446 L 137.20281294,141.906750584 A 42.0,42.0 0 0,1 136.103613353,141.818873384 z" fill="#339600" stroke="white" stroke-width="1" /><path d="M 137.20281294,141.906750584 L 136.270417253,155.875667446 A 56.0,56.0 0 0,0 136.609034434,155.897239221 L 137.456775826,141.922929416 A 42.0,42.0 0 0,1 137.20281294,141.906750584 z" fill="#f00" stroke="white" stroke-width="1" /><path d="M 137.456775826,141.922929416 L 136.609034434,155.897239221 A 56.0,56.0 0 0,0 137.550252219,155.946391625 L 138.162689164,141.959793718 A 42.0,42.0 0 0,1 137.456775826,141.922929416 z" fill="#f00" stroke="white" stroke-width="1" /><path d="M 138.162689164,141.959793718 L 137.550252219,155.946391625 A 56.0,56.0 0 0,0 137.700918391,155.952785666 L 138.275688793,141.964589249 A 42.0,42.0 0 0,1 138.162689164,141.959793718 z" fill="#ea4c00" stroke="white" stroke-width="1" /><path d="M 138.850459196,127.976392833 L 138.275688793,141.964589249 A 42.0,42.0 0 0,0 139.660699566,141.998629444 L 139.773799711,127.999086296 A 28.0,28.0 0 0,1 138.850459196,127.976392833 z" fill="#76ac00" stroke="white" stroke-width="1" /><path d="M 139.886899855,113.999543148 L 139.773799711,127.999086296 A 28.0,28.0 0 0,0 140.0,128.0 L 140.0,114.0 A 14.0,14.0 0 0,1 139.886899855,113.999543148 z" fill="#008000" stroke="white" stroke-width="1" /></svg>
