<svg xmlns="http://www.w3.org/2000/svg" width="200" height="200" aria-hidden="true"
    baseProfile="full" viewBox="0 0 280 200">
    <path fill="green" stroke="#fff"
        d="M0 0h26.6v27.1H0zM0 27.1h26.6v26.7H0zM0 53.8h26.6v24.6H0zM0 78.4h16.2v11.8H0zM0 90.2h16.2v9.6H0zM16.2 78.4h10.3v11H16.2zM16.2 89.4h10.3v10.4H16.2zM26.6 0h25.9v20.7H26.6z" />
    <path fill="green" stroke="#fff" d="M52.4 0h24.1v20.7H52.4zM76.5 0h24.1v20.7H76.5z" />
    <path fill="#0e8600" stroke="#fff" d="M26.6 20.7h19.6v20.2H26.6z" />
    <path fill="green" stroke="#fff"
        d="M46.1 20.7h18.4v20.2H46.1zM64.5 20.7h18.1v20.2H64.5zM82.6 20.7h18.1v20.2H82.6zM26.6 40.9h15V63h-15zM26.6 63h15v20.9h-15z" />
    <path fill="green" stroke="#fff"
        d="M26.6 83.8h15v16h-15zM41.5 40.9h15.3v15.3H41.5zM41.5 56.2h15.3v14.9H41.5z" />
    <path fill="green" stroke="#fff" d="M41.5 71.2h15.3v14.9H41.5z" />
    <path fill="green" stroke="#fff" d="M41.5 86.1h15.3v13.8H41.5zM56.8 40.9h14.8v13.8H56.8z" />
    <path fill="green" stroke="#fff"
        d="M71.5 40.9h14.8v13.8H71.5zM86.3 40.9h14.3v13.8H86.3zM56.8 54.7h15.1V67H56.8zM71.9 54.7h14.6V67H71.9zM86.5 54.7h14.1V67H86.5zM56.8 67h12.4v11.6H56.8zM56.8 78.6h12.4v11.1H56.8zM56.8 89.7h12.4v10.1H56.8zM69.2 67H80v11.1H69.2zM80 67h10.3v11.1H80zM90.3 67h10.3v11.1H90.3zM69.2 78.1H78V89h-8.8zM69.2 89H78v10.9h-8.8zM78 78.1h8.3V89H78zM78 89h8.3v10.9H78zM86.3 78.1h7.4v11.3h-7.4zM93.7 78.1h6.9v11.3h-6.9zM86.3 89.4h10.3v5.2H86.3z" />
    <path fill="green" stroke="#fff"
        d="M86.3 94.6h10.3v5.2H86.3zM96.6 89.4h4v10.5h-4zM100.6 0h22.1v20.9h-22.1zM122.7 0h13.8v20.9h-13.8zM100.6 20.9h11.5v15.2h-11.5zM100.6 36.1h11.5v12.6h-11.5zM112.1 20.9h14.1v9.3h-14.1zM126.2 20.9h10.3v9.3h-10.3zM112.1 30.2h8.8v9.6h-8.8zM112.1 39.8h8.8v8.9h-8.8zM120.9 30.2h8.2V39h-8.2z" />
    <path fill="green" stroke="#fff"
        d="M129 30.2h7.5V39H129zM120.9 39.1h5.6v9.6h-5.6zM126.5 39.1h5v9.6h-5zM131.5 39.1h5v9.6h-5zM100.6 48.7h35.9v20.2h-35.9zM100.6 68.9h15.3v30.9h-15.3zM116 68.9h7.5v15.2H116zM123.5 68.9h8.3V79h-8.3z" />
    <path fill="#fa1400" stroke="#fff" d="M123.5 79h8.3v5.1h-8.3z" />
    <path fill="green" stroke="#fff"
        d="M131.8 68.9h4.7v7.6h-4.7zM131.8 76.5h4.7v7.6h-4.7zM116 84.1h14.1v15.8H116z" />
    <path fill="green" stroke="#fff" d="M130 84.1h6.5v15.8H130z" />
    <path fill="red" stroke="#fff"
        d="M0 99.9h20.1v24.8H0zM0 124.7h20.1v15.2H0zM20.1 99.9h14.5v10.4H20.1zM34.6 99.9h12.2v10.4H34.6z" />
    <path fill="red" stroke="#fff"
        d="M46.7 99.9h12.2v10.4H46.7zM20.1 110.2h11.1v10.3H20.1zM20.1 120.5h11.1v9.7H20.1zM20.1 130.2h11.1v9.7H20.1z" />
    <path fill="red" stroke="#fff" d="M31.2 110.2h9.2v10.4h-9.2z" />
    <path fill="red" stroke="#fff" d="M40.4 110.2h9.2v10.4h-9.2zM49.7 110.2h9.2v10.4h-9.2z" />
    <path fill="red" stroke="#fff"
        d="M31.2 120.6h9.3v9.6h-9.3zM31.2 130.3h9.3v9.6h-9.3zM40.5 120.6H50v8.8h-9.5zM50.1 120.6h8.8v8.8h-8.8zM40.5 129.5H48V140h-7.5zM48 129.5h6.9V140H48zM54.9 129.5h4V140h-4zM58.9 99.9h19.8v19.4H58.9zM78.7 99.9h19.5v19.4H78.7z" />
    <path fill="red" stroke="#fff"
        d="M58.9 119.3H74v20.6H58.9zM74 119.3h14.5v20.6H74zM88.6 119.3h9.6v20.6h-9.6zM0 139.9h32.4v31H0zM0 170.9h32.4V200H0zM32.4 139.9h27.2V173H32.4zM32.4 173h27.2v27H32.4z" />
    <path fill="red" stroke="#fff"
        d="M59.5 139.9h19.3v22.7H59.5zM59.5 162.6h19.3V176H59.5zM78.8 139.9h19.3v36H78.8z" />
    <path fill="red" stroke="#fff"
        d="M59.5 175.9H76V200H59.5zM76 175.9h12.4v17.8H76zM88.4 175.9h9.7v17.8h-9.7zM76 193.8h12.5v6.2H76zM88.5 193.8h9.6v6.2h-9.6z" />
    <path fill="#d78700" stroke="#fff" d="M98.2 99.9h38.4v37.4H98.2z" />
    <path fill="red" stroke="#fff" d="M98.2 137.3h31.5v18.1H98.2zM98.2 155.4h31.5v16H98.2z" />
    <path fill="red" stroke="#fff"
        d="M129.6 137.3h6.9V160h-6.9zM129.6 160h6.9v11.4h-6.9zM98.2 171.4h11.3v14.3H98.2zM109.5 171.4h8.4v14.3h-8.4z" />
    <path fill="red" stroke="#fff" d="M98.2 185.7h7.5v8h-7.5z" />
    <path fill="red" stroke="#fff"
        d="M98.2 193.6h7.5v6.4h-7.5zM105.7 185.7h6.1v7.9h-6.1zM111.8 185.7h6.1v7.9h-6.1zM105.7 193.6h7.5v6.4h-7.5zM113.2 193.6h4.7v6.4h-4.7zM117.9 171.4h18.7v19.9h-18.7z" />
    <path fill="red" stroke="#fff"
        d="M117.9 191.3h18.7v8.7h-18.7zM136.5 0h18.2v19.5h-18.2zM154.7 0h17.9v19.5h-17.9zM172.6 0h14.5v19.5h-14.5zM136.5 19.5H151v19h-14.5z" />
    <path fill="red" stroke="#fff"
        d="M136.5 38.4H151v18.2h-14.5zM151 19.5h12.7V37H151zM163.7 19.5h12V37h-12zM175.8 19.5h11.3V37h-11.3z" />
    <path fill="red" stroke="#fff"
        d="M151 36.9h17.1v9.8H151zM151 46.8h17.1v9.8H151zM168.1 36.9h11.7v12.4h-11.7zM179.8 36.9h7.3v12.4h-7.3zM168.1 49.3h10.7v7.3h-10.7zM178.8 49.3h6.6v7.3h-6.6zM185.4 49.3h1.6v7.3h-1.6zM187.1 0h24.1v36.9h-24.1z" />
    <path fill="red" stroke="#fff"
        d="M187.1 36.9h14.6v19.7h-14.6zM201.7 36.9h9.4v19.7h-9.4zM136.5 56.6h14v18.5h-14zM150.5 56.6h13v18.5h-13zM136.5 75.1h11.9v16.7h-11.9zM148.4 75.1h15.1v8.3h-15.1zM148.4 83.4h15.1v8.3h-15.1zM136.5 91.8h26.9v34.5h-26.9zM163.5 56.6h26V85h-26z" />
    <path fill="red" stroke="#fff"
        d="M189.4 56.6h21.7V85h-21.7zM163.5 85h24.1v20.9h-24.1zM163.5 105.9h24.1v20.4h-24.1zM187.6 85h12.2v19.6h-12.2zM199.8 85h11.3v13.8h-11.3zM199.8 98.8h11.3v5.8h-11.3zM187.6 104.6h17.5v12h-17.5zM187.6 116.7h17.5v9.6h-17.5zM205.1 104.6h6.1v12.8h-6.1zM205.1 117.4h6.1v8.9h-6.1z" />
    <path fill="#fe0500" stroke="#fff" d="M211.2 0H280v34.1h-68.8z" />
    <path fill="#5da400" stroke="#fff" d="M211.2 34.1h26.7v26.8h-26.7z" />
    <path fill="#1c8d00" stroke="#fff" d="M237.8 34.1h22.4v17.7h-22.4z" />
    <path fill="green" stroke="#fff" d="M237.8 51.7h22.4v9.1h-22.4z" />
    <path fill="#198c00" stroke="#fff" d="M260.3 34.1H280v20.7h-19.7z" />
    <path fill="green" stroke="#fff"
        d="M260.3 54.8H280v6.1h-19.7zM211.2 60.8h19.7v15.8h-19.7zM211.2 76.7h19.7V84h-19.7zM211.2 84h19.7v14.6h-19.7zM211.2 98.6h19.7v14.3h-19.7z" />
    <path fill="#ea4c00" stroke="#fff" d="M211.2 112.9h19.7v13.4h-19.7z" />
    <path fill="#59a300" stroke="#fff" d="M230.9 60.8h17.3v12.8h-17.3z" />
    <path fill="#198c00" stroke="#fff" d="M248.2 60.8h16.4v12.8h-16.4z" />
    <path fill="red" stroke="#fff" d="M264.6 60.8H280v12.8h-15.4z" />
    <path fill="green" stroke="#fff" d="M230.9 73.7h12.9v14.9h-12.9z" />
    <path fill="#d29500" stroke="#fff" d="M243.8 73.7h12.5v14.9h-12.5z" />
    <path fill="#1c8d00" stroke="#fff" d="M256.2 73.7h12.5v14.9h-12.5z" />
    <path fill="#fa1400" stroke="#fff" d="M268.7 73.7H280v14.9h-11.3z" />
    <path fill="green" stroke="#fff" d="M230.9 88.5h10.3v12.8h-10.3z" />
    <path fill="#cda100" stroke="#fff" d="M230.9 101.3h10.3v12.8h-10.3z" />
    <path fill="green" stroke="#fff"
        d="M230.9 114.1h10.3v12.2h-10.3zM241.2 88.5h11.1v11.3h-11.1zM241.2 99.9h11.1v9.7h-11.1z" />
    <path fill="green" stroke="#fff"
        d="M241.2 109.6h11.1v8.6h-11.1zM241.2 118.2h11.1v8.1h-11.1zM252.3 88.5h9.2v9.1h-9.2zM261.6 88.5h9.2v9.1h-9.2zM270.8 88.5h9.2v9.1h-9.2zM252.3 97.7h9.7v8h-9.7z" />
    <path fill="#c7b000" stroke="#fff" d="M262.1 97.7h9v8h-9z" />
    <path fill="red" stroke="#fff" d="M271 97.7h9v8h-9z" />
    <path fill="green" stroke="#fff" d="M252.3 105.7h9.6v7.5h-9.6zM252.3 113.2h9.6v6.9h-9.6z" />
    <path fill="green" stroke="#fff"
        d="M252.3 120h9.6v6.2h-9.6zM261.9 105.7h9v6.6h-9zM271 105.7h9v6.6h-9zM261.9 112.3h6.9v7h-6.9z" />
    <path fill="red" stroke="#fff" d="M261.9 119.3h6.9v7h-6.9z" />
    <path fill="green" stroke="#fff"
        d="M268.8 112.3h6.4v7.5h-6.4zM275.2 112.3h4.8v7.5h-4.8zM268.8 119.8h3.7v6.4h-3.7z" />
    <path fill="#ea4c00" stroke="#fff" d="M272.5 119.8h3.7v6.4h-3.7z" />
    <path fill="green" stroke="#fff" d="M276.3 119.8h3.7v6.4h-3.7zM136.5 126.3h39.8V159h-39.8z" />
    <path fill="#1c8d00" stroke="#fff" d="M176.3 126.3H199V159h-22.7z" />
    <path fill="#459c00" stroke="#fff" d="M136.5 159h22.6v15.9h-22.6z" />
    <path fill="green" stroke="#fff"
        d="M136.5 174.9h22.6v15.4h-22.6zM159.1 159h13v17.5h-13zM159.1 176.5h13v13.8h-13z" />
    <path fill="#c9ab00" stroke="#fff" d="M172.2 159h14.4v9.6h-14.4z" />
    <path fill="#d58e00" stroke="#fff" d="M186.6 159h12.5v9.6h-12.5z" />
    <path fill="green" stroke="#fff" d="M172.2 168.6h10.5v10.8h-10.5z" />
    <path fill="red" stroke="#fff" d="M172.2 179.4h10.5v10.8h-10.5z" />
    <path fill="green" stroke="#fff"
        d="M182.7 168.6h8.9v12.1h-8.9zM191.6 168.6h7.4v12.1h-7.4zM182.7 180.7h7.5v9.5h-7.5zM190.3 180.7h8.8v8.2h-8.8zM190.3 188.9h8.8v1.4h-8.8z" />
    <path fill="red" stroke="#fff" d="M199.1 126.3h16.8v32.2h-16.8z" />
    <path fill="#339600" stroke="#fff" d="M215.8 126.3h16.4v14.3h-16.4z" />
    <path fill="red" stroke="#fff"
        d="M232.2 126.3h10.5v14.3h-10.5zM215.8 140.6h9.1v9.3h-9.1zM215.8 149.9h9.1v8.6h-9.1zM224.9 140.6h8.9v6.1h-8.9zM233.8 140.6h8.9v6.1h-8.9zM224.9 146.7h5.6v7.5h-5.6z" />
    <path fill="#ea4c00" stroke="#fff"
        d="M224.9 154.2h5.6v4.3h-5.6zM230.5 146.7h4.1v5.9h-4.1zM230.5 152.6h4.1v5.9h-4.1z" />
    <path fill="#ea4c00" stroke="#fff" d="M234.5 146.7h4.1v5.9h-4.1zM238.6 146.7h4.1v5.9h-4.1z" />
    <path fill="green" stroke="#fff" d="M234.5 152.6h4.1v5.9h-4.1z" />
    <path fill="#ea4c00" stroke="#fff" d="M238.6 152.6h4.1v5.9h-4.1z" />
    <path fill="green" stroke="#fff" d="M199.1 158.5h27.6v31.8h-27.6z" />
    <path fill="green" stroke="#fff" d="M226.6 158.5h13.8v27h-13.8z" />
    <path fill="red" stroke="#fff" d="M226.6 185.5h11.3v4.8h-11.3z" />
    <path fill="green" stroke="#fff"
        d="M237.9 185.5h2.5v4.8h-2.5zM240.4 158.5h2.3v13.2h-2.3zM240.4 171.7h2.3v10.6h-2.3zM240.4 182.3h2.3v7.9h-2.3z" />
    <path fill="#269100" stroke="#fff" d="M242.7 126.3H280v28.8h-37.3z" />
    <path fill="#dc7800" stroke="#fff" d="M242.7 155.1h29v35.2h-29z" />
    <path fill="#76ac00" stroke="#fff" d="M271.6 155.1h8.4v35.2h-8.4z" />
    <path fill="red" stroke="#fff" d="M136.5 190.3h136.1v9.7H136.5z" />
    <path fill="green" stroke="#fff" d="M272.6 190.3h7.4v9.7h-7.4z" />
</svg>