<svg aria-hidden="true" role="img" baseProfile="full" height="200" version="1.1" viewBox="0 0 280 200" width="200" xmlns="http://www.w3.org/2000/svg" xmlnsEv="http://www.w3.org/2001/xml-events" xmlnsXlink="http://www.w3.org/1999/xlink"><defs /><rect fill="#008000" height="27.1135199642" stroke="white" stroke-width="1" width="26.555966033" x="0" y="0" /><rect fill="#008000" height="26.6616279648" stroke="white" stroke-width="1" width="26.555966033" x="0" y="27.1135199642" /><rect fill="#008000" height="24.6281139675" stroke="white" stroke-width="1" width="26.555966033" x="0" y="53.775147929" /><rect fill="#008000" height="11.8426868809" stroke="white" stroke-width="1" width="16.2131161044" x="0" y="78.4032618965" /><rect fill="#008000" height="9.62218309074" stroke="white" stroke-width="1" width="16.2131161044" x="0" y="90.2459487774" /><rect fill="#008000" height="11.0225007963" stroke="white" stroke-width="1" width="10.3428499286" x="16.2131161044" y="78.4032618965" /><rect fill="#008000" height="10.4423691754" stroke="white" stroke-width="1" width="10.3428499286" x="16.2131161044" y="89.4257626927" /><rect fill="#008000" height="20.6539932087" stroke="white" stroke-width="1" width="25.8554879298" x="26.555966033" y="0" /><rect fill="#008000" height="20.6539932087" stroke="white" stroke-width="1" width="24.1124213277" x="52.4114539627" y="0" /><rect fill="#008000" height="20.6539932087" stroke="white" stroke-width="1" width="24.1124213277" x="76.5238752905" y="0" /><rect fill="#0e8600" height="20.2490129497" stroke="white" stroke-width="1" width="19.5572072745" x="26.555966033" y="20.6539932087" /><rect fill="#008000" height="20.2490129497" stroke="white" stroke-width="1" width="18.3719219851" x="46.1131733075" y="20.6539932087" /><rect fill="#008000" height="20.2490129497" stroke="white" stroke-width="1" width="18.0756006628" x="64.4850952926" y="20.6539932087" /><rect fill="#008000" height="20.2490129497" stroke="white" stroke-width="1" width="18.0756006628" x="82.5606959554" y="20.6539932087" /><rect fill="#008000" height="22.0617817281" stroke="white" stroke-width="1" width="14.9585282913" x="26.555966033" y="40.9030061585" /><rect fill="#008000" height="20.8584118157" stroke="white" stroke-width="1" width="14.9585282913" x="26.555966033" y="62.9647878866" /><rect fill="#008000" height="16.0449321659" stroke="white" stroke-width="1" width="14.9585282913" x="26.555966033" y="83.8231997022" /><rect fill="#008000" height="15.3309326845" stroke="white" stroke-width="1" width="15.2638043788" x="41.5144943242" y="40.9030061585" /><rect fill="#008000" height="14.9378318464" stroke="white" stroke-width="1" width="15.2638043788" x="41.5144943242" y="56.233938843" /><rect fill="#008000" height="14.9378318464" stroke="white" stroke-width="1" width="15.2638043788" x="41.5144943242" y="71.1717706894" /><rect fill="#008000" height="13.7585293323" stroke="white" stroke-width="1" width="15.2638043788" x="41.5144943242" y="86.1096025359" /><rect fill="#008000" height="13.8178136814" stroke="white" stroke-width="1" width="14.7640785061" x="56.7782987031" y="40.9030061585" /><rect fill="#008000" height="13.8178136814" stroke="white" stroke-width="1" width="14.7640785061" x="71.5423772092" y="40.9030061585" /><rect fill="#008000" height="13.8178136814" stroke="white" stroke-width="1" width="14.329840903" x="86.3064557153" y="40.9030061585" /><rect fill="#008000" height="12.3129032804" stroke="white" stroke-width="1" width="15.1066437263" x="56.7782987031" y="54.7208198399" /><rect fill="#008000" height="12.3129032804" stroke="white" stroke-width="1" width="14.6193326384" x="71.8849424294" y="54.7208198399" /><rect fill="#008000" height="12.3129032804" stroke="white" stroke-width="1" width="14.1320215504" x="86.5042750678" y="54.7208198399" /><rect fill="#008000" height="11.5886148522" stroke="white" stroke-width="1" width="12.4264327426" x="56.7782987031" y="67.0337231203" /><rect fill="#008000" height="11.1057559" stroke="white" stroke-width="1" width="12.4264327426" x="56.7782987031" y="78.6223379725" /><rect fill="#008000" height="10.1400379957" stroke="white" stroke-width="1" width="12.4264327426" x="56.7782987031" y="89.7280938725" /><rect fill="#008000" height="11.0720680661" stroke="white" stroke-width="1" width="10.8384707492" x="69.2047314457" y="67.0337231203" /><rect fill="#008000" height="11.0720680661" stroke="white" stroke-width="1" width="10.2965472117" x="80.0432021949" y="67.0337231203" /><rect fill="#008000" height="11.0720680661" stroke="white" stroke-width="1" width="10.2965472117" x="90.3397494065" y="67.0337231203" /><rect fill="#008000" height="10.8811703409" stroke="white" stroke-width="1" width="8.82289548703" x="69.2047314457" y="78.1057911864" /><rect fill="#008000" height="10.8811703409" stroke="white" stroke-width="1" width="8.82289548703" x="69.2047314457" y="88.9869615273" /><rect fill="#008000" height="10.8811703409" stroke="white" stroke-width="1" width="8.27146451909" x="78.0276269327" y="78.1057911864" /><rect fill="#008000" height="10.8811703409" stroke="white" stroke-width="1" width="8.27146451909" x="78.0276269327" y="88.9869615273" /><rect fill="#008000" height="11.2996768924" stroke="white" stroke-width="1" width="7.43410638259" x="86.2990914518" y="78.1057911864" /><rect fill="#008000" height="11.2996768924" stroke="white" stroke-width="1" width="6.90309878383" x="93.7331978344" y="78.1057911864" /><rect fill="#008000" height="5.23133189464" stroke="white" stroke-width="1" width="10.3227877198" x="86.2990914518" y="89.4054680789" /><rect fill="#008000" height="5.23133189464" stroke="white" stroke-width="1" width="10.3227877198" x="86.2990914518" y="94.6367999735" /><rect fill="#008000" height="10.4626637893" stroke="white" stroke-width="1" width="4.0144174466" x="96.6218791716" y="89.4054680789" /><rect fill="#008000" height="20.9104128702" stroke="white" stroke-width="1" width="22.0950443904" x="100.636296618" y="0" /><rect fill="#008000" height="20.9104128702" stroke="white" stroke-width="1" width="13.7735341655" x="122.731341009" y="0" /><rect fill="#008000" height="15.1943739709" stroke="white" stroke-width="1" width="11.4520160449" x="100.636296618" y="20.9104128702" /><rect fill="#008000" height="12.5746543207" stroke="white" stroke-width="1" width="11.4520160449" x="100.636296618" y="36.1047868411" /><rect fill="#008000" height="9.33825730161" stroke="white" stroke-width="1" width="14.1359046116" x="112.088312663" y="20.9104128702" /><rect fill="#008000" height="9.33825730161" stroke="white" stroke-width="1" width="10.2806578993" x="126.224217275" y="20.9104128702" /><rect fill="#008000" height="9.5566960689" stroke="white" stroke-width="1" width="8.78996250393" x="112.088312663" y="30.2486701718" /><rect fill="#008000" height="8.87407492112" stroke="white" stroke-width="1" width="8.78996250393" x="112.088312663" y="39.8053662407" /><rect fill="#008000" height="8.83141109939" stroke="white" stroke-width="1" width="8.1530086993" x="120.878275167" y="30.2486701718" /><rect fill="#008000" height="8.83141109939" stroke="white" stroke-width="1" width="7.47359130769" x="129.031283866" y="30.2486701718" /><rect fill="#008000" height="9.59935989064" stroke="white" stroke-width="1" width="5.62557600252" x="120.878275167" y="39.0800812712" /><rect fill="#008000" height="9.59935989064" stroke="white" stroke-width="1" width="5.00051200224" x="126.50385117" y="39.0800812712" /><rect fill="#008000" height="9.59935989064" stroke="white" stroke-width="1" width="5.00051200224" x="131.504363172" y="39.0800812712" /><rect fill="#008000" height="20.2412796584" stroke="white" stroke-width="1" width="35.8685785559" x="100.636296618" y="48.6794411619" /><rect fill="#008000" height="30.9474110479" stroke="white" stroke-width="1" width="15.3168524644" x="100.636296618" y="68.9207208202" /><rect fill="#008000" height="15.181748816" stroke="white" stroke-width="1" width="7.50928453342" x="115.953149083" y="68.9207208202" /><rect fill="#008000" height="10.1211658773" stroke="white" stroke-width="1" width="8.29973553694" x="123.462433616" y="68.9207208202" /><rect fill="#fa1400" height="5.06058293865" stroke="white" stroke-width="1" width="8.29973553694" x="123.462433616" y="79.0418866975" /><rect fill="#008000" height="7.59087440798" stroke="white" stroke-width="1" width="4.74270602111" x="131.762169153" y="68.9207208202" /><rect fill="#008000" height="7.59087440798" stroke="white" stroke-width="1" width="4.74270602111" x="131.762169153" y="76.5115952282" /><rect fill="#008000" height="15.765662232" stroke="white" stroke-width="1" width="14.0817382479" x="115.953149083" y="84.1024696362" /><rect fill="#008000" height="15.765662232" stroke="white" stroke-width="1" width="6.46998784361" x="130.034887331" y="84.1024696362" /><rect fill="#f00" height="24.8012183177" stroke="white" stroke-width="1" width="20.08037589" x="0" y="99.8681318681" /><rect fill="#f00" height="15.2393028217" stroke="white" stroke-width="1" width="20.08037589" x="0" y="124.669350186" /><rect fill="#f00" height="10.35797265" stroke="white" stroke-width="1" width="14.4821156035" x="20.08037589" y="99.8681318681" /><rect fill="#f00" height="10.35797265" stroke="white" stroke-width="1" width="12.1649771069" x="34.5624914935" y="99.8681318681" /><rect fill="#f00" height="10.35797265" stroke="white" stroke-width="1" width="12.1649771069" x="46.7274686004" y="99.8681318681" /><rect fill="#f00" height="10.2539712964" stroke="white" stroke-width="1" width="11.1180408331" x="20.08037589" y="110.226104518" /><rect fill="#f00" height="9.71428859655" stroke="white" stroke-width="1" width="11.1180408331" x="20.08037589" y="120.480075814" /><rect fill="#f00" height="9.71428859655" stroke="white" stroke-width="1" width="11.1180408331" x="20.08037589" y="130.194364411" /><rect fill="#f00" height="10.3997250182" stroke="white" stroke-width="1" width="9.23134299473" x="31.1984167231" y="110.226104518" /><rect fill="#f00" height="10.3997250182" stroke="white" stroke-width="1" width="9.23134299473" x="40.4297597178" y="110.226104518" /><rect fill="#f00" height="10.3997250182" stroke="white" stroke-width="1" width="9.23134299473" x="49.6611027125" y="110.226104518" /><rect fill="#f00" height="9.64141173563" stroke="white" stroke-width="1" width="9.33506594972" x="31.1984167231" y="120.625829536" /><rect fill="#f00" height="9.64141173563" stroke="white" stroke-width="1" width="9.33506594972" x="31.1984167231" y="130.267241272" /><rect fill="#f00" height="8.82434294447" stroke="white" stroke-width="1" width="9.51946231416" x="40.5334826728" y="120.625829536" /><rect fill="#f00" height="8.82434294447" stroke="white" stroke-width="1" width="8.83950072029" x="50.052944987" y="120.625829536" /><rect fill="#f00" height="10.4584805268" stroke="white" stroke-width="1" width="7.45832873275" x="40.5334826728" y="129.450172481" /><rect fill="#f00" height="10.4584805268" stroke="white" stroke-width="1" width="6.88461113792" x="47.9918114055" y="129.450172481" /><rect fill="#f00" height="10.4584805268" stroke="white" stroke-width="1" width="4.01602316379" x="54.8764225435" y="129.450172481" /><rect fill="#f00" height="19.4089549035" stroke="white" stroke-width="1" width="19.7853885841" x="58.8924457073" y="99.8681318681" /><rect fill="#f00" height="19.4089549035" stroke="white" stroke-width="1" width="19.4762418874" x="78.6778342913" y="99.8681318681" /><rect fill="#f00" height="20.631566236" stroke="white" stroke-width="1" width="15.1229984038" x="58.8924457073" y="119.277086772" /><rect fill="#f00" height="20.631566236" stroke="white" stroke-width="1" width="14.5413446191" x="74.0154441111" y="119.277086772" /><rect fill="#f00" height="20.631566236" stroke="white" stroke-width="1" width="9.59728744859" x="88.5567887302" y="119.277086772" /><rect fill="#f00" height="30.973009098" stroke="white" stroke-width="1" width="32.3519030335" x="0" y="139.908653008" /><rect fill="#f00" height="29.1183378945" stroke="white" stroke-width="1" width="32.3519030335" x="0" y="170.881662106" /><rect fill="#f00" height="33.1386104738" stroke="white" stroke-width="1" width="27.1596222997" x="32.3519030335" y="139.908653008" /><rect fill="#f00" height="26.9527365187" stroke="white" stroke-width="1" width="27.1596222997" x="32.3519030335" y="173.047263481" /><rect fill="#f00" height="22.6701205708" stroke="white" stroke-width="1" width="19.3212754228" x="59.5115253332" y="139.908653008" /><rect fill="#f00" height="13.353632665" stroke="white" stroke-width="1" width="19.3212754228" x="59.5115253332" y="162.578773578" /><rect fill="#f00" height="36.0237532358" stroke="white" stroke-width="1" width="19.3212754228" x="78.832800756" y="139.908653008" /><rect fill="#f00" height="24.0675937567" stroke="white" stroke-width="1" width="16.4542474568" x="59.5115253332" y="175.932406243" /><rect fill="#f00" height="17.8478785162" stroke="white" stroke-width="1" width="12.4388973543" x="75.96577279" y="175.932406243" /><rect fill="#f00" height="17.8478785162" stroke="white" stroke-width="1" width="9.74940603444" x="88.4046701443" y="175.932406243" /><rect fill="#f00" height="6.21971524049" stroke="white" stroke-width="1" width="12.5412149589" x="75.96577279" y="193.78028476" /><rect fill="#f00" height="6.21971524049" stroke="white" stroke-width="1" width="9.64708842989" x="88.5069877489" y="193.78028476" /><rect fill="#d78700" height="37.3929945055" stroke="white" stroke-width="1" width="38.3507989954" x="98.1540761788" y="99.8681318681" /><rect fill="#f00" height="18.1017020689" stroke="white" stroke-width="1" width="31.4898762393" x="98.1540761788" y="137.261126374" /><rect fill="#f00" height="16.0057155135" stroke="white" stroke-width="1" width="31.4898762393" x="98.1540761788" y="155.362828443" /><rect fill="#f00" height="22.7382783883" stroke="white" stroke-width="1" width="6.86092275605" x="129.643952418" y="137.261126374" /><rect fill="#f00" height="11.3691391941" stroke="white" stroke-width="1" width="6.86092275605" x="129.643952418" y="159.999404762" /><rect fill="#f00" height="14.315728022" stroke="white" stroke-width="1" width="11.3166292117" x="98.1540761788" y="171.368543956" /><rect fill="#f00" height="14.315728022" stroke="white" stroke-width="1" width="8.382688305" x="109.47070539" y="171.368543956" /><rect fill="#f00" height="7.95318223443" stroke="white" stroke-width="1" width="7.5444194745" x="98.1540761788" y="185.684271978" /><rect fill="#f00" height="6.36254578755" stroke="white" stroke-width="1" width="7.5444194745" x="98.1540761788" y="193.637454212" /><rect fill="#f00" height="7.89833270178" stroke="white" stroke-width="1" width="6.07744902112" x="105.698495653" y="185.684271978" /><rect fill="#f00" height="7.89833270178" stroke="white" stroke-width="1" width="6.07744902112" x="111.775944674" y="185.684271978" /><rect fill="#f00" height="6.4173953202" stroke="white" stroke-width="1" width="7.47993725677" x="105.698495653" y="193.58260468" /><rect fill="#f00" height="6.4173953202" stroke="white" stroke-width="1" width="4.67496078548" x="113.17843291" y="193.58260468" /><rect fill="#f00" height="19.9455087048" stroke="white" stroke-width="1" width="18.6514814786" x="117.853393695" y="171.368543956" /><rect fill="#f00" height="8.68594733918" stroke="white" stroke-width="1" width="18.6514814786" x="117.853393695" y="191.314052661" /><rect fill="#f00" height="19.4562214551" stroke="white" stroke-width="1" width="18.195344051" x="136.504875174" y="0" /><rect fill="#f00" height="19.4562214551" stroke="white" stroke-width="1" width="17.8869483891" x="154.700219225" y="0" /><rect fill="#f00" height="19.4562214551" stroke="white" stroke-width="1" width="14.4945961084" x="172.587167614" y="0" /><rect fill="#f00" height="18.979043124" stroke="white" stroke-width="1" width="14.5428753015" x="136.504875174" y="19.4562214551" /><rect fill="#f00" height="18.153867336" stroke="white" stroke-width="1" width="14.5428753015" x="136.504875174" y="38.4352645792" /><rect fill="#f00" height="17.484105822" stroke="white" stroke-width="1" width="12.6976999061" x="151.047750476" y="19.4562214551" /><rect fill="#f00" height="17.484105822" stroke="white" stroke-width="1" width="12.011337749" x="163.745450382" y="19.4562214551" /><rect fill="#f00" height="17.484105822" stroke="white" stroke-width="1" width="11.3249755919" x="175.756788131" y="19.4562214551" /><rect fill="#f00" height="9.82440231903" stroke="white" stroke-width="1" width="17.1008876427" x="151.047750476" y="36.9403272771" /><rect fill="#f00" height="9.82440231903" stroke="white" stroke-width="1" width="17.1008876427" x="151.047750476" y="46.7647295962" /><rect fill="#f00" height="12.3597319498" stroke="white" stroke-width="1" width="11.6511542181" x="168.148638118" y="36.9403272771" /><rect fill="#f00" height="12.3597319498" stroke="white" stroke-width="1" width="7.28197138631" x="179.799792336" y="36.9403272771" /><rect fill="#f00" height="7.28907268831" stroke="white" stroke-width="1" width="10.7013318634" x="168.148638118" y="49.3000592269" /><rect fill="#f00" height="7.28907268831" stroke="white" stroke-width="1" width="6.58543499283" x="178.849969982" y="49.3000592269" /><rect fill="#f00" height="7.28907268831" stroke="white" stroke-width="1" width="1.64635874821" x="185.435404975" y="49.3000592269" /><rect fill="#f00" height="36.8951168434" stroke="white" stroke-width="1" width="24.0690853261" x="187.081763723" y="0" /><rect fill="#f00" height="19.6940150718" stroke="white" stroke-width="1" width="14.6242543753" x="187.081763723" y="36.8951168434" /><rect fill="#f00" height="19.6940150718" stroke="white" stroke-width="1" width="9.44483095073" x="201.706018098" y="36.8951168434" /><rect fill="#f00" height="18.4804790596" stroke="white" stroke-width="1" width="13.9611756699" x="136.504875174" y="56.5891319152" /><rect fill="#f00" height="18.4804790596" stroke="white" stroke-width="1" width="12.987140158" x="150.466050844" y="56.5891319152" /><rect fill="#f00" height="16.6992280659" stroke="white" stroke-width="1" width="11.8572589643" x="136.504875174" y="75.0696109748" /><rect fill="#f00" height="8.34961403297" stroke="white" stroke-width="1" width="15.0910568636" x="148.362134138" y="75.0696109748" /><rect fill="#f00" height="8.34961403297" stroke="white" stroke-width="1" width="15.0910568636" x="148.362134138" y="83.4192250078" /><rect fill="#f00" height="34.5117380029" stroke="white" stroke-width="1" width="26.9483158279" x="136.504875174" y="91.7688390408" /><rect fill="#f00" height="28.4300841138" stroke="white" stroke-width="1" width="25.9593448662" x="163.453191002" y="56.5891319152" /><rect fill="#f00" height="28.4300841138" stroke="white" stroke-width="1" width="21.7383131806" x="189.412535868" y="56.5891319152" /><rect fill="#f00" height="20.8792429231" stroke="white" stroke-width="1" width="24.1396684017" x="163.453191002" y="85.019216029" /><rect fill="#f00" height="20.3821180916" stroke="white" stroke-width="1" width="24.1396684017" x="163.453191002" y="105.898458952" /><rect fill="#f00" height="19.61188147" stroke="white" stroke-width="1" width="12.2379166987" x="187.592859404" y="85.019216029" /><rect fill="#f00" height="13.781322114" stroke="white" stroke-width="1" width="11.3200729463" x="199.830776102" y="85.019216029" /><rect fill="#f00" height="5.83055935593" stroke="white" stroke-width="1" width="11.3200729463" x="199.830776102" y="98.800538143" /><rect fill="#f00" height="12.027488636" stroke="white" stroke-width="1" width="17.4606276193" x="187.592859404" y="104.631097499" /><rect fill="#f00" height="9.62199090878" stroke="white" stroke-width="1" width="17.4606276193" x="187.592859404" y="116.658586135" /><rect fill="#f00" height="12.7928742764" stroke="white" stroke-width="1" width="6.09736202578" x="205.053487023" y="104.631097499" /><rect fill="#f00" height="8.85660526831" stroke="white" stroke-width="1" width="6.09736202578" x="205.053487023" y="117.423971775" /><rect fill="#fe0500" height="34.0757112658" stroke="white" stroke-width="1" width="68.8491509512" x="211.150849049" y="0" /><rect fill="#5da400" height="26.7550981038" stroke="white" stroke-width="1" width="26.6874559062" x="211.150849049" y="34.0757112658" /><rect fill="#1c8d00" height="17.6583647485" stroke="white" stroke-width="1" width="22.4264335346" x="237.838304955" y="34.0757112658" /><rect fill="#008000" height="9.09673335529" stroke="white" stroke-width="1" width="22.4264335346" x="237.838304955" y="51.7340760143" /><rect fill="#198c00" height="20.6743939893" stroke="white" stroke-width="1" width="19.7352615104" x="260.26473849" y="34.0757112658" /><rect fill="#008000" height="6.0807041145" stroke="white" stroke-width="1" width="19.7352615104" x="260.26473849" y="54.7501052551" /><rect fill="#008000" height="15.8297112514" stroke="white" stroke-width="1" width="19.7104759714" x="211.150849049" y="60.8308093696" /><rect fill="#008000" height="7.30602057758" stroke="white" stroke-width="1" width="19.7104759714" x="211.150849049" y="76.660520621" /><rect fill="#008000" height="14.6120411552" stroke="white" stroke-width="1" width="19.7104759714" x="211.150849049" y="83.9665411986" /><rect fill="#008000" height="14.3076236311" stroke="white" stroke-width="1" width="19.7104759714" x="211.150849049" y="98.5785823537" /><rect fill="#ea4c00" height="13.3943710589" stroke="white" stroke-width="1" width="19.7104759714" x="211.150849049" y="112.886205985" /><rect fill="#59a300" height="12.8213164287" stroke="white" stroke-width="1" width="17.3155330881" x="230.86132502" y="60.8308093696" /><rect fill="#198c00" height="12.8213164287" stroke="white" stroke-width="1" width="16.3795583266" x="248.176858108" y="60.8308093696" /><rect fill="#f00" height="12.8213164287" stroke="white" stroke-width="1" width="15.4435835651" x="264.556416435" y="60.8308093696" /><rect fill="#008000" height="14.8971486124" stroke="white" stroke-width="1" width="12.8888327816" x="230.86132502" y="73.6521257983" /><rect fill="#d29500" height="14.8971486124" stroke="white" stroke-width="1" width="12.4860567572" x="243.750157802" y="73.6521257983" /><rect fill="#1c8d00" height="14.8971486124" stroke="white" stroke-width="1" width="12.4860567572" x="256.236214559" y="73.6521257983" /><rect fill="#fa1400" height="14.8971486124" stroke="white" stroke-width="1" width="11.2777286839" x="268.722271316" y="73.6521257983" /><rect fill="#008000" height="12.7705947373" stroke="white" stroke-width="1" width="10.336614478" x="230.86132502" y="88.5492744107" /><rect fill="#cda100" height="12.7705947373" stroke="white" stroke-width="1" width="10.336614478" x="230.86132502" y="101.319869148" /><rect fill="#008000" height="12.1901131584" stroke="white" stroke-width="1" width="10.336614478" x="230.86132502" y="114.090463885" /><rect fill="#008000" height="11.3193907899" stroke="white" stroke-width="1" width="11.1317386686" x="241.197939498" y="88.5492744107" /><rect fill="#008000" height="9.70233496278" stroke="white" stroke-width="1" width="11.1317386686" x="241.197939498" y="99.8686652006" /><rect fill="#008000" height="8.62429774469" stroke="white" stroke-width="1" width="11.1317386686" x="241.197939498" y="109.571000163" /><rect fill="#008000" height="8.08527913565" stroke="white" stroke-width="1" width="11.1317386686" x="241.197939498" y="118.195297908" /><rect fill="#008000" height="9.10755580797" stroke="white" stroke-width="1" width="9.2234406111" x="252.329678167" y="88.5492744107" /><rect fill="#008000" height="9.10755580797" stroke="white" stroke-width="1" width="9.2234406111" x="261.553118778" y="88.5492744107" /><rect fill="#008000" height="9.10755580797" stroke="white" stroke-width="1" width="9.2234406111" x="270.776559389" y="88.5492744107" /><rect fill="#008000" height="8.02332297369" stroke="white" stroke-width="1" width="9.72200496846" x="252.329678167" y="97.6568302186" /><rect fill="#c7b000" height="8.02332297369" stroke="white" stroke-width="1" width="8.97415843242" x="262.051683135" y="97.6568302186" /><rect fill="#f00" height="8.02332297369" stroke="white" stroke-width="1" width="8.97415843242" x="271.025841568" y="97.6568302186" /><rect fill="#008000" height="7.49106321868" stroke="white" stroke-width="1" width="9.61179600525" x="252.329678167" y="105.680153192" /><rect fill="#008000" height="6.86680795046" stroke="white" stroke-width="1" width="9.61179600525" x="252.329678167" y="113.171216411" /><rect fill="#008000" height="6.24255268223" stroke="white" stroke-width="1" width="9.61179600525" x="252.329678167" y="120.038024361" /><rect fill="#008000" height="6.64529801657" stroke="white" stroke-width="1" width="9.02926291403" x="261.941474172" y="105.680153192" /><rect fill="#008000" height="6.64529801657" stroke="white" stroke-width="1" width="9.02926291403" x="270.970737086" y="105.680153192" /><rect fill="#008000" height="6.9775629174" stroke="white" stroke-width="1" width="6.87943841069" x="261.941474172" y="112.325451209" /><rect fill="#f00" height="6.9775629174" stroke="white" stroke-width="1" width="6.87943841069" x="261.941474172" y="119.303014126" /><rect fill="#008000" height="7.51429852643" stroke="white" stroke-width="1" width="6.38804995278" x="268.820912583" y="112.325451209" /><rect fill="#008000" height="7.51429852643" stroke="white" stroke-width="1" width="4.79103746459" x="275.208962535" y="112.325451209" /><rect fill="#008000" height="6.44082730837" stroke="white" stroke-width="1" width="3.72636247246" x="268.820912583" y="119.839749735" /><rect fill="#ea4c00" height="6.44082730837" stroke="white" stroke-width="1" width="3.72636247246" x="272.547275055" y="119.839749735" /><rect fill="#008000" height="6.44082730837" stroke="white" stroke-width="1" width="3.72636247246" x="276.273637528" y="119.839749735" /><rect fill="#008000" height="32.7076687456" stroke="white" stroke-width="1" width="39.8085999888" x="136.504875174" y="126.280577044" /><rect fill="#1c8d00" height="32.7076687456" stroke="white" stroke-width="1" width="22.7477714222" x="176.313475163" y="126.280577044" /><rect fill="#459c00" height="15.8994482992" stroke="white" stroke-width="1" width="22.6431037623" x="136.504875174" y="158.988245789" /><rect fill="#008000" height="15.3694666892" stroke="white" stroke-width="1" width="22.6431037623" x="136.504875174" y="174.887694089" /><rect fill="#008000" height="17.4738054347" stroke="white" stroke-width="1" width="13.0485682698" x="159.147978936" y="158.988245789" /><rect fill="#008000" height="13.7951095537" stroke="white" stroke-width="1" width="13.0485682698" x="159.147978936" y="176.462051224" /><rect fill="#c9ab00" height="9.60402388931" stroke="white" stroke-width="1" width="14.3694903655" x="172.196547206" y="158.988245789" /><rect fill="#d58e00" height="9.60402388931" stroke="white" stroke-width="1" width="12.4952090135" x="186.566037572" y="158.988245789" /><rect fill="#008000" height="10.8324455496" stroke="white" stroke-width="1" width="10.5243152206" x="172.196547206" y="168.592269679" /><rect fill="#f00" height="10.8324455496" stroke="white" stroke-width="1" width="10.5243152206" x="172.196547206" y="179.424715228" /><rect fill="#008000" height="12.1176509538" stroke="white" stroke-width="1" width="8.91293681364" x="182.720862427" y="168.592269679" /><rect fill="#008000" height="12.1176509538" stroke="white" stroke-width="1" width="7.4274473447" x="191.63379924" y="168.592269679" /><rect fill="#008000" height="9.54724014539" stroke="white" stroke-width="1" width="7.54171576539" x="182.720862427" y="180.709920632" /><rect fill="#008000" height="8.18334869605" stroke="white" stroke-width="1" width="8.79866839295" x="190.262578192" y="180.709920632" /><rect fill="#008000" height="1.36389144934" stroke="white" stroke-width="1" width="8.79866839295" x="190.262578192" y="188.893269328" /><rect fill="#f00" height="32.1946679436" stroke="white" stroke-width="1" width="16.7735628567" x="199.061246585" y="126.280577044" /><rect fill="#339600" height="14.3087413083" stroke="white" stroke-width="1" width="16.3542237853" x="215.834809442" y="126.280577044" /><rect fill="#f00" height="14.3087413083" stroke="white" stroke-width="1" width="10.4834767855" x="232.189033227" y="126.280577044" /><rect fill="#f00" height="9.27418418128" stroke="white" stroke-width="1" width="9.05772394263" x="215.834809442" y="140.589318352" /><rect fill="#f00" height="8.61174245405" stroke="white" stroke-width="1" width="9.05772394263" x="215.834809442" y="149.863502533" /><rect fill="#f00" height="6.07446564973" stroke="white" stroke-width="1" width="8.88998831406" x="224.892533384" y="140.589318352" /><rect fill="#f00" height="6.07446564973" stroke="white" stroke-width="1" width="8.88998831406" x="233.782521699" y="140.589318352" /><rect fill="#f00" height="7.51638426356" stroke="white" stroke-width="1" width="5.58799265455" x="224.892533384" y="146.663784002" /><rect fill="#ea4c00" height="4.29507672203" stroke="white" stroke-width="1" width="5.58799265455" x="224.892533384" y="154.180168265" /><rect fill="#ea4c00" height="5.9057304928" stroke="white" stroke-width="1" width="4.06399465786" x="230.480526039" y="146.663784002" /><rect fill="#ea4c00" height="5.9057304928" stroke="white" stroke-width="1" width="4.06399465786" x="230.480526039" y="152.569514494" /><rect fill="#ea4c00" height="5.9057304928" stroke="white" stroke-width="1" width="4.06399465786" x="234.544520697" y="146.663784002" /><rect fill="#ea4c00" height="5.9057304928" stroke="white" stroke-width="1" width="4.06399465786" x="238.608515355" y="146.663784002" /><rect fill="#008000" height="5.9057304928" stroke="white" stroke-width="1" width="4.06399465786" x="234.544520697" y="152.569514494" /><rect fill="#ea4c00" height="5.9057304928" stroke="white" stroke-width="1" width="4.06399465786" x="238.608515355" y="152.569514494" /><rect fill="#008000" height="31.7819157905" stroke="white" stroke-width="1" width="27.5638288329" x="199.061246585" y="158.475244987" /><rect fill="#008000" height="26.9928599864" stroke="white" stroke-width="1" width="13.7819144165" x="226.625075418" y="158.475244987" /><rect fill="#f00" height="4.78905580404" stroke="white" stroke-width="1" width="11.2761117953" x="226.625075418" y="185.468104974" /><rect fill="#008000" height="4.78905580404" stroke="white" stroke-width="1" width="2.50580262118" x="237.901187213" y="185.468104974" /><rect fill="#008000" height="13.2424649127" stroke="white" stroke-width="1" width="2.26552017805" x="240.406989835" y="158.475244987" /><rect fill="#008000" height="10.5939719302" stroke="white" stroke-width="1" width="2.26552017805" x="240.406989835" y="171.7177099" /><rect fill="#008000" height="7.94547894762" stroke="white" stroke-width="1" width="2.26552017805" x="240.406989835" y="182.31168183" /><rect fill="#269100" height="28.7733881618" stroke="white" stroke-width="1" width="37.3274899874" x="242.672510013" y="126.280577044" /><rect fill="#dc7800" height="35.2031955723" stroke="white" stroke-width="1" width="28.9756771592" x="242.672510013" y="155.053965205" /><rect fill="#76ac00" height="35.2031955723" stroke="white" stroke-width="1" width="8.35181282823" x="271.648187172" y="155.053965205" /><rect fill="#f00" height="9.74283922225" stroke="white" stroke-width="1" width="136.104817968" x="136.504875174" y="190.257160778" /><rect fill="#008000" height="9.74283922225" stroke="white" stroke-width="1" width="7.39030685798" x="272.609693142" y="190.257160778" /></svg>
